<svg width="48" height="48" viewBox="0 0 48 48" fill="none" xmlns="http://www.w3.org/2000/svg">
    <symbol id="arrow-right">
        <path
            d="M7.115 19.345C6.62623 19.8338 6.62623 20.6262 7.115 21.115C7.60377 21.6038 8.39623 21.6038 8.885 21.115L17.2929 12.7071C17.6834 12.3166 17.6834 11.6834 17.2929 11.2929L8.885 2.885C8.39623 2.39623 7.60377 2.39623 7.115 2.885C6.62623 3.37377 6.62623 4.16623 7.115 4.655L14.46 12L7.115 19.345Z"
            fill="currentColor"/>
    </symbol>

    <symbol id="arrow-left">
        <path
            d="M16.885 4.655C17.3738 4.16623 17.3738 3.37377 16.885 2.885C16.3962 2.39623 15.6038 2.39623 15.115 2.885L6.70711 11.2929C6.31658 11.6834 6.31658 12.3166 6.70711 12.7071L15.115 21.115C15.6038 21.6038 16.3962 21.6038 16.885 21.115C17.3738 20.6262 17.3738 19.8338 16.885 19.345L9.54 12L16.885 4.655Z"
            fill="currentColor"/>
    </symbol>

    <symbol id="arrow-down">
        <path
            d="M4.77023 6.99977C4.28146 6.51099 3.48901 6.51099 3.00023 6.99977C2.51146 7.48854 2.51146 8.28099 3.00023 8.76977L11.4081 17.1777C11.7987 17.5682 12.4318 17.5682 12.8223 17.1777L21.2302 8.76976C21.719 8.28099 21.719 7.48854 21.2302 6.99976C20.7415 6.51099 19.949 6.51099 19.4602 6.99976L12.1152 14.3448L4.77023 6.99977Z"
            fill="currentColor"/>
    </symbol>

    <symbol id="arrow-up">
        <path
            d="M19.2299 17.0001C19.7187 17.4889 20.5111 17.4889 20.9999 17.0001C21.4887 16.5113 21.4887 15.7189 20.9999 15.2301L12.592 6.82219C12.2015 6.43167 11.5683 6.43167 11.1778 6.82219L2.7699 15.2301C2.28113 15.7189 2.28113 16.5113 2.7699 17.0001C3.25867 17.4889 4.05113 17.4889 4.5399 17.0001L11.8849 9.65508L19.2299 17.0001Z"
            fill="currentColor"/>
    </symbol>

    <symbol id="arrow-down-outlined">
        <path
            d="M8.37812 13.5781L13.5016 7.675C13.5406 7.62969 13.5625 7.57188 13.5625 7.51094L13.5625 6.12812C13.5625 6.0125 13.4187 5.95937 13.3437 6.04687L8.59375 11.5187L8.59375 2.375C8.59375 2.30625 8.5375 2.25 8.46875 2.25L7.53125 2.25C7.4625 2.25 7.40625 2.30625 7.40625 2.375L7.40625 11.5172L2.65625 6.04531C2.57969 5.95781 2.4375 6.01094 2.4375 6.12656L2.4375 7.55625C2.4375 7.58594 2.44844 7.61562 2.46875 7.6375L7.62187 13.5781C7.66891 13.6322 7.72701 13.6756 7.79224 13.7053C7.85747 13.735 7.92832 13.7504 8 13.7504C8.07168 13.7504 8.14253 13.735 8.20776 13.7053C8.27299 13.6756 8.33109 13.6322 8.37812 13.5781Z"
            fill="currentColor"/>
    </symbol>

    <symbol id="arrow-right-outlined">
        <path
            d="M13.5781 7.62187L7.675 2.49844C7.62969 2.45937 7.57188 2.4375 7.51094 2.4375H6.12812C6.0125 2.4375 5.95937 2.58125 6.04687 2.65625L11.5187 7.40625H2.375C2.30625 7.40625 2.25 7.4625 2.25 7.53125V8.46875C2.25 8.5375 2.30625 8.59375 2.375 8.59375H11.5172L6.04531 13.3438C5.95781 13.4203 6.01094 13.5625 6.12656 13.5625H7.55625C7.58594 13.5625 7.61562 13.5516 7.6375 13.5312L13.5781 8.37813C13.6322 8.33109 13.6756 8.27299 13.7053 8.20776C13.735 8.14253 13.7504 8.07168 13.7504 8C13.7504 7.92832 13.735 7.85747 13.7053 7.79224C13.6756 7.72701 13.6322 7.66891 13.5781 7.62187Z"
            fill="currentColor"/>
    </symbol>

    <symbol id="arrow-right-bg">
        <rect width="24" height="24" rx="12"/>
        <path
            d="M16.9581 11.664L11.7109 7.10983C11.6706 7.07511 11.6192 7.05566 11.5651 7.05566H10.3359C10.2331 7.05566 10.1859 7.18344 10.2637 7.25011L15.1276 11.4723H6.99978C6.93867 11.4723 6.88867 11.5223 6.88867 11.5834V12.4168C6.88867 12.4779 6.93867 12.5279 6.99978 12.5279H15.1262L10.2623 16.7501C10.1845 16.8182 10.2317 16.9446 10.3345 16.9446H11.6053C11.6317 16.9446 11.6581 16.9348 11.6776 16.9168L16.9581 12.3362C17.0062 12.2944 17.0447 12.2428 17.0712 12.1848C17.0976 12.1268 17.1113 12.0638 17.1113 12.0001C17.1113 11.9364 17.0976 11.8734 17.0712 11.8154C17.0447 11.7574 17.0062 11.7058 16.9581 11.664Z"
            fill="currentColor"/>
    </symbol>

    <symbol id="arrow-left-bg">
        <rect width="24" height="24" rx="12"/>
        <path
            d="M7.04181 12.3362L12.289 16.8904C12.3293 16.9251 12.3807 16.9446 12.4349 16.9446H13.664C13.7668 16.9446 13.814 16.8168 13.7363 16.7501L8.87237 12.5279H17.0001C17.0613 12.5279 17.1113 12.4779 17.1113 12.4168V11.5834C17.1113 11.5223 17.0613 11.4723 17.0001 11.4723H8.87376L13.7376 7.25011C13.8154 7.18205 13.7682 7.05566 13.6654 7.05566H12.3946C12.3682 7.05566 12.3418 7.06539 12.3224 7.08344L7.04181 11.664C6.99373 11.7058 6.95518 11.7574 6.92876 11.8154C6.90234 11.8734 6.88867 11.9364 6.88867 12.0001C6.88867 12.0638 6.90234 12.1268 6.92876 12.1848C6.95518 12.2428 6.99373 12.2944 7.04181 12.3362Z"
            fill="currentColor"/>
    </symbol>

    <symbol id="arrow-down-bg">
        <rect width="24" height="24" rx="12"/>
        <path
            d="M12.336 16.9581L16.8902 11.7109C16.9249 11.6706 16.9443 11.6192 16.9443 11.5651L16.9443 10.3359C16.9443 10.2331 16.8166 10.1859 16.7499 10.2637L12.5277 15.1276L12.5277 6.99978C12.5277 6.93867 12.4777 6.88867 12.4166 6.88867L11.5832 6.88867C11.5221 6.88867 11.4721 6.93867 11.4721 6.99978L11.4721 15.1262L7.24989 10.2623C7.18184 10.1845 7.05545 10.2317 7.05545 10.3345L7.05545 11.6053C7.05545 11.6317 7.06517 11.6581 7.08322 11.6776L11.6638 16.9581C11.7056 17.0062 11.7572 17.0447 11.8152 17.0712C11.8732 17.0976 11.9362 17.1113 11.9999 17.1113C12.0636 17.1113 12.1266 17.0976 12.1846 17.0712C12.2426 17.0447 12.2942 17.0062 12.336 16.9581Z"
            fill="currentColor"/>
    </symbol>

    <symbol id="arrow-dropdown">
        <path
            d="M8.20711 10C7.76165 10 7.53857 10.5386 7.85355 10.8536L11.6464 14.6464C11.8417 14.8417 12.1583 14.8417 12.3536 14.6464L16.1464 10.8536C16.4614 10.5386 16.2383 10 15.7929 10H8.20711Z"
            fill="currentColor"/>
    </symbol>

    <symbol id="arrow-dropdown-up">
        <path d="M8.20711 14C7.76165 14 7.53857 13.4614 7.85355 13.1464L11.6464 9.35355C11.8417 9.15829 12.1583 9.15829 12.3536 9.35355L16.1464 13.1464C16.4614 13.4614 16.2383 14 15.7929 14H8.20711Z" fill="currentColor"/>
    </symbol>

    <symbol id="arrow-change">
        <path
            d="M15.7928 9.89641C16.2383 9.89641 16.4614 9.35784 16.1464 9.04286L12.3535 5.24996C12.1582 5.0547 11.8417 5.0547 11.6464 5.24996L7.8535 9.04286C7.53852 9.35784 7.76161 9.89641 8.20706 9.89641L15.7928 9.89641Z"
            fill="currentColor"/>
        <path
            d="M8.20711 13.8965C7.76165 13.8965 7.53857 14.4351 7.85355 14.75L11.6464 18.5429C11.8417 18.7382 12.1583 18.7382 12.3536 18.5429L16.1464 14.75C16.4614 14.4351 16.2383 13.8965 15.7929 13.8965H8.20711Z"
            fill="currentColor"/>
    </symbol>
</svg>
