<svg xmlns="http://www.w3.org/2000/svg">
    <symbol id="alert-info">
        <rect x="2" y="2" width="20" height="20" rx="10" fill="#F7D9DB"/>
        <path
            d="M11 8C11 7.44772 11.4477 7 12 7C12.5523 7 13 7.44772 13 8C13 8.55228 12.5523 9 12 9C11.4477 9 11 8.55228 11 8ZM11 11C11 10.4477 11.4477 10 12 10C12.5523 10 13 10.4477 13 11V16C13 16.5523 12.5523 17 12 17C11.4477 17 11 16.5523 11 16V11ZM12 2C6.48 2 2 6.48 2 12C2 17.52 6.48 22 12 22C17.52 22 22 17.52 22 12C22 6.48 17.52 2 12 2ZM12 20C7.59 20 4 16.41 4 12C4 7.59 7.59 4 12 4C16.41 4 20 7.59 20 12C20 16.41 16.41 20 12 20Z"
            fill="#C7000D"/>
    </symbol>

    <symbol id="answer-latter">
        <circle cx="14" cy="14" r="14" fill="#E5413C"/>
        <path
            d="M14.3005 8.97459L10.5379 19H9L13.3326 8H14.324L14.3005 8.97459ZM17.4543 19L13.6838 8.97459L13.6604 8H14.6518L19 19H17.4543ZM17.2592 14.9279V16.1216H10.8735V14.9279H17.2592Z"
            fill="white"/>
    </symbol>

    <symbol id="bell">
        <path
            opacity="0.15"
            d="M14.0003 3.5C10.1343 3.5 7.00033 6.63401 7.00033 10.5C7.00033 15.1667 4.66699 19.8333 4.66699 19.8333H23.3337C23.3337 19.8333 21.0003 15.1667 21.0003 10.5C21.0003 6.63401 17.8663 3.5 14.0003 3.5Z"
            fill="#E5413C"/>
        <path
            d="M16.4752 23.4749L17.0055 24.0052L16.4752 23.4749ZM15.3397 24.2336L15.0527 23.5407L15.3397 24.2336ZM12.6609 24.2336L12.3739 24.9265L12.6609 24.2336ZM11.5255 23.4749L10.9951 24.0052H10.9951L11.5255 23.4749ZM10.7667 22.3394L10.0738 22.6264L10.7667 22.3394ZM11.2503 19.8333C11.2503 19.4191 10.9145 19.0833 10.5003 19.0833C10.0861 19.0833 9.75033 19.4191 9.75033 19.8333H11.2503ZM18.2503 19.8333C18.2503 19.4191 17.9145 19.0833 17.5003 19.0833C17.0861 19.0833 16.7503 19.4191 16.7503 19.8333H18.2503ZM23.3337 19.8333V20.5833C23.5825 20.5833 23.8152 20.4599 23.9547 20.2538C24.0942 20.0477 24.1224 19.7859 24.03 19.5548L23.3337 19.8333ZM4.66699 19.8333L3.99617 19.4979C3.87993 19.7304 3.89235 20.0065 4.029 20.2276C4.16566 20.4487 4.40706 20.5833 4.66699 20.5833V19.8333ZM16.7503 21C16.7503 21.3611 16.6792 21.7187 16.541 22.0524L17.9268 22.6264C18.1404 22.1108 18.2503 21.5581 18.2503 21H16.7503ZM16.541 22.0524C16.4028 22.386 16.2002 22.6892 15.9449 22.9445L17.0055 24.0052C17.4002 23.6106 17.7132 23.142 17.9268 22.6264L16.541 22.0524ZM15.9449 22.9445C15.6895 23.1999 15.3864 23.4025 15.0527 23.5407L15.6267 24.9265C16.1424 24.7129 16.6109 24.3999 17.0055 24.0052L15.9449 22.9445ZM15.0527 23.5407C14.7191 23.6789 14.3615 23.75 14.0003 23.75V25.25C14.5584 25.25 15.1111 25.1401 15.6267 24.9265L15.0527 23.5407ZM14.0003 23.75C13.6392 23.75 13.2816 23.6789 12.9479 23.5407L12.3739 24.9265C12.8896 25.1401 13.4422 25.25 14.0003 25.25V23.75ZM12.9479 23.5407C12.6143 23.4025 12.3111 23.1999 12.0558 22.9445L10.9951 24.0052C11.3898 24.3999 11.8583 24.7129 12.3739 24.9265L12.9479 23.5407ZM12.0558 22.9445C11.8004 22.6892 11.5979 22.386 11.4597 22.0524L10.0738 22.6264C10.2874 23.142 10.6005 23.6106 10.9951 24.0052L12.0558 22.9445ZM11.4597 22.0524C11.3215 21.7187 11.2503 21.3611 11.2503 21H9.75033C9.75033 21.5581 9.86025 22.1108 10.0738 22.6264L11.4597 22.0524ZM11.2503 21V19.8333H9.75033V21H11.2503ZM18.2503 21V19.8333H16.7503V21H18.2503ZM20.2503 10.5C20.2503 12.3722 20.8655 14.7996 21.4502 16.6997C21.7464 17.6625 22.0423 18.5133 22.2642 19.1235C22.3753 19.4288 22.4679 19.6745 22.5331 19.8444C22.5657 19.9294 22.5915 19.9956 22.6092 20.0408C22.6181 20.0634 22.625 20.0808 22.6297 20.0927C22.6321 20.0987 22.6339 20.1033 22.6352 20.1065C22.6358 20.1081 22.6363 20.1093 22.6367 20.1102C22.6368 20.1107 22.637 20.1111 22.6371 20.1113C22.6371 20.1115 22.6372 20.1116 22.6372 20.1117C22.6373 20.1118 22.6373 20.1119 23.3337 19.8333C24.03 19.5548 24.03 19.5548 24.03 19.5549C24.03 19.5548 24.03 19.5548 24.03 19.5548C24.03 19.5547 24.0299 19.5546 24.0298 19.5543C24.0296 19.5538 24.0293 19.5529 24.0288 19.5517C24.0278 19.5493 24.0263 19.5454 24.0242 19.5403C24.0201 19.5299 24.0139 19.5141 24.0057 19.4932C23.9892 19.4512 23.9649 19.3886 23.9337 19.3073C23.8712 19.1445 23.7816 18.9071 23.6739 18.6109C23.4583 18.0179 23.1709 17.1916 22.8838 16.2586C22.3018 14.3671 21.7503 12.1278 21.7503 10.5H20.2503ZM4.66699 19.8333C5.33781 20.1687 5.33789 20.1686 5.33797 20.1684C5.33801 20.1683 5.3381 20.1682 5.33818 20.168C5.33834 20.1677 5.33853 20.1673 5.33876 20.1668C5.33922 20.1659 5.33982 20.1647 5.34056 20.1632C5.34203 20.1602 5.34406 20.1561 5.34663 20.1509C5.35176 20.1405 5.35904 20.1256 5.36832 20.1065C5.38687 20.0681 5.41345 20.0125 5.44689 19.9409C5.51376 19.7976 5.60818 19.5898 5.72093 19.3267C5.94628 18.8009 6.24577 18.052 6.54517 17.1538C7.14098 15.3664 7.75033 12.9468 7.75033 10.5H6.25033C6.25033 12.7199 5.693 14.9669 5.12215 16.6795C4.83822 17.5313 4.55437 18.2408 4.34222 18.7358C4.23622 18.9831 4.14835 19.1764 4.08761 19.3065C4.05726 19.3716 4.0337 19.4208 4.01808 19.4531C4.01027 19.4693 4.00444 19.4812 4.00074 19.4887C3.99889 19.4924 3.99758 19.4951 3.99681 19.4966C3.99642 19.4974 3.99618 19.4979 3.99607 19.4981C3.99602 19.4982 3.996 19.4983 3.99602 19.4982C3.99602 19.4982 3.99606 19.4981 3.99607 19.4981C3.99611 19.498 3.99617 19.4979 4.66699 19.8333ZM23.3337 19.0833H4.66699V20.5833H23.3337V19.0833ZM14.0003 2.75C9.77345 2.75 6.25033 6.27312 6.25033 10.5H7.75033C7.75033 7.10154 10.6019 4.25 14.0003 4.25V2.75ZM21.7503 10.5C21.7503 6.27312 18.2272 2.75 14.0003 2.75V4.25C17.3988 4.25 20.2503 7.10155 20.2503 10.5H21.7503Z"
            fill="#E5413C"/>
    </symbol>

    <symbol id="book">
        <path
            d="M18 11C18 9.93913 18.4214 8.92172 19.1716 8.17157C19.9217 7.42143 20.9391 7 22 7H30C30.2652 7 30.5196 7.10536 30.7071 7.29289C30.8946 7.48043 31 7.73478 31 8V24C31 24.2652 30.8946 24.5196 30.7071 24.7071C30.5196 24.8946 30.2652 25 30 25H22C20.9391 25 19.9217 25.4214 19.1716 26.1716C18.4214 26.9217 18 27.9391 18 29"
            fill="#EB504B" fill-opacity="0.3"/>
        <path
            d="M16 11C16 9.93913 16.4214 8.92172 17.1716 8.17157C17.9217 7.42143 18.9391 7 20 7H28C28.2652 7 28.5196 7.10536 28.7071 7.29289C28.8946 7.48043 29 7.73478 29 8V24C29 24.2652 28.8946 24.5196 28.7071 24.7071C28.5196 24.8946 28.2652 25 28 25H20C18.9391 25 17.9217 25.4214 17.1716 26.1716C16.4214 26.9217 16 27.9391 16 29"
            stroke="#EB504B" stroke-width="1.5" stroke-linecap="round" stroke-linejoin="round"/>
        <path
            d="M3 24C3 24.2652 3.10536 24.5196 3.29289 24.7071C3.48043 24.8946 3.73478 25 4 25H12C13.0609 25 14.0783 25.4214 14.8284 26.1716C15.5786 26.9217 16 27.9391 16 29V11C16 9.93913 15.5786 8.92172 14.8284 8.17157C14.0783 7.42143 13.0609 7 12 7H4C3.73478 7 3.48043 7.10536 3.29289 7.29289C3.10536 7.48043 3 7.73478 3 8V24Z"
            stroke="#EB504B" stroke-width="1.5" stroke-linecap="round" stroke-linejoin="round"/>
    </symbol>
    <symbol id="book-stroke">
        <path
            d="M12 8.25C12 7.45435 12.3161 6.69129 12.8787 6.12868C13.4413 5.56607 14.2044 5.25 15 5.25H21C21.1989 5.25 21.3897 5.32902 21.5303 5.46967C21.671 5.61032 21.75 5.80109 21.75 6V18C21.75 18.1989 21.671 18.3897 21.5303 18.5303C21.3897 18.671 21.1989 18.75 21 18.75H15C14.2044 18.75 13.4413 19.0661 12.8787 19.6287C12.3161 20.1913 12 20.9544 12 21.75M12 8.25V21.75M12 8.25C12 7.45435 11.6839 6.69129 11.1213 6.12868C10.5587 5.56607 9.79565 5.25 9 5.25H3C2.80109 5.25 2.61032 5.32902 2.46967 5.46967C2.32902 5.61032 2.25 5.80109 2.25 6V18C2.25 18.1989 2.32902 18.3897 2.46967 18.5303C2.61032 18.671 2.80109 18.75 3 18.75H9C9.79565 18.75 10.5587 19.0661 11.1213 19.6287C11.6839 20.1913 12 20.9544 12 21.75"
            stroke="white" stroke-width="1.5" stroke-linecap="round" stroke-linejoin="round"/>
    </symbol>

    <symbol id="briefcase">
        <path
            d="M16.7497 16C16.7497 15.5858 16.4139 15.25 15.9997 15.25C15.5855 15.25 15.2497 15.5858 15.2497 16H16.7497ZM15.2497 21.3333C15.2497 21.7475 15.5855 22.0833 15.9997 22.0833C16.4139 22.0833 16.7497 21.7475 16.7497 21.3333H15.2497ZM19.2497 8C19.2497 8.41421 19.5855 8.75 19.9997 8.75C20.4139 8.75 20.7497 8.41421 20.7497 8H19.2497ZM11.2497 8C11.2497 8.41421 11.5855 8.75 11.9997 8.75C12.4139 8.75 12.7497 8.41421 12.7497 8H11.2497ZM16.7497 18.6667V16H15.2497V18.6667H16.7497ZM15.2497 18.6667V21.3333H16.7497V18.6667H15.2497ZM23.9997 25.9167H7.99967V27.4167H23.9997V25.9167ZM7.99967 25.9167C6.94113 25.9167 6.08301 25.0585 6.08301 24H4.58301C4.58301 25.887 6.1127 27.4167 7.99967 27.4167V25.9167ZM25.9163 24C25.9163 25.0585 25.0582 25.9167 23.9997 25.9167V27.4167C25.8866 27.4167 27.4163 25.887 27.4163 24H25.9163ZM27.4163 24V16H25.9163V24H27.4163ZM4.58301 16V24H6.08301V16H4.58301ZM7.99967 8.75H23.9997V7.25H7.99967V8.75ZM7.99967 17.9167C6.94113 17.9167 6.08301 17.0585 6.08301 16H4.58301C4.58301 17.887 6.1127 19.4167 7.99967 19.4167V17.9167ZM25.9163 16C25.9163 17.0585 25.0582 17.9167 23.9997 17.9167V19.4167C25.8866 19.4167 27.4163 17.887 27.4163 16H25.9163ZM23.9997 8.75C25.0582 8.75 25.9163 9.60812 25.9163 10.6667H27.4163C27.4163 8.77969 25.8866 7.25 23.9997 7.25V8.75ZM7.99967 7.25C6.1127 7.25 4.58301 8.77969 4.58301 10.6667H6.08301C6.08301 9.60812 6.94113 8.75 7.99967 8.75V7.25ZM23.9997 17.9167H15.9997V19.4167H23.9997V17.9167ZM15.9997 17.9167H7.99967V19.4167H15.9997V17.9167ZM27.4163 16V10.6667H25.9163V16H27.4163ZM4.58301 10.6667V16H6.08301V10.6667H4.58301ZM20.7497 8V6.66667H19.2497V8H20.7497ZM17.333 3.25H14.6663V4.75H17.333V3.25ZM11.2497 6.66667V8H12.7497V6.66667H11.2497ZM14.6663 3.25C12.7794 3.25 11.2497 4.77969 11.2497 6.66667H12.7497C12.7497 5.60812 13.6078 4.75 14.6663 4.75V3.25ZM20.7497 6.66667C20.7497 4.77969 19.22 3.25 17.333 3.25V4.75C18.3916 4.75 19.2497 5.60812 19.2497 6.66667H20.7497Z"
            fill="#E5413C"/>
    </symbol>

    <symbol id="calculator">
        <path
            d="M22 8H10V14H22V8Z"
            stroke="#E5413C" stroke-width="1.5" stroke-linecap="round" stroke-linejoin="round"/>
        <path
            d="M26 27V5C26 4.44772 25.5523 4 25 4L7 4C6.44772 4 6 4.44772 6 5V27C6 27.5523 6.44772 28 7 28H25C25.5523 28 26 27.5523 26 27Z"
            stroke="#E5413C" stroke-width="1.5" stroke-linecap="round" stroke-linejoin="round"/>
        <path
            d="M11 19.5C11.5523 19.5 12 19.0523 12 18.5C12 17.9477 11.5523 17.5 11 17.5C10.4477 17.5 10 17.9477 10 18.5C10 19.0523 10.4477 19.5 11 19.5Z"
            fill="#E5413C"/>
        <path
            d="M16 19.5C16.5523 19.5 17 19.0523 17 18.5C17 17.9477 16.5523 17.5 16 17.5C15.4477 17.5 15 17.9477 15 18.5C15 19.0523 15.4477 19.5 16 19.5Z"
            fill="#E5413C"/>
        <path
            d="M21 19.5C21.5523 19.5 22 19.0523 22 18.5C22 17.9477 21.5523 17.5 21 17.5C20.4477 17.5 20 17.9477 20 18.5C20 19.0523 20.4477 19.5 21 19.5Z"
            fill="#E5413C"/>
        <path
            d="M11 24.5C11.5523 24.5 12 24.0523 12 23.5C12 22.9477 11.5523 22.5 11 22.5C10.4477 22.5 10 22.9477 10 23.5C10 24.0523 10.4477 24.5 11 24.5Z"
            fill="#E5413C"/>
        <path
            d="M16 24.5C16.5523 24.5 17 24.0523 17 23.5C17 22.9477 16.5523 22.5 16 22.5C15.4477 22.5 15 22.9477 15 23.5C15 24.0523 15.4477 24.5 16 24.5Z"
            fill="#E5413C"/>
        <path
            d="M21 24.5C21.5523 24.5 22 24.0523 22 23.5C22 22.9477 21.5523 22.5 21 22.5C20.4477 22.5 20 22.9477 20 23.5C20 24.0523 20.4477 24.5 21 24.5Z"
            fill="#E5413C"/>
    </symbol>

    <symbol id="card">
        <path
            d="M5 6C5 5.44772 5.44772 5 6 5H30C30.5523 5 31 5.44772 31 6V10H5V6Z" fill="#EB504B" fill-opacity="0.3"/>
        <path
            d="M28 7H4C3.44772 7 3 7.44772 3 8V24C3 24.5523 3.44772 25 4 25H28C28.5523 25 29 24.5523 29 24V8C29 7.44772 28.5523 7 28 7Z"
            stroke="#E5413C" stroke-width="1.5" stroke-linecap="round" stroke-linejoin="round"/>
        <path
            d="M21 21H25" stroke="#E5413C" stroke-width="1.5" stroke-linecap="round" stroke-linejoin="round"/>
        <path
            d="M15 21H17" stroke="#E5413C" stroke-width="1.5" stroke-linecap="round" stroke-linejoin="round"/>
        <path
            d="M3 12.1123H29" stroke="#E5413C" stroke-width="1.5" stroke-linecap="round" stroke-linejoin="round"/>
    </symbol>

    <symbol id="chart-line">
        <path
            d="M28 26H4V6" stroke="currentColor" stroke-width="1.5" stroke-linecap="round" stroke-linejoin="round"/>
        <path
            d="M28 12L20 19L12 13L4 20" stroke="currentColor" stroke-width="1.5" stroke-linecap="round"
            stroke-linejoin="round"/>
    </symbol>

    <symbol id="chart-vertical">
        <path
            d="M5.33301 5.33301V4.58301C4.91879 4.58301 4.58301 4.91879 4.58301 5.33301H5.33301ZM26.6663 5.33301H27.4163C27.4163 4.91879 27.0806 4.58301 26.6663 4.58301V5.33301ZM26.6663 26.6663V27.4163C27.0806 27.4163 27.4163 27.0806 27.4163 26.6663H26.6663ZM5.33301 26.6663H4.58301C4.58301 27.0806 4.91879 27.4163 5.33301 27.4163V26.6663ZM22.083 14.6663C22.083 14.2521 21.7472 13.9163 21.333 13.9163C20.9188 13.9163 20.583 14.2521 20.583 14.6663H22.083ZM20.583 22.6663C20.583 23.0806 20.9188 23.4163 21.333 23.4163C21.7472 23.4163 22.083 23.0806 22.083 22.6663H20.583ZM16.7497 9.33301C16.7497 8.91879 16.4139 8.58301 15.9997 8.58301C15.5855 8.58301 15.2497 8.91879 15.2497 9.33301H16.7497ZM15.2497 22.6663C15.2497 23.0806 15.5855 23.4163 15.9997 23.4163C16.4139 23.4163 16.7497 23.0806 16.7497 22.6663H15.2497ZM11.4163 18.6663C11.4163 18.2521 11.0806 17.9163 10.6663 17.9163C10.2521 17.9163 9.91634 18.2521 9.91634 18.6663L11.4163 18.6663ZM9.91634 22.6663C9.91634 23.0806 10.2521 23.4163 10.6663 23.4163C11.0806 23.4163 11.4163 23.0806 11.4163 22.6663H9.91634ZM5.33301 6.08301H26.6663V4.58301H5.33301V6.08301ZM25.9163 5.33301V26.6663H27.4163V5.33301H25.9163ZM26.6663 25.9163H5.33301V27.4163H26.6663V25.9163ZM6.08301 26.6663V5.33301H4.58301V26.6663H6.08301ZM20.583 14.6663V22.6663H22.083V14.6663H20.583ZM15.2497 9.33301L15.2497 22.6663H16.7497L16.7497 9.33301H15.2497ZM9.91634 18.6663L9.91634 22.6663H11.4163L11.4163 18.6663L9.91634 18.6663Z"
            fill="#E5413C"/>
    </symbol>

    <symbol id="checkmark">
        <path
            fill-rule="evenodd" clip-rule="evenodd"
            d="M21.6002 4.2506C22.0716 4.63283 22.1353 5.31452 21.7424 5.7732L9.89062 19.611C9.67952 19.8575 9.3668 20 9.03705 20C8.70729 20 8.39457 19.8575 8.18347 19.611L2.25756 12.6921C1.86471 12.2334 1.9284 11.5517 2.39982 11.1695C2.87124 10.7873 3.57186 10.8492 3.96471 11.3079L9.03705 17.2302L20.0353 4.38902C20.4281 3.93034 21.1288 3.86837 21.6002 4.2506Z"
            fill="#242424"/>
    </symbol>

    <symbol id="circle-default">
        <path
            d="M16 28C22.6274 28 28 22.6274 28 16C28 9.37258 22.6274 4 16 4C9.37258 4 4 9.37258 4 16C4 22.6274 9.37258 28 16 28Z"
            stroke="#E5413C" stroke-width="1.5" stroke-linecap="round" stroke-linejoin="round"/>
        <path
            d="M16 16V4" stroke="#E5413C" stroke-width="1.5" stroke-linecap="round" stroke-linejoin="round"/>
        <path
            d="M26.3873 10L5.6123 22" stroke="#E5413C" stroke-width="1.5" stroke-linecap="round"
            stroke-linejoin="round"/>
    </symbol>

    <symbol id="circle">
        <path
            d="M18 2V13C19.3333 12.3333 22.7 10.3 27.5 7.5C25.5 3.5 20.3333 2 18 2Z" fill="#EB504B" fill-opacity="0.3"/>
        <path
            d="M16 16V4" stroke="#E5413C" stroke-width="1.5" stroke-linecap="round" stroke-linejoin="round"/>
        <path
            d="M26.3873 10L5.6123 22" stroke="#E5413C" stroke-width="1.5" stroke-linecap="round"
            stroke-linejoin="round"/>
        <path
            d="M4.20012 18.2C4.0637 17.4747 3.99673 16.738 4.00012 16C3.99854 13.5182 4.76727 11.0972 6.20022 9.07089C7.63316 7.04461 9.65969 5.51303 12.0001 4.6875V13.6875L4.20012 18.2Z"
            stroke="#E5413C" stroke-width="1.5" stroke-linecap="round" stroke-linejoin="round"/>
        <path
            d="M16.0004 4C18.1031 4.00024 20.1688 4.55298 21.9907 5.60287C23.8125 6.65275 25.3265 8.16292 26.381 9.9821C27.4355 11.8013 27.9934 13.8656 27.999 15.9683C28.0045 18.071 27.4575 20.1382 26.4126 21.963C25.3678 23.7877 23.8618 25.3058 22.0455 26.3653C20.2292 27.4248 18.1665 27.9885 16.0638 27.9998C13.9611 28.0112 11.8924 27.4698 10.0648 26.43C8.23717 25.3901 6.71488 23.8883 5.65039 22.075"
            stroke="#E5413C" stroke-width="1.5" stroke-linecap="round" stroke-linejoin="round"/>
    </symbol>

    <symbol id="circle-blue">
        <path
            d="M18 2V13C19.3333 12.3333 22.7 10.3 27.5 7.5C25.5 3.5 20.3333 2 18 2Z" fill="#0E80DD" fill-opacity="0.3"/>
        <path
            d="M16 16V4" stroke="#0E80DD" stroke-width="1.5" stroke-linecap="round" stroke-linejoin="round"/>
        <path
            d="M26.3873 10L5.6123 22" stroke="#0E80DD" stroke-width="1.5" stroke-linecap="round"
            stroke-linejoin="round"/>
        <path
            d="M4.20012 18.2C4.0637 17.4747 3.99673 16.738 4.00012 16C3.99854 13.5182 4.76727 11.0972 6.20022 9.07089C7.63316 7.04461 9.65969 5.51303 12.0001 4.6875V13.6875L4.20012 18.2Z"
            stroke="#0E80DD" stroke-width="1.5" stroke-linecap="round" stroke-linejoin="round"/>
        <path
            d="M16.0004 4C18.1031 4.00024 20.1688 4.55298 21.9907 5.60287C23.8125 6.65275 25.3265 8.16292 26.381 9.9821C27.4355 11.8013 27.9934 13.8656 27.999 15.9683C28.0045 18.071 27.4575 20.1382 26.4126 21.963C25.3678 23.7877 23.8618 25.3058 22.0455 26.3653C20.2292 27.4248 18.1665 27.9885 16.0638 27.9998C13.9611 28.0112 11.8924 27.4698 10.0648 26.43C8.23717 25.3901 6.71488 23.8883 5.65039 22.075"
            stroke="#0E80DD" stroke-width="1.5" stroke-linecap="round" stroke-linejoin="round"/>
    </symbol>

    <symbol id="coins">
        <path
            d="M12 15C17.5228 15 22 12.9853 22 10.5C22 8.01472 17.5228 6 12 6C6.47715 6 2 8.01472 2 10.5C2 12.9853 6.47715 15 12 15Z"
            stroke="#E5413C" stroke-width="1.5" stroke-linecap="round" stroke-linejoin="round"/>
        <path
            d="M2 10.5V15.5C2 17.9875 6.475 20 12 20C17.525 20 22 17.9875 22 15.5V10.5" stroke="#E5413C"
            stroke-width="1.5" stroke-linecap="round" stroke-linejoin="round"/>
        <path
            d="M8 14.625V19.625" stroke="#E5413C" stroke-width="1.5" stroke-linecap="round" stroke-linejoin="round"/>
        <path
            d="M22 12.0879C26.5625 12.5129 30 14.3254 30 16.5004C30 18.9879 25.525 21.0004 20 21.0004C17.55 21.0004 15.3 20.6004 13.5625 19.9504"
            stroke="#E5413C" stroke-width="1.5" stroke-linecap="round" stroke-linejoin="round"/>
        <path
            d="M10 19.9125V21.5C10 23.9875 14.475 26 20 26C25.525 26 30 23.9875 30 21.5V16.5" stroke="#E5413C"
            stroke-width="1.5" stroke-linecap="round" stroke-linejoin="round"/>
        <path
            d="M24 20.625V25.625" stroke="#E5413C" stroke-width="1.5" stroke-linecap="round" stroke-linejoin="round"/>
        <path
            d="M16 14.625V25.625" stroke="#E5413C" stroke-width="1.5" stroke-linecap="round" stroke-linejoin="round"/>
    </symbol>

    <symbol id="comment">
        <path
            d="M21 6H19V15H6V17C6 17.55 6.45 18 7 18H18L22 22V7C22 6.45 21.55 6 21 6ZM17 12V3C17 2.45 16.55 2 16 2H3C2.45 2 2 2.45 2 3V17L6 13H16C16.55 13 17 12.55 17 12Z"
            fill="black" fill-opacity="0.54"/>
    </symbol>

    <symbol id="download">
        <path
            d="M11.8523 15.4922C11.8699 15.5146 11.8923 15.5327 11.9179 15.5452C11.9435 15.5577 11.9715 15.5641 12 15.5641C12.0285 15.5641 12.0565 15.5577 12.0821 15.5452C12.1077 15.5327 12.1301 15.5146 12.1477 15.4922L14.7727 12.1711C14.8687 12.0492 14.782 11.8687 14.625 11.8687H12.8883V3.9375C12.8883 3.83437 12.8039 3.75 12.7008 3.75H11.2945C11.1914 3.75 11.107 3.83437 11.107 3.9375V11.8664H9.375C9.21797 11.8664 9.13125 12.0469 9.22734 12.1688L11.8523 15.4922ZM20.5781 14.6719H19.1719C19.0688 14.6719 18.9844 14.7563 18.9844 14.8594V18.4688H5.01562V14.8594C5.01562 14.7563 4.93125 14.6719 4.82812 14.6719H3.42188C3.31875 14.6719 3.23438 14.7563 3.23438 14.8594V19.5C3.23438 19.9148 3.56953 20.25 3.98438 20.25H20.0156C20.4305 20.25 20.7656 19.9148 20.7656 19.5V14.8594C20.7656 14.7563 20.6812 14.6719 20.5781 14.6719Z"
            fill="#787878"/>
    </symbol>

    <symbol id="edit">
        <path
            d="M5.33301 26.6667H4.58301C4.58301 27.0809 4.91879 27.4167 5.33301 27.4167V26.6667ZM5.33301 21.3333L4.80268 20.803C4.66203 20.9437 4.58301 21.1344 4.58301 21.3333H5.33301ZM22.6663 4L23.1967 3.46967C22.9038 3.17678 22.4289 3.17678 22.136 3.46967L22.6663 4ZM27.9997 9.33333L28.53 9.86366C28.8229 9.57077 28.8229 9.0959 28.53 8.803L27.9997 9.33333ZM10.6663 26.6667V27.4167C10.8653 27.4167 11.056 27.3376 11.1967 27.197L10.6663 26.6667ZM6.08301 26.6667V21.3333H4.58301V26.6667H6.08301ZM22.136 4.53033L27.4693 9.86366L28.53 8.803L23.1967 3.46967L22.136 4.53033ZM10.6663 25.9167H5.33301V27.4167H10.6663V25.9167ZM27.4693 8.803L23.4693 12.803L24.53 13.8637L28.53 9.86366L27.4693 8.803ZM23.4693 12.803L10.136 26.1363L11.1967 27.197L24.53 13.8637L23.4693 12.803ZM5.86334 21.8637L19.1967 8.53033L18.136 7.46967L4.80268 20.803L5.86334 21.8637ZM19.1967 8.53033L23.1967 4.53033L22.136 3.46967L18.136 7.46967L19.1967 8.53033ZM24.53 12.803L19.1967 7.46967L18.136 8.53033L23.4693 13.8637L24.53 12.803Z"
            fill="#E5413C"/>
    </symbol>

    <symbol id="equal">
        <rect x="3" y="8" width="18" height="2" fill="#444444"/>
        <rect x="3" y="14" width="18" height="2" fill="#444444"/>
    </symbol>

    <symbol id="error">
        <path
            d="M13 16C13 16.5523 12.5523 17 12 17C11.4477 17 11 16.5523 11 16C11 15.4477 11.4477 15 12 15C12.5523 15 13 15.4477 13 16ZM13 13C13 13.5523 12.5523 14 12 14C11.4477 14 11 13.5523 11 13V8C11 7.44772 11.4477 7 12 7C12.5523 7 13 7.44772 13 8V13ZM12 22C17.52 22 22 17.52 22 12C22 6.48 17.52 2 12 2C6.48 2 2 6.48 2 12C2 17.52 6.48 22 12 22ZM12 4C16.41 4 20 7.59 20 12C20 16.41 16.41 20 12 20C7.59 20 4 16.41 4 12C4 7.59 7.59 4 12 4Z"
            fill="currentColor"/>
    </symbol>

    <symbol id="info">
        <path
            d="M12 2C6.48 2 2 6.48 2 12C2 17.52 6.48 22 12 22C17.52 22 22 17.52 22 12C22 6.48 17.52 2 12 2ZM13 17H11V11H13V17ZM13 9H11V7H13V9Z"
            fill="#444444"/>
    </symbol>

    <symbol id="item-default">
        <path
            d="M19 5V19H5V5H19ZM20.1 3H3.9C3.4 3 3 3.4 3 3.9V20.1C3 20.5 3.4 21 3.9 21H20.1C20.5 21 21 20.5 21 20.1V3.9C21 3.4 20.5 3 20.1 3ZM11 7H17V9H11V7ZM11 11H17V13H11V11ZM11 15H17V17H11V15ZM7 7H9V9H7V7ZM7 11H9V13H7V11ZM7 15H9V17H7V15Z"
            fill="#444444"/>
    </symbol>

    <symbol id="item">
        <path
            d="M9.75 5.25V4.5C9.75 3.50544 10.1451 2.55161 10.8483 1.84835C11.5516 1.14509 12.5054 0.75 13.5 0.75C14.4946 0.75 15.4484 1.14509 16.1517 1.84835C16.8549 2.55161 17.25 3.50544 17.25 4.5V5.25H9.75Z"
            fill="currentColor" fill-opacity="0.3"/>
        <path
            d="M9 14.25H15M9 11.25H15M15 3.75H18.75C18.9489 3.75 19.1397 3.82902 19.2803 3.96967C19.421 4.11032 19.5 4.30109 19.5 4.5V20.25C19.5 20.4489 19.421 20.6397 19.2803 20.7803C19.1397 20.921 18.9489 21 18.75 21H5.25C5.05109 21 4.86032 20.921 4.71967 20.7803C4.57902 20.6397 4.5 20.4489 4.5 20.25V4.5C4.5 4.30109 4.57902 4.11032 4.71967 3.96967C4.86032 3.82902 5.05109 3.75 5.25 3.75H9M8.25 6.75V6C8.25 5.00544 8.64509 4.05161 9.34835 3.34835C10.0516 2.64509 11.0054 2.25 12 2.25C12.9946 2.25 13.9484 2.64509 14.6517 3.34835C15.3549 4.05161 15.75 5.00544 15.75 6V6.75H8.25Z"
            stroke="currentColor" stroke-width="1.5" stroke-linecap="round" stroke-linejoin="round"/>
    </symbol>

    <symbol id="key">
        <path
            d="M11.65 15.35C11.2165 14.2865 10.9957 13.1484 11 12C11 10.22 11.5278 8.47991 12.5168 6.99987C13.5057 5.51983 14.9113 4.36628 16.5558 3.68509C18.2004 3.0039 20.01 2.82567 21.7558 3.17294C23.5016 3.5202 25.1053 4.37737 26.364 5.63604C27.6226 6.89472 28.4798 8.49836 28.8271 10.2442C29.1743 11.99 28.9961 13.7996 28.3149 15.4442C27.6337 17.0887 26.4802 18.4943 25.0001 19.4832C23.5201 20.4722 21.78 21 20 21C18.8516 21.0043 17.7135 20.7835 16.65 20.35V20.35L15 22H12V25H9V28H4V23L11.65 15.35Z"
            stroke="#E5413C" stroke-width="1.5" stroke-linecap="round" stroke-linejoin="round"/>
        <path
            d="M22.5 10.5C23.0523 10.5 23.5 10.0523 23.5 9.5C23.5 8.94772 23.0523 8.5 22.5 8.5C21.9477 8.5 21.5 8.94772 21.5 9.5C21.5 10.0523 21.9477 10.5 22.5 10.5Z"
            fill="#E5413C"/>
    </symbol>

    <symbol id="list-pointers">
        <path
            d="M11 8H27" stroke="#E5413C" stroke-width="1.5" stroke-linecap="round" stroke-linejoin="round"/>
        <path
            d="M11 16H27" stroke="#E5413C" stroke-width="1.5" stroke-linecap="round" stroke-linejoin="round"/>
        <path
            d="M11 24H27" stroke="#E5413C" stroke-width="1.5" stroke-linecap="round" stroke-linejoin="round"/>
        <path
            d="M5.5 17C6.05228 17 6.5 16.5523 6.5 16C6.5 15.4477 6.05228 15 5.5 15C4.94772 15 4.5 15.4477 4.5 16C4.5 16.5523 4.94772 17 5.5 17Z"
            fill="#E5413C"/>
        <path
            d="M5.5 9C6.05228 9 6.5 8.55228 6.5 8C6.5 7.44772 6.05228 7 5.5 7C4.94772 7 4.5 7.44772 4.5 8C4.5 8.55228 4.94772 9 5.5 9Z"
            fill="#E5413C"/>
        <path
            d="M5.5 25C6.05228 25 6.5 24.5523 6.5 24C6.5 23.4477 6.05228 23 5.5 23C4.94772 23 4.5 23.4477 4.5 24C4.5 24.5523 4.94772 25 5.5 25Z"
            fill="#E5413C"/>
    </symbol>

    <symbol id="mail">
        <path
            d="M13.333 13.3337H2.66634C2.31272 13.3337 1.97358 13.1932 1.72353 12.9431C1.47348 12.6931 1.33301 12.3539 1.33301 12.0003V3.94233C1.34796 3.59885 1.49501 3.27443 1.74346 3.03679C1.99191 2.79915 2.32254 2.66667 2.66634 2.66699H13.333C13.6866 2.66699 14.0258 2.80747 14.2758 3.05752C14.5259 3.30757 14.6663 3.6467 14.6663 4.00033V12.0003C14.6663 12.3539 14.5259 12.6931 14.2758 12.9431C14.0258 13.1932 13.6866 13.3337 13.333 13.3337ZM2.66634 5.24566V12.0003H13.333V5.24566L7.99967 8.80033L2.66634 5.24566ZM3.19967 4.00033L7.99967 7.20033L12.7997 4.00033H3.19967Z"
            fill="#E5413C"/>
    </symbol>

    <symbol id="message">
        <path
            opacity="0.15"
            d="M3.50003 13.4167C3.49602 14.9565 3.85579 16.4756 4.55003 17.85C5.37319 19.4971 6.63866 20.8824 8.20468 21.8509C9.77069 22.8193 11.5754 23.3327 13.4167 23.3334C14.9565 23.3374 16.4756 22.9776 17.85 22.2834L24.5 24.5L22.2834 17.85C22.9776 16.4756 23.3374 14.9565 23.3334 13.4167C23.3327 11.5754 22.8193 9.77069 21.8509 8.20468C20.8824 6.63866 19.4971 5.3732 17.85 4.55003C16.4756 3.85579 14.9565 3.49602 13.4167 3.50003H12.8334C10.4016 3.63419 8.10482 4.66059 6.3827 6.3827C4.66059 8.10482 3.63419 10.4016 3.50003 12.8334V13.4167Z"
            fill="#E5413C"/>
        <path
            d="M9.33333 10.3333C8.91912 10.3333 8.58333 10.6691 8.58333 11.0833C8.58333 11.4975 8.91912 11.8333 9.33333 11.8333V10.3333ZM17.5 11.8333C17.9142 11.8333 18.25 11.4975 18.25 11.0833C18.25 10.6691 17.9142 10.3333 17.5 10.3333V11.8333ZM9.33333 15C8.91912 15 8.58333 15.3358 8.58333 15.75C8.58333 16.1642 8.91912 16.5 9.33333 16.5V15ZM15.1667 16.5C15.5809 16.5 15.9167 16.1642 15.9167 15.75C15.9167 15.3358 15.5809 15 15.1667 15V16.5ZM17.85 22.2834L18.0872 21.5719C17.8552 21.4946 17.6002 21.5352 17.4037 21.6807L17.85 22.2834ZM24.5 24.5001L24.2629 25.2116C24.5324 25.3014 24.8295 25.2313 25.0304 25.0304C25.2312 24.8295 25.3014 24.5324 25.2115 24.2629L24.5 24.5001ZM22.2834 17.8501L21.6667 17.4232C21.5323 17.6173 21.4972 17.8633 21.5718 18.0872L22.2834 17.8501ZM9.33333 11.8333H17.5V10.3333H9.33333V11.8333ZM9.33333 16.5H15.1667V15H9.33333V16.5ZM17.6129 22.9949L24.2629 25.2116L24.7372 23.7885L18.0872 21.5719L17.6129 22.9949ZM25.2115 24.2629L22.9949 17.6129L21.5718 18.0872L23.7885 24.7372L25.2115 24.2629ZM13.4167 22.5833C8.35406 22.5833 4.25 18.4793 4.25 13.4167H2.75C2.75 19.3077 7.52563 24.0833 13.4167 24.0833V22.5833ZM4.25 13.4167C4.25 8.35406 8.35406 4.25 13.4167 4.25V2.75C7.52563 2.75 2.75 7.52563 2.75 13.4167H4.25ZM13.4167 4.25C18.4793 4.25 22.5833 8.35406 22.5833 13.4167H24.0833C24.0833 7.52563 19.3077 2.75 13.4167 2.75V4.25ZM17.85 22.2834C17.4037 21.6807 17.404 21.6804 17.4043 21.6802C17.4044 21.6802 17.4046 21.6799 17.4048 21.6798C17.4052 21.6796 17.4055 21.6793 17.4058 21.6791C17.4065 21.6786 17.407 21.6782 17.4075 21.6779C17.4084 21.6772 17.409 21.6768 17.4093 21.6766C17.4098 21.6762 17.409 21.6768 17.4068 21.6783C17.4025 21.6813 17.3928 21.6879 17.3776 21.6976C17.3474 21.7171 17.2955 21.749 17.2216 21.7894C17.0738 21.8702 16.8379 21.9851 16.5108 22.1024C15.8581 22.3367 14.8354 22.5833 13.4167 22.5833V24.0833C15.0134 24.0833 16.2073 23.805 17.0175 23.5143C17.4218 23.3692 17.7288 23.2216 17.9411 23.1055C18.0473 23.0475 18.1297 22.9974 18.1888 22.9594C18.2183 22.9404 18.242 22.9244 18.2599 22.9121C18.2689 22.9059 18.2764 22.9006 18.2825 22.8962C18.2855 22.894 18.2882 22.8921 18.2905 22.8904C18.2916 22.8896 18.2927 22.8888 18.2937 22.8881C18.2942 22.8877 18.2946 22.8874 18.2951 22.8871C18.2953 22.8869 18.2956 22.8867 18.2957 22.8866C18.296 22.8864 18.2964 22.8861 17.85 22.2834ZM22.5833 13.4167C22.5833 14.7833 22.3376 15.8074 22.1011 16.4775C21.9827 16.8131 21.8662 17.0609 21.7832 17.2193C21.7417 17.2984 21.7086 17.3552 21.6878 17.3892C21.6774 17.4063 21.6702 17.4177 21.6665 17.4233C21.6646 17.4262 21.6637 17.4276 21.6637 17.4275C21.6637 17.4275 21.664 17.4272 21.6645 17.4264C21.6647 17.4261 21.665 17.4256 21.6654 17.4251C21.6656 17.4248 21.6658 17.4245 21.666 17.4242C21.6661 17.424 21.6663 17.4238 21.6663 17.4237C21.6665 17.4234 21.6667 17.4232 22.2834 17.8501C22.9 18.2769 22.9002 18.2767 22.9004 18.2764C22.9005 18.2763 22.9007 18.276 22.9008 18.2758C22.9011 18.2754 22.9014 18.275 22.9017 18.2745C22.9023 18.2736 22.903 18.2726 22.9038 18.2715C22.9053 18.2693 22.907 18.2667 22.909 18.2637C22.913 18.2578 22.918 18.2503 22.9238 18.2413C22.9355 18.2233 22.9508 18.1993 22.9691 18.1691C23.0058 18.1089 23.0547 18.0243 23.1117 17.9157C23.2255 17.6985 23.3715 17.3849 23.5156 16.9767C23.8041 16.1593 24.0833 14.9667 24.0833 13.4167H22.5833Z"
            fill="#E5413C"/>
    </symbol>

    <symbol id="minus">
        <rect x="3" y="11" width="18" height="2" fill="#444444"/>
    </symbol>

    <symbol id="money">
        <path
            d="M3.66602 12.584C4.08023 12.584 4.41602 12.9198 4.41602 13.334C4.41602 13.6584 4.51951 14.1618 4.808 14.5624C5.06895 14.9249 5.51046 15.2507 6.33268 15.2507C6.74689 15.2507 7.08268 15.5865 7.08268 16.0007C7.08268 16.4149 6.74689 16.7507 6.33268 16.7507C5.02157 16.7507 4.12974 16.1876 3.59069 15.4389C3.07918 14.7285 2.91602 13.8984 2.91602 13.334C2.91602 12.9198 3.2518 12.584 3.66602 12.584Z"
            fill="#E5413C"/>
        <path
            d="M8.24902 8.47151C8.24902 6.28236 10.1206 4.58398 12.3324 4.58398C14.5441 4.58398 16.4157 6.28237 16.4157 8.47151H14.9157C14.9157 7.19504 13.8025 6.08398 12.3324 6.08398C10.8622 6.08398 9.74902 7.19505 9.74902 8.47151C9.74902 9.10714 10.0178 9.69111 10.471 10.1264L9.43184 11.2082C8.70676 10.5117 8.24902 9.54567 8.24902 8.47151Z"
            fill="#E5413C"/>
        <path
            d="M26.3124 20.897L25.8429 19.4723C25.532 19.5748 25.2632 19.7761 25.0774 20.0456L26.3124 20.897ZM23.6252 23.4604L22.8123 22.1998C22.1973 22.5963 21.9582 23.3787 22.2464 24.0513L23.6252 23.4604ZM24.4023 25.2737L25.781 24.6828L24.4023 25.2737ZM20.0401 26.3747L21.1008 25.3141L20.0401 26.3747ZM18.8675 25.2022L19.9282 24.1415C19.5941 23.8074 19.1222 23.6503 18.6545 23.7174L18.8675 25.2022ZM14.0109 24.9898L14.3564 23.5301C13.8502 23.4103 13.318 23.5613 12.9502 23.9291L14.0109 24.9898ZM12.6259 26.3747L11.5652 25.3141L12.6259 26.3747ZM8.26374 25.2737L9.64245 25.8646L8.26374 25.2737ZM9.35986 22.7161L10.7386 23.307C10.9998 22.6974 10.8298 21.9887 10.3204 21.564L9.35986 22.7161ZM20.2202 8.62653L20.7375 7.21856L20.2202 8.62653ZM20.333 8.66797L19.8161 10.0761C20.302 10.2544 20.8454 10.1697 21.2539 9.852L20.333 8.66797ZM24.7891 10.1401L23.3132 9.87216V9.87217L24.7891 10.1401ZM24.6968 10.6679L23.2154 10.4321C23.133 10.9502 23.3271 11.4737 23.7275 11.8127L24.6968 10.6679ZM27.1748 14.0596L25.7763 14.6021C25.9379 15.0186 26.2767 15.3414 26.7005 15.4826L27.1748 14.0596ZM28.3159 14.44L28.7902 13.0169L28.3159 14.44ZM28.3159 20.2292L28.7902 21.6522L28.3159 20.2292ZM26.3159 20.8958L25.8416 19.4728L25.8412 19.4729L26.3159 20.8958ZM25.0774 20.0456C24.5163 20.8596 23.7493 21.5956 22.8123 22.1998L24.438 24.7211C25.6777 23.9218 26.7422 22.9163 27.5474 21.7483L25.0774 20.0456ZM22.2464 24.0513L23.0236 25.8646L25.781 24.6828L25.0039 22.8696L22.2464 24.0513ZM23.0236 25.8646C22.8822 25.5347 23.1242 25.1676 23.4831 25.1676V28.1676C25.2779 28.1676 26.488 26.3325 25.781 24.6828L23.0236 25.8646ZM23.4831 25.1676H20.7472V28.1676H23.4831V25.1676ZM20.7472 25.1676C20.8798 25.1676 21.007 25.2203 21.1008 25.3141L18.9795 27.4354C19.4483 27.9042 20.0842 28.1676 20.7472 28.1676V25.1676ZM21.1008 25.3141L19.9282 24.1415L17.8069 26.2628L18.9795 27.4354L21.1008 25.3141ZM18.6545 23.7174C18.1186 23.7943 17.5657 23.8346 16.9997 23.8346V26.8346C17.7081 26.8346 18.4035 26.7841 19.0806 26.687L18.6545 23.7174ZM16.9997 23.8346C16.0781 23.8346 15.1911 23.7277 14.3564 23.5301L13.6654 26.4494C14.7273 26.7008 15.8462 26.8346 16.9997 26.8346V23.8346ZM12.9502 23.9291L11.5652 25.3141L13.6866 27.4354L15.0715 26.0504L12.9502 23.9291ZM11.5652 25.3141C11.659 25.2203 11.7862 25.1676 11.9188 25.1676V28.1676C12.5818 28.1676 13.2177 27.9042 13.6866 27.4354L11.5652 25.3141ZM11.9188 25.1676H9.18288V28.1676H11.9188V25.1676ZM9.18288 25.1676C9.54184 25.1676 9.78385 25.5347 9.64245 25.8646L6.88502 24.6828C6.17802 26.3325 7.38809 28.1676 9.18288 28.1676V25.1676ZM9.64245 25.8646L10.7386 23.307L7.98115 22.1252L6.88502 24.6828L9.64245 25.8646ZM10.3204 21.564C8.72862 20.2368 7.83301 18.5023 7.83301 16.6679H4.83301C4.83301 19.539 6.2451 22.0721 8.3993 23.8682L10.3204 21.564ZM7.83301 16.6679C7.83301 12.9859 11.631 9.5013 16.9997 9.5013V6.5013C10.5863 6.5013 4.83301 10.777 4.83301 16.6679H7.83301ZM16.9997 9.5013C17.7062 9.5013 18.081 9.54039 18.3945 9.60793C18.7309 9.68038 19.0527 9.79561 19.7028 10.0345L20.7375 7.21856C20.1368 6.99784 19.6078 6.80046 19.0263 6.6752C18.422 6.54503 17.812 6.5013 16.9997 6.5013V9.5013ZM19.7028 10.0345C19.7397 10.048 19.7775 10.0619 19.8161 10.0761L20.8499 7.25984C20.8118 7.24586 20.7744 7.23213 20.7375 7.21856L19.7028 10.0345ZM21.2539 9.852C22.5942 8.80954 23.415 8.3694 23.8625 8.22554C24.0766 8.15671 24.0916 8.19379 23.9845 8.17371C23.8302 8.14481 23.665 8.04387 23.5616 7.90435C23.4868 7.80333 23.4993 7.75622 23.5167 7.86314C23.5327 7.96144 23.5412 8.11837 23.5294 8.34312C23.5055 8.80134 23.4122 9.32724 23.3132 9.87216L26.2649 10.4081C26.3569 9.90172 26.4896 9.18317 26.5253 8.49978C26.5562 7.91027 26.5521 6.90104 25.972 6.11824C25.6315 5.65875 25.1373 5.33752 24.537 5.22503C23.9837 5.12137 23.4356 5.21156 22.9443 5.36951C21.9809 5.67923 20.8219 6.38741 19.4121 7.48395L21.2539 9.852ZM23.3132 9.87217C23.2793 10.0588 23.2437 10.2543 23.2154 10.4321L26.1781 10.9038C26.2003 10.7647 26.2295 10.6036 26.265 10.4081L23.3132 9.87217ZM23.7275 11.8127C24.6799 12.6191 25.378 13.5753 25.7763 14.6021L28.5732 13.5171C27.9739 11.9722 26.9563 10.6156 25.666 9.52318L23.7275 11.8127ZM26.7005 15.4826L27.8416 15.863L28.7902 13.0169L27.6491 12.6366L26.7005 15.4826ZM27.8416 15.863C27.6374 15.7949 27.4997 15.6039 27.4997 15.3887H30.4997C30.4997 14.3126 29.8111 13.3572 28.7902 13.0169L27.8416 15.863ZM27.4997 15.3887V19.2805H30.4997V15.3887H27.4997ZM27.4997 19.2805C27.4997 19.0653 27.6374 18.8742 27.8416 18.8061L28.7902 21.6522C29.8111 21.3119 30.4997 20.3565 30.4997 19.2805H27.4997ZM27.8416 18.8061L25.8416 19.4728L26.7902 22.3188L28.7902 21.6522L27.8416 18.8061ZM25.8412 19.4729C25.8425 19.4725 25.8433 19.4722 25.8429 19.4723L26.7819 22.3216C26.7839 22.321 26.787 22.3199 26.7906 22.3187L25.8412 19.4729Z"
            fill="#E5413C"/>

        <path
            d="M26.3124 20.897C25.6293 21.8879 24.7135 22.7587 23.6252 23.4604L24.4023 25.2737C24.6851 25.9336 24.2011 26.6676 23.4831 26.6676H20.7472C20.482 26.6676 20.2277 26.5623 20.0401 26.3747L18.8675 25.2022C18.2611 25.2892 17.6369 25.3346 16.9997 25.3346C15.9621 25.3346 14.9592 25.2142 14.0109 24.9898L12.6259 26.3747C12.4384 26.5623 12.184 26.6676 11.9188 26.6676H9.18288C8.46496 26.6676 7.98093 25.9336 8.26374 25.2737L9.35986 22.7161C7.48686 21.1545 6.33301 19.0207 6.33301 16.6679C6.33301 11.8815 11.1086 8.00126 16.9997 8.00126C18.5185 8.00126 18.9693 8.16689 20.2202 8.62649C20.2571 8.64004 20.2947 8.65386 20.333 8.66793C25.8332 4.38993 25.1709 8.0374 24.7891 10.1401C24.7544 10.3312 24.722 10.5095 24.6968 10.6679C25.8181 11.6173 26.676 12.7738 27.1748 14.0596L28.3159 14.44C28.7242 14.5761 28.9997 14.9582 28.9997 15.3887V19.2805C28.9997 19.7109 28.7242 20.093 28.3159 20.2292L26.3159 20.8958C26.3147 20.8962 26.3136 20.8966 26.3124 20.897Z"
            fill="white"/>
        <path
            d="M21.999 15.334C22.5513 15.334 22.999 14.8863 22.999 14.334C22.999 13.7817 22.5513 13.334 21.999 13.334C21.4467 13.334 20.999 13.7817 20.999 14.334C20.999 14.8863 21.4467 15.334 21.999 15.334Z"
            fill="#E5413C"/>
    </symbol>

    <symbol id="money-fill">
        <path
            d="M3.66602 13.334C3.66602 14.2229 4.19935 16.0007 6.33268 16.0007" stroke="#E5413C" stroke-width="1.5"
            stroke-linecap="round"/>
        <path
            d="M15.6667 8.47151C15.6667 6.7387 14.1743 5.33398 12.3333 5.33398C10.4924 5.33398 9 6.7387 9 8.47151C9 9.3264 9.36324 10.1014 9.95238 10.6673"
            stroke="#E5413C" stroke-width="1.5"/>
        <path fill-rule="evenodd" clip-rule="evenodd"
              d="M23.6252 23.4595C24.7135 22.7577 25.6293 21.887 26.3124 20.896L26.3159 20.8948L28.3159 20.2282C28.7242 20.0921 28.9997 19.7099 28.9997 19.2795V15.3877C28.9997 14.9572 28.7242 14.5751 28.3159 14.439L27.1748 14.0586C26.676 12.7728 25.8181 11.6163 24.6968 10.667C24.722 10.5085 24.7544 10.3302 24.7891 10.1392V10.1391C25.1709 8.03642 25.8332 4.38896 20.333 8.66696L20.2202 8.62551C18.9693 8.16591 18.5185 8.00029 16.9997 8.00029C11.1086 8.00029 6.33301 11.8805 6.33301 16.667C6.33301 19.0197 7.48686 21.1535 9.35986 22.7151L8.26374 25.2727C7.98093 25.9326 8.46496 26.6666 9.18288 26.6666H11.9188C12.184 26.6666 12.4384 26.5613 12.6259 26.3738L14.0109 24.9888C14.9592 25.2133 15.9621 25.3336 16.9997 25.3336C17.6369 25.3336 18.2611 25.2882 18.8675 25.2012L20.0401 26.3738C20.2277 26.5613 20.482 26.6666 20.7472 26.6666H23.4831C24.2011 26.6666 24.6851 25.9326 24.4023 25.2727L23.6252 23.4595ZM22 15.3335C22.5523 15.3335 23 14.8858 23 14.3335C23 13.7812 22.5523 13.3335 22 13.3335C21.4477 13.3335 21 13.7812 21 14.3335C21 14.8858 21.4477 15.3335 22 15.3335Z"
              fill="white"/>
        <path fill-rule="evenodd" clip-rule="evenodd"
              d="M23.6252 23.4595C24.7135 22.7577 25.6293 21.887 26.3124 20.896L26.3159 20.8948L28.3159 20.2282C28.7242 20.0921 28.9997 19.7099 28.9997 19.2795V15.3877C28.9997 14.9572 28.7242 14.5751 28.3159 14.439L27.1748 14.0586C26.676 12.7728 25.8181 11.6163 24.6968 10.667C24.722 10.5085 24.7544 10.3302 24.7891 10.1392C25.1709 8.03652 25.8332 4.38896 20.333 8.66696L20.2202 8.62551C18.9693 8.16591 18.5185 8.00029 16.9997 8.00029C11.1086 8.00029 6.33301 11.8805 6.33301 16.667C6.33301 19.0197 7.48686 21.1535 9.35986 22.7151L8.26374 25.2727C7.98093 25.9326 8.46496 26.6666 9.18288 26.6666H11.9188C12.184 26.6666 12.4384 26.5613 12.6259 26.3738L14.0109 24.9888C14.9592 25.2133 15.9621 25.3336 16.9997 25.3336C17.6369 25.3336 18.2611 25.2882 18.8675 25.2012L20.0401 26.3738C20.2277 26.5613 20.482 26.6666 20.7472 26.6666H23.4831C24.2011 26.6666 24.6851 25.9326 24.4023 25.2727L23.6252 23.4595ZM22 15.3335C22.5523 15.3335 23 14.8858 23 14.3335C23 13.7812 22.5523 13.3335 22 13.3335C21.4477 13.3335 21 13.7812 21 14.3335C21 14.8858 21.4477 15.3335 22 15.3335Z"
              fill="#E5413C"/>

    </symbol>

    <symbol id="movie">
        <rect x="5" y="8" width="22" height="16" rx="1" stroke="#E5413C" stroke-width="1.5"/>
        <path
            d="M19.1056 15.5528C19.4741 15.737 19.4741 16.263 19.1056 16.4472L14.7236 18.6382C14.3912 18.8044 14 18.5627 14 18.191L14 13.809C14 13.4373 14.3912 13.1956 14.7236 13.3618L19.1056 15.5528Z"
            stroke="#E5413C" stroke-width="1.5"/>
    </symbol>

    <symbol id="new-window">
        <rect x="8" y="4" width="12" height="12" rx="1" stroke="currentColor" stroke-width="1.5"/>
        <path
            fill-rule="evenodd" clip-rule="evenodd"
            d="M8 7.25H5C4.0335 7.25 3.25 8.0335 3.25 9V19C3.25 19.9665 4.0335 20.75 5 20.75H15C15.9665 20.75 16.75 19.9665 16.75 19V16H15.25V19C15.25 19.1381 15.1381 19.25 15 19.25H5C4.86193 19.25 4.75 19.1381 4.75 19V9C4.75 8.86193 4.86193 8.75 5 8.75H8V7.25Z"
            fill="currentColor"/>
    </symbol>

    <symbol id="paper">
        <path
            d="M28.1301 6.42061L16.9494 18.0155C16.377 18.6091 16.2276 19.4931 16.5732 20.2418L20.8579 29.5255C21.2481 30.3709 22.4802 30.2712 22.7294 29.3741L28.9718 6.9015C29.1107 6.4016 28.4903 6.04714 28.1301 6.42061Z"
            fill="#EB504B" fill-opacity="0.3"/>
        <path
            d="M26.2873 4.48795L2.98725 11.0504C2.78891 11.1047 2.61211 11.2187 2.48092 11.3771C2.34974 11.5354 2.27056 11.7303 2.25416 11.9353C2.23776 12.1403 2.28495 12.3453 2.38929 12.5225C2.49363 12.6997 2.65005 12.8404 2.83725 12.9254L13.5373 17.9879C13.7469 18.085 13.9152 18.2533 14.0123 18.4629L19.0748 29.1629C19.1598 29.3501 19.3005 29.5066 19.4777 29.6109C19.6549 29.7153 19.8599 29.7624 20.0649 29.746C20.2699 29.7296 20.4648 29.6505 20.6231 29.5193C20.7815 29.3881 20.8955 29.2113 20.9498 29.0129L27.5123 5.71295C27.562 5.54292 27.5651 5.36265 27.5212 5.19102C27.4773 5.01939 27.388 4.86274 27.2627 4.73747C27.1375 4.61221 26.9808 4.52295 26.8092 4.47905C26.6376 4.43514 26.4573 4.43822 26.2873 4.48795V4.48795Z"
            stroke="#E5413C" stroke-width="1.5" stroke-linecap="round" stroke-linejoin="round"/>
        <path
            d="M13.8623 18.1373L19.5123 12.4873" stroke="#E5413C" stroke-width="1.5" stroke-linecap="round"
            stroke-linejoin="round"/>
    </symbol>
    <symbol id="paper-stroke">
        <path
            d="M20.7551 5.17061L12.9494 13.2655C12.377 13.8591 12.2276 14.7431 12.5732 15.4918L15.3579 21.5255C15.7481 22.3709 16.9802 22.2712 17.2294 21.3741L21.5968 5.6515C21.7357 5.1516 21.1153 4.79714 20.7551 5.17061Z"
            fill="#EB504B" fill-opacity="0.3"/>
        <path
            d="M10.3969 13.6032L14.6344 9.36572M19.7157 3.36572L2.24068 8.28759C2.09193 8.32826 1.95932 8.4138 1.86094 8.53255C1.76255 8.65131 1.70316 8.79751 1.69087 8.95123C1.67857 9.10496 1.71396 9.25873 1.79221 9.39162C1.87047 9.52451 1.98779 9.63004 2.12818 9.69384L10.1532 13.4907C10.3104 13.5635 10.4366 13.6898 10.5094 13.847L14.3063 21.872C14.3701 22.0124 14.4756 22.1297 14.6085 22.2079C14.7414 22.2862 14.8952 22.3216 15.0489 22.3093C15.2026 22.297 15.3488 22.2376 15.4676 22.1392C15.5863 22.0408 15.6719 21.9082 15.7126 21.7595L20.6344 4.28447C20.6717 4.15695 20.674 4.02174 20.6411 3.89302C20.6082 3.7643 20.5412 3.64681 20.4473 3.55286C20.3533 3.45891 20.2358 3.39197 20.1071 3.35904C19.9784 3.32611 19.8432 3.32842 19.7157 3.36572Z"
            stroke="white" stroke-width="1.5" stroke-linecap="round" stroke-linejoin="round"/>
    </symbol>

    <symbol id="pdf">
        <path
            d="M5 21H4.25C4.25 21.4142 4.58579 21.75 5 21.75V21ZM19 21V21.75C19.4142 21.75 19.75 21.4142 19.75 21H19ZM5 3V2.25C4.58579 2.25 4.25 2.58579 4.25 3H5ZM14 3L14.5303 2.46967C14.3897 2.32902 14.1989 2.25 14 2.25V3ZM19 8H19.75C19.75 7.80109 19.671 7.61032 19.5303 7.46967L19 8ZM5 21.75H19V20.25H5V21.75ZM4.25 3V21H5.75V3H4.25ZM13 2.25H5V3.75H13V2.25ZM19.75 21V9H18.25V21H19.75ZM13 3.75H14V2.25H13V3.75ZM19.75 9V8H18.25V9H19.75ZM19.5303 7.46967L14.5303 2.46967L13.4697 3.53033L18.4697 8.53033L19.5303 7.46967ZM12.25 3V7H13.75V3H12.25ZM12.25 7C12.25 7.74392 12.6144 8.42507 13.0947 8.90533C13.5749 9.38559 14.2561 9.75 15 9.75V8.25C14.7439 8.25 14.4251 8.11441 14.1553 7.84467C13.8856 7.57493 13.75 7.25608 13.75 7H12.25ZM15 9.75H19V8.25H15V9.75Z"
            fill="#E5413C"/>
        <path
            fill-rule="evenodd" clip-rule="evenodd"
            d="M8.15385 13H7V14.1538V14.9231V16.0769V16.8462H8.15385L8.15385 16.0769H8.53846C9.38813 16.0769 10.0769 15.3881 10.0769 14.5385C10.0769 13.6888 9.38813 13 8.53846 13H8.15385ZM8.15385 14.9231H8.53846C8.75088 14.9231 8.92308 14.7509 8.92308 14.5385C8.92308 14.326 8.75088 14.1538 8.53846 14.1538H8.15385V14.9231Z"
            fill="#E5413C"/>
        <path
            d="M11.0388 13.5769H12.0004C12.5314 13.5769 12.9619 14.0074 12.9619 14.5385V15.3077C12.9619 15.8387 12.5314 16.2692 12.0004 16.2692H11.0388V13.5769Z"
            stroke="#E5413C" stroke-width="1.15385"/>
        <path
            fill-rule="evenodd" clip-rule="evenodd"
            d="M15.0767 13H13.9229V13.0005V14.1543V14.9233V16.0771V16.8462H15.0767V16.0771H16.6152V14.9233H15.0767V14.1543H16.9998V13.0005H15.0767V13Z"
            fill="#E5413C"/>
    </symbol>

    <symbol id="people">
        <path
            d="M13 22C15.2091 22 17 20.2091 17 18C17 15.7909 15.2091 14 13 14C10.7909 14 9 15.7909 9 18C9 20.2091 10.7909 22 13 22Z"
            stroke="#E5413C" stroke-width="1.5" stroke-linecap="round" stroke-linejoin="round"/>
        <path
            d="M6.675 26C7.24261 24.8029 8.13827 23.7915 9.2579 23.0833C10.3775 22.375 11.6752 21.9991 13 21.9991C14.3248 21.9991 15.6225 22.375 16.7421 23.0833C17.8617 23.7915 18.7574 24.8029 19.325 26H27C27.2652 26 27.5196 25.8946 27.7071 25.7071C27.8946 25.5196 28 25.2652 28 25V7C28 6.73478 27.8946 6.48043 27.7071 6.29289C27.5196 6.10536 27.2652 6 27 6H5C4.73478 6 4.48043 6.10536 4.29289 6.29289C4.10536 6.48043 4 6.73478 4 7V25C4 25.2652 4.10536 25.5196 4.29289 25.7071C4.48043 25.8946 4.73478 26 5 26H6.675Z"
            stroke="#E5413C" stroke-width="1.5" stroke-linecap="round" stroke-linejoin="round"/>
        <path
            d="M22 22H24V10H8V12" stroke="#E5413C" stroke-width="1.5" stroke-linecap="round" stroke-linejoin="round"/>
        <path
            fill-rule="evenodd" clip-rule="evenodd"
            d="M11 8C10.4477 8 10 8.44772 10 9V15.3542C10.7329 14.5238 11.8053 14 13 14C15.2091 14 17 15.7909 17 18C17 18.7286 16.8052 19.4117 16.4649 20H25C25.5523 20 26 19.5523 26 19V9C26 8.44772 25.5523 8 25 8H11Z"
            fill="#EB504B" fill-opacity="0.3"/>
    </symbol>

    <symbol id="phone-call">
        <path
            d="M19.9248 5C21.621 5.45522 23.1676 6.34857 24.4094 7.59039C25.6512 8.83221 26.5446 10.3788 26.9998 12.075"
            stroke="#E5413C" stroke-width="1.5" stroke-linecap="round" stroke-linejoin="round"/>
        <path
            d="M18.8877 8.8623C19.9078 9.13324 20.8382 9.66903 21.5846 10.4154C22.331 11.1618 22.8668 12.0922 23.1377 13.1123"
            stroke="#E5413C" stroke-width="1.5" stroke-linecap="round" stroke-linejoin="round"/>
        <path
            d="M11.5625 15.6C12.5915 17.7251 14.3098 19.439 16.4375 20.4625C16.5944 20.5369 16.768 20.569 16.9412 20.5559C17.1143 20.5427 17.2811 20.4847 17.425 20.3875L20.55 18.3C20.6881 18.2064 20.8476 18.1493 21.0137 18.134C21.1799 18.1187 21.3472 18.1457 21.5 18.2125L27.35 20.725C27.5499 20.8083 27.717 20.9549 27.8254 21.1424C27.9338 21.3298 27.9776 21.5477 27.95 21.7625C27.7646 23.2097 27.0582 24.5397 25.9631 25.5038C24.8679 26.4678 23.459 26.9997 22 27C17.4913 27 13.1673 25.209 9.97919 22.0209C6.79107 18.8327 5 14.5087 5 10C5.00033 8.54104 5.53227 7.13214 6.49628 6.03699C7.4603 4.94183 8.79033 4.23546 10.2375 4.05004C10.4523 4.02245 10.6702 4.06623 10.8577 4.17465C11.0452 4.28307 11.1918 4.4501 11.275 4.65004L13.7875 10.5125C13.8528 10.663 13.8802 10.8272 13.8671 10.9907C13.854 11.1541 13.8009 11.3119 13.7125 11.45L11.625 14.625C11.5321 14.7686 11.4775 14.9337 11.4666 15.1044C11.4556 15.2751 11.4887 15.4457 11.5625 15.6V15.6Z"
            stroke="#E5413C" stroke-width="1.5" stroke-linecap="round" stroke-linejoin="round"/>
    </symbol>

    <symbol id="phone">
        <path
            d="M7.22656 9.75015C7.8697 11.0783 8.94365 12.1495 10.2734 12.7892C10.3715 12.8357 10.48 12.8558 10.5882 12.8475C10.6965 12.8393 10.8007 12.8031 10.8906 12.7423L12.8437 11.4376C12.93 11.3791 13.0298 11.3434 13.1336 11.3338C13.2374 11.3243 13.342 11.3412 13.4375 11.383L17.0937 12.9533C17.2187 13.0053 17.3231 13.0969 17.3909 13.2141C17.4586 13.3313 17.486 13.4675 17.4687 13.6017C17.3529 14.5062 16.9114 15.3375 16.2269 15.94C15.5424 16.5425 14.6619 16.8749 13.75 16.8751C10.9321 16.8751 8.22956 15.7557 6.23699 13.7632C4.24442 11.7706 3.125 9.06807 3.125 6.25015C3.12521 5.33827 3.45767 4.45771 4.06018 3.77324C4.66268 3.08877 5.49395 2.64728 6.39844 2.5314C6.53269 2.51415 6.66888 2.54152 6.78605 2.60928C6.90322 2.67704 6.99486 2.78144 7.04687 2.9064L8.61719 6.57046C8.65802 6.66448 8.67511 6.7671 8.66693 6.86928C8.65876 6.97146 8.62558 7.07006 8.57031 7.1564L7.26562 9.14077C7.20754 9.23052 7.17345 9.33368 7.16661 9.44037C7.15977 9.54705 7.18041 9.65371 7.22656 9.75015V9.75015Z"
            stroke="#E5413C" stroke-width="1.25" stroke-linecap="round" stroke-linejoin="round"/>
    </symbol>

    <symbol id="plus">
        <path
            fill-rule="evenodd" clip-rule="evenodd"
            d="M13 4C13 3.44772 12.5523 3 12 3C11.4477 3 11 3.44772 11 4L11 11H4C3.44772 11 3 11.4477 3 12C3 12.5523 3.44772 13 4 13H11L11 20C11 20.5523 11.4477 21 12 21C12.5523 21 13 20.5523 13 20V13H20C20.5523 13 21 12.5523 21 12C21 11.4477 20.5523 11 20 11H13V4Z"
            fill="#444444"/>
    </symbol>

    <symbol id="question">
        <path
            d="M12 2C6.47768 2 2 6.47768 2 12C2 17.5223 6.47768 22 12 22C17.5223 22 22 17.5223 22 12C22 6.47768 17.5223 2 12 2ZM12 17.8036C11.5067 17.8036 11.1071 17.404 11.1071 16.9107C11.1071 16.4174 11.5067 16.0179 12 16.0179C12.4933 16.0179 12.8929 16.4174 12.8929 16.9107C12.8929 17.404 12.4933 17.8036 12 17.8036ZM13.404 12.904C13.2019 12.9821 13.0279 13.1192 12.9049 13.2976C12.7819 13.476 12.7154 13.6873 12.7143 13.904V14.4107C12.7143 14.5089 12.6339 14.5893 12.5357 14.5893H11.4643C11.3661 14.5893 11.2857 14.5089 11.2857 14.4107V13.9308C11.2857 13.4152 11.4353 12.9062 11.7299 12.4821C12.0179 12.067 12.4196 11.75 12.8929 11.5692C13.6518 11.2768 14.1429 10.6406 14.1429 9.94643C14.1429 8.96205 13.1808 8.16071 12 8.16071C10.8192 8.16071 9.85714 8.96205 9.85714 9.94643V10.1161C9.85714 10.2143 9.77679 10.2946 9.67857 10.2946H8.60714C8.50893 10.2946 8.42857 10.2143 8.42857 10.1161V9.94643C8.42857 9.0692 8.8125 8.25 9.50893 7.64063C10.1786 7.05357 11.0625 6.73214 12 6.73214C12.9375 6.73214 13.8214 7.0558 14.4911 7.64063C15.1875 8.25 15.5714 9.0692 15.5714 9.94643C15.5714 11.2366 14.721 12.3973 13.404 12.904Z"
            fill="currentColor"/>
    </symbol>

    <symbol id="question-answer">
        <path d="M4 6H2V20C2 21.1 2.9 22 4 22H18V20H4V6Z" fill="#444444"/>
        <path
            d="M20 2H8C6.9 2 6 2.9 6 4V16C6 17.1 6.9 18 8 18H20C21.1 18 22 17.1 22 16V4C22 2.9 21.1 2 20 2ZM14.01 15C13.42 15 12.96 14.53 12.96 13.95C12.96 13.36 13.43 12.91 14.01 12.91C14.6 12.91 15.05 13.36 15.05 13.95C15.04 14.53 14.6 15 14.01 15ZM16.51 8.83C15.88 9.76 15.28 10.04 14.95 10.64C14.82 10.88 14.77 11.04 14.77 11.82H13.25C13.25 11.41 13.19 10.74 13.51 10.17C13.92 9.44 14.69 9.01 15.14 8.37C15.62 7.69 15.35 6.43 14 6.43C13.12 6.43 12.68 7.1 12.5 7.66L11.13 7.09C11.51 5.96 12.52 5 13.99 5C15.22 5 16.07 5.56 16.5 6.26C16.87 6.87 17.08 7.99 16.51 8.83Z"
            fill="#444444"/>
    </symbol>

    <symbol id="question-latter">
        <circle cx="14" cy="16" r="13.5" fill="white" stroke="#E6413C"/>
        <path
            d="M15.1684 19.122L18 21.1638L17.0051 22L14.2194 19.9861L15.1684 19.122ZM17.9617 14.892V15.5331C17.9617 16.295 17.8571 16.9779 17.648 17.5819C17.4388 18.1858 17.1378 18.6992 16.7449 19.122C16.352 19.5447 15.8801 19.8676 15.3291 20.0906C14.7832 20.3136 14.1709 20.4251 13.4923 20.4251C12.8342 20.4251 12.2296 20.3136 11.6786 20.0906C11.1327 19.8676 10.6582 19.5447 10.2551 19.122C9.85714 18.6992 9.54847 18.1858 9.32908 17.5819C9.10969 16.9779 9 16.295 9 15.5331V14.892C9 14.1301 9.10714 13.4495 9.32143 12.8502C9.54082 12.2462 9.84949 11.7329 10.2474 11.3101C10.6454 10.8827 11.1173 10.5575 11.6633 10.3345C12.2143 10.1115 12.8189 10 13.477 10C14.1556 10 14.7704 10.1115 15.3214 10.3345C15.8724 10.5575 16.3444 10.8827 16.7372 11.3101C17.1301 11.7329 17.4311 12.2462 17.6403 12.8502C17.8546 13.4495 17.9617 14.1301 17.9617 14.892ZM16.5 15.5331V14.878C16.5 14.2741 16.4311 13.7398 16.2934 13.2753C16.1607 12.8107 15.9643 12.4204 15.7041 12.1045C15.4439 11.7886 15.1276 11.5494 14.7551 11.3868C14.3827 11.2242 13.9566 11.1429 13.477 11.1429C13.023 11.1429 12.6097 11.2242 12.2372 11.3868C11.8699 11.5494 11.5536 11.7886 11.2883 12.1045C11.023 12.4204 10.8189 12.8107 10.676 13.2753C10.5332 13.7398 10.4617 14.2741 10.4617 14.878V15.5331C10.4617 16.1417 10.5332 16.6806 10.676 17.1498C10.8189 17.6144 11.023 18.007 11.2883 18.3275C11.5587 18.6434 11.8801 18.8827 12.2526 19.0453C12.625 19.2079 13.0383 19.2892 13.4923 19.2892C13.9719 19.2892 14.398 19.2079 14.7704 19.0453C15.1429 18.8827 15.4566 18.6434 15.7117 18.3275C15.9719 18.007 16.1684 17.6144 16.301 17.1498C16.4337 16.6806 16.5 16.1417 16.5 15.5331Z"
            fill="#E6413C"/>
    </symbol>

    <symbol id="respo">
        <path
            d="M16 9.63636C16 8.67194 16.389 7.74702 17.0815 7.06507C17.7739 6.38312 18.713 6 19.6923 6H27.0769C27.3217 6 27.5565 6.09578 27.7296 6.26627C27.9027 6.43675 28 6.66799 28 6.90909V21.4545C28 21.6957 27.9027 21.9269 27.7296 22.0974C27.5565 22.2679 27.3217 22.3636 27.0769 22.3636H19.6923C18.713 22.3636 17.7739 22.7468 17.0815 23.4287C16.389 24.1107 16 25.0356 16 26"
            stroke="#E5413C" stroke-width="1.5" stroke-linecap="round" stroke-linejoin="round"/>
        <path
            d="M4 21.4545C4 21.6957 4.09725 21.9269 4.27036 22.0974C4.44347 22.2679 4.67826 22.3636 4.92308 22.3636H12.3077C13.287 22.3636 14.2261 22.7468 14.9185 23.4287C15.611 24.1107 16 25.0356 16 26V9.63636C16 8.67194 15.611 7.74702 14.9185 7.06507C14.2261 6.38312 13.287 6 12.3077 6H4.92308C4.67826 6 4.44347 6.09578 4.27036 6.26627C4.09725 6.43675 4 6.66799 4 6.90909V21.4545Z"
            stroke="#E5413C" stroke-width="1.5" stroke-linecap="round" stroke-linejoin="round"/>
    </symbol>

    <symbol id="scales">
        <path
            d="M16 5V27" stroke="#E5413C" stroke-width="1.5" stroke-linecap="round" stroke-linejoin="round"/>
        <path
            d="M13 27H19" stroke="#E5413C" stroke-width="1.5" stroke-linecap="round" stroke-linejoin="round"/>
        <path
            d="M7 11L25 7" stroke="#E5413C" stroke-width="1.5" stroke-linecap="round" stroke-linejoin="round"/>
        <path
            d="M3 21C3 23.2125 5.5 24 7 24C8.5 24 11 23.2125 11 21L7 11L3 21Z" stroke="#E5413C" stroke-width="1.5"
            stroke-linecap="round" stroke-linejoin="round"/>
        <path
            d="M21 17C21 19.2125 23.5 20 25 20C26.5 20 29 19.2125 29 17L25 7L21 17Z" stroke="#E5413C" stroke-width="1.5"
            stroke-linecap="round" stroke-linejoin="round"/>
    </symbol>

    <symbol id="screen">
        <path
            opacity="0.15"
            d="M3 6C3 5.44771 3.44772 5 4 5H18C18.5523 5 19 5.44772 19 6V15C19 15.5523 18.5523 16 18 16H4C3.44772 16 3 15.5523 3 15V6Z"
            fill="#E5413C"/>
        <path
            d="M15 20.75C15.4142 20.75 15.75 20.4142 15.75 20C15.75 19.5858 15.4142 19.25 15 19.25V20.75ZM7 19.25C6.58579 19.25 6.25 19.5858 6.25 20C6.25 20.4142 6.58579 20.75 7 20.75V19.25ZM11 20.75H15V19.25H11V20.75ZM11 19.25H7V20.75H11V19.25ZM11.75 20V16H10.25V20H11.75ZM4 5.75H18V4.25H4V5.75ZM18.25 6V15H19.75V6H18.25ZM3.75 15V6H2.25V15H3.75ZM4 15.25C3.86193 15.25 3.75 15.1381 3.75 15H2.25C2.25 15.9665 3.0335 16.75 4 16.75V15.25ZM18.25 15C18.25 15.1381 18.1381 15.25 18 15.25V16.75C18.9665 16.75 19.75 15.9665 19.75 15H18.25ZM18 5.75C18.1381 5.75 18.25 5.86193 18.25 6H19.75C19.75 5.0335 18.9665 4.25 18 4.25V5.75ZM4 4.25C3.0335 4.25 2.25 5.0335 2.25 6H3.75C3.75 5.86193 3.86193 5.75 4 5.75V4.25ZM4 16.75H11V15.25H4V16.75ZM11 16.75H18V15.25H11V16.75Z"
            fill="#E5413C"/>
        <path
            opacity="0.15"
            d="M16 12C16 11.1716 16.6716 10.5 17.5 10.5H23.5C24.3284 10.5 25 11.1716 25 12V22.5C25 23.3284 24.3284 24 23.5 24H17.5C16.6716 24 16 23.3284 16 22.5V12Z"
            fill="#E5413C"/>
        <path
            d="M23.5 10.5H17.5C16.6716 10.5 16 11.1716 16 12V22.5C16 23.3284 16.6716 24 17.5 24H23.5C24.3284 24 25 23.3284 25 22.5V12C25 11.1716 24.3284 10.5 23.5 10.5Z"
            fill="#F7D9DB"/>
        <path
            d="M20.5 21.7575V21.75M17.5 10.5H23.5C24.3284 10.5 25 11.1716 25 12V22.5C25 23.3284 24.3284 24 23.5 24H17.5C16.6716 24 16 23.3284 16 22.5V12C16 11.1716 16.6716 10.5 17.5 10.5Z"
            stroke="#E5413C" stroke-width="1.5" stroke-linecap="round" stroke-linejoin="round"/>
    </symbol>

    <symbol id="search">
        <path
            d="M19.2929 20.7071C19.6834 21.0976 20.3166 21.0976 20.7071 20.7071C21.0976 20.3166 21.0976 19.6834 20.7071 19.2929L19.2929 20.7071ZM16.5104 15.0962C16.1199 14.7057 15.4867 14.7057 15.0962 15.0962C14.7057 15.4867 14.7057 16.1199 15.0962 16.5104L16.5104 15.0962ZM10.5 17C6.91015 17 4 14.0899 4 10.5H2C2 15.1944 5.80558 19 10.5 19V17ZM4 10.5C4 6.91015 6.91015 4 10.5 4V2C5.80558 2 2 5.80558 2 10.5H4ZM10.5 4C14.0899 4 17 6.91015 17 10.5H19C19 5.80558 15.1944 2 10.5 2V4ZM17 10.5C17 14.0899 14.0899 17 10.5 17V19C15.1944 19 19 15.1944 19 10.5H17ZM20.7071 19.2929L16.5104 15.0962L15.0962 16.5104L19.2929 20.7071L20.7071 19.2929Z"
            fill="currentColor"/>
    </symbol>

    <symbol id="seminar">
        <path
            fill-rule="evenodd" clip-rule="evenodd"
            d="M8.25 7C8.25 6.0335 9.0335 5.25 10 5.25H28C28.9665 5.25 29.75 6.0335 29.75 7V20H30C30.5523 20 31 20.4477 31 21V23C31 23.5523 30.5523 24 30 24H19C18 24 18 22.5 19 22.5H29.5V21.5H17C16 21.5 16 20 17 20H28.25V7C28.25 6.86193 28.1381 6.75 28 6.75H10C9.86193 6.75 9.75 6.86193 9.75 7V8.00438C9.75 9 8.25 9 8.25 8.00438V7Z"
            fill="#E5413C"/>
        <circle cx="10" cy="15" r="5" stroke="#E5413C" stroke-width="1.5"/>
        <path
            d="M18 28C18 23.5817 14.4183 20 10 20C5.58172 20 2 23.5817 2 28" stroke="#E5413C" stroke-width="1.5"
            stroke-linecap="round"/>
    </symbol>

    <symbol id="share-link">
        <path
            d="M15 15C14.4477 15 14 15.4477 14 16C14 16.5523 14.4477 17 15 17V15ZM15 7C14.4477 7 14 7.44772 14 8C14 8.55228 14.4477 9 15 9V7ZM8 11C7.44772 11 7 11.4477 7 12C7 12.5523 7.44772 13 8 13V11ZM16 13C16.5523 13 17 12.5523 17 12C17 11.4477 16.5523 11 16 11V13ZM9 9C9.55228 9 10 8.55228 10 8C10 7.44772 9.55228 7 9 7V9ZM9 17C9.55228 17 10 16.5523 10 16C10 15.4477 9.55228 15 9 15V17ZM17 9C18.6569 9 20 10.3431 20 12H22C22 9.23858 19.7614 7 17 7V9ZM20 12C20 13.6569 18.6569 15 17 15V17C19.7614 17 22 14.7614 22 12H20ZM17 15H15V17H17V15ZM17 7H15V9H17V7ZM8 13H16V11H8V13ZM7 15C5.34315 15 4 13.6569 4 12H2C2 14.7614 4.23858 17 7 17V15ZM4 12C4 10.3431 5.34315 9 7 9V7C4.23858 7 2 9.23858 2 12H4ZM7 9H9V7H7V9ZM7 17H9V15H7V17Z"
            fill="#238AEB"/>
    </symbol>

    <symbol id="student">
        <path
            d="M4 8V18" stroke="#E5413C" stroke-width="1.5" stroke-linecap="round" stroke-linejoin="round"/>
        <path
            d="M6.77539 26.9999C7.77597 25.4653 9.14361 24.2045 10.7544 23.3317C12.3653 22.459 14.1683 22.002 16.0004 22.002C17.8324 22.002 19.6355 22.459 21.2464 23.3317C22.8572 24.2045 24.2248 25.4653 25.2254 26.9999"
            stroke="#E5413C" stroke-width="1.5" stroke-linecap="round" stroke-linejoin="round"/>
        <path
            d="M28 8L16 12L4 8L16 4L28 8Z" stroke="#E5413C" stroke-width="1.5" stroke-linecap="round"
            stroke-linejoin="round"/>
        <path
            d="M21.1625 10.2754C22.0798 11.2771 22.6859 12.5241 22.9068 13.8643C23.1277 15.2044 22.954 16.58 22.4067 17.8231C21.8595 19.0663 20.9624 20.1233 19.8248 20.8655C18.6872 21.6077 17.3583 22.0028 16 22.0028C14.6417 22.0028 13.3128 21.6077 12.1752 20.8655C11.0376 20.1233 10.1405 19.0663 9.59329 17.8231C9.04604 16.58 8.87229 15.2044 9.09322 13.8643C9.31414 12.5241 9.9202 11.2771 10.8375 10.2754"
            stroke="#E5413C" stroke-width="1.5" stroke-linecap="round" stroke-linejoin="round"/>
    </symbol>

    <symbol id="trash">
        <path
            d="M10.75 10C10.75 9.58579 10.4142 9.25 10 9.25C9.58579 9.25 9.25 9.58579 9.25 10H10.75ZM9.25 16C9.25 16.4142 9.58579 16.75 10 16.75C10.4142 16.75 10.75 16.4142 10.75 16H9.25ZM14.75 10C14.75 9.58579 14.4142 9.25 14 9.25C13.5858 9.25 13.25 9.58579 13.25 10H14.75ZM13.25 16C13.25 16.4142 13.5858 16.75 14 16.75C14.4142 16.75 14.75 16.4142 14.75 16H13.25ZM18.75 6C18.75 5.58579 18.4142 5.25 18 5.25C17.5858 5.25 17.25 5.58579 17.25 6H18.75ZM6.75 6C6.75 5.58579 6.41421 5.25 6 5.25C5.58579 5.25 5.25 5.58579 5.25 6H6.75ZM4 5.25C3.58579 5.25 3.25 5.58579 3.25 6C3.25 6.41421 3.58579 6.75 4 6.75V5.25ZM20 6.75C20.4142 6.75 20.75 6.41421 20.75 6C20.75 5.58579 20.4142 5.25 20 5.25V6.75ZM14.25 6C14.25 6.41421 14.5858 6.75 15 6.75C15.4142 6.75 15.75 6.41421 15.75 6H14.25ZM8.25 6C8.25 6.41421 8.58579 6.75 9 6.75C9.41421 6.75 9.75 6.41421 9.75 6H8.25ZM9.25 10V16H10.75V10H9.25ZM13.25 10V16H14.75V10H13.25ZM17.25 6V18H18.75V6H17.25ZM16 19.25H8V20.75H16V19.25ZM6.75 18V6H5.25V18H6.75ZM8 19.25C7.30964 19.25 6.75 18.6904 6.75 18H5.25C5.25 19.5188 6.48122 20.75 8 20.75V19.25ZM17.25 18C17.25 18.6904 16.6904 19.25 16 19.25V20.75C17.5188 20.75 18.75 19.5188 18.75 18H17.25ZM4 6.75H20V5.25H4V6.75ZM15.75 6V5H14.25V6H15.75ZM13 2.25H11V3.75H13V2.25ZM8.25 5V6H9.75V5H8.25ZM11 2.25C9.48122 2.25 8.25 3.48122 8.25 5H9.75C9.75 4.30964 10.3096 3.75 11 3.75V2.25ZM15.75 5C15.75 3.48122 14.5188 2.25 13 2.25V3.75C13.6904 3.75 14.25 4.30964 14.25 5H15.75Z"
            fill="#242424"/>
    </symbol>

    <symbol id="user">
        <path
            d="M26.8282 23.8625C26.2387 22.4662 25.3832 21.1978 24.3095 20.1281C23.2389 19.0553 21.9708 18.2 20.5751 17.6094C20.5626 17.6031 20.5501 17.6 20.5376 17.5938C22.4845 16.1875 23.7501 13.8969 23.7501 11.3125C23.7501 7.03125 20.2813 3.5625 16.0001 3.5625C11.7188 3.5625 8.25008 7.03125 8.25008 11.3125C8.25008 13.8969 9.5157 16.1875 11.4626 17.5969C11.4501 17.6031 11.4376 17.6062 11.4251 17.6125C10.0251 18.2031 8.76883 19.05 7.6907 20.1313C6.61792 21.2018 5.76259 22.4699 5.17195 23.8656C4.59171 25.232 4.27877 26.697 4.25008 28.1812C4.24924 28.2146 4.25509 28.2478 4.26728 28.2788C4.27947 28.3099 4.29776 28.3382 4.32105 28.3621C4.34435 28.386 4.3722 28.4049 4.40294 28.4179C4.43369 28.4308 4.46672 28.4375 4.50008 28.4375H6.37508C6.51258 28.4375 6.62195 28.3281 6.62508 28.1938C6.68758 25.7812 7.65633 23.5219 9.36883 21.8094C11.1407 20.0375 13.4938 19.0625 16.0001 19.0625C18.5063 19.0625 20.8595 20.0375 22.6313 21.8094C24.3438 23.5219 25.3126 25.7812 25.3751 28.1938C25.3782 28.3313 25.4876 28.4375 25.6251 28.4375H27.5001C27.5334 28.4375 27.5665 28.4308 27.5972 28.4179C27.628 28.4049 27.6558 28.386 27.6791 28.3621C27.7024 28.3382 27.7207 28.3099 27.7329 28.2788C27.7451 28.2478 27.7509 28.2146 27.7501 28.1812C27.7188 26.6875 27.4095 25.2344 26.8282 23.8625ZM16.0001 16.6875C14.5657 16.6875 13.2157 16.1281 12.2001 15.1125C11.1845 14.0969 10.6251 12.7469 10.6251 11.3125C10.6251 9.87813 11.1845 8.52812 12.2001 7.5125C13.2157 6.49687 14.5657 5.9375 16.0001 5.9375C17.4345 5.9375 18.7845 6.49687 19.8001 7.5125C20.8157 8.52812 21.3751 9.87813 21.3751 11.3125C21.3751 12.7469 20.8157 14.0969 19.8001 15.1125C18.7845 16.1281 17.4345 16.6875 16.0001 16.6875Z"
            fill="#E5413C"/>
    </symbol>

    <symbol id="zoom">
        <path
            d="M21.9246 19.9243C23.8938 17.9551 25 15.2844 25 12.4996C25 9.71486 23.8938 7.04414 21.9246 5.07501C19.9555 3.10588 17.2848 1.99963 14.5 1.99963C11.7152 1.99963 9.04451 3.10588 7.07538 5.07501L14.5 12.4996L21.9246 19.9243Z"
            fill="#EB504B" fill-opacity="0.3"/>
        <path
            d="M14.5 25C20.299 25 25 20.299 25 14.5C25 8.70101 20.299 4 14.5 4C8.70101 4 4 8.70101 4 14.5C4 20.299 8.70101 25 14.5 25Z"
            stroke="#E5413C" stroke-width="1.5" stroke-linecap="round" stroke-linejoin="round"/>
        <path
            d="M21.9248 21.9248L27.9998 27.9998" stroke="#E5413C" stroke-width="1.5" stroke-linecap="round"
            stroke-linejoin="round"/>
    </symbol>

    <symbol id="building">
        <path
            fill-rule="evenodd" clip-rule="evenodd"
            d="M29.526 0.149765C29.6709 0.239354 29.7904 0.364456 29.8734 0.513211C29.9563 0.661966 29.9999 0.829444 30 0.999765V30.9998C30 31.265 29.8946 31.5193 29.7071 31.7069C29.5196 31.8944 29.2652 31.9998 29 31.9998H23C22.7348 31.9998 22.4804 31.8944 22.2929 31.7069C22.1054 31.5193 22 31.265 22 30.9998V27.9998H20V30.9998C20 31.265 19.8946 31.5193 19.7071 31.7069C19.5196 31.8944 19.2652 31.9998 19 31.9998H1C0.734784 31.9998 0.48043 31.8944 0.292893 31.7069C0.105357 31.5193 0 31.265 0 30.9998V19.9998C0.000159293 19.79 0.0662962 19.5855 0.18905 19.4154C0.311804 19.2453 0.484956 19.1181 0.684 19.0518L12 15.2798V8.99977C12 8.81421 12.0516 8.63231 12.1491 8.47443C12.2466 8.31654 12.3861 8.1889 12.552 8.10577L28.552 0.105765C28.7046 0.0293765 28.8742 -0.00668281 29.0447 0.00101896C29.2152 0.00872073 29.3809 0.0599273 29.526 0.149765ZM12 17.3878L2 20.7198V29.9998H12V17.3878ZM14 29.9998H18V26.9998C18 26.7346 18.1054 26.4802 18.2929 26.2927C18.4804 26.1051 18.7348 25.9998 19 25.9998H23C23.2652 25.9998 23.5196 26.1051 23.7071 26.2927C23.8946 26.4802 24 26.7346 24 26.9998V29.9998H28V2.61777L14 9.61777V29.9998Z"
            fill="#1F89DE"/>
        <path
            d="M4 22H6V24H4V22ZM8 22H10V24H8V22ZM4 26H6V28H4V26ZM8 26H10V28H8V26ZM16 18H18V20H16V18ZM20 18H22V20H20V18ZM16 22H18V24H16V22ZM20 22H22V24H20V22ZM24 18H26V20H24V18ZM24 22H26V24H24V22ZM16 14H18V16H16V14ZM20 14H22V16H20V14ZM24 14H26V16H24V14ZM16 10H18V12H16V10ZM20 10H22V12H20V10ZM24 10H26V12H24V10ZM24 6H26V8H24V6Z"
            fill="#1F89DE"/>
    </symbol>

    <symbol id="calendar">
        <path
            d="M20 3H19V1H17V3H7V1H5V3H4C2.9 3 2 3.9 2 5V21C2 22.1 2.9 23 4 23H20C21.1 23 22 22.1 22 21V5C22 3.9 21.1 3 20 3ZM20 21H4V8H20V21Z"
            fill="#E5413C"/>
    </symbol>

    <symbol id="gallery">
        <path
            d="M29.3327 24.0003V8.00033C29.3327 6.58584 28.7708 5.22928 27.7706 4.22909C26.7704 3.2289 25.4138 2.66699 23.9993 2.66699H7.99935C6.58486 2.66699 5.22831 3.2289 4.22811 4.22909C3.22792 5.22928 2.66602 6.58584 2.66602 8.00033V24.0003C2.66602 25.4148 3.22792 26.7714 4.22811 27.7716C5.22831 28.7718 6.58486 29.3337 7.99935 29.3337M29.3327 24.0003C29.3327 25.4148 28.7708 26.7714 27.7706 27.7716C26.7704 28.7718 25.4138 29.3337 23.9993 29.3337H7.99935M29.3327 24.0003L29.3327 24.1777C29.3327 25.5451 28.7895 26.8566 27.8225 27.8235C26.8556 28.7904 25.5441 29.3337 24.1767 29.3337L7.99935 29.3337M29.3327 24.0003C29.3327 23.379 29.0993 23.1403 28.6793 22.6803L23.306 16.8203C23.0556 16.5471 22.751 16.3292 22.4116 16.1803C22.0722 16.0314 21.7055 15.9549 21.3349 15.9557C20.9643 15.9564 20.5979 16.0344 20.2592 16.1847C19.9204 16.3349 19.6167 16.5541 19.3673 16.8283L7.99935 29.3337M14.666 11.3337C14.666 13.1746 13.1736 14.667 11.3327 14.667C9.49173 14.667 7.99935 13.1746 7.99935 11.3337C7.99935 9.49271 9.49173 8.00033 11.3327 8.00033C13.1736 8.00033 14.666 9.49271 14.666 11.3337Z"
            stroke="#242424" stroke-width="2" stroke-linecap="round" stroke-linejoin="round"/>
    </symbol>

    <symbol id="move">
        <path d="M15.75 15.75H20.25V3.75H8.25V8.25" stroke="#242424" stroke-width="1.5" stroke-linecap="round"
              stroke-linejoin="round"/>
        <path d="M15.75 8.25H3.75V20.25H15.75V8.25Z" stroke="#242424" stroke-width="1.5" stroke-linecap="round"
              stroke-linejoin="round"/>
    </symbol>

    <symbol id="union" fill="url(#path-1-inside-1_6167_8077)">
        <path
            d="M4.16628 15.18H2.66628C2.66629 15.7168 2.95318 16.2127 3.41855 16.4803L4.16628 15.18ZM10.8327 19.0133L10.085 20.3137C10.5479 20.5799 11.1175 20.5799 11.5804 20.3137L10.8327 19.0133ZM4.16602 4.84668L2.66602 4.84619V4.84672L4.16602 4.84668ZM5.00814 3.17994L4.45585 1.78532L5.00814 3.17994ZM6.69158 3.17995L7.71055 2.07918C7.59561 1.97277 7.4647 1.88503 7.32261 1.81914L6.69158 3.17995ZM10.8327 7.01332L9.81371 8.11409C10.3887 8.64639 11.2766 8.64639 11.8517 8.11409L10.8327 7.01332ZM14.9738 3.17995L14.3428 1.81914C14.2007 1.88503 14.0698 1.97277 13.9548 2.07918L14.9738 3.17995ZM16.6572 3.17994L16.1049 4.57456L16.6572 3.17994ZM17.4993 4.84668L18.9993 4.84672V4.84619L17.4993 4.84668ZM17.4991 15.18L18.2468 16.4803C18.7122 16.2127 18.9991 15.7168 18.9991 15.18H17.4991ZM3.41855 16.4803L10.085 20.3137L11.5804 17.713L4.91401 13.8796L3.41855 16.4803ZM2.66602 4.84672L2.66628 15.18L5.66628 15.1799L5.66602 4.84664L2.66602 4.84672ZM4.45585 1.78532C4.15719 1.90359 3.57185 2.15207 3.15425 2.80029C2.77171 3.39409 2.66626 4.10823 2.66602 4.84619L5.66602 4.84717C5.66609 4.60579 5.68513 4.46775 5.69977 4.39966C5.71345 4.33602 5.71736 4.36114 5.67621 4.42501C5.65584 4.45663 5.62956 4.48967 5.59812 4.52094C5.56705 4.55186 5.538 4.57402 5.51658 4.58834C5.4818 4.61158 5.47248 4.6094 5.56044 4.57456L4.45585 1.78532ZM7.32261 1.81914C6.22555 1.31042 5.19017 1.49452 4.45585 1.78532L5.56044 4.57456C5.69173 4.52257 5.79148 4.50305 5.86451 4.50034C5.92811 4.49798 5.9879 4.50707 6.06055 4.54076L7.32261 1.81914ZM11.8517 5.91254L7.71055 2.07918L5.67261 4.28072L9.81371 8.11409L11.8517 5.91254ZM11.8517 8.11409L15.9928 4.28072L13.9548 2.07918L9.81371 5.91254L11.8517 8.11409ZM15.6048 4.54076C15.6775 4.50707 15.7373 4.49798 15.8009 4.50034C15.8739 4.50305 15.9736 4.52257 16.1049 4.57456L17.2095 1.78532C16.4752 1.49452 15.4398 1.31042 14.3428 1.81914L15.6048 4.54076ZM16.1049 4.57456C16.1929 4.6094 16.1836 4.61158 16.1488 4.58834C16.1274 4.57402 16.0983 4.55186 16.0672 4.52094C16.0358 4.48967 16.0095 4.45663 15.9892 4.42501C15.948 4.36114 15.9519 4.33602 15.9656 4.39966C15.9802 4.46775 15.9993 4.60579 15.9993 4.84717L18.9993 4.84619C18.9991 4.10823 18.8937 3.39409 18.5111 2.80029C18.0935 2.15207 17.5082 1.90359 17.2095 1.78532L16.1049 4.57456ZM15.9993 4.84664L15.9991 15.1799L18.9991 15.18L18.9993 4.84672L15.9993 4.84664ZM16.7514 13.8796L10.085 17.713L11.5804 20.3137L18.2468 16.4803L16.7514 13.8796Z"
            fill="#0E80DD"/>
        <path
            d="M10.8327 19.0133L4.16628 15.18L4.16602 4.84668C4.16643 3.59661 4.54947 3.36158 5.00814 3.17994C5.50305 2.98395 6.08733 2.89975 6.69158 3.17995L10.8327 7.01332L14.9738 3.17995C15.578 2.89975 16.1623 2.98395 16.6572 3.17994C17.1159 3.36158 17.4989 3.59661 17.4993 4.84668L17.4991 15.18L10.8327 19.0133Z"
            fill="white"/>
        <path
            d="M17.4997 16.30L10.8333 19.0133V7.01332L14.9744 2.17995C15.5787 1.59975 20.163 2.98396 17.6579 3.17995C17.1165 1.36159 17.7996 3.59661 18.5 4.84668L17.4997 15.18Z"
            fill="#0E80DD"/>
    </symbol>

    <symbol id="simulation">
        <path d="M28.3335 26H4.3335V6M26.3335 8L16.3335 18L12.3335 14L4.3335 22M26.3335 8V13M26.3335 8H21.3335"
              stroke="#E5413C" stroke-width="1.5" stroke-linecap="round" stroke-linejoin="round"/>
        <path fill-rule="evenodd" clip-rule="evenodd"
              d="M19.3334 17L16.0405 13.7071C15.65 13.3166 15.0168 13.3166 14.6263 13.7071L9.22226 19.1111L7.07073 21.2626C6.88318 21.4502 6.77782 21.7046 6.77783 21.9698L6.77788 23C6.7779 23.5523 7.22561 24 7.77788 24H23.9192C23.9241 24 23.929 24 23.9339 23.9999H29.3335C29.8857 23.9999 30.3335 23.5522 30.3335 22.9999V8.41412C30.3335 7.52321 29.2563 7.07704 28.6264 7.70701L20.3335 15.9999L19.3334 17Z"
              fill="#EB504B" fill-opacity="0.3"/>
    </symbol>

    <symbol id="simulation-orange">
        <path stroke="#F07800" stroke-linecap="round" stroke-linejoin="round" stroke-width="1.875" d="M35 32.5H5v-25M32.5 10 20 22.5l-5-5-10 10M32.5 10v6.25m0-6.25h-6.25"/><path fill="#F07800" fill-opacity=".3" fill-rule="evenodd" d="m23.75 21.25-4.115-4.116a1.25 1.25 0 0 0-1.768 0l-6.755 6.755-2.69 2.69a1.25 1.25 0 0 0-.365.884v1.287c0 .69.56 1.25 1.25 1.25H36.25c.69 0 1.25-.56 1.25-1.25V10.518c0-1.114-1.346-1.671-2.134-.884L25 20l-1.25 1.25Z" clip-rule="evenodd"/>
    </symbol>

    <symbol id="books">
        <path
            d="M11.6665 6.00001C11.6665 5.44772 11.2188 5.00001 10.6665 5.00001H6.6665C6.11422 5.00001 5.6665 5.44772 5.6665 6.00001V26C5.6665 26.5523 6.11422 27 6.6665 27H10.6665C11.2188 27 11.6665 26.5523 11.6665 26M11.6665 6.00001V26M11.6665 6.00001C11.6665 5.44772 12.1142 5.00001 12.6665 5.00001H16.6665C17.2188 5.00001 17.6665 5.44772 17.6665 6.00001V26C17.6665 26.5523 17.2188 27 16.6665 27H12.6665C12.1142 27 11.6665 26.5523 11.6665 26M5.6665 10H11.6665M11.6665 22H17.6665M22.0665 22.4L27.8665 20.8375M18.9665 10.8L24.7665 9.25001M18.6333 5.71511L22.497 4.67983C23.0304 4.53689 23.5788 4.85347 23.7217 5.38694L28.8981 24.7055C29.041 25.2389 28.7245 25.7873 28.191 25.9302L24.3273 26.9655C23.7938 27.1084 23.2455 26.7918 23.1025 26.2584L17.9262 6.93985C17.7832 6.40639 18.0998 5.85805 18.6333 5.71511Z"
            stroke="#E5413C" stroke-width="1.5" stroke-linecap="round" stroke-linejoin="round"/>
        <path
            d="M24.4971 4.67954L20.6334 5.71481C20.0999 5.85776 19.7834 6.40609 19.9263 6.93956L25.1027 26.2581C25.2456 26.7915 25.794 27.1081 26.3274 26.9652L30.1911 25.9299C30.7246 25.787 31.0412 25.2386 30.8982 24.7052L25.7219 5.38664C25.5789 4.85318 25.0306 4.5366 24.4971 4.67954Z"
            fill="#EB504B" fill-opacity="0.3"/>
    </symbol>

    <symbol id="question-2">
        <g clip-path="url(#clip0_11753_238175)">
            <path
                d="M18.8654 13.9891L18.7633 14.2117L18.8394 14.4445L21.1515 21.5109L14.7129 18.3574L14.4695 18.2382L14.2161 18.3342C13.295 18.6832 12.2955 18.8745 11.25 18.8745C6.62489 18.8745 2.8755 15.1251 2.8755 10.5C2.8755 5.87489 6.62489 2.1255 11.25 2.1255C15.8751 2.1255 19.6245 5.87489 19.6245 10.5C19.6245 11.7465 19.3526 12.9277 18.8654 13.9891Z"
                stroke="white" stroke-width="1.25101"/>
            <path
                d="M12.028 12.778C12.006 12.569 11.995 12.393 11.995 12.217C11.995 11.634 12.171 11.37 12.853 10.908C13.744 10.303 13.953 10.127 14.206 9.775C14.47 9.423 14.591 9.005 14.591 8.477C14.591 7.861 14.327 7.344 13.81 6.937C13.26 6.497 12.523 6.277 11.599 6.277C10.565 6.277 9.729 6.541 9.168 7.047C8.695 7.487 8.475 7.905 8.299 8.708L9.927 8.906C9.971 8.488 10.037 8.301 10.191 8.07C10.455 7.674 10.939 7.443 11.511 7.443C12.446 7.443 13.029 7.861 13.029 8.532C13.029 9.038 12.776 9.379 12.061 9.852C11.346 10.325 11.258 10.402 11.027 10.677C10.719 11.073 10.576 11.524 10.576 12.107L10.587 12.316C10.587 12.459 10.576 12.591 10.554 12.778H12.028ZM10.488 13.691V15.198H12.083V13.691H10.488Z"
                fill="white"/>
        </g>
        <defs>
            <clipPath id="clip0_11753_238175">
                <rect width="24" height="24" fill="white"/>
            </clipPath>
        </defs>
    </symbol>

    <symbol id="building-2">
        <path fill-rule="evenodd" clip-rule="evenodd"
              d="M5.5 3.5V28.5H12V25C12 24.4477 12.4477 24 13 24H19C19.5523 24 20 24.4477 20 25V28.5H26.5V3.5H5.5ZM20 30H26.5H28V28.5V3C28 2.44772 27.5523 2 27 2H5C4.44772 2 4 2.44771 4 3V28.5V30H5.5H12H13.5H18.5H20ZM18.5 28.5V25.5H13.5V28.5H18.5ZM9.3 7.3V8.7H10.7V7.3H9.3ZM8.5 6C8.22386 6 8 6.22386 8 6.5V9.5C8 9.77614 8.22386 10 8.5 10H11.5C11.7761 10 12 9.77614 12 9.5V6.5C12 6.22386 11.7761 6 11.5 6H8.5ZM9.3 14.7V13.3H10.7V14.7H9.3ZM8 12.5C8 12.2239 8.22386 12 8.5 12H11.5C11.7761 12 12 12.2239 12 12.5V15.5C12 15.7761 11.7761 16 11.5 16H8.5C8.22386 16 8 15.7761 8 15.5V12.5ZM9.3 19.3V20.7H10.7V19.3H9.3ZM8.5 18C8.22386 18 8 18.2239 8 18.5V21.5C8 21.7761 8.22386 22 8.5 22H11.5C11.7761 22 12 21.7761 12 21.5V18.5C12 18.2239 11.7761 18 11.5 18H8.5ZM15.3 8.7V7.3H16.7V8.7H15.3ZM14 6.5C14 6.22386 14.2239 6 14.5 6H17.5C17.7761 6 18 6.22386 18 6.5V9.5C18 9.77614 17.7761 10 17.5 10H14.5C14.2239 10 14 9.77614 14 9.5V6.5ZM15.3 13.3V14.7H16.7V13.3H15.3ZM14.5 12C14.2239 12 14 12.2239 14 12.5V15.5C14 15.7761 14.2239 16 14.5 16H17.5C17.7761 16 18 15.7761 18 15.5V12.5C18 12.2239 17.7761 12 17.5 12H14.5ZM15.3 20.7V19.3H16.7V20.7H15.3ZM14 18.5C14 18.2239 14.2239 18 14.5 18H17.5C17.7761 18 18 18.2239 18 18.5V21.5C18 21.7761 17.7761 22 17.5 22H14.5C14.2239 22 14 21.7761 14 21.5V18.5ZM21.3 7.3V8.7H22.7V7.3H21.3ZM20.5 6C20.2239 6 20 6.22386 20 6.5V9.5C20 9.77614 20.2239 10 20.5 10H23.5C23.7761 10 24 9.77614 24 9.5V6.5C24 6.22386 23.7761 6 23.5 6H20.5ZM21.3 14.7V13.3H22.7V14.7H21.3ZM20 12.5C20 12.2239 20.2239 12 20.5 12H23.5C23.7761 12 24 12.2239 24 12.5V15.5C24 15.7761 23.7761 16 23.5 16H20.5C20.2239 16 20 15.7761 20 15.5V12.5ZM21.3 19.3V20.7H22.7V19.3H21.3ZM20.5 18C20.2239 18 20 18.2239 20 18.5V21.5C20 21.7761 20.2239 22 20.5 22H23.5C23.7761 22 24 21.7761 24 21.5V18.5C24 18.2239 23.7761 18 23.5 18H20.5Z"
              fill="#0E80DD"/>
    </symbol>

    <symbol id="ideco">
        <path fill-rule="evenodd" clip-rule="evenodd"
              d="M14.8684 5.39398C14.8684 5.35732 14.8879 5.21345 15.1752 4.97912C15.4579 4.74848 15.9149 4.50563 16.5499 4.28648C17.8129 3.85067 19.61 3.56645 21.6331 3.56645C23.6563 3.56645 25.4534 3.85067 26.7163 4.28648C27.3514 4.50563 27.8084 4.74848 28.0911 4.97912C28.3778 5.21301 28.3978 5.35679 28.3978 5.39378V5.3953C28.3973 5.43399 28.375 5.57723 28.0911 5.80885C27.8084 6.03949 27.3514 6.28234 26.7163 6.50149C25.4534 6.9373 23.6563 7.22152 21.6331 7.22152C19.61 7.22152 17.8129 6.9373 16.5499 6.50149C15.9149 6.28234 15.4579 6.03949 15.1752 5.80885C14.8879 5.57452 14.8684 5.43065 14.8684 5.39398ZM30 5.39398L30 5.39898V15.8368C30 16.5211 29.5961 17.064 29.1176 17.4544C28.6346 17.8484 27.9836 18.1682 27.2496 18.4215C25.7742 18.9306 23.7885 19.2308 21.6331 19.2308C20.0758 19.2308 19.224 19.1488 18.2124 18.9C17.5856 19.7254 16.7682 20.3899 15.8284 20.8232C17.8247 21.2123 19.6806 22.0535 21.1752 23.2846C23.2992 25.0342 24.5326 27.4447 24.5326 30H22.9172C22.9172 27.9854 21.9469 26.0132 20.1481 24.5314C18.3449 23.046 15.8711 22.1923 13.2663 22.1923C10.6615 22.1923 8.18764 23.046 6.38446 24.5314C4.58571 26.0132 3.61535 27.9854 3.61535 30H2C2 27.4447 3.23341 25.0342 5.35741 23.2846C6.85192 22.0535 8.70787 21.2123 10.7042 20.8233C8.51571 19.8141 6.99108 17.5519 6.99108 14.9231C6.99108 11.3545 9.80057 8.46154 13.2663 8.46154C13.2663 8.46154 13.2663 8.46154 13.2663 8.46154V5.39378H13.2663C13.2663 4.7096 13.6702 4.16673 14.1487 3.7764C14.6317 3.38235 15.2826 3.06263 16.0167 2.80932C17.492 2.30023 19.4778 2 21.6331 2C23.7885 2 25.7742 2.30023 27.2496 2.80932C27.9836 3.06263 28.6346 3.38235 29.1176 3.7764C29.5961 4.16677 30 4.70971 30 5.39398ZM14.8684 8.67405C15.9448 8.96589 16.9081 9.54478 17.6765 10.3264L17.6767 10.3253C18.7753 10.5623 20.2132 10.7024 21.633 10.7024C23.6561 10.7024 25.4532 10.4182 26.7162 9.98236C27.3512 9.76321 27.8082 9.52036 28.0909 9.28971C28.3782 9.05539 28.3977 8.91151 28.3977 8.87485H28.3978V7.48485C28.0517 7.67156 27.6639 7.83568 27.2496 7.97864C25.7742 8.48774 23.7885 8.78797 21.6331 8.78797C19.4778 8.78797 17.492 8.48774 16.0167 7.97864C15.6024 7.83568 15.2145 7.67155 14.8684 7.48485V8.67405ZM18.9184 12.1127C19.2032 12.7189 19.3987 13.3779 19.4874 14.0715C20.163 14.1434 20.8837 14.1824 21.6331 14.1824C23.6562 14.1824 25.4533 13.8982 26.7163 13.4624C27.3514 13.2432 27.8083 13.0004 28.0911 12.7697C28.3783 12.5354 28.3978 12.3915 28.3978 12.3549H28.3978V10.9656C28.0517 11.1524 27.6638 11.3165 27.2494 11.4595C25.7741 11.9686 23.7883 12.2688 21.633 12.2688C20.7133 12.2688 19.7818 12.2142 18.9184 12.1127ZM19.5024 15.6479C19.4327 16.2908 19.2714 16.9052 19.0322 17.4769C19.7306 17.6152 20.4361 17.6643 21.6331 17.6643C23.6563 17.6643 25.4534 17.3801 26.7163 16.9443C27.3514 16.7252 27.8084 16.4823 28.0911 16.2517C28.3783 16.0173 28.3978 15.8735 28.3978 15.8368V14.4457C28.0517 14.6324 27.6638 14.7966 27.2495 14.9395C25.7742 15.4486 23.7884 15.7489 21.6331 15.7489C20.8967 15.7489 20.1822 15.7138 19.5024 15.6479ZM13.2663 19.7692C15.7956 19.7692 17.9261 17.6444 17.9261 14.9231C17.9261 12.2018 15.7956 10.0769 13.2663 10.0769C10.7369 10.0769 8.60643 12.2018 8.60643 14.9231C8.60643 17.6444 10.7369 19.7692 13.2663 19.7692Z"
              fill="#F07800"/>
    </symbol>

    <symbol id="item-2">
        <path
            d="M13.1992 7V6C13.1992 4.67392 13.726 3.40215 14.6637 2.46447C15.6014 1.52678 16.8731 1 18.1992 1C19.5253 1 20.7971 1.52678 21.7348 2.46447C22.6724 3.40215 23.1992 4.67392 23.1992 6V7H13.1992Z"
            fill="currentColor" fill-opacity="0.3"/>
        <path
            d="M12.1992 19H20.1992M12.1992 15H20.1992M20.1992 5H25.1992C25.4644 5 25.7188 5.10536 25.9063 5.29289C26.0939 5.48043 26.1992 5.73478 26.1992 6V27C26.1992 27.2652 26.0939 27.5196 25.9063 27.7071C25.7188 27.8946 25.4644 28 25.1992 28H7.19922C6.934 28 6.67965 27.8946 6.49211 27.7071C6.30458 27.5196 6.19922 27.2652 6.19922 27V6C6.19922 5.73478 6.30458 5.48043 6.49211 5.29289C6.67965 5.10536 6.934 5 7.19922 5H12.1992M11.1992 9V8C11.1992 6.67392 11.726 5.40215 12.6637 4.46447C13.6014 3.52678 14.8731 3 16.1992 3C17.5253 3 18.7971 3.52678 19.7348 4.46447C20.6724 5.40215 21.1992 6.67392 21.1992 8V9H11.1992Z"
            stroke="currentColor" stroke-width="1.5" stroke-linecap="round" stroke-linejoin="round"/>
    </symbol>

    <symbol id="clear-filled">
        <path d="M5.16667 3.83333H6.5V2.5H5.16667V3.83333ZM5.16667 9.16667H6.5V7.83333H5.16667V9.16667ZM5.16667 14.5H6.5V13.1667H5.16667V14.5ZM7.83333 11.8333H9.16667V10.5H7.83333V11.8333ZM7.83333 14.5H9.16667V13.1667H7.83333V14.5ZM2.5 14.5H3.83333V13.1667H2.5V14.5ZM2.5 11.8333H3.83333V10.5H2.5V11.8333ZM2.5 9.16667H3.83333V7.83333H2.5V9.16667ZM2.5 6.5H3.83333V5.16667H2.5V6.5ZM2.5 3.83333H3.83333V2.5H2.5V3.83333ZM7.83333 9.16667H9.16667V7.83333H7.83333V9.16667ZM13.1667 11.8333H14.5V10.5H13.1667V11.8333ZM13.1667 9.16667H14.5V7.83333H13.1667V9.16667ZM13.1667 14.5H14.5V13.1667H13.1667V14.5ZM13.1667 6.5H14.5V5.16667H13.1667V6.5ZM7.83333 6.5H9.16667V5.16667H7.83333V6.5ZM13.1667 2.5V3.83333H14.5V2.5H13.1667ZM7.83333 3.83333H9.16667V2.5H7.83333V3.83333ZM10.5 14.5H11.8333V13.1667H10.5V14.5ZM10.5 9.16667H11.8333V7.83333H10.5V9.16667ZM10.5 3.83333H11.8333V2.5H10.5V3.83333Z" fill="#000000" fill-opacity="0.54"/>
    </symbol>

    <symbol id="beginner">
        <path d="M32.4454 20.1968L18.5702 7.72478C16.2767 5.66319 12.625 7.2909 12.625 10.3748V40.6267C12.625 42.6484 13.4838 44.5751 14.9874 45.9267L32.0738 61.2852C32.2172 61.4141 32.4454 61.3124 32.4454 61.1196V20.1968Z" fill="white" stroke="#3B873E" stroke-width="2"/>
        <path d="M32.4454 20.1968L45.3697 8.03282C47.6436 5.89262 51.375 7.50485 51.375 10.6276V40.724C51.375 42.689 50.5637 44.5668 49.1328 45.9135L32.8207 61.266C32.6786 61.3998 32.4454 61.299 32.4454 61.1038V20.1968Z" fill="#E2EDE2" stroke="#3B873E" stroke-width="2"/>
    </symbol>

    <symbol id="chart-bar">
        <path d="M4.125 20V13.25H9.375" stroke="currentColor" stroke-width="1.5" stroke-linecap="round" stroke-linejoin="round"/>
        <path d="M21.375 20H2.625" stroke="currentColor" stroke-width="1.5" stroke-linecap="round" stroke-linejoin="round"/>
        <path d="M9.375 20V8.75H14.625" stroke="currentColor" stroke-width="1.5" stroke-linecap="round" stroke-linejoin="round"/>
        <path d="M19.875 4.25H14.625V20H19.875V4.25Z" stroke="currentColor" stroke-width="1.5" stroke-linecap="round" stroke-linejoin="round"/>
    </symbol>

    <symbol id="cross">
        <path fill="#242424" d="M7.05 5.637A1 1 0 0 0 5.638 7.05l4.95 4.95-4.95 4.95a1 1 0 1 0 1.414 1.414l4.95-4.95 4.95 4.95a1 1 0 0 0 1.414-1.415L13.415 12l4.95-4.95a1 1 0 0 0-1.415-1.413L12 10.587l-4.95-4.95Z"/>
    </symbol>
</svg>
