<svg width="48" height="48" viewBox="0 0 48 48" fill="none" xmlns="http://www.w3.org/2000/svg">
    <symbol id="navigation-1">
        <path
            d="M12 3.83057L12.4939 3.26613C12.2111 3.01871 11.7889 3.01871 11.5061 3.26613L12 3.83057ZM4 10.8306L3.50612 10.2661C3.34336 10.4085 3.25 10.6143 3.25 10.8306L4 10.8306ZM20 10.8306L20.75 10.8306C20.75 10.6143 20.6566 10.4086 20.4939 10.2661L20 10.8306ZM20 20.8306V21.5806C20.1989 21.5806 20.3897 21.5015 20.5303 21.3609C20.671 21.2202 20.75 21.0295 20.75 20.8306H20ZM15 20.8306H14.25C14.25 21.2448 14.5858 21.5806 15 21.5806V20.8306ZM14.1213 14.7092L14.6517 14.1789L14.6517 14.1789L14.1213 14.7092ZM9 20.8306V21.5806C9.41422 21.5806 9.75 21.2448 9.75 20.8306H9ZM4 20.8306H3.25C3.25 21.2448 3.58579 21.5806 4 21.5806V20.8306ZM11.5061 3.26613L3.50612 10.2661L4.49388 11.395L12.4939 4.395L11.5061 3.26613ZM20.4939 10.2661L12.4939 3.26613L11.5061 4.395L19.5061 11.395L20.4939 10.2661ZM19.25 10.8306L19.25 20.8306H20.75L20.75 10.8306L19.25 10.8306ZM20 20.0806H15V21.5806H20V20.0806ZM15.75 20.8306V16.8306H14.25V20.8306H15.75ZM15.75 16.8306C15.75 15.836 15.3549 14.8822 14.6517 14.1789L13.591 15.2396C14.013 15.6615 14.25 16.2338 14.25 16.8306H15.75ZM14.6517 14.1789C13.9484 13.4757 12.9946 13.0806 12 13.0806V14.5806C12.5967 14.5806 13.169 14.8176 13.591 15.2396L14.6517 14.1789ZM12 13.0806C11.0054 13.0806 10.0516 13.4757 9.34835 14.1789L10.409 15.2396C10.831 14.8176 11.4033 14.5806 12 14.5806V13.0806ZM9.34835 14.1789C8.64509 14.8822 8.25 15.836 8.25 16.8306H9.75C9.75 16.2338 9.98706 15.6615 10.409 15.2396L9.34835 14.1789ZM8.25 16.8306V20.8306H9.75V16.8306H8.25ZM9 20.0806H4V21.5806H9V20.0806ZM4.75 20.8306L4.75 10.8306L3.25 10.8306L3.25 20.8306H4.75Z"
            fill="currentColor"/>
    </symbol>

    <symbol id="navigation-2">
        <path
            d="M12 12.0806V3.08057C13.577 3.08074 15.1266 3.4953 16.493 4.28272C17.8594 5.07013 18.9949 6.20276 19.7857 7.56714C20.5766 8.93153 20.9951 10.4798 20.9992 12.0568C21.0034 13.6338 20.5931 15.1843 19.8095 16.5528C19.0258 17.9213 17.8963 19.0599 16.5341 19.8546C15.1719 20.6492 13.6248 21.0719 12.0478 21.0804C10.4708 21.0889 8.91927 20.6829 7.54857 19.9031C6.17788 19.1232 5.03616 17.9968 4.23779 16.6368M19.7905 7.58057L4.20923 16.5806M3.15009 13.7306C3.04777 13.1866 2.99755 12.6341 3.00009 12.0806C2.99891 10.2192 3.57545 8.40344 4.65016 6.88373C5.72487 5.36402 7.24477 4.21534 9.00009 3.59619V10.3462L3.15009 13.7306Z"
            stroke="currentColor" stroke-width="1.5" stroke-linecap="round" stroke-linejoin="round"/>
    </symbol>

    <symbol id="navigation-3">
        <path
            d="M13 3.83057H5V21.8306H19V9.83057M13 3.83057H14L19 8.83057V9.83057M13 3.83057V7.83057C13 8.83057 14 9.83057 15 9.83057H19M10.1786 13.5806H16.5M10.1786 16.5731H16.5M7.5 13.5806V13.588M7.5 16.5731V16.5806"
            stroke="currentColor" stroke-width="1.5" stroke-linecap="round" stroke-linejoin="round"/>
    </symbol>

    <symbol id="navigation-4">
        <path
            d="M12 22.5803C12.4142 22.5803 12.75 22.2445 12.75 21.8303C12.75 21.4161 12.4142 21.0803 12 21.0803V22.5803ZM3.5 12.8306L2.75459 12.7477L2.75 12.789V12.8306H3.5ZM9.5 3.83057H10.25C10.25 3.41635 9.91421 3.08057 9.5 3.08057V3.83057ZM5 3.08057C4.58579 3.08057 4.25 3.41635 4.25 3.83057C4.25 4.24478 4.58579 4.58057 5 4.58057V3.08057ZM8.75 8.33057C8.75 8.74478 9.08579 9.08057 9.5 9.08057C9.91421 9.08057 10.25 8.74478 10.25 8.33057H8.75ZM12.5 3.08086C12.0858 3.08086 11.75 3.41665 11.75 3.83086C11.75 4.24508 12.0858 4.58086 12.5 4.58086V3.08086ZM21 12.8306L21.7454 12.9134L21.75 12.8721V12.8306H21ZM15 21.8306H14.25C14.25 22.2448 14.5858 22.5806 15 22.5806V21.8306ZM19.5 22.5806C19.9142 22.5806 20.25 22.2448 20.25 21.8306C20.25 21.4164 19.9142 21.0806 19.5 21.0806V22.5806ZM15.75 17.3306C15.75 16.9164 15.4142 16.5806 15 16.5806C14.5858 16.5806 14.25 16.9164 14.25 17.3306H15.75ZM12 21.0803C7.49889 21.0803 4.25 17.4444 4.25 12.8306H2.75C2.75 18.1579 6.55999 22.5803 12 22.5803V21.0803ZM4.24541 12.9134C4.4824 10.7805 5.06425 9.41346 5.97157 8.2226C6.91099 6.98962 8.20693 5.92672 9.98809 4.40001L9.01191 3.26112C7.29307 4.73441 5.83901 5.92152 4.77843 7.31353C3.68575 8.74767 3.0176 10.3806 2.75459 12.7477L4.24541 12.9134ZM5 4.58057H9.5V3.08057H5V4.58057ZM12.5 4.58086C17.0011 4.58086 20.25 8.21673 20.25 12.8306H21.75C21.75 7.50327 17.94 3.08086 12.5 3.08086V4.58086ZM20.2546 12.7477C20.0176 14.8806 19.4357 16.2477 18.5284 17.4385C17.589 18.6715 16.2931 19.7344 14.5119 21.2611L15.4881 22.4C17.2069 20.9267 18.661 19.7396 19.7216 18.3476C20.8143 16.9135 21.4824 15.2805 21.7454 12.9134L20.2546 12.7477ZM19.5 21.0806H15V22.5806H19.5V21.0806ZM15.75 21.8306V17.3306H14.25V21.8306H15.75ZM8.75 3.83057V6.08057H10.25V3.83057H8.75ZM8.75 6.08057V8.33057H10.25V6.08057H8.75Z"
            fill="currentColor"/>
    </symbol>

    <symbol id="navigation-5">
        <path d="M21.5 19.5H3.5V4.5M20 6L12.5 13.5L9.5 10.5L3.5 16.5M20 6V9.75M20 6H16.25" stroke="currentColor"
              stroke-width="1.5" stroke-linecap="round" stroke-linejoin="round"/>
    </symbol>

    <symbol id="navigation-6">
        <path
            d="M8.25 5.33033C8.25 4.91612 7.91421 4.58033 7.5 4.58033H4.5C4.08579 4.58033 3.75 4.91612 3.75 5.33033V20.3303C3.75 20.7445 4.08579 21.0803 4.5 21.0803H7.5C7.91421 21.0803 8.25 20.7445 8.25 20.3303M8.25 5.33033V20.3303M8.25 5.33033C8.25 4.91612 8.58579 4.58033 9 4.58033H12C12.4142 4.58033 12.75 4.91612 12.75 5.33033V20.3303C12.75 20.7445 12.4142 21.0803 12 21.0803H9C8.58579 21.0803 8.25 20.7445 8.25 20.3303M3.75 8.33033H8.25M8.25 17.3303H12.75M16.05 17.6303L20.4 16.4585M13.725 8.93033L18.075 7.76783M13.4751 5.11665L16.3729 4.34019C16.7729 4.23299 17.1842 4.47043 17.2914 4.87052L21.1737 19.3594C21.2809 19.7595 21.0435 20.1708 20.6434 20.278L17.7456 21.0544C17.3455 21.1616 16.9342 20.9242 16.827 20.5241L12.9447 6.03521C12.8375 5.63511 13.075 5.22386 13.4751 5.11665Z"
            stroke="currentColor" stroke-width="1.5" stroke-linecap="round" stroke-linejoin="round"/>
    </symbol>

    <symbol id="navigation-7">
        <path fill-rule="evenodd" clip-rule="evenodd"
              d="M19.3889 2.33057H20.9444V3.83057H21.3333H22.5V4.95557V11.7056V12.8306H21.3333H20.9444V14.3306H19.3889V12.8306H19H17.8333V11.7056V4.95557V3.83057H19H19.3889V2.33057ZM19 4.95557H21.3333V11.7056H19V4.95557ZM8.5 5.33057H10.0556V6.83057H10.4444H11.6111V7.95557V14.7056V15.8306H10.4444H10.0556V17.3306H8.5V15.8306H8.11111H6.94444V14.7056V7.95557V6.83057H8.11111H8.5V5.33057ZM8.11111 7.95557H10.4444V14.7056H8.11111V7.95557ZM3.05556 11.3306H4.61111V12.8306H5H6.16667V13.9556V20.7056V21.8306H5H4.61111V23.3306H3.05556V21.8306H2.66667H1.5V20.7056V13.9556V12.8306H2.66667H3.05556V11.3306ZM2.66667 13.9556H5V20.7056H2.66667V13.9556ZM15.5 9.08057H13.9444V10.5806H13.5556H12.3889V11.7056V18.4556V19.5806H13.5556H13.9444V21.0806H15.5V19.5806H15.8889H17.0556V18.4556V11.7056V10.5806H15.8889H15.5V9.08057ZM15.8889 11.7056H13.5556V18.4556H15.8889V11.7056Z"
              fill="currentColor"/>
    </symbol>

    <symbol id="navigation-8">
        <path
            d="M8.25 15.0806H14.25M8.25 12.0806H14.25M7.5 4.58057H4.5C4.30109 4.58057 4.11032 4.65958 3.96967 4.80024C3.82902 4.94089 3.75 5.13165 3.75 5.33057V21.0806C3.75 21.2795 3.82902 21.4702 3.96967 21.6109C4.11032 21.7515 4.30109 21.8306 4.5 21.8306H13.5M18.75 15.8306V5.33057C18.75 5.13165 18.671 4.94089 18.5303 4.80024C18.3897 4.65958 18.1989 4.58057 18 4.58057H15M7.5 6.83057V6.08057C7.5 5.086 7.89509 4.13218 8.59835 3.42892C9.30161 2.72565 10.2554 2.33057 11.25 2.33057C12.2446 2.33057 13.1984 2.72565 13.9017 3.42892C14.6049 4.13218 15 5.086 15 6.08057V6.83057H7.5ZM13.5 23.3306V21.3894L19.8088 15.0806L21.75 17.0217L15.4412 23.3306H13.5Z"
            stroke="currentColor" stroke-width="1.375" stroke-linecap="round" stroke-linejoin="round"/>
    </symbol>


</svg>
