<svg width="160" height="160" viewBox="0 0 160 160" fill="none" xmlns="http://www.w3.org/2000/svg">
    <mask id="mask0_12448_32040" style="mask-type:alpha" maskUnits="userSpaceOnUse" x="0" y="0" width="160" height="160">
        <rect width="160" height="160" transform="matrix(-1 0 0 1 160 0)" fill="white"/>
    </mask>
    <g mask="url(#mask0_12448_32040)">
        <rect width="160" height="160" rx="8" transform="matrix(-1 0 0 1 160 0)" fill="#FAFAFA"/>
        <g clip-path="url(#clip0_12448_32040)">
            <path d="M68.219 138.117L64.8033 181.046C64.8033 181.046 64.7317 182.036 66.3572 182.488C67.9827 182.94 70.0593 181.756 70.0593 181.756L78.6094 141.188L68.219 138.117Z" fill="#242424"/>
            <path d="M70.3451 182.265C70.4883 182.186 70.5885 182.043 70.6243 181.885L79.1744 141.317C79.2388 141.023 79.0598 140.729 78.7734 140.642L68.383 137.572C68.2183 137.522 68.0393 137.551 67.8889 137.651C67.7457 137.751 67.6526 137.909 67.6383 138.081L64.2226 181.017C64.2226 181.074 64.1438 182.488 66.199 183.054C66.5069 183.14 66.8291 183.176 67.1513 183.176C68.7196 183.176 70.2591 182.315 70.3379 182.272L70.3451 182.265ZM68.741 138.878L77.9355 141.597L69.5502 181.369C69.0132 181.634 67.6025 182.229 66.514 181.928C65.4614 181.641 65.3898 181.139 65.3826 181.067L68.741 138.871V138.878Z" fill="#242424"/>
            <path d="M117.583 140.98L122.768 183.73C122.768 183.73 122.882 184.72 121.271 185.236C119.667 185.753 117.548 184.662 117.548 184.662L107.329 144.488L117.583 140.988V140.98Z" fill="#242424"/>
            <path d="M121.451 185.781C123.485 185.129 123.349 183.722 123.341 183.658L118.157 140.909C118.135 140.737 118.035 140.579 117.892 140.486C117.742 140.392 117.563 140.371 117.398 140.428L107.144 143.929C106.857 144.029 106.692 144.324 106.771 144.618L116.99 184.791C117.033 184.949 117.14 185.086 117.283 185.164C117.362 185.2 118.816 185.939 120.32 185.939C120.699 185.939 121.086 185.889 121.451 185.774V185.781ZM108.017 144.854L117.09 141.755L122.189 183.773C122.189 183.837 122.131 184.347 121.093 184.677C120.012 185.021 118.587 184.483 118.035 184.246L108.017 144.854Z" fill="#242424"/>
            <path d="M97.4775 142.199C98.1435 138.174 99.325 133.769 102.748 131.553C104.452 130.448 106.493 130.046 108.477 129.623C114.721 128.296 122.254 127.263 127.317 123.052C131.964 119.185 134.556 113.259 136.561 107.707C140.335 97.2975 146.737 77.2608 135.652 69.1902C128.24 63.7883 118.552 63.5731 109.529 65.2159C103.944 66.2346 100.449 70.5246 98.9455 75.8189C96.3891 84.8365 93.4531 91.7234 88.9203 99.9303C84.8673 107.276 78.8451 114.005 70.5886 116.48C67.2445 117.485 63.7071 117.743 60.4274 118.927C57.1478 120.11 53.9827 122.55 53.3525 125.986C52.5505 130.362 56.0521 134.465 56.0521 138.913C56.0521 143.296 52.7653 149.903 55.2286 153.519C56.9616 156.059 60.542 156.317 63.614 156.317C71.8847 156.317 80.1698 156.453 88.4477 156.317C94.9927 156.209 97.4775 148.569 97.4775 142.199Z" fill="#F07800"/>
            <path d="M88.4546 156.898C95.0712 156.791 98.0358 149.473 98.0501 142.249C98.6946 138.382 99.7902 134.157 103.056 132.041C104.602 131.036 106.514 130.635 108.362 130.24L108.591 130.19C109.4 130.018 110.216 129.853 111.083 129.68C116.747 128.54 123.163 127.256 127.682 123.497C129.859 121.682 131.742 119.329 133.425 116.294C135.043 113.396 136.239 110.289 137.098 107.908C139.139 102.276 141.566 94.8872 142.247 87.6272C143.085 78.7173 140.979 72.3612 135.988 68.7241C129.493 63.9893 120.557 62.6191 109.422 64.6493C106.629 65.1587 104.23 66.4571 102.282 68.516C100.535 70.3669 99.1887 72.8347 98.3867 75.6612C95.9305 84.3272 93.0375 91.2787 88.4117 99.6506C85.1248 105.598 79.3389 113.252 70.4165 115.928C68.9557 116.366 67.4233 116.667 65.9338 116.954C64.0434 117.327 62.0885 117.707 60.2266 118.382C56.1521 119.852 53.3737 122.65 52.7794 125.878C52.3139 128.432 53.209 130.879 54.0827 133.239C54.7629 135.09 55.4719 137.005 55.4719 138.913C55.4719 140.405 55.0709 142.177 54.6484 144.05C53.8464 147.615 53.0157 151.295 54.7486 153.842C56.5746 156.518 60.0834 156.891 63.6066 156.891C63.6209 156.891 63.6352 156.891 63.6495 156.891C66.3921 156.891 69.1848 156.905 71.8845 156.92C74.5913 156.934 77.3482 156.948 80.1194 156.948C82.8907 156.948 85.6834 156.934 88.4475 156.891L88.4546 156.898ZM63.6066 155.743C60.3985 155.743 57.2263 155.435 55.7082 153.204C54.2617 151.073 55.035 147.644 55.7798 144.315C56.2166 142.371 56.6319 140.535 56.6319 138.92C56.6319 136.811 55.8872 134.795 55.1711 132.844C54.319 130.527 53.5098 128.339 53.9251 126.094C54.4407 123.274 56.947 120.799 60.6277 119.472C62.4107 118.834 64.3226 118.453 66.1701 118.095C67.6811 117.801 69.2493 117.492 70.7602 117.04C80.055 114.257 86.0414 106.351 89.4357 100.217C94.1045 91.7594 97.0261 84.7433 99.5109 75.984C101.681 68.3295 106.786 66.3136 109.636 65.7971C120.442 63.8315 129.085 65.13 135.315 69.671C139.955 73.0499 141.903 79.0544 141.101 87.5268C140.435 94.6504 138.029 101.953 136.017 107.52C134.083 112.858 131.491 118.826 126.944 122.614C122.655 126.187 116.389 127.442 110.854 128.554C109.987 128.726 109.164 128.891 108.347 129.064L108.125 129.114C106.171 129.53 104.158 129.953 102.425 131.072C100.764 132.148 99.4895 133.748 98.5442 135.972C97.6348 138.103 97.1693 140.491 96.9044 142.106C96.9044 142.134 96.8972 142.17 96.8972 142.199C96.8972 148.871 94.2835 155.643 88.4331 155.736C82.9265 155.829 77.3195 155.793 71.8988 155.765C69.1992 155.75 66.3993 155.736 63.6567 155.736H63.6137L63.6066 155.743Z" fill="#363636"/>
            <path d="M88.4093 118.941C88.1443 118.855 87.8722 118.769 87.6073 118.676C85.4304 117.944 83.0673 116.89 80.9405 117.765C79.4941 118.36 78.5345 119.723 77.4747 120.878C74.4385 124.207 69.784 126.065 65.509 127.105C62.3081 127.88 59.1 128.626 55.892 129.386C51.6671 130.391 47.077 131.625 44.5134 135.133C42.2721 138.196 42.1217 142.285 42.2005 146.08C42.4153 156.425 46.1604 183.226 46.5399 183.571C46.8837 183.886 55.3478 184.898 59.1143 184.618C59.9737 184.554 60.9117 184.432 61.5132 183.807C62.0145 183.284 63.9765 158.993 63.0456 150.284C68.5094 150.234 74.0876 150.162 79.2363 148.326C84.8002 146.331 88.5024 142.077 90.0133 136.395C90.758 133.583 90.9657 130.678 91.0516 127.78C91.1161 125.505 93.25 122.299 91.3524 120.455C90.5504 119.68 89.4834 119.286 88.4093 118.934V118.941Z" fill="#ACACAC"/>
            <path d="M59.1574 185.199C60.1743 185.12 61.2198 184.948 61.9287 184.209C62.1005 184.03 62.2581 183.865 62.6663 179.632C62.924 176.942 63.1818 173.578 63.3895 170.156C63.633 166.088 64.1414 156.296 63.6759 150.865C68.932 150.815 74.3384 150.7 79.4226 148.878C85.0295 146.869 88.9894 142.493 90.5648 136.553C91.3597 133.569 91.5459 130.455 91.6246 127.808C91.6461 127.127 91.8753 126.323 92.1259 125.47C92.663 123.619 93.2716 121.524 91.7535 120.046C90.8727 119.193 89.7557 118.776 88.5884 118.396L88.3092 118.303C88.1373 118.246 87.9583 118.188 87.7864 118.131C87.5286 118.045 87.2637 117.951 87.0059 117.858C85.0295 117.162 82.7882 116.38 80.7187 117.234C79.4226 117.765 78.5132 118.812 77.6395 119.824C77.4462 120.046 77.2457 120.276 77.0452 120.498C74.5389 123.239 70.6148 125.276 65.3659 126.553C63.2391 127.069 61.0694 127.579 58.9784 128.074C57.9043 128.325 56.8302 128.583 55.7561 128.834C51.0729 129.946 46.6475 131.237 44.0409 134.803C41.6564 138.06 41.5418 142.35 41.6206 146.109C41.7495 152.336 43.1387 163.957 43.733 168.664C44.2128 172.459 44.7141 176.167 45.158 179.123C45.8526 183.743 45.9529 183.836 46.1462 184.016C46.2823 184.138 46.404 184.252 48.0295 184.496C48.9819 184.64 50.2064 184.783 51.481 184.912C52.6984 185.034 55.3622 185.264 57.5821 185.264C58.1406 185.264 58.6777 185.25 59.1503 185.214L59.1574 185.199ZM42.7735 146.073C42.7019 142.5 42.8021 138.447 44.9719 135.477C47.3421 132.235 51.5527 131.015 56.021 129.953C57.0951 129.695 58.1693 129.444 59.2434 129.193C61.3415 128.698 63.5112 128.189 65.6452 127.672C71.116 126.345 75.2407 124.193 77.9045 121.273C78.1122 121.043 78.3198 120.807 78.5132 120.577C79.3367 119.63 80.1172 118.733 81.1555 118.303C82.824 117.614 84.7574 118.296 86.6264 118.949C86.8913 119.042 87.1634 119.135 87.4212 119.221C87.6002 119.279 87.7721 119.336 87.9511 119.393L88.2232 119.479C89.2544 119.817 90.2354 120.182 90.9444 120.864C91.9684 121.854 91.5029 123.447 91.016 125.132C90.7582 126.015 90.4932 126.933 90.4717 127.758C90.393 130.341 90.214 133.368 89.4549 136.245C87.9583 141.883 84.3564 145.872 79.0431 147.78C73.9374 149.61 68.3949 149.66 63.0458 149.71C62.8811 149.71 62.7307 149.782 62.6161 149.904C62.5087 150.026 62.4586 150.191 62.4729 150.349C63.3609 158.692 61.5348 181.605 61.0264 183.478C60.5538 183.901 59.7733 183.994 59.0787 184.044C55.6343 184.303 48.3804 183.449 47.0055 183.126C46.3754 180.422 42.9883 155.829 42.7806 146.073H42.7735Z" fill="#242424"/>
            <path d="M113.796 112.199C113.796 112.199 92.3775 113.059 92.3632 113.059C92.3417 113.059 92.5923 121.769 92.6066 122.249C92.6854 126.288 92.578 126.159 88.661 127.106C85.4601 127.881 82.2521 128.627 79.044 129.387C74.8191 130.392 70.2291 131.625 67.6655 135.133C65.4241 138.197 65.2738 142.286 65.3525 146.081C65.5674 156.426 69.3125 183.227 69.692 183.571C70.0357 183.887 78.4998 184.899 82.2664 184.619C83.1257 184.554 84.0638 184.432 84.6653 183.808C85.1665 183.284 87.1286 158.994 86.1977 150.285C91.6614 150.234 97.2397 150.163 102.388 148.326C117.705 142.838 113.738 125.205 113.803 112.191L113.796 112.199Z" fill="#ACACAC"/>
            <path d="M82.3017 185.199C83.3185 185.12 84.364 184.948 85.0729 184.209C85.2448 184.03 85.4023 183.865 85.8105 179.632C86.0683 176.942 86.3261 173.578 86.5337 170.156C86.7772 166.088 87.2856 156.296 86.8202 150.865C92.0762 150.815 97.4826 150.7 102.567 148.878C115.693 144.179 115.091 130.857 114.561 119.106C114.454 116.682 114.346 114.393 114.361 112.205C114.361 112.047 114.296 111.897 114.182 111.789C114.067 111.681 113.917 111.624 113.759 111.624C111.568 111.71 92.3411 112.485 92.3268 112.485C92.1335 112.492 91.7683 112.636 91.7683 113.116C91.7683 113.152 91.7683 113.202 91.7683 113.267C91.7683 113.389 91.7683 113.575 91.7826 113.798C91.7898 114.25 91.8112 114.874 91.8256 115.584C91.8614 117.004 91.9115 118.769 91.9545 120.132C91.9831 121.273 92.0117 122.127 92.0117 122.27C92.0476 123.985 92.0476 124.982 91.711 125.427C91.3816 125.857 90.5151 126.072 88.9326 126.452L88.5101 126.553C86.3833 127.069 84.2136 127.579 82.1155 128.074C81.0414 128.325 79.9672 128.576 78.8931 128.834C74.2099 129.946 69.7845 131.237 67.178 134.803C64.7934 138.06 64.6789 142.35 64.7576 146.109C64.8865 152.329 66.2757 163.957 66.8701 168.663C67.3499 172.458 67.8511 176.167 68.2951 179.123C68.9897 183.743 69.0899 183.836 69.2833 184.016C69.4193 184.138 69.5411 184.252 71.1666 184.496C72.119 184.64 73.3435 184.783 74.6181 184.912C75.8354 185.034 78.4993 185.264 80.7191 185.264C81.2777 185.264 81.8147 185.249 82.2873 185.214L82.3017 185.199ZM65.9249 146.073C65.8532 142.5 65.9535 138.447 68.1232 135.477C70.4935 132.235 74.704 131.015 79.1724 129.953C80.2465 129.702 81.3206 129.444 82.3948 129.193C84.4929 128.698 86.6626 128.188 88.7965 127.672L89.219 127.572C91.0594 127.127 92.069 126.883 92.6491 126.122C93.2219 125.369 93.2291 124.329 93.1861 122.241C93.1861 122.098 93.1575 121.237 93.1288 120.096C93.0715 118.174 92.9856 114.902 92.957 113.618C95.9645 113.496 110.129 112.93 113.229 112.801C113.236 114.831 113.33 116.94 113.43 119.157C113.695 125.018 113.967 131.087 112.606 136.266C111.088 142.056 107.687 145.822 102.194 147.788C97.0888 149.617 91.5463 149.667 86.1972 149.717C86.0325 149.717 85.8821 149.789 85.7675 149.911C85.6601 150.033 85.61 150.198 85.6243 150.356C86.5122 158.699 84.6862 181.612 84.1778 183.485C83.7052 183.908 82.9247 184.001 82.2229 184.051C78.7785 184.31 71.5246 183.456 70.1497 183.133C69.5196 180.429 66.1325 155.837 65.9249 146.08V146.073Z" fill="#242424"/>
            <path d="M107.536 91.5377C107.392 91.5377 107.249 91.4875 107.142 91.3799C106.913 91.1575 106.898 90.7916 107.12 90.5621L119.072 77.9074L117.274 75.8485C117.145 75.705 117.102 75.5041 117.153 75.3176C117.203 75.1311 117.339 74.9804 117.518 74.9159L122.638 73.108L123.411 65.7477C123.447 65.432 123.726 65.1953 124.048 65.2311C124.363 65.267 124.593 65.5468 124.564 65.8696L123.748 73.5959C123.726 73.8183 123.576 74.0048 123.368 74.0837L118.706 75.7265L120.289 77.5415C120.482 77.7639 120.482 78.1011 120.275 78.3235L107.965 91.3656C107.851 91.4875 107.7 91.5449 107.543 91.5449L107.536 91.5377Z" fill="#242424"/>
            <path d="M98.6204 89.0274C98.3555 89.0274 98.1192 88.8481 98.0619 88.5827L94.3383 72.836C94.2667 72.5275 94.46 72.2119 94.7679 72.1401L97.0737 71.5949L96.2287 68.9191C96.1643 68.711 96.2216 68.4815 96.3719 68.3308L100.518 64.2704C100.747 64.048 101.112 64.048 101.334 64.2776C101.556 64.5071 101.556 64.873 101.327 65.0954L97.4389 68.9047L98.3698 71.8317C98.4199 71.9823 98.3985 72.1545 98.3197 72.2908C98.2409 72.4343 98.1049 72.5347 97.9473 72.5706L95.5986 73.1301L99.1861 88.31C99.2578 88.6185 99.0644 88.9342 98.7565 89.0059C98.7135 89.0131 98.6706 89.0203 98.6204 89.0203V89.0274Z" fill="#242424"/>
            <path d="M119.779 62.9071C123.087 63.9903 126.474 66.5442 129.109 69.7151C131.773 72.9218 134.702 76.975 134.687 81.2292C134.659 90.1821 122.586 133.283 122.586 133.283L114.616 131.905C111.766 131.41 108.937 130.793 106.144 130.055L98.5754 128.283L93.2907 126.826C93.2907 126.826 87.0035 125.635 85.4066 124.853C80.0289 122.235 78.1599 121.489 78.1599 121.489C78.1599 121.489 88.0633 73.3953 92.3956 68.0436C95.3101 64.4423 100.609 63.029 105.02 62.4838C109.145 61.9745 113.32 62.2256 117.466 62.5771C118.812 62.6919 118.726 62.5627 119.779 62.9071Z" fill="#FFD645"/>
            <path d="M123.138 133.44C123.167 133.333 126.196 122.522 129.182 110.756C133.207 94.9237 135.247 84.9879 135.262 81.2288C135.276 76.8312 132.383 72.7493 129.554 69.3417C126.762 65.9771 123.267 63.4304 119.959 62.3543C119.171 62.0961 118.949 62.0745 118.362 62.0458C118.154 62.0387 117.89 62.0243 117.51 61.9884C113.693 61.6656 109.254 61.3715 104.95 61.9024C98.8059 62.6556 94.4306 64.5997 91.9458 67.6702C87.5777 73.0721 78.0037 119.394 77.5955 121.359C77.5383 121.632 77.6886 121.912 77.9464 122.012C77.9679 122.019 79.8727 122.787 85.1502 125.355C86.7686 126.144 92.6691 127.278 93.156 127.371L98.4121 128.82H98.4335L105.995 130.599C108.795 131.338 111.66 131.97 114.51 132.465L122.48 133.842C122.48 133.842 122.544 133.849 122.58 133.849C122.838 133.849 123.067 133.677 123.138 133.426V133.44ZM93.4424 126.259C93.4424 126.259 93.4138 126.252 93.3995 126.245C91.6737 125.915 86.9189 124.932 85.6586 124.322C81.7059 122.4 79.6507 121.489 78.8272 121.13C79.8655 116.158 88.881 73.3088 92.8481 68.4019C94.4235 66.4506 97.8249 63.9469 105.093 63.0502C109.289 62.5337 113.657 62.8278 117.417 63.1434C117.818 63.1793 118.09 63.1865 118.312 63.2008C118.813 63.2224 118.928 63.2295 119.601 63.4519C122.702 64.4634 126.01 66.881 128.667 70.0806C131.366 73.3303 134.123 77.1899 134.109 81.2216C134.08 89.4787 123.518 127.766 122.165 132.622L114.71 131.331C111.889 130.843 109.053 130.219 106.289 129.487H106.275L98.7128 127.715L93.4424 126.259Z" fill="#242424"/>
            <path d="M132.448 75.3466C135.291 78.5677 135.721 86.38 135.635 89.6513C135.391 98.798 129.791 111.388 121.413 116.331C119.537 117.436 116.737 118.476 114.689 117.629C113.751 117.235 101.084 117.644 100.468 116.855C97.3458 112.816 111.839 103.361 113.271 98.5828C116.129 89.0774 122.416 80.6122 130.815 74.9592C131.31 74.622 132.04 75.4327 132.527 75.7986C133.014 76.1573 132.677 74.8229 132.441 75.361L132.448 75.3466Z" fill="#FFD645"/>
            <path d="M95.4553 71.3935C95.1975 71.3935 94.9612 71.2213 94.8967 70.9559C94.2594 68.4379 94.0804 67.3044 94.016 65.4392C94.0088 65.1164 94.2523 64.8509 94.5745 64.8438H94.596C94.9039 64.8438 95.1617 65.0877 95.176 65.4033C95.2333 67.1968 95.398 68.2298 96.021 70.6761C96.0998 70.9846 95.9136 71.3002 95.6057 71.3791C95.5555 71.3935 95.5126 71.3935 95.4625 71.3935H95.4553Z" fill="#242424"/>
            <path d="M46.883 126.337L64.5201 118.367L100.195 131.911L100.138 133.676L79.3501 141.302L46.883 126.337Z" fill="white"/>
            <path d="M79.5524 141.855L100.34 134.229C100.562 134.15 100.713 133.935 100.72 133.698L100.777 131.933C100.784 131.682 100.634 131.46 100.398 131.366L64.7223 117.822C64.5791 117.765 64.4144 117.772 64.2784 117.836L46.6413 125.807C46.4336 125.9 46.2975 126.108 46.2975 126.338C46.2975 126.567 46.4264 126.775 46.6341 126.868L79.1013 141.833C79.1801 141.869 79.2588 141.883 79.3447 141.883C79.4092 141.883 79.4808 141.869 79.5452 141.847L79.5524 141.855ZM64.5362 118.999L99.5956 132.306L99.5669 133.26L79.3806 140.671L48.2954 126.338L64.5433 118.991L64.5362 118.999Z" fill="#242424"/>
            <path d="M46.8836 124.459L64.5207 116.481L100.139 131.798L79.3508 139.423L46.8836 124.459Z" fill="#D6D6D6"/>
            <path d="M79.5513 139.969L100.339 132.343C100.561 132.264 100.719 132.049 100.719 131.812C100.719 131.575 100.583 131.353 100.368 131.26L64.7499 115.951C64.5995 115.886 64.4277 115.886 64.2773 115.951L46.6402 123.921C46.4325 124.014 46.2965 124.222 46.2965 124.452C46.2965 124.681 46.4254 124.889 46.633 124.983L79.1002 139.947C79.179 139.983 79.2578 139.998 79.3437 139.998C79.4081 139.998 79.4797 139.983 79.5442 139.962L79.5513 139.969ZM64.5208 117.12L98.5562 131.748L79.3723 138.785L48.2872 124.452L64.5208 117.113V117.12Z" fill="#242424"/>
            <path d="M118.809 62.4334C118.809 62.4334 117.663 61.2497 117.376 60.066C116.71 57.2969 115.422 52.2107 115.923 50.5965C116.739 47.9781 115.3 41.9305 114.061 39.3694C112.213 35.5386 109.85 34.1755 105.633 34.2616C103.492 34.3047 101.308 34.4912 99.2237 34.9431C98.5936 35.0794 97.9634 35.2157 97.3619 35.431C95.1134 36.2344 93.3161 37.9418 92.9222 40.2805C92.6286 42.0166 92.9795 43.7957 93.3232 45.5246C93.9677 48.7313 94.6122 51.938 95.2566 55.1448C95.4643 56.1778 95.6791 57.2324 96.1732 58.1721C97.2688 60.2597 99.0662 60.3315 101.214 59.9656C101.83 59.858 103.363 59.858 103.42 60.4463C103.477 61.0273 105.189 65.0017 104.387 66.3934C104 67.0606 102.811 68.1797 102.811 68.1797L104.05 68.976C106.528 70.5758 110.889 70.0162 113.402 68.3806C116.224 66.5369 118.809 62.4406 118.809 62.4406V62.4334Z" fill="white"/>
            <path d="M113.725 68.8396C116.618 66.9457 119.196 62.8996 119.303 62.7274C119.439 62.5122 119.411 62.2324 119.232 62.0459C118.945 61.7446 118.15 60.7905 117.943 59.9368L117.814 59.4059C117.198 56.8592 116.052 52.1316 116.475 50.7614C117.377 47.8488 115.766 41.5717 114.584 39.1254C112.651 35.1224 110.137 33.5943 105.612 33.6876C103.156 33.7378 101.022 33.9602 99.0812 34.3835C98.4439 34.5198 97.7851 34.6632 97.1477 34.8928C94.534 35.8254 92.7295 37.7982 92.3285 40.1871C92.0134 42.0452 92.4001 43.9462 92.7367 45.6321L94.6701 55.2523C94.8849 56.314 95.0997 57.4116 95.6368 58.4303C96.9329 60.8981 99.1241 60.8981 101.301 60.5251C101.852 60.4318 102.604 60.4892 102.841 60.604C102.876 60.7977 102.969 61.0774 103.127 61.5724C103.492 62.6844 104.344 65.2813 103.865 66.1135C103.585 66.6013 102.705 67.4765 102.389 67.7707C102.261 67.8926 102.196 68.0576 102.218 68.2298C102.232 68.402 102.332 68.5526 102.475 68.653L103.714 69.4494C104.989 70.2743 106.679 70.5685 108.39 70.4824C110.345 70.382 112.314 69.765 113.718 68.8539L113.725 68.8396ZM104.896 66.6587C105.569 65.4965 104.946 63.33 104.258 61.2209C104.144 60.8766 104.015 60.482 104.001 60.3888C103.986 60.2094 103.9 59.944 103.607 59.7288C102.934 59.2338 101.544 59.3342 101.108 59.4131C98.9952 59.7718 97.5917 59.6427 96.6894 57.9209C96.2312 57.0457 96.0235 56.027 95.8302 55.0442L93.8967 45.4241C93.5602 43.7597 93.2164 42.038 93.4957 40.3808C93.8323 38.408 95.3504 36.758 97.5631 35.9689C98.1288 35.768 98.716 35.6389 99.3533 35.5026C101.208 35.1009 103.27 34.8856 105.648 34.8354C109.672 34.7493 111.806 36.0478 113.532 39.6204C114.778 42.203 116.095 48.0856 115.365 50.4458C114.885 51.981 115.716 55.6899 116.682 59.6785L116.811 60.2094C117.033 61.1348 117.692 62.0316 118.086 62.4979C117.406 63.5094 115.293 66.4722 113.081 67.9141C110.818 69.392 106.693 70.0017 104.38 68.5096L103.729 68.0935C104.13 67.6846 104.652 67.1107 104.903 66.6731L104.896 66.6587Z" fill="#242424"/>
            <path d="M116.353 54.3842C116.432 54.5349 116.532 54.664 116.661 54.7788C116.955 55.0442 117.442 55.1447 117.757 54.9079C118.007 54.7214 118.086 54.3842 118.136 54.0758C118.795 50.1158 119.669 46.5862 119.268 42.49C119.06 40.3378 118.981 38.1856 116.912 36.8943C116.747 36.7867 116.568 36.6935 116.446 36.5357C116.153 36.1626 116.296 35.6317 116.267 35.1654C116.196 34.0894 115.186 33.3289 114.227 32.7765C113.203 32.1883 112.136 31.6718 110.997 31.3346C109.128 30.7822 107.152 30.7392 105.197 30.7033C102.347 30.6459 99.4537 30.7248 96.926 32.1309C94.255 33.6087 92.6366 36.4065 91.627 39.2259C91.4265 39.7926 91.2403 40.3593 90.9395 40.883C90.4526 41.7295 89.6864 42.3824 88.9345 43.0208C89.5718 43.2289 90.2449 43.3365 90.918 43.3365C90.4096 44.6923 90.7605 46.3136 91.7917 47.3539C91.9062 47.4686 92.0423 47.5906 92.1998 47.6265C92.4863 47.6982 92.787 47.526 92.9374 47.2893C93.0949 47.0526 93.1379 46.7584 93.1665 46.4786C93.3814 44.5991 93.3241 42.6908 93.6248 40.8256C93.9256 38.9604 94.6703 37.0665 96.1598 35.847C96.1383 37.4611 96.9689 39.0035 98.1003 40.1943C99.3177 41.4713 100.893 42.4254 102.612 42.9132C103.421 43.1428 104.28 43.2863 104.968 43.7597C105.856 44.3695 105.863 45.1228 106.163 46.0195C106.6 47.318 107.087 48.6093 107.553 49.9006C107.696 50.3023 107.875 50.7471 108.276 50.9193C108.834 51.1632 109.5 50.7041 109.679 50.1373C109.858 49.5706 109.708 48.9608 109.572 48.3869C109.407 47.7125 109.264 47.0167 109.357 46.328C109.45 45.6393 109.815 44.9506 110.453 44.635C111.133 44.2906 111.992 44.4341 112.63 44.843C113.267 45.2519 113.725 45.876 114.083 46.5289C115.379 48.846 115.372 51.321 116.095 53.7745C116.16 53.9897 116.232 54.2049 116.339 54.3986L116.353 54.3842Z" fill="#242424"/>
            <path d="M118.107 55.3522C118.565 55.0079 118.658 54.4555 118.701 54.1614C118.816 53.487 118.938 52.8199 119.052 52.1599C119.632 48.9388 120.177 45.8971 119.84 42.4321L119.804 42.0375C119.611 39.9428 119.403 37.7762 117.162 36.3702C117.054 36.3056 116.947 36.241 116.904 36.1836C116.818 36.076 116.832 35.8393 116.84 35.5882C116.84 35.4304 116.854 35.2726 116.84 35.1219C116.747 33.723 115.472 32.8334 114.52 32.2811C113.288 31.5708 112.221 31.0974 111.161 30.7817C109.206 30.2078 107.173 30.1719 105.203 30.1361C102.332 30.0787 99.3099 30.1504 96.6318 31.6354C94.2186 32.9698 92.3496 35.4591 91.075 39.0388L90.9962 39.2541C90.8243 39.7347 90.6668 40.1938 90.4305 40.6028C89.9865 41.3704 89.2561 41.9945 88.5472 42.5899C88.3897 42.7262 88.3181 42.9271 88.361 43.128C88.404 43.3288 88.5472 43.4867 88.7477 43.5512C89.2132 43.7019 89.6858 43.8023 90.1727 43.8525C89.9221 45.2299 90.3661 46.7221 91.3686 47.7408C91.5333 47.9129 91.7481 48.0923 92.0488 48.1712C92.5501 48.3003 93.123 48.0636 93.438 47.5829C93.66 47.2458 93.7102 46.8799 93.7531 46.5355C93.8462 45.7106 93.8892 44.8784 93.9321 44.0749C93.9894 43.0275 94.0396 41.9443 94.2114 40.9041C94.3976 39.7634 94.8129 38.2856 95.7224 37.1163C96.0016 38.3143 96.6676 39.5052 97.6773 40.5669C98.9734 41.9299 100.62 42.9271 102.461 43.4508C102.64 43.501 102.819 43.5512 102.998 43.5943C103.614 43.7521 104.186 43.9027 104.638 44.2112C105.16 44.5699 105.275 44.9788 105.44 45.5958C105.49 45.7823 105.547 45.9832 105.611 46.184C105.905 47.0592 106.22 47.9201 106.535 48.7881L107.001 50.0723C107.144 50.4668 107.38 51.134 108.039 51.421C108.411 51.586 108.827 51.5788 109.228 51.4066C109.7 51.1986 110.087 50.7753 110.245 50.2947C110.474 49.5916 110.302 48.8958 110.144 48.2429C110.001 47.6332 109.865 46.9875 109.944 46.3849C110.023 45.811 110.323 45.3232 110.731 45.1151C111.161 44.8999 111.798 44.9645 112.314 45.2945C112.772 45.5886 113.173 46.0549 113.574 46.7795C114.369 48.1927 114.648 49.6705 114.942 51.2416C115.107 52.1096 115.279 53.0136 115.544 53.9103C115.608 54.1327 115.694 54.3909 115.83 54.6348C115.952 54.8572 116.088 55.0366 116.252 55.1872C116.575 55.4742 116.997 55.6177 117.391 55.5961C117.649 55.5818 117.899 55.5029 118.1 55.3451L118.107 55.3522ZM116.668 53.6018C116.417 52.7553 116.252 51.8873 116.095 51.0407C115.794 49.4553 115.486 47.8125 114.605 46.2414C114.29 45.6819 113.782 44.8712 112.951 44.3475C112.078 43.7951 110.996 43.7019 110.18 44.1108C109.428 44.491 108.905 45.2873 108.777 46.2342C108.669 47.0234 108.827 47.7838 109.013 48.5299C109.135 49.0464 109.256 49.5414 109.12 49.9431C109.063 50.1153 108.905 50.2875 108.741 50.3592C108.655 50.3951 108.576 50.4023 108.519 50.3736C108.34 50.2947 108.211 49.979 108.111 49.6849L107.645 48.3936C107.33 47.5399 107.022 46.679 106.729 45.8182C106.664 45.6388 106.621 45.4595 106.571 45.2873C106.378 44.5914 106.184 43.8669 105.311 43.2714C104.688 42.841 103.972 42.6617 103.291 42.4823C103.119 42.4393 102.948 42.3962 102.783 42.346C101.15 41.8797 99.6823 40.9973 98.5366 39.7849C97.3693 38.551 96.732 37.1521 96.7535 35.8321C96.7535 35.6097 96.6246 35.4089 96.417 35.3084C96.2093 35.2152 95.9658 35.2439 95.7868 35.3873C94.3833 36.5352 93.438 38.3789 93.0514 40.7104C92.8723 41.808 92.8151 42.9199 92.7578 44.0032C92.7148 44.7923 92.679 45.6029 92.5859 46.3921C92.5573 46.6145 92.5286 46.8297 92.4427 46.966C92.4069 47.0234 92.3496 47.0592 92.3496 47.0664C92.3353 47.0664 92.2995 47.0377 92.2064 46.9445C91.3256 46.0477 91.0248 44.6703 91.4617 43.5082C91.5261 43.336 91.4975 43.1423 91.3901 42.9917C91.2826 42.841 91.1036 42.7477 90.9103 42.7477C90.6525 42.7477 90.3947 42.7334 90.1441 42.6975C90.631 42.2456 91.0965 41.7362 91.4473 41.1408C91.7338 40.6386 91.92 40.1149 92.099 39.6056L92.1706 39.3975C93.3521 36.0904 95.0421 33.8019 97.2046 32.6111C99.625 31.2695 102.468 31.2122 105.175 31.2624C107.058 31.2982 109.013 31.3341 110.81 31.8721C111.777 32.1591 112.765 32.5967 113.911 33.2639C115.064 33.9311 115.622 34.5408 115.665 35.2008C115.672 35.3156 115.665 35.4376 115.665 35.5523C115.651 35.9541 115.629 36.4491 115.966 36.8795C116.138 37.0947 116.353 37.231 116.582 37.3673C118.286 38.4362 118.444 40.1508 118.63 42.1451L118.666 42.5397C118.988 45.854 118.458 48.824 117.892 51.9662C117.771 52.6262 117.656 53.2933 117.541 53.982C117.52 54.0896 117.477 54.3838 117.384 54.4555C117.334 54.4985 117.162 54.4627 117.047 54.3622C116.976 54.2977 116.918 54.2188 116.861 54.1183C116.775 53.9605 116.711 53.7668 116.661 53.6018H116.668Z" fill="#242424"/>
            <path d="M101.264 47.6836C101.687 47.5616 101.938 47.1455 101.837 46.7294C101.787 46.5214 101.644 46.3349 101.451 46.2201C101.264 46.1125 101.042 46.0766 100.828 46.1268C100.369 46.2273 100.09 46.6649 100.198 47.0953C100.305 47.5257 100.756 47.7983 101.207 47.6979C101.229 47.6979 101.243 47.6907 101.264 47.6836Z" fill="#242424"/>
            <path d="M99.2184 44.936C98.9105 44.9504 98.6383 44.728 98.6025 44.4267C98.5238 43.6662 99.0752 43.0206 99.9846 42.8125C100.837 42.6189 101.875 42.8628 102.212 43.7165C102.326 44.0106 102.176 44.3334 101.875 44.4482C101.574 44.5558 101.231 44.4123 101.123 44.1182C101.052 43.9245 100.643 43.8312 100.264 43.9173C100.214 43.9317 99.7411 44.0465 99.7769 44.3119C99.8127 44.6204 99.5764 44.9001 99.2542 44.936H99.2255H99.2184Z" fill="#242424"/>
            <path d="M93.3662 45.7895C93.0582 45.8039 92.7861 45.5815 92.7503 45.2802C92.6716 44.5198 93.2229 43.8741 94.1324 43.6661C94.9917 43.4724 96.0228 43.7163 96.3522 44.57C96.4668 44.8641 96.3164 45.1869 96.0157 45.3017C95.7149 45.4093 95.3783 45.2658 95.2638 44.9717C95.185 44.778 94.7912 44.6848 94.4045 44.7708C94.3543 44.7852 93.8817 44.9 93.9104 45.1654C93.9462 45.4739 93.7099 45.7537 93.3876 45.7895H93.359H93.3662Z" fill="#242424"/>
            <path d="M95.5653 48.9604C95.9877 48.8384 96.2384 48.4223 96.1381 48.0063C96.0307 47.5758 95.5796 47.3032 95.1284 47.4037C94.6773 47.5113 94.3909 47.9417 94.4983 48.3721C94.5484 48.5802 94.6916 48.7667 94.885 48.8815C95.0712 48.9891 95.2931 49.0249 95.508 48.9747C95.5294 48.9747 95.5438 48.9676 95.5653 48.9604Z" fill="#242424"/>
            <path d="M99.6984 57.1389C99.1828 57.1676 98.6529 57.0671 98.1946 56.8232C97.9153 56.6726 97.8151 56.3354 97.9655 56.07C98.1158 55.8045 98.4667 55.7041 98.746 55.8548C99.4907 56.2493 100.558 55.9982 101.023 55.3239C101.202 55.0656 101.56 55.0011 101.818 55.1732C102.083 55.3454 102.155 55.6898 101.976 55.9408C101.474 56.6654 100.593 57.0958 99.6984 57.1461V57.1389Z" fill="#242424"/>
            <path d="M99.0371 121.159C98.8079 120.42 98.5143 119.695 98.1634 118.999C97.9987 118.677 97.7839 118.325 97.433 118.246C97.2111 118.196 96.9819 118.268 96.7671 118.325C94.7406 118.834 92.6138 118.153 90.5228 118.167C89.4129 118.167 88.3173 118.375 87.2289 118.576C84.5221 119.078 82.5815 119.394 80.4762 121.23C78.4927 122.967 77.3111 125.305 76.0293 127.565C75.793 127.981 75.5639 128.455 75.6856 128.914C75.7644 129.201 75.972 129.437 76.0795 129.71C76.3301 130.348 76.0938 131.274 76.7024 131.597C76.7884 131.64 76.8886 131.668 76.9602 131.74C77.1536 131.934 77.0032 132.257 76.8385 132.479C76.4661 132.967 76.0437 133.44 75.879 134.029C75.7143 134.617 75.8861 135.363 76.4518 135.607C76.86 135.786 77.3398 135.643 77.6978 135.385C78.0558 135.126 78.328 134.76 78.6144 134.43C79.8246 133.053 81.8797 131.668 83.5912 131.03C85.5031 130.32 87.6728 130.657 89.6206 130.047C91.8762 129.337 94.1534 128.519 95.7073 126.697C96.4162 125.872 97.3758 125.025 98.4427 125.212C98.8079 125.277 99.2447 125.434 99.5025 125.162C99.6529 125.004 99.6529 124.76 99.6386 124.538C99.5741 123.39 99.3665 122.249 99.0299 121.152L99.0371 121.159Z" fill="white"/>
            <path d="M78.0352 135.858C78.3718 135.614 78.6224 135.32 78.8659 135.033C78.9303 134.961 78.9876 134.889 79.0521 134.818C80.1906 133.526 82.1455 132.192 83.7997 131.575C84.7234 131.231 85.7331 131.152 86.7929 131.066C87.7883 130.987 88.8123 130.908 89.8005 130.599C92.1134 129.868 94.5123 128.992 96.1521 127.077C96.9899 126.094 97.7132 125.671 98.3505 125.786C98.4078 125.793 98.4651 125.807 98.5224 125.822C98.8876 125.9 99.4962 126.03 99.933 125.563C100.262 125.205 100.234 124.724 100.227 124.516C100.162 123.325 99.9474 122.134 99.5893 120.986C99.3458 120.212 99.0451 119.458 98.6799 118.741C98.5438 118.468 98.2216 117.837 97.5556 117.686C97.2191 117.615 96.9183 117.686 96.682 117.751L96.6247 117.765C95.4432 118.059 94.2115 117.923 92.9083 117.765C92.1277 117.672 91.3257 117.586 90.5165 117.586C89.3565 117.593 88.2179 117.801 87.1223 118.009L86.8789 118.052C84.2938 118.533 82.253 118.906 80.0976 120.793C78.2572 122.4 77.09 124.494 75.9514 126.525C75.8082 126.776 75.6722 127.027 75.5289 127.278C75.3213 127.644 74.9346 128.332 75.1279 129.064C75.1924 129.301 75.307 129.487 75.4 129.66C75.4573 129.753 75.5075 129.846 75.5433 129.925C75.6077 130.083 75.6292 130.305 75.6507 130.535C75.7008 131.044 75.7724 131.74 76.4026 132.099C76.3954 132.113 76.3882 132.12 76.3811 132.135C76.3238 132.206 76.2665 132.278 76.2092 132.35C75.8727 132.78 75.4931 133.268 75.3213 133.871C75.085 134.696 75.3499 135.772 76.2164 136.145C76.4097 136.231 76.6245 136.274 76.8394 136.274C77.2332 136.274 77.6557 136.138 78.0281 135.865L78.0352 135.858ZM92.7722 118.913C94.1256 119.071 95.522 119.229 96.904 118.884L96.9685 118.87C97.0973 118.834 97.2406 118.798 97.305 118.813C97.3551 118.827 97.4625 118.899 97.6487 119.257C97.9853 119.917 98.2646 120.613 98.4865 121.324C98.8159 122.378 99.0093 123.476 99.0737 124.573C99.0737 124.652 99.0737 124.702 99.0737 124.738C98.9878 124.738 98.8517 124.702 98.7658 124.688C98.6942 124.674 98.6226 124.659 98.551 124.645C97.4769 124.459 96.4027 125.004 95.2785 126.324C93.832 128.01 91.6981 128.792 89.4567 129.495C88.5974 129.767 87.6809 129.839 86.707 129.911C85.6114 129.997 84.48 130.083 83.3987 130.485C81.587 131.159 79.4388 132.622 78.1856 134.05C78.1212 134.129 78.0496 134.201 77.9851 134.28C77.7774 134.523 77.5841 134.753 77.3621 134.911C77.1258 135.083 76.8537 135.148 76.6818 135.069C76.424 134.961 76.3381 134.509 76.4384 134.179C76.5529 133.785 76.8322 133.426 77.1258 133.046C77.1831 132.967 77.2475 132.895 77.3048 132.816C77.7202 132.271 77.7416 131.683 77.3693 131.317C77.2475 131.195 77.1115 131.137 77.0256 131.102C77.0112 131.094 76.9969 131.087 76.9754 131.08C76.8609 131.023 76.8322 130.714 76.8036 130.413C76.7749 130.126 76.7463 129.803 76.6246 129.495C76.5601 129.33 76.4742 129.186 76.4026 129.064C76.3381 128.949 76.2737 128.842 76.245 128.756C76.1806 128.519 76.3453 128.175 76.5315 127.845C76.6747 127.593 76.8179 127.342 76.9539 127.084C78.0925 125.054 79.1595 123.131 80.8494 121.654C82.7685 119.975 84.5802 119.645 87.0865 119.179L87.33 119.135C88.3755 118.942 89.4639 118.741 90.5237 118.734H90.581C91.3042 118.734 92.049 118.82 92.7794 118.906L92.7722 118.913Z" fill="#242424"/>
            <path d="M134.197 109.335C130.638 115.052 125.554 120.046 119.217 122.291C114.849 123.84 110.115 124.02 105.668 125.311C101.222 126.602 96.746 129.486 95.6432 133.992C94.9415 136.875 95.7864 139.731 95.7363 142.629C95.7148 143.935 95.8366 145.893 95.0274 147.019C94.1896 148.181 87.9811 148.619 87.0431 150.018C85.9761 151.618 86.2769 155.126 86.506 156.926C89.2415 158.225 113.137 156.582 118.458 154.329C128.024 150.269 134.312 140.434 138.458 130.885C142.604 121.344 142.547 112.707 143.256 102.319C143.721 95.5324 143.256 87.0816 141.272 78.1357C141.251 83.7888 141.322 91.7446 139.382 97.0532C139.382 97.0532 137.749 103.617 134.19 109.328L134.197 109.335Z" fill="#F07800"/>
            <path d="M101.558 157.544C107.924 157.063 115.772 156.102 118.679 154.868C126.807 151.417 133.638 143.433 138.987 131.123C142.604 122.801 143.055 115.275 143.57 106.559C143.649 105.196 143.735 103.79 143.835 102.362C144.2 97.0107 144.15 88.438 141.837 78.0143C141.773 77.7274 141.501 77.5337 141.214 77.5624C140.921 77.5911 140.699 77.8422 140.699 78.1363V78.9039C140.684 84.3776 140.663 91.8743 138.844 96.8529C138.844 96.8744 138.83 96.8888 138.823 96.9103C138.808 96.9749 137.169 103.453 133.703 109.02C130.96 113.417 126.191 119.2 119.023 121.739C116.66 122.578 114.125 123.016 111.669 123.446C109.635 123.798 107.537 124.164 105.511 124.752C99.9824 126.359 96.0869 129.767 95.0844 133.856C94.6189 135.778 94.7979 137.672 94.9769 139.502C95.0772 140.527 95.1774 141.589 95.1631 142.622C95.1631 142.802 95.1631 143.002 95.1631 143.203C95.1631 144.387 95.1631 145.865 94.5688 146.683C94.2967 147.063 92.442 147.508 91.2104 147.809C89.1409 148.311 87.186 148.777 86.5701 149.703C85.7037 150.994 85.496 153.455 85.94 157.006C85.9615 157.2 86.0904 157.372 86.2622 157.458C87.0428 157.831 89.1265 157.974 91.7402 157.974C94.712 157.974 98.364 157.788 101.558 157.544ZM87.5225 150.348C87.8877 149.803 90.0431 149.28 91.4681 148.935C93.6379 148.412 94.9984 148.053 95.4925 147.364C96.3017 146.238 96.3017 144.559 96.3089 143.21C96.3089 143.01 96.3089 142.823 96.3089 142.651C96.3303 141.553 96.2229 140.456 96.1227 139.401C95.9437 137.586 95.779 135.872 96.2014 134.143C97.1037 130.463 100.698 127.371 105.826 125.878C107.788 125.305 109.857 124.946 111.862 124.601C114.361 124.164 116.954 123.719 119.403 122.851C126.886 120.197 131.841 114.214 134.677 109.658C138.157 104.07 139.789 97.7999 139.933 97.2475C141.279 93.5386 141.666 88.5743 141.787 84.0189C142.99 91.7093 142.969 98.0366 142.675 102.298C142.575 103.733 142.496 105.139 142.41 106.502C141.902 115.103 141.458 122.535 137.92 130.671C132.693 142.694 126.069 150.478 118.221 153.806C115.93 154.782 109.349 155.793 101.457 156.396C93.7095 156.984 88.525 156.905 87.0284 156.511C86.6847 153.519 86.8566 151.338 87.5154 150.356L87.5225 150.348Z" fill="#242424"/>
            <path d="M45.2973 125.836L36.6971 98.582L70.3315 113.611L78.9961 141.252L45.2973 125.836Z" fill="#D6D6D6"/>
            <path d="M79.3818 141.69C79.5536 141.539 79.6181 141.295 79.5536 141.08L70.889 113.439C70.8389 113.281 70.7243 113.152 70.5668 113.08L36.9324 98.0509C36.7247 97.9576 36.4741 97.9935 36.3094 98.1513C36.1375 98.3019 36.0731 98.5459 36.1447 98.7611L44.7448 126.007C44.795 126.165 44.9095 126.294 45.0599 126.366L78.7588 141.783C78.8375 141.819 78.9163 141.833 79.0022 141.833C79.1454 141.833 79.2815 141.783 79.3889 141.69H79.3818ZM37.6413 99.6506L69.8507 114.041L78.0427 140.176L45.7688 125.412L37.6341 99.6506H37.6413Z" fill="#242424"/>
            <path d="M58.3059 122.486C58.4491 122.285 58.4563 122.012 58.3202 121.804L55.1695 117.07C55.0477 116.89 54.8401 116.79 54.6324 116.804C54.4176 116.818 54.2243 116.94 54.1312 117.134L52.4126 120.578C52.3338 120.743 52.3266 120.929 52.4054 121.094C52.477 121.259 52.6274 121.381 52.7993 121.431L57.6686 122.723C57.7187 122.737 57.7689 122.744 57.819 122.744C58.0123 122.744 58.1914 122.651 58.3059 122.493V122.486ZM54.7398 118.598L56.437 121.144L53.8161 120.448L54.7398 118.598Z" fill="#242424"/>
            <path d="M86.7331 72.1394C85.2579 74.8368 84.4559 77.8426 83.4749 80.7552C82.1501 84.708 80.4673 88.546 78.4623 92.2047C77.1089 94.6725 75.5908 97.1117 74.9965 99.8592C74.4021 102.607 74.9463 105.814 77.1304 107.578C79.1498 109.207 82.1287 109.207 84.4917 108.145C86.8548 107.083 88.6951 105.118 90.2562 103.052C97.1879 93.8762 99.7228 81.5085 96.9587 70.3388C96.3357 67.8136 95.0181 65.0947 92.2111 66.5653C89.848 67.8064 87.9934 69.8222 86.7259 72.1394H86.7331Z" fill="#FFD645"/>
            <path d="M84.7356 108.669C87.4638 107.442 89.4617 105.075 90.7292 103.396C94.1807 98.8264 96.6369 93.3456 97.8256 87.5563C99.0142 81.7598 98.914 75.7624 97.532 70.1955C96.9448 67.8281 96.0353 66.3575 94.818 65.8051C93.9587 65.4177 92.9992 65.5038 91.9537 66.049C89.6192 67.2686 87.6429 69.2844 86.225 71.8599C85.0363 74.0335 84.2701 76.4153 83.5325 78.7181C83.3392 79.3279 83.1387 79.9592 82.931 80.5689C81.6206 84.4787 79.945 88.3024 77.9614 91.918C77.7681 92.2695 77.5747 92.621 77.3742 92.9726C76.1855 95.096 74.961 97.2841 74.4311 99.7232C73.715 103.038 74.6316 106.294 76.7727 108.016C77.9543 108.963 79.4938 109.451 81.1193 109.451C82.3152 109.451 83.554 109.193 84.7356 108.655V108.669ZM87.2418 72.4194C88.5451 70.0449 90.364 68.194 92.4907 67.0749C93.214 66.6947 93.8227 66.6229 94.3454 66.8597C95.2047 67.2471 95.9208 68.4953 96.4077 70.4681C97.7468 75.8629 97.8399 81.6952 96.687 87.3196C95.5341 92.9439 93.1567 98.2597 89.8054 102.693C88.6167 104.271 86.7478 106.488 84.2629 107.607C81.8641 108.691 79.2074 108.497 77.496 107.119C75.3119 105.355 75.0899 102.169 75.5625 99.9743C76.0566 97.7073 77.2382 95.591 78.3839 93.5393C78.5844 93.1806 78.7778 92.8291 78.9783 92.4776C80.9976 88.7974 82.6947 84.9163 84.0338 80.9348C84.2415 80.3107 84.442 79.6794 84.6425 79.0696C85.3657 76.817 86.1104 74.4927 87.249 72.4122L86.7406 72.1325L87.249 72.4122L87.2418 72.4194Z" fill="#242424"/>
            <path d="M93.4814 66.0349C94.3694 63.4953 95.5079 60.676 97.9928 59.6573C99.7472 58.9399 101.745 59.3273 103.593 59.7434C103.922 59.8151 104.258 59.894 104.538 60.0877C105.497 60.7692 105.118 62.2614 104.631 63.3375C105.669 63.9831 105.619 65.791 104.545 66.372C105.497 67.1038 105.275 68.8685 104.165 69.3348C104.824 70.0451 104.545 71.2646 103.843 71.9246C103.141 72.5846 102.153 72.8357 101.215 73.0581C101.523 75.8774 99.2817 78.7326 96.4747 79.0985C96.5749 80.2104 96.5033 81.6237 95.4721 82.0398C94.9064 82.2693 94.2691 82.0756 93.6963 81.8748C92.171 81.3511 90.6672 80.77 89.1849 80.1387C90.0514 77.9076 90.1874 75.4972 90.9823 73.2159C91.8201 70.8198 92.6508 68.4238 93.4886 66.0349H93.4814Z" fill="white"/>
            <path d="M95.6871 82.5703C96.6609 82.1758 97.1335 81.1714 97.0834 79.5717C99.7974 78.9404 101.867 76.2932 101.824 73.5026C102.64 73.2945 103.542 73.0004 104.237 72.3476C105.132 71.5082 105.29 70.3532 104.946 69.5139C105.347 69.1552 105.626 68.6243 105.698 68.0289C105.77 67.4478 105.648 66.8883 105.368 66.4363C105.719 66.0346 105.934 65.4894 105.956 64.8939C105.977 64.2268 105.741 63.6026 105.326 63.165C105.956 61.5294 105.798 60.274 104.867 59.614C104.495 59.3485 104.065 59.2553 103.714 59.1763C101.645 58.71 99.6327 58.3585 97.7637 59.1261C95.0784 60.2237 93.861 63.1722 92.923 65.8481L90.4167 73.0291C90.03 74.141 89.7937 75.2817 89.5646 76.3865C89.3068 77.6275 89.0705 78.7969 88.6265 79.9304C88.5119 80.2245 88.6551 80.5545 88.9416 80.6764C90.431 81.3077 91.9634 81.896 93.4887 82.4269C93.9255 82.5775 94.4053 82.721 94.8922 82.721C95.15 82.721 95.4078 82.678 95.6656 82.5775L95.6871 82.5703ZM90.7174 76.616C90.9394 75.5471 91.1614 74.4495 91.5266 73.4093L94.0329 66.2283C94.9209 63.6815 95.9735 61.1133 98.2148 60.195C99.7687 59.5566 101.588 59.8866 103.471 60.3098C103.743 60.3672 104.022 60.4318 104.208 60.5609C104.925 61.0631 104.38 62.505 104.108 63.1005C103.986 63.3659 104.087 63.6744 104.33 63.8322C104.695 64.0618 104.817 64.5137 104.803 64.8652C104.788 65.2168 104.645 65.6615 104.273 65.8696C104.101 65.9628 103.986 66.135 103.972 66.3359C103.958 66.5296 104.044 66.7233 104.194 66.838C104.531 67.0891 104.602 67.5483 104.552 67.8854C104.509 68.2226 104.323 68.6459 103.936 68.8037C103.764 68.8754 103.636 69.0333 103.593 69.2126C103.55 69.3991 103.607 69.5928 103.736 69.7291C104.151 70.1811 103.922 71.0491 103.442 71.5011C102.834 72.075 101.903 72.2974 101.079 72.4911C100.793 72.5556 100.607 72.8282 100.635 73.1152C100.907 75.6189 98.8879 78.1943 96.396 78.5171C96.0881 78.5602 95.8661 78.8328 95.8947 79.1412C95.9807 80.0595 95.9377 81.2145 95.2502 81.4943C94.8779 81.6449 94.3695 81.4943 93.8754 81.3221C92.5435 80.863 91.2115 80.3536 89.9083 79.8156C90.2663 78.7538 90.4883 77.6706 90.7103 76.616H90.7174Z" fill="#242424"/>
            <path d="M104.988 63.6019C104.916 63.6019 104.845 63.5875 104.78 63.566C103.312 62.9993 101.773 62.6406 100.205 62.5186C99.8895 62.4899 99.646 62.2173 99.6747 61.8945C99.7033 61.5788 99.9754 61.3349 100.298 61.3636C101.98 61.4999 103.627 61.873 105.196 62.4827C105.496 62.5975 105.64 62.9347 105.525 63.2288C105.439 63.4584 105.217 63.5947 104.988 63.5947V63.6019Z" fill="#242424"/>
            <path d="M104.515 66.7591C104.444 66.7591 104.372 66.7448 104.308 66.7232C102.84 66.1565 101.3 65.7978 99.7319 65.6758C99.4169 65.6543 99.1734 65.3745 99.202 65.0517C99.2307 64.7361 99.5028 64.4922 99.825 64.5209C101.508 64.6572 103.155 65.0302 104.723 65.64C105.024 65.7548 105.167 66.0919 105.052 66.3861C104.966 66.6156 104.745 66.7519 104.515 66.7519V66.7591Z" fill="#242424"/>
            <path d="M104.515 70.2318C104.444 70.2318 104.372 70.2174 104.308 70.1959C102.84 69.6291 101.3 69.2705 99.7319 69.1485C99.4169 69.1198 99.1734 68.8472 99.202 68.5244C99.2307 68.2087 99.5028 67.9648 99.825 67.9935C101.508 68.1298 103.155 68.5028 104.723 69.1126C105.024 69.2274 105.167 69.5646 105.052 69.8587C104.966 70.0883 104.745 70.2318 104.515 70.2318Z" fill="#242424"/>
            <path d="M76.804 132.285C76.6823 132.285 76.5606 132.249 76.4603 132.17C76.2025 131.976 76.1524 131.618 76.3386 131.359C77.6204 129.623 79.3175 128.196 81.2509 127.22C81.5373 127.076 81.8811 127.191 82.0243 127.478C82.1675 127.765 82.0529 128.11 81.7665 128.253C79.9978 129.143 78.4439 130.455 77.2695 132.048C77.1549 132.199 76.9831 132.285 76.804 132.285Z" fill="#242424"/>
            <path d="M75.6848 129.43C75.5559 129.43 75.427 129.387 75.3196 129.301C75.0761 129.1 75.0332 128.734 75.2409 128.483C76.5942 126.826 78.3415 125.485 80.2892 124.595C80.5828 124.466 80.9194 124.595 81.0554 124.882C81.1843 125.176 81.0554 125.513 80.769 125.65C78.986 126.46 77.3819 127.694 76.136 129.215C76.0214 129.351 75.8567 129.43 75.692 129.43H75.6848Z" fill="#242424"/>
            <path d="M103.441 124.688C103.183 124.688 102.947 124.509 102.882 124.251C102.803 123.942 102.997 123.627 103.305 123.548C112.084 121.374 120.269 117.012 126.964 110.922C127.2 110.706 127.566 110.721 127.78 110.957C127.995 111.194 127.974 111.56 127.745 111.775C120.906 117.995 112.556 122.457 103.584 124.674C103.541 124.688 103.491 124.688 103.448 124.688H103.441Z" fill="#242424"/>
            <path d="M98.6639 117.937C98.4562 117.937 98.2557 117.829 98.1554 117.628C98.0051 117.349 98.1125 116.997 98.3918 116.847C101.829 115.003 105.646 111.932 108.861 108.439C112.384 104.601 114.812 100.634 115.685 97.269C116.774 93.0938 117.096 91.3434 117.805 87.4982L118.005 86.4293C118.886 81.6802 121.707 77.3543 125.753 74.5709C126.018 74.3915 126.376 74.4561 126.555 74.7215C126.734 74.987 126.67 75.3457 126.405 75.525C122.61 78.1363 119.96 82.1895 119.137 86.6373L118.936 87.7062C118.22 91.573 117.898 93.3449 116.795 97.556C115.871 101.1 113.351 105.239 109.699 109.214C106.398 112.8 102.473 115.957 98.9288 117.858C98.8429 117.908 98.7498 117.93 98.6567 117.93L98.6639 117.937Z" fill="#242424"/>
            <path d="M132.487 74.6289C135.991 80.7965 139.896 96.7324 127.481 111.135" stroke="#242424" stroke-width="1.05677"/>
        </g>
        <path d="M73.7513 44.0715C74.0572 43.988 74.3728 44.1684 74.4563 44.4743C74.5397 44.7802 74.3593 45.0959 74.0534 45.1793L73.7513 44.0715ZM64.8466 48.6502L65.1803 49.1174L64.5272 49.5838L64.2966 48.8151L64.8466 48.6502ZM60.8113 40.8574C60.6695 40.5737 60.7845 40.2289 61.0681 40.0871C61.3517 39.9452 61.6966 40.0602 61.8384 40.3438L60.8113 40.8574ZM74.0534 45.1793C72.2287 45.6769 67.9139 47.1648 65.1803 49.1174L64.5129 48.183C67.414 46.1107 71.8866 44.58 73.7513 44.0715L74.0534 45.1793ZM64.2966 48.8151C62.8063 43.8474 61.344 41.9226 60.8113 40.8574L61.8384 40.3438C62.312 41.2909 63.8682 43.3909 65.3965 48.4852L64.2966 48.8151Z" fill="#242424"/>
        <path d="M65.262 48.9695C65.0894 49.2356 64.7339 49.3114 64.4678 49.1388C64.2018 48.9663 64.126 48.6108 64.2985 48.3447L65.262 48.9695ZM36.3123 15.1997C36.021 15.3249 35.6833 15.1903 35.5581 14.899C35.4328 14.6077 35.5675 14.27 35.8588 14.1448L36.3123 15.1997ZM64.2985 48.3447C71.1089 37.8434 68.1167 23.8096 57.6154 16.9993L58.2402 16.0358C69.2736 23.1912 72.4174 37.9361 65.262 48.9695L64.2985 48.3447ZM57.6154 16.9993C51.0202 12.7221 43.0316 12.3108 36.3123 15.1997L35.8588 14.1448C42.9153 11.1109 51.3099 11.5414 58.2402 16.0358L57.6154 16.9993Z" fill="#242424"/>
        <path d="M13.3835 32.575C13.0776 32.6585 12.7619 32.4781 12.6785 32.1722C12.5951 31.8663 12.7754 31.5506 13.0814 31.4672L13.3835 32.575ZM22.2882 27.9963L21.9545 27.5291L22.6075 27.0627L22.8381 27.8313L22.2882 27.9963ZM26.3234 35.7891C26.4652 36.0727 26.3503 36.4176 26.0667 36.5594C25.783 36.7012 25.4382 36.5863 25.2964 36.3027L26.3234 35.7891ZM13.0814 31.4672C14.9061 30.9696 19.2209 29.4817 21.9545 27.5291L22.6219 28.4635C19.7208 30.5358 15.2482 32.0665 13.3835 32.575L13.0814 31.4672ZM22.8381 27.8313C24.3284 32.799 25.7908 34.7238 26.3234 35.7891L25.2964 36.3027C24.8228 35.3556 23.2666 33.2556 21.7383 28.1613L22.8381 27.8313Z" fill="#242424"/>
        <path d="M21.8728 27.676C22.0453 27.4099 22.4009 27.3341 22.6669 27.5067C22.933 27.6792 23.0088 28.0347 22.8362 28.3008L21.8728 27.676ZM54.1924 59.6462C54.4585 59.4737 54.814 59.5496 54.9865 59.8156C55.159 60.0817 55.0831 60.4372 54.817 60.6097L54.1924 59.6462ZM22.8362 28.3008C16.0259 38.8021 19.018 52.8359 29.5193 59.6462L28.8945 60.6097C17.8611 53.4543 14.7174 38.7094 21.8728 27.676L22.8362 28.3008ZM29.5193 59.6462C37.2594 64.6659 46.9196 64.3608 54.1924 59.6462L54.817 60.6097C47.1781 65.5618 37.0283 65.8846 28.8945 60.6097L29.5193 59.6462Z" fill="#242424"/>
        <path d="M54.3407 48.3522L53.2988 42.4434L39.5983 45.3668L40.5534 50.7833C46.0196 51.838 51.6943 49.6599 54.3407 48.3522Z" fill="#F07800"/>
        <path d="M39.5328 44.8699C39.5498 44.9572 39.6413 45.1201 40.0077 45.2969C40.363 45.4683 40.8883 45.606 41.5658 45.6868C42.9146 45.8476 44.7507 45.7695 46.7461 45.4002C48.7415 45.0309 50.4793 44.4476 51.6739 43.816C52.274 43.4988 52.711 43.1829 52.9773 42.8965C53.2519 42.6011 53.2758 42.4168 53.2588 42.3296C53.2419 42.2423 53.1504 42.0794 52.7839 41.9026C52.4286 41.7312 51.9033 41.5935 51.2258 41.5127C49.877 41.3518 48.0409 41.4299 46.0455 41.7992C44.0501 42.1685 42.3123 42.7519 41.1177 43.3834C40.5176 43.7007 40.0806 44.0165 39.8143 44.303C39.5398 44.5984 39.5158 44.7827 39.5328 44.8699Z" fill="#FCF8F0" stroke="#242424"/>
        <path d="M53.5039 42.6924L54.4511 48.0641" stroke="#242424" stroke-linecap="round"/>
        <path d="M39.4043 45.1787L40.3515 50.5504" stroke="#242424" stroke-linecap="round"/>
        <path d="M54.4375 48.0635C52.5628 49.7513 45.8809 52.302 40.3514 50.5917" stroke="#242424" stroke-linecap="round"/>
        <path d="M48.3171 40.9234L46.2333 29.1057L31.3744 31.218L33.545 43.5281C39.2911 46.1704 45.7873 42.8926 48.3171 40.9234Z" fill="#ACC460"/>
        <ellipse rx="7.5" ry="2.38636" transform="matrix(-0.984808 0.173648 0.173648 0.984808 38.7393 29.8038)" fill="#FCF8F0" stroke="#242424"/>
        <path d="M46.2324 29.1055L48.3162 40.9232" stroke="#242424" stroke-linecap="round"/>
        <path d="M31.4609 31.71L33.5447 43.5277" stroke="#242424" stroke-linecap="round"/>
        <path d="M48.0117 41.1611C46.1222 42.879 39.4206 45.4453 33.9111 43.6475" stroke="#242424" stroke-linecap="round"/>
    </g>
    <defs>
        <clipPath id="clip0_12448_32040">
            <rect width="117.301" height="168.026" fill="white" transform="matrix(-1 0 0 1 144 30.1221)"/>
        </clipPath>
    </defs>
</svg>
