<svg width="160" height="160" viewBox="0 0 160 160" fill="none" xmlns="http://www.w3.org/2000/svg">
    <mask id="mask0_12448_31747" style="mask-type:alpha" maskUnits="userSpaceOnUse" x="0" y="0" width="160" height="160">
        <rect width="160" height="160" rx="12" transform="matrix(-1 0 0 1 160 0)" fill="white"/>
    </mask>
    <g mask="url(#mask0_12448_31747)">
        <rect width="160" height="160" rx="8" fill="#FAFAFA"/>
        <mask id="path-3-inside-1_12448_31747" fill="white">
            <path d="M111.001 24C117.701 24 124.221 26.1709 129.584 30.1874C134.947 34.204 138.864 39.85 140.749 46.2797C142.634 52.7094 142.385 59.5768 140.039 65.853C137.693 72.1293 133.377 77.4766 127.737 81.094C122.097 84.7113 115.437 86.404 108.755 85.9185C102.072 85.433 95.7264 82.7954 90.6686 78.4008C85.6108 74.0062 82.113 68.0911 80.6991 61.5417C79.2851 54.9923 80.0313 48.1611 82.8256 42.0713L111.001 55V24Z"/>
        </mask>
        <path d="M111.001 24C117.701 24 124.221 26.1709 129.584 30.1874C134.947 34.204 138.864 39.85 140.749 46.2797C142.634 52.7094 142.385 59.5768 140.039 65.853C137.693 72.1293 133.377 77.4766 127.737 81.094C122.097 84.7113 115.437 86.404 108.755 85.9185C102.072 85.433 95.7264 82.7954 90.6686 78.4008C85.6108 74.0062 82.113 68.0911 80.6991 61.5417C79.2851 54.9923 80.0313 48.1611 82.8256 42.0713L111.001 55V24Z" fill="#FDBE7E" stroke="#242424" stroke-width="2" mask="url(#path-3-inside-1_12448_31747)"/>
        <mask id="path-4-inside-2_12448_31747" fill="white">
            <path d="M111.001 24C116.378 24 121.663 25.3988 126.337 28.059C131.01 30.7192 134.911 34.5493 137.656 39.1731C140.402 43.7969 141.897 49.0553 141.996 54.4318C142.094 59.8083 140.793 65.118 138.219 69.8393C135.644 74.5606 131.887 78.5311 127.314 81.3608C122.741 84.1905 117.511 85.7821 112.137 85.9792C106.763 86.1763 101.431 84.9721 96.6631 82.485C91.8954 79.9979 87.8567 76.3133 84.9436 71.7933L111.001 55V24Z"/>
        </mask>
        <path d="M111.001 24C116.378 24 121.663 25.3988 126.337 28.059C131.01 30.7192 134.911 34.5493 137.656 39.1731C140.402 43.7969 141.897 49.0553 141.996 54.4318C142.094 59.8083 140.793 65.118 138.219 69.8393C135.644 74.5606 131.887 78.5311 127.314 81.3608C122.741 84.1905 117.511 85.7821 112.137 85.9792C106.763 86.1763 101.431 84.9721 96.6631 82.485C91.8954 79.9979 87.8567 76.3133 84.9436 71.7933L111.001 55V24Z" fill="#ACC460" stroke="#242424" stroke-width="2" mask="url(#path-4-inside-2_12448_31747)"/>
        <mask id="path-5-inside-3_12448_31747" fill="white">
            <path d="M80.629 35.4475C83.2264 30.562 87.0841 26.4607 91.8016 23.5694C96.5191 20.678 101.924 19.1019 107.457 19.0048L108.001 50L80.629 35.4475Z"/>
        </mask>
        <path d="M80.629 35.4475C83.2264 30.562 87.0841 26.4607 91.8016 23.5694C96.5191 20.678 101.924 19.1019 107.457 19.0048L108.001 50L80.629 35.4475Z" fill="#F07800" stroke="#242424" stroke-width="2" mask="url(#path-5-inside-3_12448_31747)"/>
        <path d="M94.8123 100.697C96.8509 101.141 99.6704 100.015 100.558 98.0341C100.681 97.7547 101.01 95.3051 101.314 95.2476C101.347 95.2476 104.084 94.6475 107.537 88.6304C108.236 87.4057 108.523 86.074 108.4 84.578C108.351 83.9286 108.104 83.3121 107.57 82.7778C107.496 82.7038 106.608 82.0627 106.6 82.1531C106.649 81.6106 106.403 81.0434 105.975 80.7146C105.548 80.3858 104.948 80.2954 104.438 80.4844C104.586 79.909 104.364 79.2514 103.895 78.8897C103.427 78.5281 102.745 78.4787 102.235 78.7664C102.605 77.9526 106.797 72.3302 105.145 70.8834C104.29 70.1354 103.164 70.4478 102.662 71.1547C101.027 73.4481 97.0728 79.9419 97.0728 79.9419C97.0728 79.9419 95.0014 81.0023 93.7602 82.3668C91.4914 84.8575 92.971 90.1429 93.9657 92.2719C94.0643 92.4856 92.7902 94.1296 92.6669 94.3187C91.7791 95.7408 91.4421 97.056 92.2723 98.6753C92.782 99.6699 93.7191 100.451 94.8041 100.689L94.8123 100.697Z" fill="white"/>
        <path d="M95.7337 101.371C95.3638 101.371 95.0103 101.339 94.6815 101.265C93.4485 100.993 92.3553 100.13 91.747 98.9466C90.6784 96.8751 91.41 95.2229 92.1662 94.0228C92.1991 93.9735 92.2895 93.8502 92.4128 93.6775C92.6101 93.4063 93.1526 92.6583 93.3417 92.3212C92.4046 90.2005 90.7935 84.7671 93.3252 81.9887C94.4431 80.7639 96.1447 79.7939 96.6543 79.5145C97.2462 78.5363 100.666 72.9549 102.186 70.8259C102.548 70.3163 103.148 69.9628 103.789 69.8971C104.43 69.8231 105.047 70.0204 105.548 70.456C107.11 71.8205 105.261 75.0757 103.378 78.0431C103.699 78.1006 104.011 78.2404 104.274 78.4376C104.702 78.7747 104.981 79.2761 105.063 79.8022C105.524 79.8104 105.976 79.9666 106.354 80.2543C106.831 80.6242 107.135 81.1749 107.201 81.775C107.62 82.0051 107.998 82.3586 108.006 82.3668C108.598 82.9586 108.935 83.6902 109.009 84.5287C109.141 86.148 108.836 87.5783 108.072 88.9099C105.031 94.2036 102.499 95.4531 101.701 95.7325C101.578 96.0696 101.422 96.8833 101.34 97.3026C101.225 97.9108 101.175 98.1164 101.118 98.2561C100.222 100.254 97.7969 101.355 95.7584 101.355L95.7337 101.371ZM94.9364 100.13C96.6379 100.5 99.2272 99.5631 100.016 97.7958C100.041 97.73 100.107 97.3766 100.164 97.0889C100.493 95.3791 100.633 94.7872 101.192 94.6722C101.208 94.6722 103.773 93.9981 107.028 88.3428C107.677 87.2166 107.932 86.0001 107.817 84.6273C107.768 84.0601 107.554 83.5834 107.151 83.1888C107.077 83.1313 106.675 82.8354 106.485 82.7285C106.198 82.6709 105.984 82.4079 106.009 82.112C106.042 81.7667 105.877 81.3886 105.606 81.1749C105.343 80.9694 104.957 80.9119 104.644 81.0269C104.439 81.1009 104.209 81.0598 104.044 80.9201C103.88 80.7803 103.806 80.5584 103.863 80.3447C103.954 79.9912 103.814 79.5638 103.526 79.3418C103.247 79.1281 102.828 79.0952 102.532 79.2679C102.31 79.3912 102.03 79.3665 101.841 79.1939C101.652 79.0213 101.595 78.7582 101.701 78.5281C101.784 78.3472 101.964 78.0595 102.31 77.5252C104.57 73.966 105.4 71.8781 104.759 71.3191C104.447 71.0479 104.135 71.015 103.921 71.0396C103.617 71.0725 103.321 71.2451 103.148 71.4835C101.537 73.7358 97.6161 80.1721 97.5832 80.2378C97.5256 80.3282 97.4434 80.4022 97.353 80.4515C97.3366 80.4598 95.3556 81.479 94.2048 82.7449C92.1909 84.9643 93.5389 89.9539 94.5007 92.0253C94.6897 92.4281 94.5171 92.7733 93.3663 94.3516C93.2677 94.4831 93.1937 94.5817 93.169 94.6311C92.2566 96.0942 92.1498 97.1546 92.7991 98.4205C93.2512 99.3 94.0486 99.933 94.9364 100.13Z" fill="#242424"/>
        <path d="M100.065 81.2973C99.958 81.2973 99.8512 81.2644 99.7525 81.2069C99.473 81.0343 99.3909 80.6808 99.5717 80.4096C100.057 79.6533 101.216 78.6258 102.005 78.2559C102.301 78.1162 102.654 78.2395 102.794 78.5272C102.934 78.8149 102.81 79.1601 102.514 79.2999C101.923 79.5793 100.936 80.4507 100.566 81.0343C100.451 81.2069 100.262 81.3055 100.065 81.3055V81.2973Z" fill="#242424"/>
        <path d="M103.903 90.093C103.542 90.093 103.18 89.9862 102.851 89.7807C102.136 89.3368 101.783 88.5312 101.955 87.7832C102.243 86.5667 103.081 85.5638 103.813 84.676L103.912 84.5528C104.117 84.3062 104.841 83.4677 105.449 83.1143C105.728 82.9499 106.09 83.0485 106.254 83.3198C106.419 83.5992 106.328 83.9527 106.041 84.1171C105.712 84.3061 105.186 84.8404 104.816 85.2925L104.717 85.4159C104.027 86.2379 103.32 87.0927 103.09 88.0545C103.016 88.3668 103.221 88.6628 103.468 88.8107C103.673 88.9422 103.862 88.9669 104.076 88.9176C104.725 88.745 105.416 87.849 105.802 87.1256C105.95 86.8461 106.312 86.7311 106.6 86.8872C106.887 87.0352 106.994 87.3887 106.846 87.6681C106.517 88.2764 105.63 89.7149 104.38 90.0437C104.216 90.0848 104.051 90.1095 103.887 90.1095L103.903 90.093Z" fill="#242424"/>
        <path d="M102.144 88.2359C101.618 88.2359 100.944 88.0961 100.665 87.9235C100.032 87.5289 99.4072 86.2959 99.6044 85.4657C99.851 84.4136 100.837 83.3039 101.627 82.4079C101.816 82.1942 101.988 81.9969 102.136 81.8243C102.202 81.7421 102.227 81.7092 102.243 81.6845C102.317 81.5612 102.473 81.4379 102.613 81.3968C102.613 81.3968 102.654 81.3721 102.728 81.331C103.008 81.1666 103.369 81.2653 103.534 81.5365C103.698 81.816 103.608 82.1695 103.32 82.3339C103.254 82.375 103.197 82.3997 103.155 82.4243C103.131 82.4654 103.09 82.5065 103.049 82.564C102.892 82.7531 102.712 82.9586 102.514 83.1806C101.849 83.9368 100.936 84.9725 100.747 85.737C100.681 86.0247 101.018 86.7727 101.29 86.9535C101.438 87.0275 102.079 87.1179 102.251 87.0851C102.564 86.9782 102.884 87.1508 102.991 87.4467C103.098 87.7427 102.917 88.0797 102.613 88.1865C102.49 88.2276 102.325 88.2441 102.136 88.2441L102.144 88.2359Z" fill="#242424"/>
        <path d="M95.4281 81.339C97.4996 81.0677 98.6093 81.002 100.697 81.002C100.936 81.002 101.807 81.2157 102.029 81.3061C102.695 81.5856 102.801 82.5884 102.374 83.1803C101.947 83.7721 101.19 84.0105 100.475 84.1173C99.7601 84.216 99.0203 84.216 98.338 84.479C98.1901 84.5366 98.0257 84.627 97.9846 84.7832C97.9599 84.89 98.001 85.0051 98.0421 85.112C98.2723 85.6874 98.5271 86.2628 98.6915 86.8628C99.1518 88.5397 98.897 89.0904 97.9352 90.5372L95.4199 81.3472L95.4281 81.339Z" fill="white"/>
        <path d="M97.9443 91.1124C97.8374 91.1124 97.7223 91.0795 97.6237 91.0138C97.3524 90.8411 97.2784 90.4795 97.4511 90.2082C98.347 88.8683 98.5361 88.4902 98.1333 87.0106C98.01 86.5667 97.8374 86.1311 97.6483 85.679L97.5086 85.3255C97.4511 85.194 97.3524 84.9392 97.4264 84.6515C97.5004 84.3309 97.747 84.0925 98.1415 83.9363C98.7005 83.7226 99.2677 83.6651 99.8184 83.6075C100.016 83.5911 100.213 83.5664 100.402 83.5418C101.142 83.4349 101.643 83.2048 101.906 82.8431C102.046 82.654 102.087 82.3581 102.021 82.1197C101.997 82.0211 101.931 81.8895 101.816 81.8402C101.66 81.7745 100.887 81.5936 100.706 81.5854C98.6347 81.5854 97.5661 81.6512 95.5194 81.9142C95.1988 81.9635 94.9028 81.7334 94.8535 81.4128C94.8124 81.0922 95.0344 80.8045 95.3632 80.7634C97.4511 80.4921 98.6019 80.4182 100.714 80.4264C101.06 80.4264 102.03 80.673 102.276 80.7716C102.704 80.9525 103.024 81.3141 103.164 81.7991C103.328 82.3827 103.221 83.0403 102.876 83.5171C102.424 84.1418 101.651 84.5364 100.583 84.6844C100.369 84.7172 100.164 84.7337 99.9499 84.7583C99.4896 84.8077 99.054 84.8488 98.6594 84.9803L98.758 85.2351C98.9471 85.7036 99.1526 86.1886 99.2923 86.6983C99.8102 88.5724 99.4896 89.2876 98.4621 90.8411C98.347 91.0138 98.158 91.1042 97.9689 91.1042L97.9443 91.1124Z" fill="#242424"/>
        <path d="M99.753 86.5342C99.3584 86.5342 98.9639 86.452 98.6104 86.2794C98.3145 86.1396 98.1912 85.7944 98.3309 85.5067C98.4707 85.219 98.8241 85.0957 99.1201 85.2354C99.3831 85.3587 99.6872 85.3998 99.9749 85.3587C100.296 85.3012 100.6 85.5231 100.649 85.8355C100.698 86.1478 100.485 86.452 100.164 86.5013C100.024 86.526 99.8845 86.5342 99.7448 86.5342H99.753Z" fill="#242424"/>
        <path d="M37.1167 66.9703C37.6921 64.1837 39.9773 62.0794 40.6431 59.1777C41.2514 56.5391 41.0212 51.0152 37.2072 51.0234C33.4424 51.0317 33.541 56.5966 33.0643 59.0544C32.5628 61.6026 29.7845 62.9753 28.5186 65.2358C27.5815 66.9045 27.5733 69.0746 28.4939 70.7515C29.094 71.8365 30.064 72.7818 30.2119 74.023C30.5489 76.8507 27.9103 78.6016 29.0776 81.6512C30.8531 86.312 34.9466 87.9395 39.3772 85.0379C40.6924 84.1748 41.8432 83.0157 42.5255 81.5855C43.6845 79.1523 43.2653 76.0287 41.5062 73.9984C40.3636 72.675 38.7196 71.7872 37.8319 70.2747C37.0756 68.976 36.9277 67.9156 37.125 66.9785L37.1167 66.9703Z" fill="#242424"/>
        <path d="M35.0615 87.167C34.4121 87.167 33.771 87.0684 33.1545 86.8711C31.0748 86.2135 29.3897 84.438 28.4115 81.8816C27.6635 79.9252 28.2964 78.4127 28.8472 77.0729C29.25 76.0947 29.6363 75.1658 29.5048 74.0972C29.4226 73.415 28.9951 72.7902 28.543 72.1326C28.3129 71.7956 28.0745 71.4422 27.869 71.0723C26.8415 69.1981 26.8497 66.7732 27.8937 64.9073C28.4608 63.8962 29.2746 63.0742 30.0637 62.2851C31.1159 61.2329 32.1105 60.2301 32.3653 58.9313C32.4475 58.5203 32.5133 57.9942 32.5791 57.4353C32.9325 54.6158 33.4751 50.3578 37.1905 50.3496H37.1987C38.4071 50.3496 39.4346 50.8346 40.1744 51.747C41.8184 53.7691 41.7526 57.3942 41.3005 59.3423C40.947 60.8794 40.1826 62.1864 39.4428 63.4441C38.7276 64.6689 38.0454 65.8197 37.7823 67.1184C37.6015 67.998 37.7988 68.894 38.4153 69.9379C38.8838 70.7435 39.6154 71.3682 40.3963 72.0258C40.947 72.4943 41.5224 72.9875 42.0156 73.5629C43.9391 75.7905 44.4077 79.2101 43.1336 81.8816C42.4513 83.3201 41.2758 84.6106 39.7387 85.6135C38.1522 86.6492 36.5658 87.1753 35.0451 87.1753L35.0615 87.167ZM37.2152 51.7059C34.9136 51.7059 34.3875 54.3774 33.9765 57.5997C33.9025 58.1833 33.8367 58.7258 33.7463 59.1861C33.4093 60.8877 32.2256 62.0878 31.0748 63.2386C30.3186 64.003 29.6034 64.7182 29.1267 65.5649C28.3047 67.0362 28.2964 68.9515 29.102 70.4311C29.2746 70.7435 29.4883 71.0476 29.7103 71.3764C30.2364 72.1409 30.7789 72.9382 30.894 73.941C31.0584 75.3631 30.5734 76.5468 30.1377 77.5907C29.6116 78.8566 29.1595 79.9499 29.7185 81.4048C30.5405 83.5667 31.9132 85.0463 33.5819 85.5724C35.2177 86.0902 37.0836 85.7121 38.9825 84.4627C40.3059 83.5913 41.3087 82.4981 41.8841 81.2897C42.9281 79.0868 42.5499 76.2673 40.9635 74.4342C40.536 73.941 40.0264 73.5054 39.4921 73.0451C38.6619 72.3381 37.807 71.6066 37.2234 70.6037C36.4425 69.2721 36.1877 68.0391 36.4343 66.8307C36.7466 65.3183 37.5111 64.0113 38.2591 62.7454C38.9825 61.5206 39.6565 60.3616 39.9689 59.0217C40.3716 57.2791 40.3716 54.1226 39.114 52.5772C38.629 51.9854 38.0125 51.6977 37.2152 51.6977V51.7059Z" fill="#242424"/>
        <path d="M71.4428 132.985L73.3663 211.725L74.1965 245.09C74.1965 245.09 74.2541 245.23 72.8156 245.854C71.3771 246.479 65.1381 247.317 63.7242 246.693C62.3104 246.068 57.7812 214.972 57.9867 209.76C58.1922 204.54 58.1922 201.203 58.1922 201.203L54.4849 175.121C54.4849 175.121 52.8409 199.954 52.0107 201.409C51.1805 202.864 33.4253 244.547 33.4253 244.547C33.4253 244.547 32.0361 245.23 30.5894 245.024C29.1509 244.819 22.5584 242.311 22.1474 241.268C21.7364 240.224 30.7538 210.015 31.6169 207.672C33.4664 202.666 38.0038 195.572 38.0038 195.572C38.0038 195.572 31.3949 161.796 30.7784 152.409C30.1619 143.022 32.1676 131.588 32.1676 131.588L71.4346 132.994L71.4428 132.985Z" fill="#ACACAC"/>
        <path d="M65.5984 247.589C64.6613 247.589 63.8804 247.507 63.4447 247.309C63.0009 247.112 62.0802 246.701 59.5649 230.039C58.3894 222.271 57.1811 212.604 57.2962 209.727C57.4852 204.919 57.5017 201.672 57.5017 201.244L54.7233 181.697C54.1561 189.407 53.2437 200.636 52.6272 201.737C51.9943 202.864 40.215 230.401 34.0746 244.81C34.0089 244.958 33.8938 245.082 33.7458 245.156C33.6801 245.188 32.1429 245.936 30.4989 245.698C29.4303 245.542 22.1228 243.068 21.5063 241.514C20.898 239.977 30.8606 207.738 30.9757 207.442C32.669 202.872 36.4749 196.715 37.2805 195.441C36.6146 192.046 30.688 161.451 30.0962 152.459C29.4797 143.096 31.4689 131.596 31.4936 131.481C31.5511 131.144 31.8552 130.897 32.2005 130.914L71.4675 132.319C71.8374 132.336 72.1251 132.624 72.1333 132.985L74.0568 211.725L74.887 245.008C75.0185 245.665 74.1225 246.052 73.095 246.495C71.9525 246.997 68.1713 247.605 65.5902 247.605L65.5984 247.589ZM64.1352 246.109C65.5326 246.537 71.2373 245.797 72.5443 245.23C73.0539 245.008 73.3416 244.86 73.506 244.769L72.684 211.741L70.777 133.643L32.7759 132.287C32.3813 134.736 30.9675 144.362 31.4936 152.36C32.1018 161.599 38.645 195.104 38.7107 195.441C38.7436 195.614 38.7107 195.786 38.6203 195.934C38.5792 196.008 34.1075 203.028 32.2991 207.911C31.3374 210.508 23.0352 238.538 22.8543 241.07C23.5695 241.884 29.307 244.153 30.7127 244.35C31.6004 244.482 32.5046 244.194 32.9156 244.038C34.5432 240.232 50.6133 202.518 51.4271 201.088C51.9861 199.872 53.1862 184.484 53.8109 175.08C53.8356 174.735 54.1233 174.455 54.4767 174.447C54.822 174.431 55.1425 174.685 55.1919 175.031L58.8991 201.113C58.8991 201.113 58.8991 201.179 58.8991 201.203C58.8991 201.236 58.8991 204.614 58.6936 209.785C58.4799 215.128 62.7871 243.758 64.1434 246.117L64.1352 246.109ZM73.506 245.082C73.506 245.172 73.5225 245.262 73.5636 245.361C73.5307 245.279 73.506 245.188 73.506 245.106V245.082Z" fill="#242424"/>
        <path d="M62.3094 100.631C62.1614 99.546 62.1943 98.4527 62.4573 97.3924C62.7697 96.1265 63.4026 94.9675 64.0849 93.866C64.7836 92.7316 65.3179 90.5122 66.37 89.6902C67.414 88.8682 67.825 88.0955 69.132 88.3339C71.0472 88.6874 72.7488 91.7863 73.431 93.3646C74.2777 95.3209 75.1983 97.2362 76.2176 99.1021C78.2726 102.842 83.7554 109.87 83.8129 109.763C85.1117 106.993 90.9396 95.1647 91.5068 94.2441C92.4357 92.7234 93.4385 94.6222 94.4578 95.3538C96.2005 96.595 98.3377 97.565 100.45 97.8938C100.771 97.9431 101.141 98.0006 101.322 98.2801C101.527 98.5925 101.387 99.0117 101.231 99.3569C99.472 103.434 97.4088 107.487 95.9292 111.646C94.5647 115.476 93.2002 119.463 90.9643 122.883C89.6902 124.823 87.6845 126.705 85.1445 126.647C83.517 126.606 82.0867 125.595 80.829 124.56C78.2644 122.439 75.9052 120.055 73.8749 117.408C72.946 116.2 72.3213 114.942 71.2692 113.849C70.0773 112.624 68.91 111.375 67.7674 110.109C66.1645 108.341 64.5863 106.508 63.5095 104.371C62.9259 103.212 62.4984 101.938 62.3176 100.647L62.3094 100.631Z" fill="#FFF6D7"/>
        <path d="M85.2686 127.322C85.2275 127.322 85.1782 127.322 85.1371 127.322C83.3041 127.281 81.7669 126.212 80.386 125.069C77.698 122.842 75.3224 120.4 73.325 117.811C72.9468 117.326 72.6263 116.833 72.3139 116.356C71.8289 115.625 71.3768 114.934 70.7685 114.309C69.5849 113.085 68.4012 111.819 67.2504 110.553C65.6557 108.794 64.0117 106.895 62.8855 104.667C62.2279 103.369 61.8087 102.045 61.6279 100.73C61.4635 99.5052 61.521 98.3297 61.7923 97.2364C62.1457 95.8308 62.8527 94.5649 63.502 93.5128C63.724 93.1511 63.9459 92.625 64.1761 92.0661C64.6446 90.9481 65.1296 89.7891 65.9434 89.1562C66.1653 88.9836 66.3544 88.8109 66.527 88.6548C67.2093 88.0465 67.9162 87.4135 69.2643 87.6601C71.7385 88.1122 73.5716 91.9345 74.073 93.0936C74.9936 95.2061 75.8896 97.0638 76.8349 98.7736C78.4625 101.733 82.1615 106.624 83.6493 108.506C85.4741 104.717 90.365 94.7869 90.9158 93.8909C91.2446 93.3484 91.6556 93.0525 92.1406 92.9949C92.9544 92.9045 93.5709 93.5374 94.1627 94.1457C94.4011 94.3923 94.6559 94.6471 94.8696 94.8033C96.6451 96.0692 98.6755 96.9241 100.566 97.22C100.936 97.2775 101.561 97.3762 101.914 97.9105C102.342 98.5599 102.021 99.3079 101.881 99.6285C101.298 100.985 100.665 102.358 100.056 103.689C98.8399 106.361 97.574 109.123 96.5958 111.876L96.3903 112.443C95.0833 116.126 93.727 119.94 91.557 123.253C90.5541 124.782 88.4087 127.33 85.2686 127.33V127.322ZM63.0006 100.541C63.1568 101.708 63.5349 102.892 64.1268 104.051C65.1789 106.13 66.7572 107.947 68.2861 109.64C69.4287 110.898 70.5959 112.148 71.7714 113.364C72.4619 114.079 72.9797 114.86 73.4729 115.608C73.7771 116.06 74.0812 116.537 74.4264 116.981C76.3581 119.488 78.668 121.855 81.2819 124.017C82.4738 125.004 83.7644 125.916 85.17 125.949C87.7018 126.015 89.5266 123.812 90.3897 122.497C92.4694 119.324 93.801 115.584 95.0833 111.975L95.2888 111.408C96.2917 108.597 97.5658 105.81 98.7988 103.114C99.4071 101.79 100.032 100.426 100.607 99.0777C100.755 98.7407 100.747 98.6338 100.739 98.6092C100.706 98.6092 100.467 98.5681 100.352 98.5516C98.248 98.2311 96.0122 97.2858 94.0558 95.8966C93.7353 95.6664 93.4476 95.3705 93.1599 95.0828C92.9215 94.8362 92.4694 94.3759 92.2885 94.343C92.2885 94.3512 92.2146 94.4088 92.1077 94.5896C91.5652 95.4774 85.7454 107.298 84.4549 110.043C84.348 110.282 84.1096 110.43 83.8466 110.438C83.452 110.454 83.3123 110.454 80.1887 106.221C78.9886 104.593 76.7938 101.544 75.6266 99.4147C74.6648 97.6639 73.7442 95.7651 72.8071 93.6196C71.8865 91.4907 70.3493 89.2384 69.0177 88.9918C68.3765 88.8767 68.1381 89.0575 67.4723 89.6494C67.275 89.822 67.0613 90.0193 66.8147 90.2083C66.2886 90.6276 65.853 91.6633 65.4666 92.5757C65.2118 93.1758 64.9734 93.7512 64.694 94.2033C64.1021 95.165 63.4527 96.3158 63.1486 97.5406C62.9184 98.4694 62.8691 99.4805 63.0089 100.533L63.0006 100.541Z" fill="#242424"/>
        <path d="M64.5872 147.305C62.4582 147.806 59.8196 148.274 56.5727 148.661C55.5369 148.784 54.3697 148.85 53.112 148.866L43.733 148.801L41.3574 79.5059L60.2963 80.3607C60.2963 80.3607 67.6615 95.1732 68.7136 98.3872C69.774 101.601 68.5821 146.261 68.5821 146.261L64.6036 148.727V147.321L64.5872 147.305Z" fill="#FFE072"/>
        <path d="M53.1207 149.54L43.7252 149.474C43.3553 149.474 43.0512 149.178 43.0348 148.817L40.6592 79.522C40.6592 79.3329 40.7249 79.1439 40.8647 79.0124C41.0044 78.8808 41.1935 78.8069 41.3825 78.8151L60.3214 79.67C60.5763 79.6782 60.7982 79.8261 60.9133 80.0481C61.2174 80.6564 68.3113 94.9345 69.3717 98.165C70.4321 101.395 69.3963 141.682 69.273 146.26C69.273 146.49 69.1415 146.696 68.9525 146.819L64.974 149.285C64.6534 149.483 64.226 149.392 64.0205 149.072C63.815 148.751 63.9136 148.332 64.2342 148.134L64.3492 148.069C62.0805 148.578 59.4994 149.006 56.6718 149.343C55.6278 149.466 54.4359 149.532 53.1372 149.548L53.1207 149.54ZM44.3993 148.11L53.1125 148.176C54.3537 148.159 55.4963 148.093 56.4909 147.978C59.4419 147.633 62.1134 147.181 64.4315 146.638C64.8014 146.548 65.1795 146.778 65.2699 147.14C65.2946 147.255 65.2946 147.378 65.2699 147.485L67.9003 145.857C68.3771 127.946 68.7963 100.836 68.0565 98.576C67.1194 95.7236 60.9873 83.295 59.8529 81.0016L42.0812 80.196L44.4157 148.102L44.3993 148.11Z" fill="#242424"/>
        <path d="M41.695 78.5027C42.1635 77.9848 42.6074 77.4423 43.0102 76.8751C44.2925 75.0832 45.1803 73.0611 45.3858 70.6773C45.5091 69.1894 45.3529 67.6934 45.1885 66.2138C45.0652 65.0548 44.9254 63.8464 44.3254 62.8436C43.8157 61.9805 43.002 61.3475 42.295 60.6406C39.8948 58.2733 38.4481 54.862 38.6782 51.4671C39.1796 44.1513 48.2134 38.9973 54.8552 41.1839C57.0828 41.9154 59.0967 43.4197 60.2229 45.4994C61.423 47.7188 61.8176 50.2423 62.8204 52.5604C64.1931 55.7497 65.8618 56.7772 64.8261 57.9362C64.2342 58.5938 63.1985 58.6103 62.5409 59.1939C61.0613 60.5091 62.5245 63.8218 61.9326 65.4986C61.0778 67.9236 58.8173 66.633 57.1568 67.5865C56.5239 67.9482 56.1951 68.6716 56.2197 69.4032C56.3266 72.4281 56.3184 75.4942 58.0857 78.067C58.6529 78.8973 59.442 79.6453 60.2969 80.344L60.2804 80.4015C60.338 80.8043 60.5763 81.3468 60.3133 81.7907C54.099 92.4849 43.6842 80.1303 42.4183 78.8151L41.7114 78.4945L41.695 78.5027Z" fill="white"/>
        <path d="M53.9839 86.8048C50.5397 86.8048 46.5777 84.3799 42.1717 79.5876C42.0978 79.5136 42.0402 79.4397 41.9827 79.3821L41.3991 79.1191C41.2018 79.0287 41.0538 78.8478 41.0127 78.6423C40.9716 78.4286 41.0292 78.2149 41.1689 78.0505C41.6374 77.5244 42.0649 76.9983 42.4348 76.4805C43.7746 74.6063 44.5062 72.691 44.6871 70.6196C44.8104 69.1893 44.646 67.7179 44.498 66.2877C44.3829 65.2519 44.2596 64.0847 43.7253 63.1887C43.3801 62.6133 42.8704 62.1365 42.3279 61.6269C42.1471 61.4625 41.9745 61.2981 41.8018 61.1255C39.1714 58.5362 37.7494 54.9112 37.9878 51.4259C38.2261 47.9406 40.3058 44.669 43.6924 42.4496C47.227 40.1234 51.5919 39.4 55.0772 40.5508C57.5925 41.381 59.6968 43.0743 60.8394 45.1951C61.5545 46.5267 61.9984 47.957 62.4258 49.338C62.73 50.3326 63.0506 51.3601 63.4616 52.3136C63.9465 53.448 64.4808 54.3029 64.9083 54.9851C65.681 56.2264 66.3386 57.295 65.344 58.4047C64.9165 58.8814 64.3658 59.0869 63.8726 59.276C63.5355 59.4075 63.2067 59.5308 62.993 59.7199C62.3765 60.2624 62.5163 61.5694 62.6478 62.827C62.7629 63.9038 62.8697 64.9149 62.5738 65.7451C61.8833 67.6933 60.3955 67.7837 59.1954 67.8495C58.5624 67.8906 57.9706 67.9234 57.4856 68.1947C57.1075 68.4084 56.8691 68.8852 56.8856 69.3948L56.902 69.9373C56.9924 72.7732 57.0828 75.4447 58.6364 77.7052C59.0967 78.3711 59.7543 79.0451 60.7161 79.8342C60.8969 79.9822 60.9873 80.2124 60.9627 80.4343C60.9709 80.4836 60.9873 80.5329 60.9956 80.5823C61.086 80.9768 61.2175 81.5769 60.8887 82.1441C59.2529 84.9553 57.1815 86.5089 54.7237 86.7719C54.4771 86.7966 54.2305 86.813 53.9757 86.813L53.9839 86.8048ZM42.8047 78.2642C42.8047 78.2642 42.8787 78.3217 42.9115 78.3546C42.9855 78.4286 43.0842 78.5355 43.2075 78.6752C47.6134 83.4757 51.4357 85.7444 54.584 85.4156C56.5732 85.2019 58.2994 83.8785 59.6968 81.47C59.7626 81.3632 59.6968 81.1083 59.6557 80.8782C59.6393 80.8124 59.631 80.7467 59.6146 80.6891C58.6693 79.8918 57.9953 79.1766 57.5021 78.4615C55.7265 75.8804 55.6279 72.8801 55.5375 69.9784L55.521 69.4441C55.4882 68.4166 55.9731 67.4878 56.8034 67.0192C57.5678 66.5836 58.398 66.5343 59.1214 66.4932C60.3133 66.4192 60.9051 66.3452 61.275 65.3012C61.4641 64.7587 61.3737 63.8545 61.275 62.975C61.1106 61.4543 60.9298 59.7281 62.0724 58.717C62.4752 58.3553 62.9519 58.1745 63.3794 58.0183C63.7657 57.8704 64.1109 57.7388 64.3082 57.5169C64.5877 57.2045 64.5055 56.9744 63.7246 55.7085C63.2725 54.9851 62.7135 54.0809 62.1875 52.8562C61.7436 51.8286 61.4148 50.7683 61.1024 49.7408C60.675 48.3598 60.2722 47.061 59.6228 45.8445C58.6446 44.0279 56.828 42.5811 54.6497 41.8578C51.559 40.8385 47.6627 41.5043 44.4816 43.6004C41.4566 45.5897 39.5989 48.4831 39.3934 51.5409C39.1797 54.6399 40.4538 57.8704 42.8047 60.1884C42.9691 60.3528 43.1417 60.509 43.3061 60.6652C43.8979 61.2159 44.5062 61.7831 44.9419 62.5311C45.6241 63.6737 45.7639 65.0053 45.8954 66.1726C46.0598 67.6686 46.2242 69.2058 46.0927 70.7676C45.8954 73.0856 45.0816 75.2228 43.5938 77.2942C43.3554 77.623 43.1006 77.9601 42.8211 78.2971L42.8047 78.2642Z" fill="#242424"/>
        <path d="M52.3236 37.6824C54.3786 37.6906 56.4747 37.8633 58.3735 38.6606C60.2723 39.458 61.9739 40.9622 62.5986 42.9432C63.2233 44.9243 62.5575 47.3738 60.782 48.426C59.6476 49.1 58.2749 49.1411 57.0254 49.5357C56.1706 49.7987 55.2088 50.3001 54.7321 51.1057C54.1813 52.0346 54.3786 53.1114 53.6306 53.9909C53.3264 54.3526 52.9072 54.6485 52.4387 54.6732C51.9866 54.6979 51.5674 54.4595 51.1235 54.3855C49.8658 54.1718 48.6328 55.5774 48.9945 56.8186C49.1424 57.3447 49.5123 57.7804 49.7096 58.2818C50.0631 59.1778 49.8658 60.2299 49.3479 61.0355C48.6081 62.1863 47.2518 62.8768 45.8955 62.8603C42.1554 62.8192 39.1387 58.1996 37.7166 55.2075C35.9904 51.5825 36.2206 47.4396 38.5222 44.1269C41.58 39.7292 47.1779 37.6413 52.34 37.6742L52.3236 37.6824Z" fill="#242424"/>
        <path d="M45.92 63.5506H45.8707C41.2346 63.5013 37.9631 57.3774 37.0671 55.5032C35.2094 51.5905 35.53 47.201 37.9302 43.7486C40.8319 39.5811 46.2982 37 52.2084 37C52.2495 37 52.2906 37 52.3234 37C54.1401 37.0082 56.4992 37.1397 58.6446 38.0357C60.938 38.9975 62.6149 40.7154 63.2561 42.7458C64.0205 45.1543 63.0999 47.8504 61.1353 49.0177C60.3051 49.5109 59.3926 49.6999 58.5131 49.8808C58.061 49.9712 57.6336 50.0616 57.2226 50.1931C56.6883 50.3575 55.7347 50.7439 55.3155 51.4508C55.1265 51.7631 55.0443 52.1413 54.9538 52.5358C54.8223 53.1359 54.6661 53.8099 54.1401 54.4346C53.6551 55.0018 53.055 55.3306 52.4467 55.3635C52.0522 55.3799 51.6987 55.2731 51.3946 55.1744C51.2548 55.1333 51.1233 55.084 50.9836 55.0594C50.6466 55.0018 50.2684 55.158 49.9725 55.4786C49.6602 55.8238 49.5286 56.2677 49.6355 56.6376C49.7013 56.8513 49.8246 57.0815 49.9643 57.3199C50.0958 57.5418 50.2273 57.7802 50.3342 58.0432C50.7452 59.079 50.5808 60.3613 49.915 61.4052C49.0765 62.7122 47.5147 63.5506 45.9118 63.5506H45.92ZM52.2248 38.3645C47.9257 38.3645 42.2457 39.9756 39.081 44.5213C36.9602 47.5709 36.6808 51.459 38.333 54.9278C39.9934 58.4131 42.8458 62.1532 45.8954 62.1861C47.038 62.219 48.1559 61.6025 48.756 60.6736C49.1916 59.9914 49.3067 59.1694 49.0601 58.5282C48.9861 58.3474 48.8875 58.1665 48.7806 57.9775C48.6162 57.698 48.4354 57.3774 48.3285 56.9993C48.0901 56.1855 48.3367 55.2484 48.9697 54.5579C49.578 53.8839 50.4328 53.5633 51.2466 53.7031C51.4521 53.7359 51.6494 53.8017 51.8467 53.8592C52.0686 53.9332 52.2577 53.9825 52.4056 53.9825C52.6194 53.9743 52.8742 53.8099 53.1043 53.5387C53.4167 53.177 53.5153 52.7331 53.6222 52.2235C53.7208 51.7631 53.8359 51.2453 54.1318 50.7439C54.7566 49.6917 55.9402 49.141 56.8198 48.8615C57.2965 48.7135 57.7733 48.6149 58.2418 48.5162C59.0392 48.3518 59.7954 48.1957 60.4284 47.8175C61.8422 46.9791 62.508 44.9159 61.9408 43.1239C61.4312 41.4963 59.9927 40.0578 58.1103 39.2687C56.1951 38.4632 54.0168 38.3563 52.3234 38.3399H52.2248V38.3645Z" fill="#242424"/>
        <path d="M59.0802 54.7475C58.5131 54.7475 58.0527 54.2872 58.0527 53.7283C58.0527 53.1693 58.5131 52.709 59.0802 52.709C59.6474 52.709 60.1077 53.1693 60.1077 53.7283C60.1077 54.2872 59.6474 54.7475 59.0802 54.7475Z" fill="#242424"/>
        <path d="M60.2645 63.8381C60.1658 63.8381 60.0672 63.8135 59.9768 63.7724L58.2259 62.9422C57.8971 62.786 57.7574 62.3914 57.9135 62.0708C58.0697 61.742 58.4725 61.6105 58.8013 61.7667L60.3878 62.5147L61.6043 62.4079C61.9742 62.375 62.2948 62.6462 62.3277 62.9997C62.3606 63.3614 62.0893 63.6737 61.7194 63.7066L60.322 63.8217C60.322 63.8217 60.2809 63.8217 60.2645 63.8217V63.8381Z" fill="#242424"/>
        <path d="M42.2699 79.3574L54.9205 112.953L55.6356 153.642L51.1228 153.691C44.4071 153.773 37.1159 152.4 32.0853 150.033C31.6414 149.819 31.1729 149.573 30.9345 149.137C30.7372 148.775 30.7372 148.34 30.7372 147.929C30.7701 141.895 30.4742 120.252 28.9863 114.375C28.2959 111.646 26.9971 108.686 26.8738 105.859C26.6519 100.713 27.5314 96.6194 30.0878 92.2135C32.5292 88.0049 35.5706 84.1086 39.2285 80.911C40.0998 80.1465 40.93 79.3574 41.6945 78.5107L42.2699 79.3738V79.3574Z" fill="#FFF6D7"/>
        <path d="M50.5558 154.374C43.8483 154.374 36.7051 152.96 31.7895 150.642C31.2552 150.387 30.6634 150.075 30.3264 149.45C30.0469 148.932 30.0469 148.348 30.0469 147.921C30.0798 140.975 29.7345 120.146 28.3207 114.531C28.107 113.676 27.8275 112.797 27.5398 111.876C26.9233 109.912 26.2821 107.889 26.1917 105.876C25.9533 100.459 26.9397 96.2664 29.4962 91.8605C32.1101 87.3559 35.2337 83.4925 38.7766 80.3853C39.7219 79.5551 40.511 78.7906 41.185 78.0426C41.3248 77.8864 41.5385 77.796 41.7522 77.8125C41.9659 77.8289 42.1632 77.944 42.2783 78.1166L42.8537 78.9797C42.8866 79.0208 42.903 79.0701 42.9277 79.1194L55.5783 112.715C55.6029 112.789 55.6194 112.863 55.6194 112.937L56.3345 153.626C56.3345 153.806 56.2687 153.979 56.1372 154.111C56.0057 154.242 55.8331 154.316 55.644 154.316L51.1312 154.365C50.9422 154.365 50.7449 154.365 50.5558 154.365V154.374ZM41.6042 79.6044C41.0371 80.188 40.4123 80.7799 39.6972 81.4128C36.2694 84.4214 33.2363 88.1615 30.7045 92.5427C28.2878 96.7103 27.359 100.681 27.5809 105.826C27.6631 107.659 28.2714 109.599 28.8714 111.482C29.1591 112.386 29.4468 113.315 29.677 114.211C31.1237 119.956 31.4854 140.942 31.4443 147.937C31.4443 148.25 31.4443 148.603 31.5594 148.825C31.6991 149.08 32.0444 149.261 32.3978 149.425C37.2805 151.719 44.4648 153.091 51.1312 153.017L54.9453 152.976L54.2384 113.093L41.6618 79.6784L41.6207 79.6126L41.6042 79.6044Z" fill="#242424"/>
        <path d="M72.6113 105.932C73.162 108.086 72.6853 121.657 72.7757 127.699C72.8332 131.579 73.8854 147.772 72.9401 148.75C72.6113 149.096 70.6138 150.723 64.5885 152.137L64.7365 151.134L60.1826 113.684L61.6787 103.063C62.5829 96.6272 62.3609 90.0841 61.0046 83.73L60.2813 80.3516C61.2759 81.1653 62.3527 81.9134 63.2569 82.6532C68.2629 86.7221 69.7343 86.5577 72.6031 91.8842V105.932H72.6113Z" fill="#FFF6D7"/>
        <path d="M64.588 152.811C64.4154 152.811 64.251 152.746 64.1195 152.631C63.9469 152.474 63.8647 152.252 63.8975 152.03L64.0291 151.118L59.4834 113.758C59.4834 113.701 59.4834 113.643 59.4834 113.585L60.9794 102.965C61.8754 96.5865 61.6535 90.1666 60.3136 83.8701L59.5903 80.4917C59.5327 80.204 59.656 79.9163 59.9108 79.7683C60.1657 79.6204 60.4862 79.645 60.7082 79.8259C61.2178 80.2451 61.7603 80.6479 62.2782 81.0424C62.7632 81.4123 63.2399 81.7658 63.6838 82.1275C65.0319 83.2207 66.1087 84.0016 67.0623 84.6839C69.6269 86.5334 71.0407 87.5527 73.2026 91.564C73.3834 91.8928 73.2519 92.3121 72.9149 92.4847C72.5779 92.6573 72.1587 92.534 71.9778 92.197C69.9639 88.4569 68.7227 87.5609 66.2402 85.7772C65.2785 85.0785 64.1852 84.2976 62.8043 83.1714C62.3768 82.8262 61.9165 82.4809 61.4398 82.1192C61.4069 82.0946 61.374 82.0699 61.3329 82.0453L61.6617 83.5906C63.0344 90.0433 63.2646 96.6194 62.344 103.154L60.8561 113.684L65.4018 151.052C65.4018 151.11 65.4018 151.167 65.4018 151.225C70.4078 149.934 72.1011 148.553 72.3724 148.315C72.882 147.066 72.4464 137.333 72.2409 132.631C72.1504 130.527 72.0682 128.71 72.0518 127.707C72.0189 125.595 72.0518 122.611 72.1011 119.446C72.1751 113.807 72.2491 107.412 71.9121 106.097C71.8216 105.735 72.0436 105.365 72.4135 105.267C72.7834 105.176 73.1615 105.398 73.2519 105.76C73.6054 107.149 73.5725 112.081 73.4821 119.455C73.441 122.611 73.4081 125.587 73.4328 127.683C73.4492 128.661 73.5314 130.469 73.6218 132.565C74.1726 144.904 74.1232 148.479 73.4081 149.211C73.2108 149.416 71.2873 151.25 64.7195 152.787C64.662 152.803 64.6127 152.803 64.5551 152.803L64.588 152.811Z" fill="#242424"/>
        <path d="M64.588 152.811C64.4154 152.811 64.251 152.746 64.1195 152.631C63.9469 152.474 63.8647 152.252 63.8975 152.03L64.0291 151.118L59.4834 113.758C59.4834 113.701 59.4834 113.643 59.4834 113.585L60.9794 102.965C61.8754 96.5865 61.6535 90.1666 60.3136 83.8701L59.5903 80.4917C59.5327 80.204 59.656 79.9163 59.9108 79.7683C60.1657 79.6204 60.4862 79.645 60.7082 79.8259C61.2178 80.2451 61.7603 80.6479 62.2782 81.0424C62.7632 81.4123 63.2399 81.7658 63.6838 82.1275C64.7031 82.9577 65.5909 83.64 66.3882 84.2565C69.5611 86.6978 71.3038 88.0459 73.6547 92.4107C73.8355 92.7395 73.704 93.1587 73.367 93.3313C73.03 93.504 72.6108 93.3807 72.4299 93.0436C70.2187 88.9336 68.6487 87.7253 65.5333 85.3251C64.7278 84.7003 63.8318 84.0099 62.7961 83.1714C62.3686 82.8262 61.9083 82.4809 61.4315 82.1192C61.3987 82.0946 61.3658 82.0699 61.3247 82.0453L61.6535 83.5906C63.0262 90.0433 63.2564 96.6194 62.3357 103.154L60.8479 113.684L65.3936 151.052C65.3936 151.11 65.3936 151.167 65.3936 151.225C70.3996 149.934 72.0929 148.553 72.3642 148.315C72.8738 147.066 72.4381 137.333 72.2326 132.631C72.1422 130.527 72.06 128.71 72.0436 127.707C72.0107 125.595 72.0436 122.611 72.0929 119.446C72.1669 113.807 72.2409 107.412 71.9038 106.097C71.8134 105.735 72.0354 105.365 72.4053 105.267C72.7752 105.176 73.1533 105.398 73.2437 105.76C73.5972 107.149 73.5643 112.081 73.4739 119.455C73.4328 122.611 73.3999 125.587 73.4245 127.683C73.441 128.661 73.5232 130.469 73.6136 132.565C74.1643 144.904 74.115 148.479 73.3999 149.211C73.2026 149.416 71.2791 151.25 64.7113 152.787C64.6538 152.803 64.6045 152.803 64.5469 152.803L64.588 152.811Z" fill="#242424"/>
        <path d="M52.0521 114.844C51.8137 114.844 51.5836 114.728 51.4521 114.515L40.4783 96.4472C40.3057 96.1595 40.3633 95.7896 40.6263 95.5759L42.8046 93.7675L37.9301 90.7836C37.7082 90.6521 37.5849 90.4055 37.6096 90.1507L38.3247 80.8949C38.3576 80.5168 38.6782 80.2373 39.0727 80.2702C39.4508 80.2949 39.7385 80.6237 39.7139 81.0018L39.0316 89.8465L44.3582 93.1099C44.5472 93.2249 44.6705 93.4222 44.687 93.6359C44.7034 93.8497 44.613 94.0634 44.4404 94.2031L41.9826 96.2417L52.6522 113.808C52.8495 114.128 52.7426 114.548 52.4138 114.745C52.2987 114.811 52.1836 114.844 52.0603 114.844H52.0521Z" fill="#242424"/>
        <path d="M62.5165 113.882C62.4261 113.882 62.3357 113.865 62.2535 113.832C61.9 113.684 61.7274 113.29 61.8753 112.944L69.0761 95.8633L66.569 94.6796C66.4046 94.5974 66.2731 94.4576 66.2155 94.285C66.158 94.1124 66.1662 93.9233 66.2484 93.7589L67.9088 90.4956L64.366 85.1279C64.1605 84.8156 64.2509 84.3881 64.5715 84.1826C64.8921 83.9771 65.3195 84.0675 65.5332 84.3799L69.298 90.0681C69.4295 90.2736 69.446 90.5285 69.3391 90.7422L67.8184 93.7343L70.2762 94.8933C70.605 95.0495 70.7612 95.4358 70.6132 95.7646L63.1577 113.438C63.0508 113.701 62.7878 113.857 62.5165 113.857V113.882Z" fill="#242424"/>
        <path d="M30.3843 157.267C28.8389 157.267 27.3017 156.954 25.8961 156.33C25.5509 156.173 25.3947 155.771 25.5509 155.425C25.7071 155.08 26.1181 154.932 26.4715 155.088C28.8471 156.149 31.6912 156.174 34.0915 155.179C34.4449 155.031 34.8477 155.195 35.0039 155.541C35.1519 155.886 34.9875 156.289 34.634 156.437C33.3024 156.996 31.8474 157.275 30.3843 157.275V157.267Z" fill="#242424"/>
        <path d="M31.782 149.351C32.53 149.474 33.2534 149.811 33.7384 150.395C35.2426 152.22 35.1604 155.228 36.2044 157.332C37.3552 159.659 38.8183 161.903 39.2869 164.517C39.7143 166.892 39.6814 167.706 40.3226 171.117C40.4623 171.882 40.9884 173.205 40.5938 173.871C40.2733 174.405 39.5252 174.496 38.9827 174.225C38.4402 173.953 38.0785 173.403 37.799 172.852C37.2812 171.833 36.9606 170.706 36.8702 169.556C36.5578 170.887 36.5249 173.616 34.9056 174.085C34.3466 174.249 33.7055 174.077 33.3027 173.649C33.1712 173.509 32.9986 173.32 32.8177 173.394C32.7437 173.427 32.6944 173.485 32.6451 173.542C32.2012 174.027 31.3792 174.093 30.8696 173.682C30.5819 173.444 30.3517 173.066 29.9818 173.041C29.801 173.024 29.6283 173.107 29.4475 173.156C28.8228 173.337 28.1076 173.123 27.6802 172.63C27.5322 172.457 27.4172 172.26 27.2363 172.128C27.0555 171.989 26.8335 171.931 26.6198 171.857C24.9018 171.249 24.8936 169.005 24.7374 167.492C24.5237 165.413 24.5402 163.308 24.7703 161.229C24.9923 159.19 25.4772 157.275 25.1649 155.236C24.9018 153.502 25.5266 151.636 26.9897 150.617C27.5076 150.255 28.0912 150.017 28.6748 149.803C29.5297 149.499 30.4257 149.26 31.3299 149.301C31.4779 149.301 31.634 149.326 31.782 149.351Z" fill="white"/>
        <path d="M39.5982 175.055C39.2776 175.055 38.957 174.981 38.6529 174.833C37.8802 174.447 37.4363 173.691 37.1651 173.156C37.0747 172.967 36.9842 172.778 36.902 172.589C36.5157 173.699 35.8581 174.669 34.584 174.784C33.9593 174.833 33.3428 174.603 32.8907 174.176C32.5372 174.488 32.118 174.702 31.6741 174.768C30.9919 174.874 30.3096 174.611 29.8739 174.135C29.315 174.348 28.682 174.381 28.1066 174.2C27.4244 173.987 26.8407 173.485 26.5037 172.852C25.9283 172.696 25.5255 172.26 25.1885 171.899C25.0981 171.8 25.0077 171.701 24.909 171.611C23.1993 169.959 23.9062 162.618 24.0706 161.155C24.1528 160.399 24.383 159.635 24.6131 158.895C24.909 157.917 25.1967 156.988 25.1392 156.133C25.1063 155.672 25.0077 155.179 24.8268 154.579C24.7693 154.398 24.7118 154.25 24.6624 154.111C24.4569 153.593 24.2268 153.009 24.7529 152.171C25.2872 151.308 26.0845 150.699 26.7914 150.223C27.3586 149.836 28.0409 149.409 28.83 149.146C29.5287 148.916 30.2521 148.842 30.8603 148.801C31.97 148.727 33.5647 148.751 34.6251 149.803C35.2991 150.477 35.3731 151.201 35.4553 151.965L34.7731 152.08L35.4635 152.006C35.6855 154.012 36.1047 155.566 36.8363 157.037C37.0993 157.563 37.3706 158.081 37.6501 158.599C38.6118 160.407 39.5982 162.273 39.9845 164.402C40.1736 165.454 40.2722 166.211 40.3791 167.008C40.5188 168.035 40.6586 169.104 41.0121 171.003C41.0449 171.167 41.0942 171.364 41.1518 171.578C41.3737 172.425 41.645 173.477 41.1929 174.225C40.8723 174.759 40.2558 175.063 39.6064 175.063L39.5982 175.055ZM36.8609 168.874C36.8609 168.874 36.8938 168.874 36.9103 168.874C37.2555 168.898 37.5268 169.161 37.5514 169.499C37.6418 170.551 37.9378 171.611 38.4145 172.548C38.7022 173.124 38.9817 173.461 39.2941 173.617C39.5242 173.732 39.8777 173.715 39.9928 173.526C40.1489 173.263 39.9188 172.384 39.7955 171.907C39.7297 171.66 39.6722 171.438 39.6393 171.241C39.2776 169.309 39.1297 168.175 38.9899 167.18C38.8831 166.4 38.7844 165.668 38.6036 164.64C38.2583 162.725 37.3624 161.024 36.4088 159.232C36.1294 158.697 35.8499 158.171 35.5786 157.637C34.7895 156.042 34.3045 154.3 34.0744 152.154V152.113C33.9922 151.406 33.9428 151.086 33.6305 150.765C33.1291 150.264 32.2988 150.075 30.9508 150.165C30.4247 150.198 29.8164 150.264 29.2657 150.445C28.6409 150.65 28.0573 151.012 27.5723 151.349C26.9805 151.752 26.3311 152.245 25.9201 152.894C25.7557 153.157 25.7721 153.19 25.9448 153.634C26.0105 153.798 26.0845 153.987 26.1503 154.201C26.364 154.9 26.4791 155.483 26.5119 156.051C26.5859 157.16 26.2571 158.245 25.9365 159.297C25.7228 160.004 25.5173 160.678 25.4433 161.311C25.0077 165.273 25.0488 169.852 25.8708 170.641C25.9859 170.748 26.0927 170.863 26.1996 170.986C26.5284 171.34 26.775 171.562 26.964 171.562C27.2928 171.562 27.5477 171.751 27.6381 172.038C27.7696 172.441 28.1066 172.787 28.5094 172.91C28.904 173.033 29.3643 172.943 29.6931 172.688C29.8822 172.54 30.1288 172.499 30.3507 172.573C30.5726 172.647 30.7453 172.836 30.8028 173.058C30.8603 173.288 31.1727 173.469 31.4522 173.428C31.781 173.378 32.118 173.091 32.2988 172.688C32.4221 172.425 32.7098 172.269 32.9975 172.293C33.2935 172.318 33.5401 172.532 33.6058 172.811C33.6962 173.173 34.0826 173.461 34.4443 173.428C35.48 173.337 35.8006 171.48 36.0061 170.255C36.0636 169.934 36.1129 169.646 36.1622 169.408C36.2362 169.096 36.5157 168.882 36.8363 168.882L36.8609 168.874Z" fill="#242424"/>
        <path d="M39.952 104.363C40.8644 110.273 38.793 116.175 37.2805 121.954C35.7105 127.971 34.7405 134.161 34.3788 140.391C34.198 143.507 34.1733 146.63 34.2966 149.746C34.3542 151.094 35.3323 154.67 33.8363 155.376C32.217 156.141 30.351 156.067 28.5673 155.977C28.033 155.952 27.4987 155.919 26.9973 155.746C25.6985 155.294 25.3204 153.913 24.9669 152.713C24.0792 149.705 23.4626 146.614 22.9448 143.515C21.0131 132.064 20.6267 122.184 22.9366 110.816C23.8326 106.41 26.726 93.1756 32.2334 94.0469C36.7791 94.7703 39.2862 99.916 39.9684 104.347L39.952 104.363Z" fill="#FFF6D7"/>
        <path d="M29.3161 156.634C28.2475 156.634 27.22 156.519 26.2911 156.281L25.2225 156.026C24.9842 155.969 24.7869 155.788 24.7211 155.558C24.5896 155.122 24.4252 154.686 24.269 154.251C24.0964 153.79 23.9238 153.313 23.784 152.845C23.0114 150.215 22.3784 147.354 21.7372 143.573C19.6411 131.128 19.674 121.666 21.8523 110.906C22.3044 108.687 24.7622 97.4749 29.1024 94.2527C29.4065 94.0225 29.8422 94.0883 30.0723 94.3842C30.3025 94.6883 30.245 95.1158 29.9326 95.3377C26.661 97.7626 24.1622 106.426 23.2086 111.169C21.0632 121.757 21.0303 131.078 23.1018 143.343C23.7265 147.066 24.3512 149.877 25.1075 152.459C25.2308 152.886 25.3952 153.322 25.5596 153.782C25.6829 154.119 25.8062 154.448 25.9212 154.785L26.6199 154.949C28.864 155.525 31.7492 155.303 34.281 154.382C34.1248 152.13 33.5083 143.121 33.6727 140.342C34.0344 134.054 35.0208 127.807 36.599 121.773C36.8292 120.894 37.0676 120.014 37.3142 119.126C37.8567 117.137 38.4239 115.09 38.8349 113.068C38.9089 112.698 39.2788 112.46 39.6487 112.534C40.0268 112.608 40.2652 112.97 40.1912 113.34C39.772 115.411 39.2048 117.482 38.6458 119.488C38.4074 120.368 38.1608 121.247 37.9389 122.119C36.3853 128.07 35.4153 134.227 35.0537 140.424C34.881 143.458 35.6866 154.678 35.6948 154.793C35.7195 155.089 35.5469 155.36 35.2674 155.475C33.385 156.24 31.2725 156.634 29.2997 156.634H29.3161Z" fill="#242424"/>
        <path d="M39.9112 107.083C39.6153 107.083 39.3441 106.894 39.2454 106.607C38.1439 103.146 35.941 100.064 33.0393 97.9346C32.7352 97.7127 32.6694 97.2852 32.8996 96.9811C33.1297 96.6769 33.5654 96.6194 33.8695 96.8414C37.0014 99.143 39.3769 102.472 40.5606 106.204C40.6757 106.566 40.4702 106.944 40.1085 107.059C40.0428 107.083 39.9688 107.092 39.903 107.092L39.9112 107.083Z" fill="#242424"/>
    </g>
</svg>
