<svg width="110" height="110" viewBox="0 0 110 110" fill="none" xmlns="http://www.w3.org/2000/svg">
<mask id="mask0_8044_15950" style="mask-type:alpha" maskUnits="userSpaceOnUse" x="0" y="0" width="110" height="110">
<rect width="110" height="110" rx="12" fill="white"/>
</mask>
<g mask="url(#mask0_8044_15950)">
<rect width="110" height="110" rx="8" transform="matrix(-1 0 0 1 110 0)" fill="#FAFAFA"/>
<mask id="path-3-inside-1_8044_15950" fill="white">
<path d="M33.6875 16.5C29.081 16.5 24.5986 17.9925 20.9116 20.7538C17.2245 23.5152 14.5314 27.3968 13.2356 31.8173C11.9398 36.2377 12.1111 40.959 13.7238 45.274C15.3365 49.5889 18.3038 53.2652 22.1813 55.7521C26.0587 58.239 30.6375 59.4028 35.2319 59.069C39.8262 58.7352 44.1887 56.9218 47.666 53.9005C51.1432 50.8792 53.548 46.8127 54.5201 42.3099C55.4921 37.8072 54.9792 33.1108 53.058 28.924L33.6875 37.8125V16.5Z"/>
</mask>
<path d="M33.6875 16.5C29.081 16.5 24.5986 17.9925 20.9116 20.7538C17.2245 23.5152 14.5314 27.3968 13.2356 31.8173C11.9398 36.2377 12.1111 40.959 13.7238 45.274C15.3365 49.5889 18.3038 53.2652 22.1813 55.7521C26.0587 58.239 30.6375 59.4028 35.2319 59.069C39.8262 58.7352 44.1887 56.9218 47.666 53.9005C51.1432 50.8792 53.548 46.8127 54.5201 42.3099C55.4921 37.8072 54.9792 33.1108 53.058 28.924L33.6875 37.8125V16.5Z" fill="#FCBE7E" stroke="#242424" stroke-width="2" mask="url(#path-3-inside-1_8044_15950)"/>
<mask id="path-4-inside-2_8044_15950" fill="white">
<path d="M33.6875 16.5C29.9905 16.5 26.3571 17.4617 23.1442 19.2906C19.9313 21.1195 17.2494 23.7526 15.3619 26.9315C13.4745 30.1103 12.4463 33.7255 12.3786 37.4218C12.3108 41.1182 13.2057 44.7686 14.9754 48.0145C16.7451 51.2604 19.3287 53.9901 22.4724 55.9355C25.6161 57.881 29.2118 58.9752 32.9063 59.1107C36.6008 59.2462 40.267 58.4183 43.5448 56.7084C46.8226 54.9985 49.5992 52.4654 51.6019 49.3579L33.6875 37.8125V16.5Z"/>
</mask>
<path d="M33.6875 16.5C29.9905 16.5 26.3571 17.4617 23.1442 19.2906C19.9313 21.1195 17.2494 23.7526 15.3619 26.9315C13.4745 30.1103 12.4463 33.7255 12.3786 37.4218C12.3108 41.1182 13.2057 44.7686 14.9754 48.0145C16.7451 51.2604 19.3287 53.9901 22.4724 55.9355C25.6161 57.881 29.2118 58.9752 32.9063 59.1107C36.6008 59.2462 40.267 58.4183 43.5448 56.7084C46.8226 54.9985 49.5992 52.4654 51.6019 49.3579L33.6875 37.8125V16.5Z" fill="#FC9328" stroke="#242424" stroke-width="2" mask="url(#path-4-inside-2_8044_15950)"/>
<mask id="path-5-inside-3_8044_15950" fill="white">
<path d="M54.5682 24.3702C52.7825 21.0114 50.1304 18.1917 46.8871 16.2039C43.6438 14.2161 39.9276 13.1326 36.1242 13.0658L35.75 34.375L54.5682 24.3702Z"/>
</mask>
<path d="M54.5682 24.3702C52.7825 21.0114 50.1304 18.1917 46.8871 16.2039C43.6438 14.2161 39.9276 13.1326 36.1242 13.0658L35.75 34.375L54.5682 24.3702Z" fill="#F07800" stroke="#242424" stroke-width="2" mask="url(#path-5-inside-3_8044_15950)"/>
<path d="M44.8155 69.2292C43.414 69.5343 41.4757 68.7601 40.8653 67.3982C40.7806 67.206 40.5545 65.5219 40.3454 65.4824C40.3228 65.4824 38.4409 65.0698 36.0674 60.9331C35.587 60.0911 35.3893 59.1756 35.474 58.1471C35.5079 57.7006 35.6775 57.2768 36.0448 56.9094C36.0957 56.8586 36.706 56.4178 36.7116 56.4799C36.6777 56.1069 36.8473 55.717 37.1411 55.491C37.435 55.2649 37.8475 55.2027 38.1979 55.3327C38.0962 54.9371 38.2488 54.485 38.5709 54.2364C38.893 53.9877 39.3621 53.9538 39.7125 54.1516C39.4582 53.5921 36.576 49.7267 37.7119 48.7321C38.2996 48.2178 39.0739 48.4325 39.4186 48.9186C40.5432 50.4953 43.2615 54.9597 43.2615 54.9597C43.2615 54.9597 44.6856 55.6888 45.5389 56.6269C47.0987 58.3392 46.0814 61.973 45.3976 63.4366C45.3298 63.5836 46.2058 64.7138 46.2905 64.8438C46.9009 65.8215 47.1326 66.7257 46.5618 67.839C46.2114 68.5228 45.5672 69.0596 44.8212 69.2235L44.8155 69.2292Z" fill="white"/>
<path d="M44.1829 69.6926C44.4372 69.6926 44.6802 69.67 44.9063 69.6191C45.754 69.4326 46.5056 68.8392 46.9238 68.0255C47.6584 66.6013 47.1555 65.4654 46.6356 64.6404C46.6129 64.6065 46.5508 64.5217 46.466 64.403C46.3304 64.2165 45.9574 63.7023 45.8274 63.4705C46.4717 62.0125 47.5793 58.277 45.8387 56.3669C45.0702 55.5249 43.9003 54.858 43.55 54.6659C43.1431 53.9934 40.7921 50.1562 39.7467 48.6925C39.498 48.3421 39.0855 48.0991 38.6447 48.0539C38.2039 48.0031 37.78 48.1387 37.4353 48.4382C36.3616 49.3763 37.6331 51.6142 38.9272 53.6543C38.7068 53.6939 38.4921 53.7899 38.3112 53.9256C38.0174 54.1573 37.8252 54.502 37.7687 54.8637C37.4523 54.8693 37.1414 54.9767 36.8815 55.1745C36.5537 55.4288 36.3446 55.8074 36.2994 56.22C36.0112 56.3782 35.7512 56.6212 35.7456 56.6269C35.3387 57.0338 35.107 57.5367 35.0561 58.1132C34.9657 59.2265 35.1748 60.2098 35.7004 61.1253C37.7913 64.7647 39.5319 65.6237 40.0801 65.8158C40.1649 66.0475 40.2722 66.607 40.3287 66.8952C40.4079 67.3134 40.4418 67.4547 40.4813 67.5508C41.0973 68.924 42.7644 69.6813 44.166 69.6813L44.1829 69.6926ZM44.7311 68.8392C43.5613 69.0935 41.7811 68.4493 41.2386 67.2343C41.2216 67.1891 41.1764 66.9461 41.1369 66.7483C40.9108 65.5728 40.8148 65.1659 40.4305 65.0868C40.4192 65.0868 38.656 64.6234 36.4181 60.7353C35.9716 59.9611 35.7964 59.1247 35.8756 58.181C35.9095 57.791 36.0564 57.4633 36.3333 57.192C36.3842 57.1524 36.6611 56.949 36.7911 56.8755C36.9889 56.836 37.1358 56.6551 37.1188 56.4517C37.0962 56.2143 37.2093 55.9544 37.3957 55.8074C37.5766 55.6662 37.8422 55.6266 38.0569 55.7057C38.1982 55.7566 38.3565 55.7283 38.4695 55.6323C38.5825 55.5362 38.6334 55.3836 38.5938 55.2367C38.5316 54.9937 38.6277 54.6998 38.8255 54.5472C39.0177 54.4003 39.3059 54.3777 39.5093 54.4964C39.6619 54.5811 39.854 54.5642 39.984 54.4455C40.114 54.3268 40.1536 54.146 40.0801 53.9877C40.0236 53.8634 39.8993 53.6656 39.6619 53.2983C38.1078 50.8513 37.537 49.4159 37.9778 49.0316C38.1926 48.8451 38.4073 48.8225 38.5542 48.8394C38.7633 48.862 38.9668 48.9807 39.0855 49.1446C40.1931 50.6931 42.8888 55.118 42.9114 55.1632C42.9509 55.2254 43.0074 55.2762 43.0696 55.3101C43.0809 55.3158 44.4429 56.0165 45.234 56.8868C46.6186 58.4127 45.6918 61.843 45.0306 63.2671C44.9006 63.544 45.0193 63.7814 45.8105 64.8664C45.8783 64.9568 45.9291 65.0246 45.9461 65.0586C46.5734 66.0645 46.6469 66.7935 46.2004 67.6638C45.8896 68.2685 45.3414 68.7036 44.7311 68.8392Z" fill="#242424"/>
<path d="M41.2042 55.8923C41.2777 55.8923 41.3512 55.8697 41.419 55.8302C41.6111 55.7115 41.6676 55.4685 41.5433 55.282C41.2099 54.7621 40.4131 54.0557 39.8705 53.8014C39.6671 53.7053 39.4241 53.7901 39.328 53.9879C39.2319 54.1857 39.3167 54.423 39.5202 54.5191C39.927 54.7112 40.6052 55.3103 40.8595 55.7115C40.9386 55.8302 41.0686 55.898 41.2042 55.898V55.8923Z" fill="#242424"/>
<path d="M38.5665 61.9389C38.8151 61.9389 39.0638 61.8654 39.2898 61.7242C39.7815 61.419 40.0245 60.8652 39.9058 60.3509C39.708 59.5145 39.1316 58.8251 38.6286 58.2147L38.5608 58.13C38.4195 57.9604 37.9222 57.384 37.504 57.141C37.3119 57.028 37.0632 57.0958 36.9502 57.2823C36.8372 57.4744 36.8994 57.7174 37.0971 57.8304C37.3232 57.9604 37.6849 58.3277 37.9392 58.6386L38.007 58.7233C38.4817 59.2885 38.9677 59.8762 39.1259 60.5374C39.1768 60.7521 39.0355 60.9556 38.866 61.0573C38.7247 61.1477 38.5947 61.1647 38.4478 61.1308C38.0013 61.0121 37.5266 60.3961 37.261 59.8988C37.1593 59.7067 36.9107 59.6275 36.7129 59.7349C36.5151 59.8366 36.4416 60.0796 36.5433 60.2718C36.7694 60.69 37.3797 61.6789 38.2387 61.905C38.3517 61.9333 38.4647 61.9502 38.5778 61.9502L38.5665 61.9389Z" fill="#242424"/>
<path d="M39.7752 60.662C40.1368 60.662 40.6002 60.5659 40.7924 60.4472C41.2275 60.176 41.657 59.3283 41.5214 58.7575C41.3519 58.0341 40.6737 57.2712 40.1312 56.6552C40.0012 56.5083 39.8825 56.3727 39.7808 56.254C39.7356 56.1975 39.7186 56.1749 39.7073 56.1579C39.6565 56.0731 39.5491 55.9884 39.453 55.9601C39.453 55.9601 39.4248 55.9432 39.3739 55.9149C39.1818 55.8019 38.9331 55.8697 38.8201 56.0562C38.7071 56.2483 38.7692 56.4913 38.967 56.6044C39.0122 56.6326 39.0518 56.6496 39.0801 56.6665C39.097 56.6948 39.1253 56.723 39.1535 56.7626C39.2609 56.8926 39.3852 57.0339 39.5209 57.1864C39.9786 57.7064 40.6059 58.4184 40.7359 58.944C40.7811 59.1418 40.5494 59.656 40.3629 59.7804C40.2612 59.8312 39.8204 59.8934 39.7017 59.8708C39.4869 59.7973 39.2665 59.916 39.1931 60.1194C39.1196 60.3229 39.2439 60.5546 39.453 60.6281C39.5378 60.6563 39.6508 60.6676 39.7808 60.6676L39.7752 60.662Z" fill="#242424"/>
<path d="M44.3928 55.9207C42.9687 55.7342 42.2058 55.689 40.7703 55.689C40.6064 55.689 40.0074 55.8359 39.8548 55.8981C39.3971 56.0902 39.3236 56.7797 39.6175 57.1865C39.9113 57.5934 40.4313 57.7573 40.9229 57.8308C41.4146 57.8986 41.9232 57.8986 42.3922 58.0794C42.494 58.119 42.607 58.1812 42.6352 58.2885C42.6522 58.362 42.6239 58.4411 42.5957 58.5146C42.4375 58.9102 42.2623 59.3058 42.1492 59.7183C41.8328 60.8712 42.008 61.2498 42.6692 62.2444L44.3984 55.9263L44.3928 55.9207Z" fill="white"/>
<path d="M42.6628 62.64C42.7362 62.64 42.8154 62.6174 42.8832 62.5722C43.0697 62.4535 43.1205 62.2049 43.0019 62.0184C42.3859 61.0972 42.2559 60.8373 42.5328 59.82C42.6176 59.5149 42.7362 59.2154 42.8662 58.9045L42.9623 58.6615C43.0019 58.5711 43.0697 58.3959 43.0188 58.1981C42.9679 57.9777 42.7984 57.8138 42.5271 57.7065C42.1429 57.5595 41.7529 57.52 41.3743 57.4804C41.2387 57.4691 41.103 57.4522 40.9731 57.4352C40.4644 57.3617 40.1197 57.2035 39.9389 56.9549C39.8428 56.8249 39.8145 56.6214 39.8598 56.4575C39.8767 56.3897 39.9219 56.2993 40.001 56.2654C40.1084 56.2202 40.6396 56.0959 40.764 56.0902C42.1881 56.0902 42.9227 56.1354 44.3299 56.3163C44.5503 56.3502 44.7537 56.1919 44.7877 55.9715C44.8159 55.7511 44.6633 55.5533 44.4373 55.5251C43.0019 55.3386 42.2107 55.2877 40.7583 55.2934C40.521 55.2934 39.8541 55.4629 39.6846 55.5307C39.3907 55.6551 39.1703 55.9037 39.0742 56.2371C38.9612 56.6384 39.0347 57.0905 39.272 57.4183C39.5828 57.8478 40.1141 58.119 40.8487 58.2207C40.9957 58.2433 41.1369 58.2546 41.2839 58.2716C41.6003 58.3055 41.8999 58.3338 42.1711 58.4242L42.1033 58.5994C41.9733 58.9215 41.832 59.2549 41.736 59.6053C41.3799 60.8938 41.6003 61.3854 42.3068 62.4535C42.3859 62.5722 42.5158 62.6344 42.6458 62.6344L42.6628 62.64Z" fill="#242424"/>
<path d="M41.4203 59.4921C41.6916 59.4921 41.9628 59.4356 42.2058 59.3169C42.4093 59.2209 42.494 58.9835 42.398 58.7857C42.3019 58.5879 42.0589 58.5032 41.8554 58.5992C41.6746 58.684 41.4655 58.7123 41.2677 58.684C41.0473 58.6444 40.8382 58.797 40.8043 59.0118C40.7704 59.2265 40.9173 59.4356 41.1377 59.4695C41.2338 59.4865 41.3299 59.4921 41.426 59.4921H41.4203Z" fill="#242424"/>
<path d="M84.4822 46.0421C84.0866 44.1263 82.5156 42.6796 82.0578 40.6847C81.6396 38.8706 81.7978 35.073 84.42 35.0786C87.0083 35.0843 86.9405 38.9102 87.2683 40.5999C87.613 42.3518 89.5231 43.2955 90.3934 44.8496C91.0376 45.9969 91.0433 47.4888 90.4104 48.6416C89.9978 49.3876 89.331 50.0375 89.2292 50.8908C88.9975 52.8349 90.8116 54.0386 90.0091 56.1352C88.7884 59.3395 85.9741 60.4584 82.9281 58.4635C82.0239 57.8701 81.2327 57.0733 80.7637 56.09C79.9668 54.4172 80.2551 52.2697 81.4644 50.8739C82.2499 49.964 83.3802 49.3537 83.9905 48.3139C84.5104 47.421 84.6122 46.692 84.4765 46.0477L84.4822 46.0421Z" fill="#242424"/>
<path d="M85.8948 59.9272C86.3412 59.9272 86.782 59.8594 87.2059 59.7238C88.6356 59.2717 89.7942 58.051 90.4667 56.2935C90.9809 54.9485 90.5458 53.9086 90.1671 52.9875C89.8902 52.315 89.6246 51.6764 89.715 50.9417C89.7715 50.4727 90.0654 50.0432 90.3762 49.5911C90.5345 49.3594 90.6984 49.1164 90.8396 48.8621C91.546 47.5736 91.5404 45.9064 90.8227 44.6236C90.4327 43.9285 89.8733 43.3634 89.3307 42.8209C88.6074 42.0975 87.9236 41.408 87.7484 40.5151C87.6919 40.2326 87.6467 39.8709 87.6015 39.4866C87.3585 37.5482 86.9855 34.6209 84.4311 34.6152H84.4255C83.5947 34.6152 82.8883 34.9487 82.3797 35.5759C81.2494 36.9662 81.2947 39.4584 81.6055 40.7977C81.8485 41.8545 82.374 42.753 82.8827 43.6177C83.3743 44.4597 83.8434 45.2509 84.0242 46.1438C84.1485 46.7485 84.0129 47.3645 83.5891 48.0822C83.2669 48.636 82.764 49.0655 82.2271 49.5176C81.8485 49.8397 81.4529 50.1788 81.1138 50.5744C79.7914 52.1059 79.4693 54.4568 80.3452 56.2935C80.8143 57.2824 81.6224 58.1697 82.6792 58.8591C83.7699 59.5712 84.8606 59.9329 85.9061 59.9329L85.8948 59.9272ZM84.4142 35.5477C85.9965 35.5477 86.3582 37.3843 86.6407 39.5996C86.6916 40.0009 86.7368 40.3739 86.799 40.6903C87.0307 41.8601 87.8445 42.6852 88.6356 43.4764C89.1556 44.002 89.6472 44.4936 89.975 45.0757C90.5401 46.0873 90.5458 47.404 89.9919 48.4213C89.8733 48.636 89.7263 48.8451 89.5738 49.0712C89.2121 49.5967 88.8391 50.1449 88.76 50.8343C88.6469 51.812 88.9804 52.6258 89.2799 53.3435C89.6416 54.2138 89.9524 54.9654 89.5681 55.9657C89.003 57.452 88.0592 58.4692 86.912 58.8309C85.7874 59.1869 84.5046 58.9269 83.1991 58.068C82.2893 57.4689 81.5998 56.7173 81.2042 55.8866C80.4865 54.372 80.7465 52.4337 81.8372 51.1734C82.131 50.8343 82.4814 50.5348 82.8488 50.2184C83.4195 49.7323 84.0073 49.2294 84.4085 48.5399C84.9454 47.6244 85.1206 46.7767 84.951 45.946C84.7363 44.9062 84.2107 44.0076 83.6964 43.1373C83.1991 42.2953 82.7357 41.4985 82.521 40.5773C82.2441 39.3792 82.2441 37.2092 83.1087 36.1467C83.4421 35.7398 83.866 35.542 84.4142 35.542V35.5477Z" fill="#242424"/>
<path d="M60.8832 91.427L59.5609 145.56L58.9901 168.499C58.9901 168.499 58.9505 168.595 59.9395 169.024C60.9285 169.454 65.2178 170.03 66.1898 169.601C67.1618 169.171 70.2756 147.793 70.1344 144.21C69.9931 140.621 69.9931 138.327 69.9931 138.327L72.5418 120.395C72.5418 120.395 73.672 137.468 74.2428 138.468C74.8136 139.468 87.0203 168.126 87.0203 168.126C87.0203 168.126 87.9754 168.595 88.97 168.454C89.959 168.312 94.4913 166.589 94.7738 165.871C95.0564 165.153 88.857 144.385 88.2636 142.774C86.9921 139.333 83.8726 134.456 83.8726 134.456C83.8726 134.456 88.4162 111.235 88.84 104.781C89.2639 98.3272 87.885 90.4663 87.885 90.4663L60.8889 91.4327L60.8832 91.427Z" fill="#ACACAC"/>
<path d="M64.9007 170.217C65.5449 170.217 66.0818 170.16 66.3813 170.025C66.6865 169.889 67.3194 169.607 69.0487 158.151C69.8568 152.811 70.6876 146.165 70.6084 144.187C70.4785 140.881 70.4672 138.649 70.4672 138.355L72.3773 124.916C72.7672 130.217 73.3945 137.937 73.8184 138.694C74.2535 139.468 82.3518 158.4 86.5733 168.307C86.6185 168.409 86.6976 168.493 86.7993 168.544C86.8445 168.567 87.9013 169.081 89.0315 168.917C89.7662 168.81 94.7902 167.109 95.214 166.041C95.6322 164.984 88.7829 142.82 88.7038 142.616C87.5396 139.474 84.9231 135.241 84.3693 134.365C84.827 132.031 88.9016 110.997 89.3085 104.815C89.7323 98.3781 88.3647 90.472 88.3477 90.3929C88.3082 90.1612 88.0991 89.9917 87.8617 90.003L60.8657 90.9693C60.6114 90.9806 60.4136 91.1784 60.4079 91.4271L59.0855 145.56L58.5148 168.442C58.4243 168.895 59.0403 169.16 59.7467 169.465C60.5323 169.81 63.1318 170.228 64.9063 170.228L64.9007 170.217ZM65.9066 169.2C64.9459 169.494 61.0239 168.985 60.1254 168.595C59.775 168.442 59.5772 168.341 59.4642 168.279L60.0293 145.572L61.3404 91.8792L87.4661 90.9467C87.7374 92.6308 88.7094 99.2484 88.3477 104.747C87.9296 111.099 83.4311 134.134 83.3859 134.365C83.3633 134.484 83.3859 134.603 83.4481 134.704C83.4764 134.755 86.5506 139.581 87.7939 142.938C88.4551 144.724 94.1629 163.995 94.2872 165.735C93.7956 166.295 89.851 167.855 88.8846 167.99C88.2743 168.081 87.6526 167.883 87.3701 167.776C86.2511 165.159 75.2029 139.231 74.6434 138.248C74.2592 137.411 73.4341 126.832 73.0046 120.367C72.9876 120.13 72.7898 119.938 72.5468 119.932C72.3095 119.921 72.0891 120.096 72.0552 120.333L69.5065 138.265C69.5065 138.265 69.5065 138.31 69.5065 138.327C69.5065 138.349 69.5065 140.672 69.6477 144.227C69.7947 147.9 66.8334 167.583 65.901 169.205L65.9066 169.2ZM59.4642 168.493C59.4642 168.555 59.4529 168.618 59.4246 168.685C59.4472 168.629 59.4642 168.567 59.4642 168.51V168.493Z" fill="#242424"/>
<path d="M67.1624 69.1837C67.2641 68.4377 67.2415 67.6861 67.0607 66.9571C66.8459 66.0868 66.4108 65.2899 65.9417 64.5327C65.4614 63.7528 65.094 62.227 64.3707 61.6618C63.6529 61.0967 63.3704 60.5655 62.4718 60.7294C61.1551 60.9724 59.9853 63.1029 59.5162 64.188C58.9342 65.533 58.3012 66.8497 57.6005 68.1325C56.1876 70.7039 52.4183 75.5357 52.3787 75.4622C51.4858 73.5577 47.4791 65.4256 47.0891 64.7926C46.4505 63.7472 45.7611 65.0526 45.0603 65.5556C43.8622 66.4089 42.3929 67.0757 40.9405 67.3018C40.7201 67.3357 40.4658 67.3753 40.3415 67.5674C40.2002 67.7822 40.2963 68.0704 40.4037 68.3077C41.613 71.1107 43.0315 73.8968 44.0487 76.7564C44.9868 79.3898 45.925 82.1307 47.4621 84.4816C48.338 85.8153 49.7169 87.1095 51.4632 87.0699C52.5821 87.0416 53.5655 86.3465 54.4301 85.6345C56.1933 84.1765 57.8152 82.5376 59.2111 80.7179C59.8497 79.8871 60.2791 79.0225 61.0025 78.2709C61.8219 77.4289 62.6244 76.5699 63.4099 75.6996C64.5119 74.4845 65.597 73.2243 66.3373 71.755C66.7385 70.9582 67.0324 70.0822 67.1567 69.195L67.1624 69.1837Z" fill="white"/>
<path d="M51.3773 87.5334C51.4055 87.5334 51.4394 87.5334 51.4677 87.5334C52.7279 87.5052 53.7847 86.7705 54.7341 85.985C56.5821 84.4535 58.2153 82.7751 59.5885 80.9949C59.8485 80.6615 60.0689 80.3224 60.2836 79.9946C60.6171 79.4917 60.9279 79.017 61.3461 78.5875C62.1599 77.7454 62.9736 76.8751 63.7648 76.0049C64.8612 74.7955 65.9914 73.49 66.7656 71.9585C67.2177 71.0656 67.5059 70.1558 67.6303 69.2516C67.7433 68.4096 67.7037 67.6014 67.5173 66.8498C67.2742 65.8834 66.7882 65.0132 66.3418 64.2898C66.1892 64.0411 66.0366 63.6795 65.8784 63.2952C65.5563 62.5266 65.2228 61.7298 64.6634 61.2946C64.5108 61.1759 64.3808 61.0573 64.2621 60.9499C63.7931 60.5317 63.3071 60.0966 62.3803 60.2661C60.6792 60.5769 59.419 63.2048 59.0743 64.0016C58.4413 65.454 57.8253 66.7311 57.1755 67.9066C56.0565 69.941 53.5134 73.3036 52.4906 74.5977C51.236 71.9925 47.8735 65.1657 47.4948 64.5498C47.2688 64.1768 46.9862 63.9733 46.6528 63.9338C46.0933 63.8716 45.6695 64.3067 45.2626 64.7249C45.0987 64.8945 44.9235 65.0697 44.7766 65.177C43.5559 66.0473 42.1601 66.6351 40.8603 66.8385C40.606 66.8781 40.1765 66.9459 39.9335 67.3132C39.6396 67.7597 39.86 68.2739 39.9561 68.4943C40.3573 69.4268 40.7925 70.3705 41.2106 71.2861C42.047 73.1227 42.9173 75.0215 43.5898 76.9147L43.7311 77.3046C44.6297 79.8364 45.5621 82.4586 47.054 84.736C47.7435 85.7872 49.2185 87.5391 51.3773 87.5391V87.5334ZM66.6865 69.1216C66.5791 69.9241 66.3192 70.7379 65.9123 71.5347C65.1889 72.9645 64.1039 74.2134 63.0528 75.3776C62.2672 76.2422 61.4648 77.1012 60.6566 77.9376C60.1819 78.4292 59.8259 78.9661 59.4868 79.4804C59.2777 79.7912 59.0686 80.119 58.8313 80.4241C57.5032 82.1478 55.9152 83.7753 54.1181 85.2616C53.2987 85.9398 52.4114 86.5671 51.4451 86.5897C49.7045 86.6349 48.4499 85.1203 47.8565 84.2161C46.4268 82.0347 45.5113 79.4634 44.6297 76.9825L44.4884 76.5926C43.7989 74.6599 42.923 72.7441 42.0753 70.8905C41.6571 69.9806 41.2276 69.0425 40.832 68.1157C40.7303 67.884 40.7359 67.8105 40.7416 67.7936C40.7642 67.7936 40.9281 67.7653 41.0072 67.754C42.4539 67.5336 43.9911 66.8837 45.3361 65.9287C45.5565 65.7704 45.7543 65.567 45.9521 65.3692C46.1159 65.1996 46.4268 64.8832 46.5511 64.8606C46.5511 64.8662 46.6019 64.9058 46.6754 65.0301C47.0484 65.6404 51.0495 73.767 51.9367 75.6545C52.0102 75.8184 52.1741 75.9201 52.3549 75.9257C52.6262 75.937 52.7223 75.937 54.8697 73.0266C55.6948 71.9077 57.2037 69.8111 58.0062 68.3474C58.6674 67.1437 59.3003 65.8382 59.9446 64.3633C60.5775 62.8996 61.6343 61.3511 62.5498 61.1816C62.9906 61.1025 63.1545 61.2268 63.6122 61.6337C63.7479 61.7524 63.8948 61.888 64.0643 62.018C64.426 62.3062 64.7255 63.0183 64.9911 63.6455C65.1663 64.0581 65.3302 64.4537 65.5224 64.7645C65.9292 65.4257 66.3757 66.2169 66.5848 67.0589C66.743 67.6975 66.7769 68.3926 66.6809 69.116L66.6865 69.1216Z" fill="#242424"/>
<path d="M65.5959 101.272C67.0596 101.616 68.8737 101.939 71.1059 102.204C71.818 102.289 72.6205 102.334 73.4851 102.345L79.9332 102.3L81.5664 54.6602L68.5459 55.2479C68.5459 55.2479 63.4824 65.4315 62.759 67.6411C62.03 69.8507 62.8494 100.554 62.8494 100.554L65.5846 102.249V101.283L65.5959 101.272Z" fill="#FCF8F0"/>
<path d="M73.4796 102.809L79.939 102.764C80.1933 102.764 80.4024 102.56 80.4137 102.312L82.0469 54.6715C82.0469 54.5415 82.0017 54.4115 81.9056 54.3211C81.8095 54.2307 81.6795 54.1798 81.5496 54.1855L68.5291 54.7732C68.3539 54.7789 68.2013 54.8806 68.1222 55.0332C67.9131 55.4514 63.036 65.2676 62.307 67.4885C61.578 69.7095 62.2901 97.4063 62.3748 100.554C62.3748 100.712 62.4653 100.854 62.5952 100.938L65.3305 102.634C65.5509 102.769 65.8447 102.707 65.986 102.487C66.1273 102.266 66.0595 101.978 65.8391 101.843L65.7599 101.797C67.3197 102.148 69.0942 102.442 71.0382 102.673C71.7559 102.758 72.5754 102.803 73.4683 102.815L73.4796 102.809ZM79.4756 101.826L73.4852 101.871C72.6319 101.859 71.8464 101.814 71.1626 101.735C69.1337 101.498 67.2971 101.187 65.7034 100.814C65.4491 100.752 65.1892 100.91 65.127 101.159C65.1101 101.238 65.1101 101.323 65.127 101.396L63.3186 100.277C62.9908 87.9631 62.7026 69.3252 63.2112 67.7711C63.8555 65.8101 68.0713 57.2654 68.8512 55.6887L81.0692 55.1349L79.4642 101.82L79.4756 101.826Z" fill="#242424"/>
<path d="M81.3334 53.9707C81.0112 53.6146 80.7061 53.2417 80.4292 52.8517C79.5476 51.6197 78.9372 50.2295 78.7959 48.5907C78.7112 47.5678 78.8186 46.5393 78.9316 45.522C79.0163 44.7252 79.1124 43.8945 79.525 43.205C79.8753 42.6116 80.4348 42.1765 80.9208 41.6905C82.571 40.0629 83.5656 37.7177 83.4074 35.3837C83.0626 30.3541 76.8519 26.8107 72.2857 28.314C70.7542 28.8169 69.3697 29.8511 68.5954 31.2809C67.7703 32.8067 67.4991 34.5416 66.8096 36.1353C65.8659 38.328 64.7187 39.0344 65.4307 39.8312C65.8376 40.2833 66.5497 40.2946 67.0018 40.6959C68.019 41.6001 67.0131 43.8775 67.42 45.0304C68.0077 46.6975 69.5618 45.8103 70.7033 46.4658C71.1385 46.7145 71.3645 47.2118 71.3476 47.7147C71.2741 49.7944 71.2798 51.9023 70.0648 53.6712C69.6748 54.2419 69.1323 54.7562 68.5446 55.2366L68.5559 55.2761C68.5163 55.553 68.3524 55.926 68.5333 56.2312C72.8056 63.5835 79.9658 55.0896 80.8361 54.1854L81.3221 53.965L81.3334 53.9707Z" fill="white"/>
<path d="M72.8853 59.6784C75.2532 59.6784 77.9771 58.0112 81.0061 54.7166C81.057 54.6657 81.0966 54.6148 81.1361 54.5753L81.5374 54.3944C81.673 54.3323 81.7747 54.2079 81.803 54.0667C81.8312 53.9197 81.7917 53.7728 81.6956 53.6598C81.3735 53.2981 81.0796 52.9364 80.8253 52.5804C79.9041 51.2919 79.4012 49.9751 79.2769 48.551C79.1921 47.5677 79.3051 46.5561 79.4068 45.5728C79.4859 44.8608 79.5707 44.0583 79.938 43.4423C80.1754 43.0467 80.5258 42.7189 80.8988 42.3686C81.0231 42.2555 81.1418 42.1425 81.2604 42.0238C83.0688 40.2437 84.0465 37.7515 83.8826 35.3553C83.7187 32.9592 82.289 30.71 79.9607 29.1842C77.5306 27.5849 74.5298 27.0876 72.1337 27.8787C70.4044 28.4495 68.9577 29.6137 68.1721 31.0717C67.6805 31.9872 67.3753 32.9705 67.0814 33.9199C66.8723 34.6037 66.6519 35.3101 66.3694 35.9657C66.036 36.7456 65.6686 37.3333 65.3748 37.8023C64.8435 38.6557 64.3914 39.3903 65.0752 40.1533C65.3691 40.481 65.7477 40.6223 66.0868 40.7523C66.3185 40.8427 66.5446 40.9275 66.6915 41.0575C67.1153 41.4304 67.0193 42.329 66.9289 43.1936C66.8497 43.934 66.7763 44.6291 66.9797 45.1998C67.4544 46.5392 68.4773 46.6013 69.3024 46.6466C69.7375 46.6748 70.1444 46.6974 70.4778 46.8839C70.7378 47.0308 70.9017 47.3586 70.8904 47.709L70.8791 48.082C70.8169 50.0317 70.7548 51.8683 69.6867 53.4224C69.3702 53.8802 68.9181 54.3436 68.2569 54.8861C68.1326 54.9878 68.0704 55.1461 68.0874 55.2986C68.0817 55.3325 68.0704 55.3664 68.0648 55.4004C68.0026 55.6716 67.9122 56.0842 68.1382 56.4741C69.2628 58.4068 70.6869 59.4749 72.3767 59.6558C72.5462 59.6727 72.7157 59.684 72.8909 59.684L72.8853 59.6784ZM80.571 53.8067C80.571 53.8067 80.5201 53.8463 80.4975 53.8689C80.4467 53.9197 80.3788 53.9932 80.2941 54.0893C77.265 57.3896 74.6372 58.9493 72.4727 58.7233C71.1051 58.5764 69.9184 57.6665 68.9577 56.0107C68.9124 55.9372 68.9577 55.762 68.9859 55.6038C68.9972 55.5586 69.0029 55.5134 69.0142 55.4738C69.6641 54.9256 70.1275 54.434 70.4665 53.9423C71.6872 52.1678 71.755 50.1051 71.8172 48.1102L71.8285 47.7429C71.8511 47.0365 71.5177 46.3979 70.9469 46.0758C70.4213 45.7763 69.8506 45.7424 69.3532 45.7141C68.5338 45.6632 68.1269 45.6124 67.8726 44.8947C67.7426 44.5217 67.8048 43.9 67.8726 43.2954C67.9856 42.2499 68.11 41.0631 67.3244 40.368C67.0475 40.1194 66.7198 39.995 66.4259 39.8877C66.1603 39.7859 65.9229 39.6955 65.7873 39.5429C65.5952 39.3282 65.6517 39.1699 66.1885 38.2996C66.4994 37.8023 66.8836 37.1807 67.2453 36.3387C67.5505 35.6323 67.7765 34.9032 67.9913 34.1968C68.2852 33.2474 68.5621 32.3545 69.0085 31.5181C69.681 30.2692 70.9299 29.2746 72.4275 28.7773C74.5524 28.0765 77.2311 28.5343 79.4181 29.9753C81.4978 31.343 82.775 33.3322 82.9163 35.4345C83.0632 37.565 82.1872 39.7859 80.571 41.3796C80.458 41.4926 80.3393 41.6 80.2263 41.7074C79.8194 42.086 79.4012 42.4759 79.1017 42.9902C78.6326 43.7757 78.5365 44.6912 78.4461 45.4937C78.3331 46.5222 78.2201 47.579 78.3105 48.6528C78.4461 50.2464 79.0056 51.7157 80.0285 53.1399C80.1924 53.3659 80.3675 53.5976 80.5597 53.8293L80.571 53.8067Z" fill="#242424"/>
<path d="M74.0267 25.9068C72.6139 25.9124 71.1728 26.0311 69.8673 26.5793C68.5619 27.1275 67.3921 28.1616 66.9626 29.5236C66.5331 30.8856 66.9909 32.5696 68.2115 33.293C68.9914 33.7564 69.9352 33.7846 70.7942 34.0559C71.3819 34.2367 72.0431 34.5815 72.3709 35.1353C72.7495 35.7739 72.6139 36.5142 73.1281 37.1189C73.3372 37.3675 73.6254 37.571 73.9476 37.5879C74.2584 37.6049 74.5466 37.441 74.8518 37.3902C75.7164 37.2432 76.5641 38.2096 76.3154 39.0629C76.2137 39.4246 75.9594 39.7241 75.8238 40.0688C75.5808 40.6848 75.7164 41.4082 76.0724 41.962C76.581 42.7532 77.5135 43.2279 78.446 43.2166C81.0173 43.1883 83.0913 40.0123 84.069 37.9553C85.2557 35.4631 85.0975 32.6148 83.5151 30.3374C81.4129 27.314 77.5644 25.8785 74.0154 25.9011L74.0267 25.9068Z" fill="#242424"/>
<path d="M78.4292 43.6911H78.4631C81.6505 43.6572 83.8997 39.447 84.5156 38.1585C85.7928 35.4685 85.5724 32.4507 83.9223 30.0772C81.9274 27.212 78.1693 25.4375 74.106 25.4375C74.0778 25.4375 74.0495 25.4375 74.0269 25.4375C72.778 25.4432 71.1561 25.5336 69.6811 26.1496C68.1044 26.8108 66.9515 27.9919 66.5107 29.3877C65.9852 31.0435 66.6181 32.8972 67.9688 33.6996C68.5395 34.0387 69.1668 34.1687 69.7715 34.293C70.0823 34.3552 70.3762 34.4173 70.6588 34.5078C71.0261 34.6208 71.6816 34.8864 71.9698 35.3724C72.0998 35.5872 72.1563 35.8471 72.2185 36.1184C72.3089 36.5309 72.4163 36.9943 72.778 37.4238C73.1114 37.8138 73.5239 38.0398 73.9421 38.0624C74.2134 38.0737 74.4564 38.0002 74.6655 37.9324C74.7616 37.9042 74.852 37.8703 74.9481 37.8533C75.1798 37.8138 75.4397 37.9211 75.6432 38.1415C75.8579 38.3789 75.9483 38.684 75.8749 38.9384C75.8297 39.0853 75.7449 39.2435 75.6488 39.4074C75.5584 39.56 75.468 39.7239 75.3945 39.9047C75.1119 40.6168 75.225 41.4984 75.6827 42.2161C76.2592 43.1146 77.3329 43.6911 78.4349 43.6911H78.4292ZM74.0947 26.3756C77.0503 26.3756 80.9553 27.4833 83.1311 30.6084C84.5891 32.705 84.7812 35.3781 83.6453 37.7629C82.5038 40.159 80.5428 42.7304 78.4462 42.753C77.6607 42.7756 76.8921 42.3517 76.4796 41.7131C76.18 41.2441 76.1009 40.6789 76.2705 40.2381C76.3213 40.1138 76.3891 39.9895 76.4626 39.8595C76.5756 39.6674 76.7 39.447 76.7734 39.187C76.9373 38.6275 76.7678 37.9833 76.3326 37.5086C75.9144 37.0452 75.3267 36.8248 74.7672 36.9209C74.6259 36.9435 74.4903 36.9887 74.3547 37.0282C74.2021 37.0791 74.0721 37.113 73.9704 37.113C73.8235 37.1073 73.6483 36.9943 73.49 36.8078C73.2753 36.5592 73.2075 36.254 73.134 35.9036C73.0662 35.5872 72.9871 35.2311 72.7836 34.8864C72.3541 34.163 71.5404 33.7844 70.9357 33.5923C70.6079 33.4905 70.2801 33.4227 69.958 33.3549C69.4098 33.2419 68.8899 33.1345 68.4548 32.8746C67.4827 32.2981 67.025 30.8797 67.4149 29.6477C67.7653 28.5287 68.7543 27.5398 70.0484 26.9972C71.3652 26.4434 72.8627 26.37 74.0269 26.3587H74.0947V26.3756Z" fill="#242424"/>
<path d="M69.3815 37.6388C69.7714 37.6388 70.0879 37.3223 70.0879 36.9381C70.0879 36.5538 69.7714 36.2373 69.3815 36.2373C68.9915 36.2373 68.6751 36.5538 68.6751 36.9381C68.6751 37.3223 68.9915 37.6388 69.3815 37.6388Z" fill="#242424"/>
<path d="M68.5683 43.8886C68.6361 43.8886 68.7039 43.8716 68.7661 43.8434L69.9698 43.2726C70.1959 43.1652 70.2919 42.894 70.1846 42.6736C70.0772 42.4475 69.8003 42.3571 69.5742 42.4645L68.4835 42.9787L67.6471 42.9053C67.3928 42.8827 67.1724 43.0692 67.1498 43.3122C67.1272 43.5608 67.3137 43.7756 67.568 43.7982L68.5287 43.8773C68.5287 43.8773 68.557 43.8773 68.5683 43.8773V43.8886Z" fill="#242424"/>
<path d="M80.9394 54.5582L72.2421 77.6548L71.7505 105.629L74.853 105.662C79.4701 105.719 84.4827 104.775 87.9413 103.148C88.2465 103.001 88.5686 102.831 88.7325 102.532C88.8681 102.283 88.8681 101.984 88.8681 101.701C88.8455 97.5529 89.049 82.6732 90.0718 78.6325C90.5465 76.7563 91.4394 74.7218 91.5242 72.7778C91.6768 69.2401 91.0721 66.4258 89.3146 63.3967C87.6361 60.5033 85.5452 57.8246 83.0304 55.6262C82.4313 55.1007 81.8606 54.5582 81.335 53.9761L80.9394 54.5695V54.5582Z" fill="white"/>
<path d="M75.2435 106.132C79.855 106.132 84.7659 105.16 88.1454 103.566C88.5127 103.391 88.9196 103.176 89.1513 102.747C89.3434 102.391 89.3434 101.989 89.3434 101.696C89.3208 96.9202 89.5582 82.5999 90.5302 78.7401C90.6771 78.1524 90.8693 77.5477 91.0671 76.9148C91.4909 75.5641 91.9317 74.1739 91.9939 72.7893C92.1578 69.0652 91.4796 66.183 89.7221 63.1539C87.925 60.0571 85.7775 57.401 83.3418 55.2648C82.6919 54.694 82.1494 54.1684 81.686 53.6542C81.5899 53.5468 81.443 53.4846 81.296 53.4959C81.1491 53.5072 81.0135 53.5864 80.9344 53.705L80.5388 54.2984C80.5162 54.3267 80.5049 54.3606 80.4879 54.3945L71.7906 77.4912C71.7737 77.542 71.7624 77.5929 71.7624 77.6438L71.2707 105.618C71.2707 105.742 71.3159 105.861 71.4063 105.951C71.4968 106.041 71.6154 106.092 71.7454 106.092L74.848 106.126C74.9779 106.126 75.1136 106.126 75.2435 106.126V106.132ZM81.3978 54.7279C81.7877 55.1292 82.2172 55.5361 82.7089 55.9712C85.0654 58.0396 87.1507 60.6109 88.8913 63.623C90.5528 66.4882 91.1914 69.2177 91.0388 72.7554C90.9823 74.0157 90.5641 75.3494 90.1516 76.6435C89.9538 77.2651 89.756 77.9037 89.5977 78.5197C88.6031 82.4699 88.3545 96.8976 88.3827 101.707C88.3827 101.922 88.3827 102.165 88.3036 102.317C88.2075 102.492 87.9702 102.617 87.7272 102.73C84.3703 104.306 79.4311 105.25 74.848 105.199L72.2258 105.171L72.7118 77.7511L81.3582 54.7788L81.3865 54.7336L81.3978 54.7279Z" fill="#242424"/>
<path d="M60.0803 72.8294C59.7017 74.31 60.0294 83.6403 59.9673 87.7939C59.9277 90.4613 59.2043 101.594 59.8542 102.267C60.0803 102.504 61.4536 103.623 65.5959 104.595L65.4942 103.906L68.625 78.1585L67.5965 70.8571C66.9748 66.4322 67.1274 61.9338 68.0599 57.5653L68.5572 55.2427C67.8734 55.8022 67.1331 56.3164 66.5114 56.825C63.0698 59.6224 62.0582 59.5094 60.0859 63.1714V72.8294H60.0803Z" fill="white"/>
<path d="M65.596 105.058C65.7147 105.058 65.8277 105.013 65.9182 104.934C66.0368 104.827 66.0933 104.674 66.0707 104.521L65.9803 103.894L69.1055 78.2092C69.1055 78.1696 69.1055 78.1301 69.1055 78.0905L68.0769 70.7891C67.461 66.4037 67.6135 61.9901 68.5347 57.6612L69.032 55.3385C69.0716 55.1407 68.9868 54.9429 68.8116 54.8412C68.6364 54.7395 68.416 54.7564 68.2634 54.8808C67.9131 55.169 67.5401 55.4459 67.184 55.7172C66.8506 55.9715 66.5228 56.2145 66.2177 56.4631C65.2909 57.2147 64.5506 57.7516 63.895 58.2207C62.1318 59.4922 61.1598 60.193 59.6735 62.9508C59.5492 63.1768 59.6396 63.465 59.8713 63.5837C60.103 63.7024 60.3912 63.6176 60.5156 63.3859C61.9001 60.8146 62.7535 60.1986 64.4601 58.9723C65.1213 58.4919 65.8729 57.9551 66.8224 57.1808C67.1162 56.9435 67.4327 56.7061 67.7605 56.4575C67.7831 56.4405 67.8057 56.4236 67.8339 56.4066L67.6079 57.469C66.6641 61.9053 66.5059 66.4263 67.1388 70.919L68.1617 78.1583L65.0366 103.849C65.0366 103.888 65.0366 103.928 65.0366 103.968C61.5949 103.08 60.4308 102.131 60.2443 101.967C59.8939 101.108 60.1934 94.417 60.3347 91.1845C60.3969 89.7377 60.4534 88.4888 60.4647 87.7994C60.4873 86.347 60.4647 84.2956 60.4308 82.1198C60.3799 78.2431 60.3291 73.8464 60.5608 72.9422C60.6229 72.6935 60.4703 72.4392 60.216 72.3714C59.9617 72.3093 59.7018 72.4618 59.6396 72.7105C59.3966 73.6656 59.4192 77.0563 59.4814 82.1255C59.5096 84.2956 59.5322 86.3413 59.5153 87.7824C59.504 88.4549 59.4475 89.6982 59.3853 91.1392C59.0067 99.6218 59.0406 102.08 59.5322 102.583C59.6679 102.724 60.9903 103.985 65.5056 105.041C65.5452 105.053 65.5791 105.053 65.6186 105.053L65.596 105.058Z" fill="#242424"/>
<path d="M65.596 105.058C65.7147 105.058 65.8277 105.013 65.9182 104.934C66.0368 104.827 66.0933 104.674 66.0707 104.521L65.9803 103.894L69.1055 78.2092C69.1055 78.1696 69.1055 78.1301 69.1055 78.0905L68.0769 70.7891C67.461 66.4037 67.6135 61.9901 68.5347 57.6612L69.032 55.3385C69.0716 55.1407 68.9868 54.9429 68.8116 54.8412C68.6364 54.7395 68.416 54.7564 68.2634 54.8808C67.9131 55.169 67.5401 55.4459 67.184 55.7172C66.8506 55.9715 66.5228 56.2145 66.2177 56.4631C65.5169 57.0339 64.9066 57.503 64.3584 57.9268C62.177 59.6052 60.979 60.532 59.3627 63.5328C59.2384 63.7589 59.3288 64.0471 59.5605 64.1658C59.7922 64.2845 60.0804 64.1997 60.2047 63.968C61.7249 61.1424 62.8043 60.3116 64.9461 58.6615C65.5 58.232 66.116 57.7573 66.828 57.1808C67.1219 56.9435 67.4383 56.7061 67.7661 56.4575C67.7887 56.4405 67.8113 56.4236 67.8396 56.4066L67.6135 57.469C66.6698 61.9053 66.5115 66.4263 67.1445 70.919L68.1674 78.1583L65.0422 103.849C65.0422 103.888 65.0422 103.928 65.0422 103.968C61.6006 103.08 60.4364 102.131 60.25 101.967C59.8996 101.108 60.1991 94.417 60.3404 91.1845C60.4025 89.7377 60.459 88.4888 60.4704 87.7994C60.493 86.347 60.4703 84.2956 60.4364 82.1198C60.3856 78.2431 60.3347 73.8464 60.5664 72.9422C60.6286 72.6935 60.476 72.4392 60.2217 72.3714C59.9674 72.3093 59.7074 72.4618 59.6453 72.7105C59.4023 73.6656 59.4249 77.0563 59.487 82.1255C59.5153 84.2956 59.5379 86.3413 59.5209 87.7824C59.5096 88.4549 59.4531 89.6982 59.391 91.1392C59.0123 99.6218 59.0462 102.08 59.5379 102.583C59.6735 102.724 60.9959 103.985 65.5113 105.041C65.5508 105.053 65.5847 105.053 65.6243 105.053L65.596 105.058Z" fill="#242424"/>
<path d="M74.2131 78.9546C74.377 78.9546 74.5353 78.8755 74.6257 78.7285L82.1701 66.3071C82.2888 66.1093 82.2492 65.855 82.0684 65.708L80.5708 64.4648L83.922 62.4134C84.0746 62.3229 84.1593 62.1534 84.1424 61.9782L83.6507 55.6149C83.6281 55.3549 83.4077 55.1628 83.1365 55.1854C82.8765 55.2024 82.6787 55.4284 82.6957 55.6884L83.1647 61.7691L79.5027 64.0127C79.3727 64.0918 79.288 64.2274 79.2767 64.3743C79.2654 64.5213 79.3275 64.6682 79.4462 64.7643L81.1359 66.1658L73.8006 78.2425C73.665 78.4629 73.7384 78.7512 73.9645 78.8868C74.0436 78.932 74.1227 78.9546 74.2075 78.9546H74.2131Z" fill="#242424"/>
<path d="M67.0208 78.2937C67.0829 78.2937 67.1451 78.2824 67.2016 78.2598C67.4446 78.158 67.5633 77.8868 67.4616 77.6494L62.5111 65.9061L64.2347 65.0923C64.3477 65.0358 64.4381 64.9397 64.4777 64.8211C64.5172 64.7024 64.5116 64.5724 64.4551 64.4594L63.3135 62.2158L65.7492 58.5256C65.8905 58.3108 65.8283 58.017 65.6079 57.8757C65.3875 57.7344 65.0937 57.7966 64.9467 58.0113L62.3585 61.922C62.268 62.0633 62.2567 62.2384 62.3302 62.3854L63.3757 64.4424L61.686 65.2393C61.4599 65.3466 61.3525 65.6122 61.4543 65.8383L66.58 77.9885C66.6534 78.1693 66.8343 78.2767 67.0208 78.2767V78.2937Z" fill="#242424"/>
<path d="M89.11 108.121C90.1724 108.121 91.2292 107.907 92.1956 107.477C92.4329 107.37 92.5403 107.093 92.4329 106.855C92.3255 106.618 92.043 106.516 91.8 106.624C90.1668 107.353 88.2114 107.37 86.5613 106.686C86.3183 106.584 86.0413 106.697 85.934 106.935C85.8322 107.172 85.9453 107.449 86.1883 107.551C87.1038 107.935 88.104 108.127 89.11 108.127V108.121Z" fill="#242424"/>
<path d="M88.1491 102.679C87.6348 102.764 87.1375 102.996 86.8041 103.397C85.7699 104.651 85.8264 106.72 85.1087 108.167C84.3175 109.766 83.3116 111.309 82.9895 113.106C82.6956 114.739 82.7182 115.298 82.2774 117.644C82.1814 118.169 81.8197 119.079 82.0909 119.537C82.3113 119.904 82.8256 119.966 83.1986 119.78C83.5716 119.593 83.8202 119.215 84.0124 118.836C84.3684 118.135 84.5888 117.361 84.651 116.57C84.8657 117.485 84.8883 119.362 86.0016 119.684C86.3859 119.797 86.8267 119.678 87.1036 119.384C87.194 119.288 87.3127 119.158 87.437 119.209C87.4879 119.232 87.5218 119.271 87.5557 119.311C87.8609 119.644 88.426 119.689 88.7764 119.407C88.9742 119.243 89.1324 118.983 89.3867 118.966C89.511 118.955 89.6297 119.011 89.754 119.045C90.1835 119.17 90.6752 119.023 90.9691 118.684C91.0708 118.565 91.1499 118.429 91.2742 118.339C91.3986 118.243 91.5511 118.203 91.6981 118.152C92.8792 117.734 92.8848 116.191 92.9922 115.151C93.1391 113.722 93.1278 112.275 92.9696 110.845C92.817 109.444 92.4836 108.127 92.6983 106.725C92.8792 105.533 92.4497 104.25 91.4438 103.549C91.0877 103.301 90.6865 103.137 90.2853 102.99C89.6975 102.781 89.0815 102.617 88.4599 102.645C88.3582 102.645 88.2508 102.662 88.1491 102.679Z" fill="white"/>
<path d="M82.7757 120.351C82.9961 120.351 83.2165 120.3 83.4256 120.198C83.9568 119.932 84.262 119.412 84.4485 119.045C84.5106 118.915 84.5728 118.785 84.6293 118.655C84.8949 119.418 85.347 120.085 86.223 120.164C86.6524 120.198 87.0763 120.04 87.3871 119.746C87.6301 119.961 87.9183 120.108 88.2235 120.153C88.6926 120.226 89.1616 120.045 89.4611 119.718C89.8454 119.865 90.2806 119.887 90.6761 119.763C91.1452 119.616 91.5464 119.271 91.7781 118.836C92.1737 118.729 92.4506 118.429 92.6823 118.181C92.7445 118.113 92.8067 118.045 92.8745 117.983C94.0499 116.847 93.5639 111.8 93.4509 110.794C93.3944 110.274 93.2362 109.749 93.0779 109.24C92.8745 108.568 92.6767 107.929 92.7162 107.341C92.7389 107.025 92.8067 106.686 92.931 106.273C92.9706 106.149 93.0101 106.047 93.044 105.951C93.1853 105.595 93.3435 105.194 92.9819 104.617C92.6145 104.024 92.0664 103.606 91.5803 103.278C91.1904 103.013 90.7214 102.719 90.1788 102.538C89.6985 102.38 89.2012 102.329 88.783 102.3C88.0201 102.25 86.9237 102.267 86.1947 102.99C85.7313 103.453 85.6804 103.951 85.6239 104.476L86.093 104.555L85.6183 104.504C85.4657 105.883 85.1775 106.951 84.6745 107.963C84.4937 108.325 84.3072 108.681 84.115 109.037C83.4538 110.28 82.7757 111.563 82.5101 113.027C82.3801 113.75 82.3123 114.27 82.2388 114.818C82.1427 115.524 82.0467 116.259 81.8037 117.565C81.7811 117.678 81.7472 117.813 81.7076 117.96C81.555 118.542 81.3685 119.266 81.6793 119.78C81.8997 120.147 82.3236 120.356 82.77 120.356L82.7757 120.351ZM84.6576 116.101C84.6576 116.101 84.635 116.101 84.6236 116.101C84.3863 116.118 84.1998 116.299 84.1829 116.53C84.1207 117.254 83.9172 117.983 83.5895 118.627C83.3917 119.023 83.1995 119.254 82.9848 119.362C82.8265 119.441 82.5835 119.429 82.5044 119.299C82.3971 119.119 82.5553 118.514 82.6401 118.186C82.6853 118.017 82.7248 117.864 82.7474 117.728C82.9961 116.4 83.0978 115.621 83.1939 114.937C83.2673 114.4 83.3352 113.897 83.4595 113.19C83.6968 111.874 84.3128 110.704 84.9684 109.472C85.1605 109.105 85.3527 108.743 85.5392 108.376C86.0817 107.279 86.4151 106.081 86.5733 104.606V104.578C86.6298 104.092 86.6638 103.872 86.8785 103.651C87.2232 103.306 87.794 103.176 88.7208 103.239C89.0825 103.261 89.5007 103.306 89.8793 103.431C90.3088 103.572 90.7101 103.821 91.0435 104.052C91.4504 104.329 91.8968 104.668 92.1794 105.115C92.2924 105.296 92.2811 105.318 92.1624 105.623C92.1172 105.736 92.0664 105.866 92.0211 106.013C91.8742 106.494 91.7951 106.895 91.7725 107.285C91.7216 108.048 91.9477 108.794 92.1681 109.517C92.315 110.003 92.4563 110.467 92.5072 110.902C92.8067 113.626 92.7784 116.773 92.2133 117.316C92.1342 117.389 92.0607 117.468 91.9872 117.553C91.7612 117.796 91.5916 117.949 91.4617 117.949C91.2356 117.949 91.0604 118.079 90.9983 118.277C90.9078 118.553 90.6761 118.791 90.3992 118.876C90.128 118.96 89.8115 118.898 89.5855 118.723C89.4555 118.621 89.2859 118.593 89.1334 118.644C88.9808 118.695 88.8621 118.825 88.8225 118.977C88.783 119.136 88.5682 119.26 88.3761 119.232C88.15 119.198 87.9183 119 87.794 118.723C87.7092 118.542 87.5114 118.435 87.3136 118.452C87.1102 118.469 86.9407 118.616 86.8955 118.808C86.8333 119.056 86.5677 119.254 86.319 119.232C85.607 119.169 85.3866 117.892 85.2453 117.05C85.2057 116.83 85.1718 116.632 85.1379 116.468C85.0871 116.253 84.8949 116.107 84.6745 116.107L84.6576 116.101Z" fill="#242424"/>
<path d="M82.5331 71.7495C81.9058 75.8127 83.3299 79.8703 84.3697 83.8432C85.4491 87.9799 86.116 92.2353 86.3646 96.5189C86.4889 98.6608 86.5059 100.808 86.4211 102.95C86.3816 103.877 85.7091 106.335 86.7376 106.821C87.8509 107.347 89.1337 107.296 90.3601 107.234C90.7274 107.217 91.0947 107.194 91.4394 107.075C92.3323 106.765 92.5923 105.815 92.8353 104.99C93.4456 102.922 93.8695 100.797 94.2255 98.6664C95.5536 90.7942 95.8192 84.0014 94.2312 76.1857C93.6152 73.1566 91.6259 64.0581 87.8396 64.6571C84.7144 65.1545 82.9908 68.6921 82.5218 71.7382L82.5331 71.7495Z" fill="white"/>
<path d="M89.8459 107.686C90.5806 107.686 91.287 107.607 91.9256 107.443L92.6602 107.268C92.8241 107.228 92.9598 107.104 93.005 106.946C93.0954 106.646 93.2084 106.347 93.3158 106.047C93.4345 105.731 93.5531 105.403 93.6492 105.081C94.1804 103.273 94.6156 101.306 95.0564 98.7063C96.4974 90.1503 96.4748 83.6457 94.9773 76.2482C94.6664 74.7224 92.9767 67.0141 89.9928 64.7988C89.7838 64.6405 89.4842 64.6857 89.326 64.8892C89.1678 65.0983 89.2073 65.3921 89.4221 65.5447C91.6713 67.2119 93.3893 73.1683 94.0448 76.4291C95.5198 83.7079 95.5424 90.1164 94.1183 98.5481C93.6888 101.108 93.2593 103.041 92.7394 104.815C92.6546 105.109 92.5416 105.409 92.4285 105.725C92.3438 105.957 92.259 106.183 92.1799 106.415L91.6995 106.528C90.1567 106.923 88.1731 106.771 86.4326 106.138C86.5399 104.589 86.9638 98.3955 86.8507 96.4854C86.6021 92.1622 85.9239 87.8672 84.8389 83.7192C84.6807 83.1145 84.5168 82.5098 84.3472 81.8995C83.9743 80.5319 83.5843 79.1247 83.3018 77.7345C83.2509 77.4802 82.9966 77.3163 82.7423 77.3672C82.4823 77.418 82.3184 77.6667 82.3693 77.921C82.6575 79.3451 83.0475 80.7692 83.4317 82.1481C83.5956 82.7528 83.7652 83.3575 83.9177 83.9565C84.9858 88.048 85.6527 92.2808 85.9013 96.5419C86.02 98.6272 85.4662 106.341 85.4605 106.42C85.4436 106.624 85.5623 106.81 85.7544 106.889C87.0485 107.415 88.5009 107.686 89.8572 107.686H89.8459Z" fill="#242424"/>
<path d="M82.5613 73.6201C82.7647 73.6201 82.9512 73.4902 83.019 73.2924C83.7763 70.9132 85.2908 68.794 87.2857 67.3303C87.4948 67.1777 87.54 66.8838 87.3818 66.6747C87.2236 66.4656 86.924 66.4261 86.7149 66.5787C84.5618 68.161 82.9286 70.4498 82.1148 73.0155C82.0357 73.2641 82.177 73.5241 82.4256 73.6032C82.4708 73.6201 82.5217 73.6258 82.5669 73.6258L82.5613 73.6201Z" fill="#242424"/>
</g>
</svg>
