<svg width="64" height="65" viewBox="0 0 64 65" fill="none" xmlns="http://www.w3.org/2000/svg">
    <rect y="0.5" width="64" height="64" rx="8" fill="#FAFAFA"/>
    <mask id="path-2-inside-1_12448_17315" fill="white">
        <path d="M52.5168 29.9742C52.5168 27.6342 52.0559 25.3171 51.1604 23.1552C50.265 20.9933 48.9524 19.029 47.2978 17.3743C45.6431 15.7197 43.6788 14.4071 41.5169 13.5117C39.355 12.6162 37.0379 12.1553 34.6979 12.1553V29.9742H52.5168Z"/>
    </mask>
    <path d="M52.5168 29.9742C52.5168 27.6342 52.0559 25.3171 51.1604 23.1552C50.265 20.9933 48.9524 19.029 47.2978 17.3743C45.6431 15.7197 43.6788 14.4071 41.5169 13.5117C39.355 12.6162 37.0379 12.1553 34.6979 12.1553V29.9742H52.5168Z" fill="#FFE072" stroke="black" stroke-width="2" mask="url(#path-2-inside-1_12448_17315)"/>
    <mask id="path-3-inside-2_12448_17315" fill="white">
        <path d="M31.0436 15.8105C27.5193 15.8105 24.0742 16.8556 21.1439 18.8136C18.2136 20.7716 15.9297 23.5545 14.581 26.8105C13.2323 30.0665 12.8795 33.6493 13.567 37.1058C14.2546 40.5624 15.9516 43.7374 18.4437 46.2294L31.0436 33.6295V15.8105Z"/>
        <path d="M18.4437 46.2294C20.9357 48.7215 24.1107 50.4185 27.5673 51.1061C31.0238 51.7936 34.6066 51.4408 37.8626 50.0921C41.1186 48.7434 43.9015 46.4595 45.8595 43.5292C47.8175 40.5989 48.8625 37.1538 48.8625 33.6295H31.0436L18.4437 46.2294Z"/>
    </mask>
    <path d="M31.0436 15.8105C27.5193 15.8105 24.0742 16.8556 21.1439 18.8136C18.2136 20.7716 15.9297 23.5545 14.581 26.8105C13.2323 30.0665 12.8795 33.6493 13.567 37.1058C14.2546 40.5624 15.9516 43.7374 18.4437 46.2294L31.0436 33.6295V15.8105Z" fill="#ACC460"/>
    <path d="M18.4437 46.2294C20.9357 48.7215 24.1107 50.4185 27.5673 51.1061C31.0238 51.7936 34.6066 51.4408 37.8626 50.0921C41.1186 48.7434 43.9015 46.4595 45.8595 43.5292C47.8175 40.5989 48.8625 37.1538 48.8625 33.6295H31.0436L18.4437 46.2294Z" fill="#FDBE7E"/>
    <path d="M18.7972 46.583L31.3971 33.9831L30.69 33.276L18.0901 45.8759L18.7972 46.583ZM31.0436 15.8105H32.0436V14.8105H31.0436V15.8105ZM31.0436 33.6295H30.0436V34.6295H31.0436V33.6295ZM48.8625 33.6295H49.8625V32.6295H48.8625V33.6295ZM31.0436 14.8105C27.3215 14.8105 23.6831 15.9143 20.5883 17.9821L21.6995 19.6451C24.4653 17.797 27.7171 16.8105 31.0436 16.8105V14.8105ZM20.5883 17.9821C17.4936 20.05 15.0815 22.9891 13.6571 26.4278L15.5049 27.1932C16.7779 24.1199 18.9336 21.4931 21.6995 19.6451L20.5883 17.9821ZM13.6571 26.4278C12.2328 29.8665 11.8601 33.6504 12.5862 37.3009L14.5478 36.9107C13.8988 33.6482 14.2319 30.2664 15.5049 27.1932L13.6571 26.4278ZM12.5862 37.3009C13.3124 40.9514 15.1047 44.3047 17.7366 46.9365L19.1508 45.5223C16.7986 43.1701 15.1968 40.1733 14.5478 36.9107L12.5862 37.3009ZM32.0436 33.6295V15.8105H30.0436V33.6295H32.0436ZM17.7366 46.9365C20.3684 49.5684 23.7217 51.3607 27.3722 52.0869L27.7624 50.1253C24.4998 49.4763 21.503 47.8745 19.1508 45.5223L17.7366 46.9365ZM27.3722 52.0869C31.0227 52.813 34.8066 52.4403 38.2453 51.016L37.4799 49.1682C34.4067 50.4412 31.0249 50.7743 27.7624 50.1253L27.3722 52.0869ZM38.2453 51.016C41.684 49.5916 44.6231 47.1795 46.691 44.0848L45.028 42.9736C43.18 45.7395 40.5532 47.8952 37.4799 49.1682L38.2453 51.016ZM46.691 44.0848C48.7588 40.99 49.8625 37.3516 49.8625 33.6295H47.8625C47.8625 36.956 46.8761 40.2078 45.028 42.9736L46.691 44.0848ZM48.8625 32.6295H31.0436V34.6295H48.8625V32.6295Z" fill="black" mask="url(#path-3-inside-2_12448_17315)"/>
    <path d="M42.4658 20.3791L47.7824 11.2412H57.5434" stroke="black" stroke-linecap="round" stroke-linejoin="round"/>
    <path d="M20.5342 26.7756L15.2176 17.6377H5.45659" stroke="black" stroke-linecap="round" stroke-linejoin="round"/>
    <path d="M38.8105 44.1379L44.1272 53.2759H53.8881" stroke="black" stroke-linecap="round" stroke-linejoin="round"/>
    <rect x="50.6895" y="8.5" width="7.31034" height="1" rx="0.5" fill="black"/>
    <rect x="5" y="14.8965" width="7.31034" height="1" rx="0.5" fill="black"/>
    <rect x="47.0342" y="55.1035" width="7.31034" height="1" rx="0.5" fill="black"/>
</svg>
