<svg width="64" height="65" viewBox="0 0 64 65" fill="none" xmlns="http://www.w3.org/2000/svg">
    <g clip-path="url(#clip0_12448_17521)">
        <rect y="0.5" width="64" height="64" rx="8" fill="#FAFAFA"/>
        <path d="M56 9.9668C56 10.9812 53.5376 11.8035 50.5 11.8035C47.4624 11.8035 45 10.9812 45 9.9668L45 17.6634C45 18.6778 47.4624 19.5001 50.5 19.5001C53.5376 19.5001 56 18.6778 56 17.6634L56 9.9668Z" fill="#F07800"/>
        <path d="M56 10.25C56 9.2835 53.5376 8.5 50.5 8.5C47.4624 8.5 45 9.2835 45 10.25C45 11.2165 47.4624 12 50.5 12C53.5376 12 56 11.2165 56 10.25Z" fill="#FCF8F0"/>
        <path d="M56 10.25C56 9.2835 53.5376 8.5 50.5 8.5C47.4624 8.5 45 9.2835 45 10.25M56 10.25C56 11.2165 53.5376 12 50.5 12C47.4624 12 45 11.2165 45 10.25M56 10.25L56 17.5833C56 18.5498 53.5376 19.3333 50.5 19.3333C47.4624 19.3333 45 18.5498 45 17.5833L45 10.25" stroke="#242424"/>
        <path d="M18 27.9668C18 28.9812 15.5376 29.8035 12.5 29.8035C9.46244 29.8035 7.00001 28.9812 7.00001 27.9668L7 35.6634C7 36.6778 9.46243 37.5001 12.5 37.5001C15.5376 37.5001 18 36.6778 18 35.6634L18 27.9668Z" fill="#F07800"/>
        <path d="M18 28.25C18 27.2835 15.5376 26.5 12.5 26.5C9.46244 26.5 7.00001 27.2835 7.00001 28.25C7.00001 29.2165 9.46244 30 12.5 30C15.5376 30 18 29.2165 18 28.25Z" fill="#FCF8F0"/>
        <path d="M18 28.25C18 27.2835 15.5376 26.5 12.5 26.5C9.46244 26.5 7.00001 27.2835 7.00001 28.25M18 28.25C18 29.2165 15.5376 30 12.5 30C9.46244 30 7.00001 29.2165 7.00001 28.25M18 28.25L18 35.5833C18 36.5498 15.5376 37.3333 12.5 37.3333C9.46243 37.3333 7 36.5498 7 35.5833L7.00001 28.25" stroke="#242424"/>
        <path d="M50.1327 43.8052L46.5972 40.2696L43.7688 43.0981L47.3043 46.6336L50.1327 43.8052Z" fill="#FCF8F0" stroke="black"/>
        <path d="M40.381 42.2436L43.256 43.6113L47.1111 39.7562L45.7434 36.8812L40.381 42.2436Z" fill="#FFF6D7" stroke="black" stroke-linecap="round"/>
        <circle r="17" transform="matrix(-0.707107 0.707107 0.707107 0.707107 31.748 28.2487)" fill="#FFD645" stroke="black"/>
        <path d="M58.6188 55.1189C59.7904 53.9473 59.7904 52.0478 58.6188 50.8762L50.1336 42.391L45.8909 46.6336L54.3762 55.1189C55.5478 56.2905 57.4473 56.2905 58.6188 55.1189Z" fill="#FD9328" stroke="black"/>
        <circle r="14" transform="matrix(-0.707107 0.707107 0.707107 0.707107 31.748 28.2488)" fill="#FFF6D7" stroke="black"/>
        <rect y="0.707107" width="10" height="3" rx="1.5" transform="matrix(-0.707107 0.707107 0.707107 0.707107 50.3398 39.7696)" fill="#FFF6D7" stroke="black"/>
        <path d="M19 46.9668C19 47.9812 16.5376 48.8035 13.5 48.8035C10.4624 48.8035 8.00001 47.9812 8.00001 46.9668L8 54.6634C8 55.6778 10.4624 56.5001 13.5 56.5001C16.5376 56.5001 19 55.6778 19 54.6634L19 46.9668Z" fill="#F07800"/>
        <path d="M19 47.25C19 46.2835 16.5376 45.5 13.5 45.5C10.4624 45.5 8.00001 46.2835 8.00001 47.25C8.00001 48.2165 10.4624 49 13.5 49C16.5376 49 19 48.2165 19 47.25Z" fill="#FCF8F0"/>
        <path d="M19 47.25C19 46.2835 16.5376 45.5 13.5 45.5C10.4624 45.5 8.00001 46.2835 8.00001 47.25M19 47.25C19 48.2165 16.5376 49 13.5 49C10.4624 49 8.00001 48.2165 8.00001 47.25M19 47.25L19 54.5833C19 55.5498 16.5376 56.3333 13.5 56.3333C10.4624 56.3333 8 55.5498 8 54.5833L8.00001 47.25" stroke="#242424"/>
        <path d="M39 22.5C39 23.8832 35.6421 25.0046 31.5 25.0046C27.3579 25.0046 24 23.8832 24 22.5L24 32.9954C24 34.3787 27.3579 35.5 31.5 35.5C35.6421 35.5 39 34.3787 39 32.9954L39 22.5Z" fill="#ACC460"/>
        <path d="M39 22.8864C39 21.5684 35.6421 20.5 31.5 20.5C27.3579 20.5 24 21.5684 24 22.8864C24 24.2043 27.3579 25.2727 31.5 25.2727C35.6421 25.2727 39 24.2043 39 22.8864Z" fill="#FCF8F0"/>
        <path d="M39 22.8864C39 21.5684 35.6421 20.5 31.5 20.5C27.3579 20.5 24 21.5684 24 22.8864M39 22.8864C39 24.2043 35.6421 25.2727 31.5 25.2727C27.3579 25.2727 24 24.2043 24 22.8864M39 22.8864L39 32.8864C39 34.2043 35.6421 35.2727 31.5 35.2727C27.3579 35.2727 24 34.2043 24 32.8864L24 22.8864" stroke="#242424"/>
    </g>
    <defs>
        <clipPath id="clip0_12448_17521">
            <rect y="0.5" width="64" height="64" rx="8" fill="white"/>
        </clipPath>
    </defs>
</svg>
