<svg width="64" height="65" viewBox="0 0 64 65" fill="none" xmlns="http://www.w3.org/2000/svg">
    <rect y="0.5" width="64" height="64" rx="8" fill="#F5F5F5"/>
    <path d="M15.8556 47.9336L22.9752 7.55644C23.119 6.7406 23.897 6.19585 24.7129 6.3397L52.2875 11.2018C53.1033 11.3457 53.6481 12.1237 53.5042 12.9395L47.2012 48.686L46.3846 53.3167C46.2408 54.1325 45.4628 54.6772 44.647 54.5334L39.7229 53.6651L17.0723 49.6712C16.2565 49.5274 15.7118 48.7494 15.8556 47.9336Z" fill="#FDBE7E" stroke="black" stroke-linecap="round" stroke-linejoin="round"/>
    <mask id="path-3-inside-1_12448_17451" fill="white">
        <path d="M11 55.5V14.5C11 13.3954 11.8954 12.5 13 12.5H41C42.1046 12.5 43 13.3954 43 14.5V50.7979H38C36.8954 50.7979 36 51.6933 36 52.7979V57.5H13C11.8954 57.5 11 56.6046 11 55.5Z"/>
        <path d="M43 50.7979H38C36.8954 50.7979 36 51.6933 36 52.7979V57.5L43 50.7979Z"/>
    </mask>
    <path d="M11 55.5V14.5C11 13.3954 11.8954 12.5 13 12.5H41C42.1046 12.5 43 13.3954 43 14.5V50.7979H38C36.8954 50.7979 36 51.6933 36 52.7979V57.5H13C11.8954 57.5 11 56.6046 11 55.5Z" fill="white"/>
    <path d="M43 50.7979H38C36.8954 50.7979 36 51.6933 36 52.7979V57.5L43 50.7979Z" fill="#FFF6D7"/>
    <path d="M35.5 57.5C35.5 57.7761 35.7239 58 36 58C36.2761 58 36.5 57.7761 36.5 57.5H35.5ZM43 51.2979C43.2761 51.2979 43.5 51.074 43.5 50.7979C43.5 50.5217 43.2761 50.2979 43 50.2979V51.2979ZM38 51.2979H43V50.2979H38V51.2979ZM36.5 52.7979C36.5 51.9694 37.1716 51.2979 38 51.2979V50.2979C36.6193 50.2979 35.5 51.4172 35.5 52.7979H36.5ZM36.5 57.5V52.7979H35.5V57.5H36.5ZM36 57.5V58.5C36.2577 58.5 36.5054 58.4005 36.6916 58.2223L36 57.5ZM43 50.7979L43.6916 51.5202C43.8886 51.3316 44 51.0706 44 50.7979H43ZM10 14.5V55.5H12V14.5H10ZM13 58.5H36V56.5H13V58.5ZM44 50.7979V14.5H42V50.7979H44ZM41 11.5H13V13.5H41V11.5ZM44 14.5C44 12.8431 42.6569 11.5 41 11.5V13.5C41.5523 13.5 42 13.9477 42 14.5H44ZM10 55.5C10 57.1569 11.3431 58.5 13 58.5V56.5C12.4477 56.5 12 56.0523 12 55.5H10ZM12 14.5C12 13.9477 12.4477 13.5 13 13.5V11.5C11.3431 11.5 10 12.8431 10 14.5H12ZM36.6916 58.2223L43.6916 51.5202L42.3084 50.0756L35.3084 56.7777L36.6916 58.2223Z" fill="black" mask="url(#path-3-inside-1_12448_17451)"/>
    <path d="M19.5 19.6201C19.5 19.344 19.7239 19.1201 20 19.1201H34C34.2761 19.1201 34.5 19.344 34.5 19.6201V21.4999C34.5 21.7761 34.2761 21.9999 34 21.9999H20C19.7239 21.9999 19.5 21.7761 19.5 21.4999V19.6201Z" fill="#ACC460" stroke="black"/>
    <rect x="15" y="26.6201" width="23" height="1" rx="0.5" fill="black"/>
    <rect x="15" y="30.6201" width="23" height="1" rx="0.5" fill="black"/>
    <rect x="15" y="34.6201" width="23" height="1" rx="0.5" fill="black"/>
    <rect x="15" y="38.6201" width="14" height="1" rx="0.5" fill="black"/>
    <path d="M16.4435 49.2267C16.4435 48.4881 16.3023 47.4909 16.8643 46.9055C17.3721 46.3765 18.3557 46.228 18.9316 46.7169C20.1492 47.7505 20.6697 49.549 21.2601 50.9749C21.378 51.2597 21.4827 51.6477 21.728 51.8562C22.0346 52.1169 22.2821 51.4351 22.3699 51.2687C22.9529 50.1641 23.5798 48.3811 24.8616 47.8775C25.6229 47.5784 25.8014 48.3129 26.3668 48.5956C26.7413 48.7829 27.9897 46.1406 28.3616 45.7993C29.1754 45.0522 29.5846 46.0108 30.1533 46.4848" stroke="black" stroke-linecap="round"/>
</svg>
