<svg width="81" height="81" viewBox="0 0 81 81" fill="none" xmlns="http://www.w3.org/2000/svg">
<path d="M53.4619 23.6241C53.4619 22.0167 54.0697 20.4752 55.1517 19.3386C56.2336 18.202 57.701 17.5635 59.2311 17.5635H70.7696C71.1521 17.5635 71.519 17.7231 71.7895 18.0073C72.06 18.2914 72.2119 18.6768 72.2119 19.0786V43.3211C72.2119 43.7229 72.06 44.1083 71.7895 44.3924C71.519 44.6766 71.1521 44.8362 70.7696 44.8362H59.2311C57.701 44.8362 56.2336 45.4747 55.1517 46.6113C54.0697 47.7479 53.4619 49.2894 53.4619 50.8968" stroke="#3B873E" stroke-width="1.55769" stroke-linecap="round" stroke-linejoin="round"/>
<path d="M34.7119 43.3211C34.7119 43.7229 34.8639 44.1083 35.1344 44.3924C35.4048 44.6766 35.7717 44.8362 36.1542 44.8362H47.6927C49.2228 44.8362 50.6902 45.4747 51.7721 46.6113C52.8541 47.7479 53.4619 49.2894 53.4619 50.8968V23.6241C53.4619 22.0167 52.8541 20.4752 51.7721 19.3386C50.6902 18.202 49.2228 17.5635 47.6927 17.5635H36.1542C35.7717 17.5635 35.4048 17.7231 35.1344 18.0073C34.8639 18.2914 34.7119 18.6768 34.7119 19.0786V43.3211Z" stroke="#3B873E" stroke-width="1.55769" stroke-linecap="round" stroke-linejoin="round"/>
<path d="M7.02393 34.3076C7.02393 33.4447 7.72348 32.7451 8.58643 32.7451H46.0864C46.9494 32.7451 47.6489 33.4447 47.6489 34.3076V59.3076C47.6489 60.1706 46.9494 60.8701 46.0864 60.8701H8.58643C7.72348 60.8701 7.02393 60.1706 7.02393 59.3076V34.3076Z" fill="#3B873E"/>
<path d="M8.58643 35.2005C8.58643 34.7074 8.968 34.3076 9.4387 34.3076H45.2342C45.7049 34.3076 46.0864 34.7074 46.0864 35.2005V58.4148C46.0864 58.9079 45.7049 59.3076 45.2342 59.3076H9.4387C8.968 59.3076 8.58643 58.9079 8.58643 58.4148V35.2005Z" fill="white"/>
<path d="M33.162 46.062C33.7279 46.3917 33.7279 47.2235 33.162 47.5532L23.9092 52.9432C23.3476 53.2703 22.6489 52.857 22.6489 52.1976L22.6489 41.4176C22.6489 40.7583 23.3476 40.3449 23.9092 40.672L33.162 46.062Z" fill="#3B873E"/>
</svg>
