<svg width="162" height="163" viewBox="0 0 162 163" fill="none" xmlns="http://www.w3.org/2000/svg">
<path d="M81 161.5C61.4567 161.5 42.5893 154.346 27.959 141.389C13.3287 128.431 3.94754 110.566 1.58613 91.1663L81 81.5V161.5Z" fill="#E075B2" stroke="white" stroke-width="2"/>
<path d="M150.282 41.5C158.193 55.2027 161.864 70.9436 160.829 86.7322C159.794 102.521 154.1 117.648 144.468 130.201C134.836 142.754 121.698 152.168 106.715 157.254C91.7324 162.34 75.5779 162.869 60.2945 158.774L81 81.5L150.282 41.5Z" fill="#57B8D9" stroke="white" stroke-width="2"/>
<path d="M150.62 42.0904C160.642 59.7959 163.542 80.655 158.73 100.423C153.917 120.191 141.754 137.383 124.714 148.5L81 81.5L150.62 42.0904Z" fill="#FA9B3C" stroke="white" stroke-width="2"/>
<path d="M81 1.5C99.4618 1.5 117.355 7.8853 131.646 19.5731C145.937 31.2609 155.746 47.5317 159.409 65.6264L81 81.5V1.5Z" fill="#AEDE49" stroke="white" stroke-width="2"/>
<path d="M7.10663 112.156C2.54763 101.167 0.49706 89.2989 1.10426 77.4171C1.71145 65.5353 4.96113 53.9385 10.6166 43.4713L81 81.5L7.10663 112.156Z" fill="#FFBCB0" stroke="white" stroke-width="2"/>
<path d="M1.84428 69.9081C3.58059 58.0516 7.95824 46.7366 14.6539 36.7988L81 81.5L1.84428 69.9081Z" fill="#E6413C" stroke="white" stroke-width="2"/>
<path d="M10.2773 44.1062C16.8147 31.7419 26.4794 21.3077 38.3075 13.8439L81 81.5L10.2773 44.1062Z" fill="#AFADD3" stroke="white" stroke-width="2"/>
<path d="M24.4315 24.9315C34.1387 15.2242 46.1805 8.17834 59.3987 4.47154L81 81.5L24.4315 24.9315Z" fill="#CAA9DE" stroke="white" stroke-width="2"/>
<path d="M43.5051 10.8308C50.2989 7.22627 57.5768 4.6202 65.1144 3.09306L81 81.5L43.5051 10.8308Z" fill="#506BB7" stroke="white" stroke-width="2"/>
<path d="M58.8892 4.61623C65.5432 2.70264 72.4174 1.66094 79.3396 1.51723L81 81.5L58.8892 4.61623Z" fill="#36397B" stroke="white" stroke-width="2"/>
<path d="M72.5179 1.95093C75.3365 1.65039 78.1691 1.49987 81.0037 1.5L81 81.5L72.5179 1.95093Z" fill="#DED9D7" stroke="white" stroke-width="2"/>
</svg>
