<svg width="355" height="338" viewBox="0 0 355 338" fill="none" xmlns="http://www.w3.org/2000/svg">
<rect x="4" y="2" width="343" height="35" rx="6" fill="#F5F5F5"/>
<g filter="url(#filter0_d_7007_174102)">
<rect x="8" y="6" width="83.75" height="27" rx="4" fill="#E6413C"/>
<path d="M39.26 14.755C39.74 14.695 40.13 14.665 40.64 14.665H41.42V23.23C41.42 23.935 41.39 24.445 41.3 25H42.965C42.875 24.415 42.845 23.95 42.845 23.23V15.85C42.845 15.025 42.89 14.26 42.98 13.36C42.47 13.42 42.215 13.435 41.645 13.435H40.58C39.98 13.435 39.68 13.42 39.26 13.36V14.755ZM50.3578 21.355H49.3228C48.6628 21.355 48.2128 21.325 47.7628 21.265V22.525C48.2428 22.465 48.6778 22.435 49.3228 22.435H54.6328V24.73C54.6328 25.45 54.6178 25.795 54.5428 26.2H55.9078C55.8328 25.795 55.8028 25.42 55.8028 24.745V22.435H59.4928C60.1228 22.435 60.5878 22.465 61.0528 22.525V21.265C60.6028 21.325 60.1678 21.355 59.4928 21.355H55.8028V18.565H58.4578C59.0578 18.565 59.4328 18.58 59.8228 18.625V17.455C59.4178 17.515 59.0728 17.53 58.4278 17.53H55.8028V15.22H59.1028C59.7478 15.22 60.0778 15.235 60.4978 15.295V14.11C60.1078 14.17 59.7628 14.185 59.1028 14.185H51.7978C51.8728 14.02 51.8728 14.02 51.9928 13.75C52.2328 13.225 52.2328 13.225 52.3228 13.045C52.4128 12.85 52.4428 12.79 52.5178 12.625L51.2578 12.31C51.1828 12.625 51.0778 12.955 50.8828 13.405C50.1928 15.025 49.3978 16.09 47.8978 17.365C48.2728 17.635 48.4378 17.815 48.7228 18.265C49.7428 17.365 50.4178 16.525 51.2128 15.22H54.6328V17.53H51.3778C50.9578 17.53 50.6278 17.515 50.3128 17.485C50.3428 17.77 50.3578 18.04 50.3578 18.37V21.355ZM51.5128 21.355V18.565H54.6328V21.355H51.5128Z" fill="white"/>
</g>
<rect x="91.75" y="6" width="83.75" height="27" rx="2" fill="#F5F5F5"/>
<path d="M121.285 22.42C121.555 23.2 121.735 23.545 122.08 23.95C122.815 24.79 123.985 25.225 125.575 25.225C127 25.225 128.155 24.835 128.905 24.1C129.46 23.56 129.775 22.765 129.775 21.94C129.775 21.07 129.535 20.41 129.055 19.885C128.545 19.33 127.96 19.075 126.925 18.94C127.645 18.79 127.96 18.67 128.335 18.4C129.01 17.92 129.385 17.11 129.385 16.195C129.385 14.365 127.93 13.18 125.68 13.18C124.36 13.18 123.31 13.555 122.605 14.275C122.185 14.71 121.99 15.07 121.72 15.88L123.22 16.195C123.37 15.67 123.475 15.43 123.685 15.175C124.09 14.65 124.705 14.395 125.605 14.395C127.06 14.395 127.915 15.1 127.915 16.27C127.915 16.84 127.705 17.35 127.345 17.71C126.88 18.16 126.19 18.37 125.23 18.37C124.795 18.37 124.405 18.34 124.045 18.295V19.675C124.495 19.615 124.87 19.585 125.32 19.585C127.255 19.585 128.275 20.335 128.275 21.775C128.275 23.14 127.225 23.995 125.56 23.995C124.795 23.995 124.165 23.815 123.655 23.44C123.22 23.125 123.025 22.825 122.8 22.075L121.285 22.42ZM134.108 21.355H133.073C132.413 21.355 131.963 21.325 131.513 21.265V22.525C131.993 22.465 132.428 22.435 133.073 22.435H138.383V24.73C138.383 25.45 138.368 25.795 138.293 26.2H139.658C139.583 25.795 139.553 25.42 139.553 24.745V22.435H143.243C143.873 22.435 144.338 22.465 144.803 22.525V21.265C144.353 21.325 143.918 21.355 143.243 21.355H139.553V18.565H142.208C142.808 18.565 143.183 18.58 143.573 18.625V17.455C143.168 17.515 142.823 17.53 142.178 17.53H139.553V15.22H142.853C143.498 15.22 143.828 15.235 144.248 15.295V14.11C143.858 14.17 143.513 14.185 142.853 14.185H135.548C135.623 14.02 135.623 14.02 135.743 13.75C135.983 13.225 135.983 13.225 136.073 13.045C136.163 12.85 136.193 12.79 136.268 12.625L135.008 12.31C134.933 12.625 134.828 12.955 134.633 13.405C133.943 15.025 133.148 16.09 131.648 17.365C132.023 17.635 132.188 17.815 132.473 18.265C133.493 17.365 134.168 16.525 134.963 15.22H138.383V17.53H135.128C134.708 17.53 134.378 17.515 134.063 17.485C134.093 17.77 134.108 18.04 134.108 18.37V21.355ZM135.263 21.355V18.565H138.383V21.355H135.263Z" fill="#898B8C"/>
<rect x="175.5" y="6" width="83.75" height="27" rx="2" fill="#F5F5F5"/>
<path d="M207.495 14.65H211.02C211.77 14.65 212.265 14.68 212.865 14.77V13.315C212.25 13.405 211.89 13.435 211.005 13.435H207.765C206.91 13.435 206.61 13.42 206.16 13.36C206.19 13.825 206.19 13.84 206.19 13.885C206.19 14.305 206.19 14.41 206.13 14.905L205.8 18.385C205.755 18.985 205.71 19.27 205.59 19.945L206.925 20.065C207.06 19.75 207.135 19.63 207.33 19.435C207.855 18.895 208.62 18.58 209.37 18.58C211.035 18.58 212.025 19.57 212.025 21.22C212.025 22.885 210.945 23.98 209.31 23.98C208.47 23.98 207.75 23.68 207.27 23.14C207.06 22.885 206.955 22.69 206.805 22.255L205.335 22.645C205.68 23.395 205.89 23.725 206.28 24.115C207.03 24.85 208.035 25.225 209.295 25.225C211.86 25.225 213.48 23.65 213.48 21.16C213.48 18.895 211.98 17.41 209.7 17.41C208.665 17.41 207.825 17.74 207.09 18.43C207.18 18.01 207.18 18.01 207.195 17.755L207.495 14.65ZM217.858 21.355H216.823C216.163 21.355 215.713 21.325 215.263 21.265V22.525C215.743 22.465 216.178 22.435 216.823 22.435H222.133V24.73C222.133 25.45 222.118 25.795 222.043 26.2H223.408C223.333 25.795 223.303 25.42 223.303 24.745V22.435H226.993C227.623 22.435 228.088 22.465 228.553 22.525V21.265C228.103 21.325 227.668 21.355 226.993 21.355H223.303V18.565H225.958C226.558 18.565 226.933 18.58 227.323 18.625V17.455C226.918 17.515 226.573 17.53 225.928 17.53H223.303V15.22H226.603C227.248 15.22 227.578 15.235 227.998 15.295V14.11C227.608 14.17 227.263 14.185 226.603 14.185H219.298C219.373 14.02 219.373 14.02 219.493 13.75C219.733 13.225 219.733 13.225 219.823 13.045C219.913 12.85 219.943 12.79 220.018 12.625L218.758 12.31C218.683 12.625 218.578 12.955 218.383 13.405C217.693 15.025 216.898 16.09 215.398 17.365C215.773 17.635 215.938 17.815 216.223 18.265C217.243 17.365 217.918 16.525 218.713 15.22H222.133V17.53H218.878C218.458 17.53 218.128 17.515 217.813 17.485C217.843 17.77 217.858 18.04 217.858 18.37V21.355ZM219.013 21.355V18.565H222.133V21.355H219.013Z" fill="#898B8C"/>
<rect x="259.25" y="6" width="83.75" height="27" rx="2" fill="#F5F5F5"/>
<path d="M285.51 14.755C285.99 14.695 286.38 14.665 286.89 14.665H287.67V23.23C287.67 23.935 287.64 24.445 287.55 25H289.215C289.125 24.415 289.095 23.95 289.095 23.23V15.85C289.095 15.025 289.14 14.26 289.23 13.36C288.72 13.42 288.465 13.435 287.895 13.435H286.83C286.23 13.435 285.93 13.42 285.51 13.36V14.755ZM298.243 25.21C299.683 25.21 300.793 24.67 301.573 23.59C302.233 22.66 302.638 21.025 302.638 19.225C302.638 17.965 302.443 16.795 302.053 15.745C301.873 15.25 301.558 14.755 301.138 14.335C300.433 13.615 299.428 13.225 298.273 13.225C296.728 13.225 295.528 13.885 294.778 15.145C294.238 16.015 293.893 17.635 293.893 19.24C293.893 20.455 294.088 21.64 294.478 22.69C294.658 23.2 294.973 23.68 295.393 24.1C296.128 24.835 297.088 25.21 298.243 25.21ZM298.243 14.455C299.293 14.455 300.058 14.905 300.538 15.805C300.913 16.495 301.183 17.935 301.183 19.21C301.183 20.26 301.048 21.205 300.748 22.105C300.613 22.555 300.358 22.96 300.043 23.29C299.608 23.74 298.978 23.98 298.258 23.98C297.283 23.98 296.533 23.56 296.023 22.72C295.618 22.045 295.333 20.605 295.333 19.255C295.333 18.19 295.483 17.2 295.768 16.33C295.888 15.94 296.113 15.565 296.428 15.22C296.893 14.695 297.478 14.455 298.243 14.455ZM306.701 21.355H305.666C305.006 21.355 304.556 21.325 304.106 21.265V22.525C304.586 22.465 305.021 22.435 305.666 22.435H310.976V24.73C310.976 25.45 310.961 25.795 310.886 26.2H312.251C312.176 25.795 312.146 25.42 312.146 24.745V22.435H315.836C316.466 22.435 316.931 22.465 317.396 22.525V21.265C316.946 21.325 316.511 21.355 315.836 21.355H312.146V18.565H314.801C315.401 18.565 315.776 18.58 316.166 18.625V17.455C315.761 17.515 315.416 17.53 314.771 17.53H312.146V15.22H315.446C316.091 15.22 316.421 15.235 316.841 15.295V14.11C316.451 14.17 316.106 14.185 315.446 14.185H308.141C308.216 14.02 308.216 14.02 308.336 13.75C308.576 13.225 308.576 13.225 308.666 13.045C308.756 12.85 308.786 12.79 308.861 12.625L307.601 12.31C307.526 12.625 307.421 12.955 307.226 13.405C306.536 15.025 305.741 16.09 304.241 17.365C304.616 17.635 304.781 17.815 305.066 18.265C306.086 17.365 306.761 16.525 307.556 15.22H310.976V17.53H307.721C307.301 17.53 306.971 17.515 306.656 17.485C306.686 17.77 306.701 18.04 306.701 18.37V21.355ZM307.856 21.355V18.565H310.976V21.355H307.856Z" fill="#898B8C"/>
<path d="M10.253 64C10.955 64 11.397 64.013 11.956 64.065V62.804C11.501 62.869 10.968 62.895 10.279 62.895H6.262C6.6 61.738 7.263 60.997 8.979 59.853C10.461 58.865 10.786 58.605 11.202 58.085C11.592 57.617 11.813 57.006 11.813 56.395C11.813 54.809 10.5 53.782 8.472 53.782C7.276 53.782 6.353 54.133 5.742 54.822C5.3 55.329 5.079 55.823 4.897 56.759L6.21 56.954C6.314 56.317 6.418 56.005 6.652 55.667C7.029 55.121 7.64 54.848 8.485 54.848C9.72 54.848 10.513 55.446 10.513 56.395C10.513 57.175 10.084 57.734 8.849 58.566C7.562 59.437 7.25 59.658 6.821 60.035C5.989 60.763 5.443 61.504 5.105 62.362C4.91 62.856 4.871 63.064 4.741 64.052C5.17 64.013 5.378 64 6.249 64H10.253ZM17.1021 64.182C18.3501 64.182 19.3121 63.714 19.9881 62.778C20.5601 61.972 20.9111 60.555 20.9111 58.995C20.9111 57.903 20.7421 56.889 20.4041 55.979C20.2481 55.55 19.9751 55.121 19.6111 54.757C19.0001 54.133 18.1291 53.795 17.1281 53.795C15.7891 53.795 14.7491 54.367 14.0991 55.459C13.6311 56.213 13.3321 57.617 13.3321 59.008C13.3321 60.061 13.5011 61.088 13.8391 61.998C13.9951 62.44 14.2681 62.856 14.6321 63.22C15.2691 63.857 16.1011 64.182 17.1021 64.182ZM17.1021 54.861C18.0121 54.861 18.6751 55.251 19.0911 56.031C19.4161 56.629 19.6501 57.877 19.6501 58.982C19.6501 59.892 19.5331 60.711 19.2731 61.491C19.1561 61.881 18.9351 62.232 18.6621 62.518C18.2851 62.908 17.7391 63.116 17.1151 63.116C16.2701 63.116 15.6201 62.752 15.1781 62.024C14.8271 61.439 14.5801 60.191 14.5801 59.021C14.5801 58.098 14.7101 57.24 14.9571 56.486C15.0611 56.148 15.2561 55.823 15.5291 55.524C15.9321 55.069 16.4391 54.861 17.1021 54.861ZM27.7471 64C28.4491 64 28.8911 64.013 29.4501 64.065V62.804C28.9951 62.869 28.4621 62.895 27.7731 62.895H23.7561C24.0941 61.738 24.7571 60.997 26.4731 59.853C27.9551 58.865 28.2801 58.605 28.6961 58.085C29.0861 57.617 29.3071 57.006 29.3071 56.395C29.3071 54.809 27.9941 53.782 25.9661 53.782C24.7701 53.782 23.8471 54.133 23.2361 54.822C22.7941 55.329 22.5731 55.823 22.3911 56.759L23.7041 56.954C23.8081 56.317 23.9121 56.005 24.1461 55.667C24.5231 55.121 25.1341 54.848 25.9791 54.848C27.2141 54.848 28.0071 55.446 28.0071 56.395C28.0071 57.175 27.5781 57.734 26.3431 58.566C25.0561 59.437 24.7441 59.658 24.3151 60.035C23.4831 60.763 22.9371 61.504 22.5991 62.362C22.4041 62.856 22.3651 63.064 22.2351 64.052C22.6641 64.013 22.8721 64 23.7431 64H27.7471ZM32.3082 55.121C32.7242 55.069 33.0622 55.043 33.5042 55.043H34.1802V62.466C34.1802 63.077 34.1542 63.519 34.0762 64H35.5192C35.4412 63.493 35.4152 63.09 35.4152 62.466V56.07C35.4152 55.355 35.4542 54.692 35.5322 53.912C35.0902 53.964 34.8692 53.977 34.3752 53.977H33.4522C32.9322 53.977 32.6722 53.964 32.3082 53.912V55.121ZM41.9263 60.841H41.0293C40.4573 60.841 40.0673 60.815 39.6773 60.763V61.855C40.0933 61.803 40.4703 61.777 41.0293 61.777H45.6313V63.766C45.6313 64.39 45.6183 64.689 45.5533 65.04H46.7363C46.6713 64.689 46.6453 64.364 46.6453 63.779V61.777H49.8433C50.3893 61.777 50.7923 61.803 51.1953 61.855V60.763C50.8053 60.815 50.4283 60.841 49.8433 60.841H46.6453V58.423H48.9463C49.4663 58.423 49.7913 58.436 50.1293 58.475V57.461C49.7783 57.513 49.4793 57.526 48.9203 57.526H46.6453V55.524H49.5053C50.0643 55.524 50.3503 55.537 50.7143 55.589V54.562C50.3763 54.614 50.0773 54.627 49.5053 54.627H43.1743C43.2393 54.484 43.2393 54.484 43.3433 54.25C43.5513 53.795 43.5513 53.795 43.6293 53.639C43.7073 53.47 43.7333 53.418 43.7983 53.275L42.7063 53.002C42.6413 53.275 42.5503 53.561 42.3813 53.951C41.7833 55.355 41.0943 56.278 39.7943 57.383C40.1193 57.617 40.2623 57.773 40.5093 58.163C41.3933 57.383 41.9783 56.655 42.6673 55.524H45.6313V57.526H42.8103C42.4463 57.526 42.1603 57.513 41.8873 57.487C41.9133 57.734 41.9263 57.968 41.9263 58.254V60.841ZM42.9273 60.841V58.423H45.6313V60.841H42.9273ZM54.0553 55.121C54.4713 55.069 54.8093 55.043 55.2513 55.043H55.9273V62.466C55.9273 63.077 55.9013 63.519 55.8233 64H57.2663C57.1883 63.493 57.1623 63.09 57.1623 62.466V56.07C57.1623 55.355 57.2013 54.692 57.2793 53.912C56.8373 53.964 56.6163 53.977 56.1223 53.977H55.1993C54.6793 53.977 54.4193 53.964 54.0553 53.912V55.121ZM70.3424 60.724V63.415C70.3424 63.727 70.2514 63.792 69.8094 63.792C69.2504 63.792 68.6524 63.753 67.9894 63.649C68.1324 64.052 68.1974 64.286 68.2494 64.702C68.8994 64.741 69.3024 64.754 69.6794 64.754C70.4204 64.754 70.7194 64.702 70.9664 64.559C71.2394 64.377 71.3564 64.078 71.3564 63.519V55.043C71.3564 54.328 71.3694 54.042 71.4084 53.665C70.9664 53.717 70.6284 53.73 70.0174 53.73H64.9734C64.4014 53.73 64.0504 53.717 63.5694 53.665C63.6214 54.133 63.6344 54.705 63.6344 55.823C63.6344 58.839 63.4914 60.399 63.1274 61.634C62.8154 62.674 62.4124 63.324 61.6194 64.104C61.9964 64.377 62.2174 64.598 62.4644 64.936C63.1924 64.117 63.5824 63.493 63.9204 62.596C64.1414 62.024 64.2974 61.426 64.4144 60.724H70.3424ZM64.5314 59.775C64.6094 58.761 64.6484 58.163 64.6484 57.63H70.3424V59.775H64.5314ZM64.6614 56.681V54.679H70.3424V56.681H64.6614ZM74.0994 61.543C74.5544 61.504 74.9314 61.491 75.6724 61.491H79.1954V62.557C79.1954 63.168 79.1694 63.558 79.0784 64H80.4564C80.3784 63.532 80.3524 63.207 80.3524 62.57V61.491H80.8334C81.3794 61.491 81.6784 61.517 82.1724 61.582V60.347C81.6914 60.412 81.3534 60.438 80.8334 60.438H80.3524V56.174C80.3524 55.147 80.3654 54.77 80.4304 53.977H79.2214C78.9354 54.445 78.7014 54.757 78.2334 55.329L74.9964 59.333C74.6844 59.736 74.3984 60.061 74.0994 60.399V61.543ZM79.1954 60.451H75.4774L78.3244 56.863C78.7404 56.356 79.0004 56.005 79.2604 55.615C79.2084 56.252 79.1954 56.642 79.1954 57.331V60.451ZM84.7048 63.389C84.7048 63.974 84.6788 64.429 84.6268 64.832H85.7578V64H92.2578V64.832H93.3888C93.3368 64.403 93.3108 64.026 93.3108 63.376V55.043C93.3108 54.549 93.3238 54.198 93.3758 53.808C92.9988 53.86 92.6218 53.873 92.0108 53.873H86.0568C85.4588 53.873 85.0558 53.86 84.6398 53.808C84.6788 54.198 84.7048 54.614 84.7048 55.121V63.389ZM85.7578 54.835H92.2578V58.293H85.7578V54.835ZM85.7578 59.255H92.2578V63.038H85.7578V59.255ZM96.8858 59.736C97.7568 58.826 98.3808 58.501 99.2648 58.501C100.045 58.501 100.526 58.696 101.579 59.45C102.463 60.087 102.853 60.308 103.373 60.477C103.776 60.62 104.192 60.685 104.582 60.685C105.206 60.685 105.856 60.516 106.35 60.23C106.883 59.918 107.247 59.593 107.871 58.839L107.104 58.124C106.584 58.8 106.22 59.112 105.661 59.372C105.31 59.528 104.998 59.593 104.647 59.593C103.932 59.593 103.243 59.307 102.19 58.566C101.397 58.007 101.332 57.968 100.981 57.799C100.461 57.539 99.9278 57.422 99.3428 57.422C98.6538 57.422 98.0818 57.578 97.4318 57.968C96.9248 58.267 96.6518 58.488 96.1318 59.047L96.8858 59.736ZM114.761 64C115.463 64 115.905 64.013 116.464 64.065V62.804C116.009 62.869 115.476 62.895 114.787 62.895H110.77C111.108 61.738 111.771 60.997 113.487 59.853C114.969 58.865 115.294 58.605 115.71 58.085C116.1 57.617 116.321 57.006 116.321 56.395C116.321 54.809 115.008 53.782 112.98 53.782C111.784 53.782 110.861 54.133 110.25 54.822C109.808 55.329 109.587 55.823 109.405 56.759L110.718 56.954C110.822 56.317 110.926 56.005 111.16 55.667C111.537 55.121 112.148 54.848 112.993 54.848C114.228 54.848 115.021 55.446 115.021 56.395C115.021 57.175 114.592 57.734 113.357 58.566C112.07 59.437 111.758 59.658 111.329 60.035C110.497 60.763 109.951 61.504 109.613 62.362C109.418 62.856 109.379 63.064 109.249 64.052C109.678 64.013 109.886 64 110.757 64H114.761ZM121.61 64.182C122.858 64.182 123.82 63.714 124.496 62.778C125.068 61.972 125.419 60.555 125.419 58.995C125.419 57.903 125.25 56.889 124.912 55.979C124.756 55.55 124.483 55.121 124.119 54.757C123.508 54.133 122.637 53.795 121.636 53.795C120.297 53.795 119.257 54.367 118.607 55.459C118.139 56.213 117.84 57.617 117.84 59.008C117.84 60.061 118.009 61.088 118.347 61.998C118.503 62.44 118.776 62.856 119.14 63.22C119.777 63.857 120.609 64.182 121.61 64.182ZM121.61 54.861C122.52 54.861 123.183 55.251 123.599 56.031C123.924 56.629 124.158 57.877 124.158 58.982C124.158 59.892 124.041 60.711 123.781 61.491C123.664 61.881 123.443 62.232 123.17 62.518C122.793 62.908 122.247 63.116 121.623 63.116C120.778 63.116 120.128 62.752 119.686 62.024C119.335 61.439 119.088 60.191 119.088 59.021C119.088 58.098 119.218 57.24 119.465 56.486C119.569 56.148 119.764 55.823 120.037 55.524C120.44 55.069 120.947 54.861 121.61 54.861ZM132.255 64C132.957 64 133.399 64.013 133.958 64.065V62.804C133.503 62.869 132.97 62.895 132.281 62.895H128.264C128.602 61.738 129.265 60.997 130.981 59.853C132.463 58.865 132.788 58.605 133.204 58.085C133.594 57.617 133.815 57.006 133.815 56.395C133.815 54.809 132.502 53.782 130.474 53.782C129.278 53.782 128.355 54.133 127.744 54.822C127.302 55.329 127.081 55.823 126.899 56.759L128.212 56.954C128.316 56.317 128.42 56.005 128.654 55.667C129.031 55.121 129.642 54.848 130.487 54.848C131.722 54.848 132.515 55.446 132.515 56.395C132.515 57.175 132.086 57.734 130.851 58.566C129.564 59.437 129.252 59.658 128.823 60.035C127.991 60.763 127.445 61.504 127.107 62.362C126.912 62.856 126.873 63.064 126.743 64.052C127.172 64.013 127.38 64 128.251 64H132.255ZM141.002 64C141.704 64 142.146 64.013 142.705 64.065V62.804C142.25 62.869 141.717 62.895 141.028 62.895H137.011C137.349 61.738 138.012 60.997 139.728 59.853C141.21 58.865 141.535 58.605 141.951 58.085C142.341 57.617 142.562 57.006 142.562 56.395C142.562 54.809 141.249 53.782 139.221 53.782C138.025 53.782 137.102 54.133 136.491 54.822C136.049 55.329 135.828 55.823 135.646 56.759L136.959 56.954C137.063 56.317 137.167 56.005 137.401 55.667C137.778 55.121 138.389 54.848 139.234 54.848C140.469 54.848 141.262 55.446 141.262 56.395C141.262 57.175 140.833 57.734 139.598 58.566C138.311 59.437 137.999 59.658 137.57 60.035C136.738 60.763 136.192 61.504 135.854 62.362C135.659 62.856 135.62 63.064 135.49 64.052C135.919 64.013 136.127 64 136.998 64H141.002ZM146.434 60.841H145.537C144.965 60.841 144.575 60.815 144.185 60.763V61.855C144.601 61.803 144.978 61.777 145.537 61.777H150.139V63.766C150.139 64.39 150.126 64.689 150.061 65.04H151.244C151.179 64.689 151.153 64.364 151.153 63.779V61.777H154.351C154.897 61.777 155.3 61.803 155.703 61.855V60.763C155.313 60.815 154.936 60.841 154.351 60.841H151.153V58.423H153.454C153.974 58.423 154.299 58.436 154.637 58.475V57.461C154.286 57.513 153.987 57.526 153.428 57.526H151.153V55.524H154.013C154.572 55.524 154.858 55.537 155.222 55.589V54.562C154.884 54.614 154.585 54.627 154.013 54.627H147.682C147.747 54.484 147.747 54.484 147.851 54.25C148.059 53.795 148.059 53.795 148.137 53.639C148.215 53.47 148.241 53.418 148.306 53.275L147.214 53.002C147.149 53.275 147.058 53.561 146.889 53.951C146.291 55.355 145.602 56.278 144.302 57.383C144.627 57.617 144.77 57.773 145.017 58.163C145.901 57.383 146.486 56.655 147.175 55.524H150.139V57.526H147.318C146.954 57.526 146.668 57.513 146.395 57.487C146.421 57.734 146.434 57.968 146.434 58.254V60.841ZM147.435 60.841V58.423H150.139V60.841H147.435ZM158.563 55.121C158.979 55.069 159.317 55.043 159.759 55.043H160.435V62.466C160.435 63.077 160.409 63.519 160.331 64H161.774C161.696 63.493 161.67 63.09 161.67 62.466V56.07C161.67 55.355 161.709 54.692 161.787 53.912C161.345 53.964 161.124 53.977 160.63 53.977H159.707C159.187 53.977 158.927 53.964 158.563 53.912V55.121ZM171.496 64C172.198 64 172.64 64.013 173.199 64.065V62.804C172.744 62.869 172.211 62.895 171.522 62.895H167.505C167.843 61.738 168.506 60.997 170.222 59.853C171.704 58.865 172.029 58.605 172.445 58.085C172.835 57.617 173.056 57.006 173.056 56.395C173.056 54.809 171.743 53.782 169.715 53.782C168.519 53.782 167.596 54.133 166.985 54.822C166.543 55.329 166.322 55.823 166.14 56.759L167.453 56.954C167.557 56.317 167.661 56.005 167.895 55.667C168.272 55.121 168.883 54.848 169.728 54.848C170.963 54.848 171.756 55.446 171.756 56.395C171.756 57.175 171.327 57.734 170.092 58.566C168.805 59.437 168.493 59.658 168.064 60.035C167.232 60.763 166.686 61.504 166.348 62.362C166.153 62.856 166.114 63.064 165.984 64.052C166.413 64.013 166.621 64 167.492 64H171.496ZM183.597 60.724V63.415C183.597 63.727 183.506 63.792 183.064 63.792C182.505 63.792 181.907 63.753 181.244 63.649C181.387 64.052 181.452 64.286 181.504 64.702C182.154 64.741 182.557 64.754 182.934 64.754C183.675 64.754 183.974 64.702 184.221 64.559C184.494 64.377 184.611 64.078 184.611 63.519V55.043C184.611 54.328 184.624 54.042 184.663 53.665C184.221 53.717 183.883 53.73 183.272 53.73H178.228C177.656 53.73 177.305 53.717 176.824 53.665C176.876 54.133 176.889 54.705 176.889 55.823C176.889 58.839 176.746 60.399 176.382 61.634C176.07 62.674 175.667 63.324 174.874 64.104C175.251 64.377 175.472 64.598 175.719 64.936C176.447 64.117 176.837 63.493 177.175 62.596C177.396 62.024 177.552 61.426 177.669 60.724H183.597ZM177.786 59.775C177.864 58.761 177.903 58.163 177.903 57.63H183.597V59.775H177.786ZM177.916 56.681V54.679H183.597V56.681H177.916ZM187.354 61.543C187.809 61.504 188.186 61.491 188.927 61.491H192.45V62.557C192.45 63.168 192.424 63.558 192.333 64H193.711C193.633 63.532 193.607 63.207 193.607 62.57V61.491H194.088C194.634 61.491 194.933 61.517 195.427 61.582V60.347C194.946 60.412 194.608 60.438 194.088 60.438H193.607V56.174C193.607 55.147 193.62 54.77 193.685 53.977H192.476C192.19 54.445 191.956 54.757 191.488 55.329L188.251 59.333C187.939 59.736 187.653 60.061 187.354 60.399V61.543ZM192.45 60.451H188.732L191.579 56.863C191.995 56.356 192.255 56.005 192.515 55.615C192.463 56.252 192.45 56.642 192.45 57.331V60.451ZM197.96 63.389C197.96 63.974 197.934 64.429 197.882 64.832H199.013V64H205.513V64.832H206.644C206.592 64.403 206.566 64.026 206.566 63.376V55.043C206.566 54.549 206.579 54.198 206.631 53.808C206.254 53.86 205.877 53.873 205.266 53.873H199.312C198.714 53.873 198.311 53.86 197.895 53.808C197.934 54.198 197.96 54.614 197.96 55.121V63.389ZM199.013 54.835H205.513V58.293H199.013V54.835ZM199.013 59.255H205.513V63.038H199.013V59.255Z" fill="#525252"/>
<rect width="9.80568" height="9.80568" transform="translate(5.4707 92.5972)" fill="#69A6DF"/>
<path d="M29.2649 93.91V94.81H27.0749C26.5499 94.81 26.2649 94.795 25.9049 94.75C25.9499 95.125 25.9649 95.26 25.9649 95.785V98.2C25.9649 98.71 25.9499 98.875 25.9049 99.22C26.2649 99.175 26.5799 99.16 27.0749 99.16H29.2649V100.105H26.3849C25.9049 100.105 25.5599 100.09 25.1699 100.03V101.08C25.5449 101.02 25.8749 101.005 26.3999 101.005H29.2649V101.14C29.2649 101.575 29.2199 102.1 29.1749 102.385H30.3449C30.2999 102.07 30.2699 101.545 30.2699 101.125V101.005H33.3899C33.9749 101.005 34.2599 101.02 34.6799 101.08V100.03C34.3049 100.09 34.0199 100.105 33.4199 100.105H30.2699V99.16H32.6999C33.1649 99.16 33.4799 99.175 33.8849 99.22C33.8399 98.86 33.8399 98.65 33.8399 98.2V95.785C33.8399 95.35 33.8399 95.11 33.8849 94.75C33.5399 94.795 33.2549 94.81 32.7149 94.81H30.2699V93.91H32.4899C33.0299 93.91 33.2549 93.925 33.6299 93.985V93.595H34.7399C34.6949 93.31 34.6799 93.055 34.6799 92.635V91.945C34.6799 91.54 34.6949 91.3 34.7399 91.015C34.2899 91.06 33.9149 91.075 33.3299 91.075H26.4749C25.8749 91.075 25.4999 91.06 25.0799 91.015C25.1099 91.27 25.1399 91.6 25.1399 91.96V92.665C25.1399 93.04 25.1099 93.28 25.0649 93.595H26.1749V93.985C26.5049 93.925 26.8349 93.91 27.3299 93.91H29.2649ZM27.2999 93.04C26.8049 93.04 26.4899 93.025 26.1899 92.965V91.99H33.5999V92.98C33.2999 93.025 33.0899 93.04 32.5649 93.04H30.2699C30.2699 92.77 30.2849 92.59 30.3449 92.35H29.1899C29.2349 92.56 29.2499 92.74 29.2499 93.04H27.2999ZM29.2649 95.62V96.58H26.9849V95.62H29.2649ZM30.2699 95.62H32.8049V96.58H30.2699V95.62ZM29.2649 97.375V98.335H26.9849V97.375H29.2649ZM30.2699 97.375H32.8049V98.335H30.2699V97.375ZM21.5999 91.525C22.5149 92.425 23.0249 93.07 23.7899 94.33L24.6599 93.46C23.9099 92.365 23.5049 91.87 22.4699 90.775L21.5999 91.525ZM21.4049 97.57C21.7799 97.51 22.0049 97.495 22.4699 97.495H23.3849V101.005C22.4999 101.83 21.7049 102.415 21.0599 102.7L21.6299 103.9C21.9149 103.645 21.9599 103.6 22.2149 103.405C22.8299 102.955 23.2499 102.595 23.8949 101.95C24.4649 102.775 25.1249 103.27 25.9949 103.54C26.7299 103.75 27.7049 103.825 30.1799 103.825C31.6349 103.825 32.9099 103.795 34.8599 103.72C34.9349 103.285 35.0099 103.045 35.2349 102.505C33.7949 102.7 32.0549 102.775 29.0999 102.775C27.2999 102.775 26.4299 102.655 25.7099 102.325C25.1099 102.055 24.8399 101.785 24.4949 101.095V98.005C24.4949 97.21 24.4949 96.895 24.5549 96.4C24.1799 96.46 23.8649 96.475 23.4149 96.475H22.5599C22.0049 96.475 21.7649 96.46 21.4049 96.4V97.57ZM43.8299 99.235H48.0149V102.415C48.0149 102.775 47.8949 102.85 47.2049 102.85C46.6949 102.85 45.9899 102.79 45.1649 102.685C45.3299 103.15 45.3899 103.42 45.4349 103.825C46.0199 103.87 46.7099 103.9 47.1899 103.9C48.7799 103.9 49.1399 103.66 49.1399 102.625V92.62C49.1399 91.9 49.1549 91.54 49.1999 91.09C48.7499 91.135 48.3449 91.15 47.5649 91.15H39.4049C38.6249 91.15 38.1899 91.135 37.7399 91.09C37.7849 91.63 37.7999 92.08 37.7999 92.875C37.7999 99.85 37.5449 101.455 36.1649 103.315C36.6449 103.615 36.7949 103.72 37.1999 104.11C38.1899 102.55 38.5649 101.38 38.7749 99.235H42.7199V101.98C42.7199 102.79 42.7049 103.21 42.6449 103.645H43.9049C43.8449 103.255 43.8299 102.775 43.8299 101.965V99.235ZM43.8299 94.66V92.23H48.0149V94.66H43.8299ZM42.7199 94.66H38.9249L38.9399 93.955V92.23H42.7199V94.66ZM43.8299 95.71H48.0149V98.17H43.8299V95.71ZM42.7199 95.71V98.17H38.8499C38.8799 97.495 38.8799 97.495 38.8949 96.685C38.8949 96.475 38.8949 96.13 38.9099 95.71H42.7199ZM54.5999 94.54H53.0849C52.3799 94.54 52.0199 94.525 51.6599 94.45V95.65C52.0799 95.59 52.4849 95.56 53.0699 95.56H54.3749C54.1349 96.28 53.6699 97.225 53.2199 98.005C52.6349 98.965 52.1249 99.61 51.3149 100.375C51.5699 100.675 51.7649 100.96 51.9899 101.44C53.2649 100.06 53.9549 98.92 54.6749 97.015C54.6149 97.81 54.5849 98.56 54.5849 99.4V102.25C54.5849 103.075 54.5549 103.57 54.4799 104.11H55.7849C55.7249 103.645 55.6949 103.18 55.6949 102.25V99.265C55.6949 98.335 55.6649 97.465 55.6049 96.865C56.1599 98.035 56.5799 98.62 57.6299 99.73C57.8099 99.34 57.9899 99.07 58.2599 98.74C56.9399 97.585 56.2799 96.745 55.7399 95.56H57.0599C57.6449 95.56 57.9749 95.575 58.3649 95.635V94.465C57.9749 94.525 57.6149 94.54 57.0749 94.54H55.6949V92.305C56.4449 92.095 56.8799 91.96 57.5549 91.72C58.0499 91.54 58.0499 91.54 58.2149 91.48L57.4499 90.52C57.1799 90.7 56.9249 90.82 56.2949 91.03C54.5999 91.585 53.5049 91.84 51.6899 92.065C51.9449 92.44 52.0499 92.68 52.1699 93.085C53.2349 92.905 53.6099 92.83 54.5999 92.59V94.54ZM59.3399 91.48C59.4149 91.975 59.4299 92.365 59.4299 93.235V98.995C59.4299 100 59.4149 100.315 59.3549 100.735H60.6449C60.5849 100.3 60.5699 99.985 60.5699 98.98V93.235C60.5699 92.35 60.5849 91.945 60.6599 91.48H59.3399ZM62.9849 90.625C63.0449 91.165 63.0749 91.735 63.0749 92.56V102.265C63.0749 102.64 62.9549 102.715 62.3549 102.715C61.9049 102.715 61.3199 102.685 60.8099 102.625C60.7199 102.61 60.5849 102.595 60.3899 102.565C60.5849 103.03 60.6749 103.285 60.7499 103.75C61.4249 103.795 61.8599 103.81 62.1449 103.81C63.7949 103.81 64.2299 103.51 64.2299 102.355V92.56C64.2299 91.72 64.2599 91.165 64.3349 90.625H62.9849ZM71.7449 94.435C71.0249 94.435 70.6199 94.42 70.2149 94.375C70.2599 94.75 70.2749 95.065 70.2749 95.545V98.92C70.2749 99.385 70.2599 99.685 70.2149 100.075C70.6499 100.03 70.9199 100.015 71.7449 100.015H74.5499C75.2249 100.015 75.6449 100.03 76.0799 100.075C76.0349 99.715 76.0199 99.445 76.0199 98.92V95.545C76.0199 95.02 76.0349 94.69 76.0799 94.375C75.6599 94.42 75.2699 94.435 74.5499 94.435H71.7449ZM71.3849 95.425H74.9099V99.01H71.3849V95.425ZM79.4399 104.17C79.3799 103.78 79.3499 103.18 79.3499 102.34V92.98C79.3499 92.215 79.3799 91.72 79.4399 91.15C78.8999 91.21 78.4049 91.225 77.6549 91.225H68.6849C67.9499 91.225 67.4549 91.21 66.9299 91.15C66.9899 91.735 67.0199 92.245 67.0199 92.98V102.325C67.0199 103.195 66.9899 103.72 66.9299 104.17H68.1899V103.3H78.1799V104.17H79.4399ZM68.1899 92.275H78.1799V102.25H68.1899V92.275ZM85.0649 96.055C85.1099 95.53 85.1399 95.2 85.2749 94.255C85.6499 91.63 85.6949 91.42 85.8749 90.895L84.4949 90.79C84.4949 90.97 84.4949 91.045 84.4649 91.27C84.0749 94.03 83.9699 95.305 83.9699 96.82C83.9699 97 83.9999 98.605 83.9999 98.755C84.0149 98.905 84.0149 98.995 84.0149 99.04C84.0149 99.07 84.0149 99.13 83.9999 99.205L85.2899 99.175C85.2899 98.98 85.2899 98.89 85.2899 98.815C85.2899 97.69 85.5599 96.565 86.1149 95.47C86.9399 93.805 87.8999 92.965 88.9649 92.965C90.3749 92.965 91.1849 94.3 91.1849 96.64C91.1849 99.01 90.3749 100.54 88.6199 101.515C87.7199 102.01 86.9399 102.235 85.4999 102.43C85.8449 102.88 85.9499 103.06 86.1749 103.66C87.2699 103.435 88.1849 103.135 88.9199 102.79C91.2599 101.665 92.5049 99.58 92.5049 96.82C92.5049 95.155 92.2199 94.03 91.5599 93.07C90.9449 92.185 90.1049 91.735 89.0849 91.735C87.9449 91.735 86.9549 92.35 86.1299 93.55C85.7099 94.18 85.4249 94.84 85.2299 95.65C85.1549 95.95 85.1549 95.95 85.1249 96.055H85.0649ZM100.815 104.755C99.9599 103.465 99.6149 102.79 99.2849 101.74C98.9549 100.69 98.7899 99.55 98.7899 98.365C98.7899 97.18 98.9549 96.055 99.2849 95.005C99.6149 93.955 99.9599 93.28 100.815 91.99L99.6899 91.24C98.8349 92.545 98.4749 93.22 98.0999 94.3C97.6349 95.605 97.4099 96.955 97.4099 98.365C97.4099 99.775 97.6349 101.14 98.0999 102.43C98.4749 103.51 98.8349 104.2 99.6899 105.49L100.815 104.755ZM110.012 92.665C109.982 95.035 109.862 96.28 109.502 97.69C108.917 100.03 107.942 101.62 106.217 103.015C106.607 103.33 106.847 103.57 107.102 103.945C107.792 103.3 108.152 102.925 108.572 102.355C109.532 101.08 110.147 99.79 110.552 98.14C110.957 96.55 111.122 95.095 111.167 92.665H113.762C113.747 96.415 113.597 99.415 113.342 101.155C113.162 102.49 113.057 102.625 112.307 102.625C111.812 102.625 111.047 102.55 110.267 102.43C110.432 102.865 110.477 103.075 110.537 103.645C111.437 103.72 111.767 103.735 112.352 103.735C112.907 103.735 113.207 103.705 113.477 103.6C113.927 103.42 114.197 103.06 114.347 102.415C114.647 101.095 114.857 97.96 114.932 93.4C114.947 92.08 114.947 92.08 115.007 91.57C114.722 91.615 114.197 91.645 113.552 91.645H109.322C108.587 91.645 108.032 91.615 107.597 91.555V92.755C108.002 92.695 108.557 92.665 109.322 92.665H110.012ZM107.672 95.485C107.237 96.325 106.892 96.805 106.097 97.69C105.677 97.345 105.587 97.255 105.332 96.985C106.097 96.055 106.727 95.08 107.162 94.135C107.282 93.865 107.387 93.67 107.462 93.55L106.937 92.905C106.622 92.95 106.352 92.965 105.827 92.965H105.302V91.72C105.302 91.105 105.317 90.835 105.392 90.49H104.102C104.162 90.865 104.192 91.21 104.192 91.735V92.965H103.577C102.737 92.965 102.557 92.95 102.152 92.89V94.045C102.452 94 102.992 93.97 103.562 93.97H106.052C105.392 95.32 104.837 96.13 103.847 97.12C103.097 97.885 102.512 98.35 101.552 98.95C101.837 99.31 101.987 99.535 102.167 99.97C103.007 99.37 103.397 99.04 104.192 98.26C104.177 98.755 104.177 99.055 104.177 99.115V102.325C104.177 103.03 104.147 103.645 104.087 104.11H105.347C105.287 103.72 105.272 103.195 105.272 102.34V98.725C105.272 98.53 105.272 98.425 105.257 98.155C105.797 98.695 106.442 99.22 107.357 99.85C107.552 99.49 107.747 99.22 107.972 98.965C107.432 98.665 107.252 98.545 106.832 98.245C107.447 97.57 107.582 97.405 108.512 96.13L107.672 95.485ZM122.297 94.435C121.577 94.435 121.172 94.42 120.767 94.375C120.812 94.75 120.827 95.065 120.827 95.545V98.92C120.827 99.385 120.812 99.685 120.767 100.075C121.202 100.03 121.472 100.015 122.297 100.015H125.102C125.777 100.015 126.197 100.03 126.632 100.075C126.587 99.715 126.572 99.445 126.572 98.92V95.545C126.572 95.02 126.587 94.69 126.632 94.375C126.212 94.42 125.822 94.435 125.102 94.435H122.297ZM121.937 95.425H125.462V99.01H121.937V95.425ZM129.992 104.17C129.932 103.78 129.902 103.18 129.902 102.34V92.98C129.902 92.215 129.932 91.72 129.992 91.15C129.452 91.21 128.957 91.225 128.207 91.225H119.237C118.502 91.225 118.007 91.21 117.482 91.15C117.542 91.735 117.572 92.245 117.572 92.98V102.325C117.572 103.195 117.542 103.72 117.482 104.17H118.742V103.3H128.732V104.17H129.992ZM118.742 92.275H128.732V102.25H118.742V92.275ZM138.152 92.47C138.077 93.865 137.972 94.63 137.657 95.68C137.192 97.285 136.397 98.755 135.272 100.06C134.267 101.23 133.442 101.92 131.927 102.835C132.362 103.18 132.587 103.45 132.857 103.93C134.567 102.745 135.707 101.68 136.712 100.27C137.732 98.875 138.347 97.48 138.842 95.5C139.247 97.18 139.772 98.41 140.657 99.745C141.767 101.425 142.982 102.655 144.752 103.885C145.127 103.3 145.262 103.135 145.727 102.715C144.467 101.965 143.927 101.545 143.087 100.705C142.127 99.745 141.377 98.755 140.792 97.66C139.862 95.95 139.412 94.165 139.412 92.23C139.412 91.9 139.427 91.6 139.472 91.24C139.172 91.315 138.797 91.33 138.092 91.33H135.992C135.407 91.33 135.122 91.315 134.777 91.255V92.545C135.287 92.5 135.692 92.47 136.007 92.47H138.152ZM152.987 95.785V97.66H149.192C148.517 97.66 148.082 97.63 147.677 97.57V98.785C148.127 98.725 148.592 98.695 149.177 98.695H152.987V102.475H148.967C148.262 102.475 147.722 102.445 147.212 102.385V103.66C147.812 103.585 148.367 103.555 148.982 103.555H158.432C159.047 103.555 159.632 103.585 160.127 103.66V102.385C159.662 102.445 159.152 102.475 158.447 102.475H154.142V98.695H158.207C158.867 98.695 159.287 98.725 159.737 98.785V97.57C159.347 97.63 158.927 97.66 158.222 97.66H154.142V95.785H155.777C156.422 95.785 156.797 95.8 157.187 95.86V94.9C158.252 95.59 158.927 95.935 160.142 96.445C160.322 96.025 160.517 95.665 160.802 95.29C159.242 94.765 158.117 94.195 156.857 93.28C155.672 92.41 154.892 91.63 154.277 90.685H152.927C151.742 92.635 149.552 94.255 146.657 95.335C147.032 95.77 147.152 95.965 147.347 96.4C148.442 95.95 149.102 95.59 150.077 94.96V95.86C150.512 95.8 150.872 95.785 151.502 95.785H152.987ZM151.472 94.795C150.992 94.795 150.752 94.78 150.392 94.765C151.907 93.685 152.732 92.905 153.617 91.69C154.517 92.875 155.582 93.85 156.947 94.75C156.617 94.78 156.332 94.795 155.792 94.795H151.472ZM149.102 99.52C149.642 100.33 150.032 101.125 150.377 102.145L151.427 101.725C150.992 100.63 150.677 99.97 150.152 99.07L149.102 99.52ZM157.037 99.1C156.647 100.21 156.197 101.095 155.627 101.86L156.632 102.25C157.277 101.275 157.307 101.215 158.162 99.55L157.037 99.1ZM169.127 96.925V93.19H172.952C173.672 93.19 174.152 93.22 174.602 93.28V92.05C174.212 92.125 173.762 92.155 172.892 92.155H169.127V91.69C169.127 91.105 169.142 90.85 169.202 90.46H167.912C167.987 90.88 168.002 91.195 168.002 91.675V92.155H164.522C163.832 92.155 163.382 92.125 162.857 92.05V93.28C163.382 93.22 163.877 93.19 164.477 93.19H168.002V96.925H163.757C163.022 96.925 162.587 96.895 162.092 96.82V98.065C162.662 98.005 163.142 97.975 163.757 97.975H167.402C166.742 98.845 166.442 99.22 165.932 99.715C164.852 100.78 163.427 101.77 161.927 102.46C162.302 102.865 162.422 103.03 162.692 103.51C163.622 103 164.522 102.4 165.332 101.74C166.382 100.87 167.027 100.135 168.047 98.62C168.017 99.43 168.002 99.7 168.002 100.165V102.67C168.002 103.3 167.972 103.705 167.897 104.155H169.232C169.157 103.69 169.127 103.3 169.127 102.67V100.15C169.127 99.79 169.112 99.355 169.067 98.59C169.892 99.745 170.402 100.345 171.152 101.035C172.187 101.995 173.207 102.685 174.827 103.51C175.067 103.045 175.262 102.775 175.577 102.415C174.092 101.8 172.847 101.035 171.632 100C170.897 99.385 170.642 99.1 169.742 97.975H173.672C174.407 97.975 174.902 98.005 175.382 98.065V96.82C175.007 96.895 174.602 96.925 173.702 96.925H171.662C172.322 95.905 172.772 95.095 173.237 94.03L172.112 93.61C171.632 94.915 171.197 95.755 170.432 96.925H169.127ZM164.072 94.03C164.702 94.99 165.002 95.605 165.452 96.79L166.472 96.295C165.902 95.005 165.662 94.54 165.047 93.565L164.072 94.03ZM177.752 105.49C178.607 104.2 178.967 103.51 179.342 102.43C179.807 101.14 180.032 99.79 180.032 98.365C180.032 96.955 179.807 95.605 179.342 94.3C178.967 93.22 178.607 92.545 177.752 91.24L176.627 91.99C177.482 93.28 177.827 93.955 178.157 95.005C178.487 96.055 178.652 97.165 178.652 98.365C178.652 99.565 178.487 100.69 178.157 101.74C177.827 102.79 177.482 103.465 176.627 104.755L177.752 105.49Z" fill="#002033"/>
<rect width="1" height="9" transform="translate(48.5 304)" fill="#D1D1D1"/>
<path d="M46.6935 323.121C47.1095 323.069 47.4475 323.043 47.8895 323.043H48.5655V330.466C48.5655 331.077 48.5395 331.519 48.4615 332H49.9045C49.8265 331.493 49.8005 331.09 49.8005 330.466V324.07C49.8005 323.355 49.8395 322.692 49.9175 321.912C49.4755 321.964 49.2545 321.977 48.7605 321.977H47.8375C47.3175 321.977 47.0575 321.964 46.6935 321.912V323.121Z" fill="#242424"/>
<rect width="1" height="9" transform="translate(74.5 304)" fill="#D1D1D1"/>
<path d="M76.8795 332C77.5815 332 78.0235 332.013 78.5825 332.065V330.804C78.1275 330.869 77.5945 330.895 76.9055 330.895H72.8885C73.2265 329.738 73.8895 328.997 75.6055 327.853C77.0875 326.865 77.4125 326.605 77.8285 326.085C78.2185 325.617 78.4395 325.006 78.4395 324.395C78.4395 322.809 77.1265 321.782 75.0985 321.782C73.9025 321.782 72.9795 322.133 72.3685 322.822C71.9265 323.329 71.7055 323.823 71.5235 324.759L72.8365 324.954C72.9405 324.317 73.0445 324.005 73.2785 323.667C73.6555 323.121 74.2665 322.848 75.1115 322.848C76.3465 322.848 77.1395 323.446 77.1395 324.395C77.1395 325.175 76.7105 325.734 75.4755 326.566C74.1885 327.437 73.8765 327.658 73.4475 328.035C72.6155 328.763 72.0695 329.504 71.7315 330.362C71.5365 330.856 71.4975 331.064 71.3675 332.052C71.7965 332.013 72.0045 332 72.8755 332H76.8795Z" fill="#242424"/>
<rect width="1" height="9" transform="translate(100.5 304)" fill="#D1D1D1"/>
<path d="M97.1985 329.764C97.4325 330.44 97.5885 330.739 97.8875 331.09C98.5245 331.818 99.5385 332.195 100.916 332.195C102.151 332.195 103.152 331.857 103.802 331.22C104.283 330.752 104.556 330.063 104.556 329.348C104.556 328.594 104.348 328.022 103.932 327.567C103.49 327.086 102.983 326.865 102.086 326.748C102.71 326.618 102.983 326.514 103.308 326.28C103.893 325.864 104.218 325.162 104.218 324.369C104.218 322.783 102.957 321.756 101.007 321.756C99.8635 321.756 98.9535 322.081 98.3425 322.705C97.9785 323.082 97.8095 323.394 97.5755 324.096L98.8755 324.369C99.0055 323.914 99.0965 323.706 99.2785 323.485C99.6295 323.03 100.162 322.809 100.942 322.809C102.203 322.809 102.944 323.42 102.944 324.434C102.944 324.928 102.762 325.37 102.45 325.682C102.047 326.072 101.449 326.254 100.617 326.254C100.24 326.254 99.9025 326.228 99.5905 326.189V327.385C99.9805 327.333 100.305 327.307 100.695 327.307C102.372 327.307 103.256 327.957 103.256 329.205C103.256 330.388 102.346 331.129 100.903 331.129C100.24 331.129 99.6945 330.973 99.2525 330.648C98.8755 330.375 98.7065 330.115 98.5115 329.465L97.1985 329.764Z" fill="#242424"/>
<rect width="1" height="9" transform="translate(126.5 304)" fill="#D1D1D1"/>
<path d="M122.978 329.543C123.433 329.504 123.81 329.491 124.551 329.491H128.074V330.557C128.074 331.168 128.048 331.558 127.957 332H129.335C129.257 331.532 129.231 331.207 129.231 330.57V329.491H129.712C130.258 329.491 130.557 329.517 131.051 329.582V328.347C130.57 328.412 130.232 328.438 129.712 328.438H129.231V324.174C129.231 323.147 129.244 322.77 129.309 321.977H128.1C127.814 322.445 127.58 322.757 127.112 323.329L123.875 327.333C123.563 327.736 123.277 328.061 122.978 328.399V329.543ZM128.074 328.451H124.356L127.203 324.863C127.619 324.356 127.879 324.005 128.139 323.615C128.087 324.252 128.074 324.642 128.074 325.331V328.451Z" fill="#242424"/>
<rect width="1" height="9" transform="translate(152.5 304)" fill="#D1D1D1"/>
<path d="M151.33 323.03H154.385C155.035 323.03 155.464 323.056 155.984 323.134V321.873C155.451 321.951 155.139 321.977 154.372 321.977H151.564C150.823 321.977 150.563 321.964 150.173 321.912C150.199 322.315 150.199 322.328 150.199 322.367C150.199 322.731 150.199 322.822 150.147 323.251L149.861 326.267C149.822 326.787 149.783 327.034 149.679 327.619L150.836 327.723C150.953 327.45 151.018 327.346 151.187 327.177C151.642 326.709 152.305 326.436 152.955 326.436C154.398 326.436 155.256 327.294 155.256 328.724C155.256 330.167 154.32 331.116 152.903 331.116C152.175 331.116 151.551 330.856 151.135 330.388C150.953 330.167 150.862 329.998 150.732 329.621L149.458 329.959C149.757 330.609 149.939 330.895 150.277 331.233C150.927 331.87 151.798 332.195 152.89 332.195C155.113 332.195 156.517 330.83 156.517 328.672C156.517 326.709 155.217 325.422 153.241 325.422C152.344 325.422 151.616 325.708 150.979 326.306C151.057 325.942 151.057 325.942 151.07 325.721L151.33 323.03Z" fill="#242424"/>
<rect width="1" height="9" transform="translate(178.5 304)" fill="#D1D1D1"/>
<path d="M182.439 323.888C182.153 323.264 181.971 322.978 181.659 322.653C181.1 322.094 180.281 321.795 179.306 321.795C178.045 321.795 177.109 322.263 176.381 323.251C175.757 324.096 175.38 325.578 175.38 327.216C175.38 329.062 175.874 330.57 176.745 331.35C177.33 331.883 178.227 332.182 179.202 332.182C181.282 332.182 182.686 330.804 182.686 328.776C182.686 326.748 181.399 325.474 179.345 325.474C178.474 325.474 177.811 325.695 177.213 326.202C176.927 326.436 176.784 326.605 176.537 327.008C176.615 325.734 176.745 325.11 177.083 324.356C177.538 323.342 178.279 322.822 179.267 322.822C180.242 322.822 180.801 323.238 181.204 324.239L182.439 323.888ZM179.228 326.488C180.619 326.488 181.464 327.359 181.464 328.802C181.464 329.309 181.347 329.79 181.139 330.128C180.736 330.752 179.995 331.142 179.163 331.142C177.811 331.142 176.797 330.141 176.797 328.802C176.797 327.463 177.824 326.488 179.228 326.488Z" fill="#242424"/>
<rect width="1" height="9" transform="translate(204.5 304)" fill="#D1D1D1"/>
<path d="M208.543 321.912C208.062 321.964 207.789 321.977 206.957 321.977H202.992C202.329 321.977 201.939 321.951 201.419 321.886V323.173C201.913 323.108 202.29 323.082 202.953 323.082H207.126C205.995 324.616 205.436 325.526 204.799 326.839C204.006 328.464 203.655 329.621 203.226 332H204.695C204.89 330.609 205.02 329.985 205.332 328.971C205.813 327.346 206.372 326.189 207.477 324.447C208.023 323.589 208.27 323.264 208.543 323.017V321.912Z" fill="#242424"/>
<rect width="1" height="9" transform="translate(230.5 304)" fill="#D1D1D1"/>
<path d="M229.564 326.748C229.07 326.826 228.771 326.943 228.355 327.216C227.601 327.723 227.224 328.438 227.224 329.361C227.224 331.194 228.589 332.208 231.02 332.208C233.425 332.208 234.764 331.194 234.764 329.361C234.764 328.49 234.452 327.814 233.815 327.32C233.373 326.982 232.996 326.826 232.45 326.748C233.607 326.488 234.322 325.578 234.322 324.369C234.322 322.757 233.048 321.756 230.994 321.756C228.953 321.756 227.666 322.77 227.666 324.382C227.666 325.578 228.407 326.514 229.564 326.748ZM230.994 322.783C232.281 322.783 233.1 323.446 233.1 324.486C233.1 325.591 232.307 326.254 231.007 326.254C229.694 326.254 228.888 325.578 228.888 324.486C228.888 323.446 229.72 322.783 230.994 322.783ZM231.007 327.32C232.541 327.32 233.477 328.061 233.477 329.27C233.477 330.479 232.567 331.168 230.981 331.168C229.421 331.168 228.511 330.479 228.511 329.283C228.511 328.061 229.447 327.32 231.007 327.32Z" fill="#242424"/>
<rect width="1" height="9" transform="translate(256.5 304)" fill="#D1D1D1"/>
<path d="M253.458 330.102C253.809 330.83 254.043 331.142 254.446 331.467C255.018 331.935 255.759 332.156 256.695 332.156C257.878 332.156 258.749 331.792 259.412 331.012C260.166 330.115 260.569 328.62 260.569 326.67C260.569 325.292 260.374 324.239 259.958 323.498C259.36 322.406 258.242 321.769 256.929 321.769C254.719 321.769 253.289 323.147 253.289 325.266C253.289 326.189 253.614 327.047 254.186 327.619C254.758 328.191 255.616 328.503 256.604 328.503C257.553 328.503 258.242 328.256 258.892 327.684C259.152 327.45 259.269 327.307 259.464 326.956C259.438 327.554 259.399 328.022 259.36 328.308C259.269 328.919 259.061 329.53 258.814 329.946C258.346 330.739 257.696 331.116 256.773 331.116C256.084 331.116 255.525 330.908 255.174 330.531C254.979 330.323 254.888 330.141 254.732 329.725L253.458 330.102ZM256.747 327.489C255.382 327.489 254.511 326.592 254.511 325.175C254.511 324.473 254.719 323.914 255.161 323.485C255.59 323.056 256.188 322.809 256.825 322.809C258.177 322.809 259.191 323.81 259.191 325.162C259.191 326.501 258.151 327.489 256.747 327.489Z" fill="#242424"/>
<rect width="1" height="9" transform="translate(282.5 304)" fill="#D1D1D1"/>
<path d="M276.32 323.121C276.736 323.069 277.074 323.043 277.516 323.043H278.192V330.466C278.192 331.077 278.166 331.519 278.088 332H279.531C279.453 331.493 279.427 331.09 279.427 330.466V324.07C279.427 323.355 279.466 322.692 279.544 321.912C279.102 321.964 278.881 321.977 278.387 321.977H277.464C276.944 321.977 276.684 321.964 276.32 321.912V323.121ZM287.355 332.182C288.603 332.182 289.565 331.714 290.241 330.778C290.813 329.972 291.164 328.555 291.164 326.995C291.164 325.903 290.995 324.889 290.657 323.979C290.501 323.55 290.228 323.121 289.864 322.757C289.253 322.133 288.382 321.795 287.381 321.795C286.042 321.795 285.002 322.367 284.352 323.459C283.884 324.213 283.585 325.617 283.585 327.008C283.585 328.061 283.754 329.088 284.092 329.998C284.248 330.44 284.521 330.856 284.885 331.22C285.522 331.857 286.354 332.182 287.355 332.182ZM287.355 322.861C288.265 322.861 288.928 323.251 289.344 324.031C289.669 324.629 289.903 325.877 289.903 326.982C289.903 327.892 289.786 328.711 289.526 329.491C289.409 329.881 289.188 330.232 288.915 330.518C288.538 330.908 287.992 331.116 287.368 331.116C286.523 331.116 285.873 330.752 285.431 330.024C285.08 329.439 284.833 328.191 284.833 327.021C284.833 326.098 284.963 325.24 285.21 324.486C285.314 324.148 285.509 323.823 285.782 323.524C286.185 323.069 286.692 322.861 287.355 322.861Z" fill="#242424"/>
<rect width="1" height="9" transform="translate(308.5 304)" fill="#D1D1D1"/>
<path d="M302.32 323.121C302.736 323.069 303.074 323.043 303.516 323.043H304.192V330.466C304.192 331.077 304.166 331.519 304.088 332H305.531C305.453 331.493 305.427 331.09 305.427 330.466V324.07C305.427 323.355 305.466 322.692 305.544 321.912C305.102 321.964 304.881 321.977 304.387 321.977H303.464C302.944 321.977 302.684 321.964 302.32 321.912V323.121ZM311.067 323.121C311.483 323.069 311.821 323.043 312.263 323.043H312.939V330.466C312.939 331.077 312.913 331.519 312.835 332H314.278C314.2 331.493 314.174 331.09 314.174 330.466V324.07C314.174 323.355 314.213 322.692 314.291 321.912C313.849 321.964 313.628 321.977 313.134 321.977H312.211C311.691 321.977 311.431 321.964 311.067 321.912V323.121Z" fill="#242424"/>
<rect width="1" height="9" transform="translate(334.5 304)" fill="#D1D1D1"/>
<path d="M328.32 323.121C328.736 323.069 329.074 323.043 329.516 323.043H330.192V330.466C330.192 331.077 330.166 331.519 330.088 332H331.531C331.453 331.493 331.427 331.09 331.427 330.466V324.07C331.427 323.355 331.466 322.692 331.544 321.912C331.102 321.964 330.881 321.977 330.387 321.977H329.464C328.944 321.977 328.684 321.964 328.32 321.912V323.121ZM341.253 332C341.955 332 342.397 332.013 342.956 332.065V330.804C342.501 330.869 341.968 330.895 341.279 330.895H337.262C337.6 329.738 338.263 328.997 339.979 327.853C341.461 326.865 341.786 326.605 342.202 326.085C342.592 325.617 342.813 325.006 342.813 324.395C342.813 322.809 341.5 321.782 339.472 321.782C338.276 321.782 337.353 322.133 336.742 322.822C336.3 323.329 336.079 323.823 335.897 324.759L337.21 324.954C337.314 324.317 337.418 324.005 337.652 323.667C338.029 323.121 338.64 322.848 339.485 322.848C340.72 322.848 341.513 323.446 341.513 324.395C341.513 325.175 341.084 325.734 339.849 326.566C338.562 327.437 338.25 327.658 337.821 328.035C336.989 328.763 336.443 329.504 336.105 330.362C335.91 330.856 335.871 331.064 335.741 332.052C336.17 332.013 336.378 332 337.249 332H341.253Z" fill="#242424"/>
<path d="M10.5055 129.121C10.9215 129.069 11.2595 129.043 11.7015 129.043H12.3775V136.466C12.3775 137.077 12.3515 137.519 12.2735 138H13.7165C13.6385 137.493 13.6125 137.09 13.6125 136.466V130.07C13.6125 129.355 13.6515 128.692 13.7295 127.912C13.2875 127.964 13.0665 127.977 12.5725 127.977H11.6495C11.1295 127.977 10.8695 127.964 10.5055 127.912V129.121ZM21.5405 138.182C22.7885 138.182 23.7505 137.714 24.4265 136.778C24.9985 135.972 25.3495 134.555 25.3495 132.995C25.3495 131.903 25.1805 130.889 24.8425 129.979C24.6865 129.55 24.4135 129.121 24.0495 128.757C23.4385 128.133 22.5675 127.795 21.5665 127.795C20.2275 127.795 19.1875 128.367 18.5375 129.459C18.0695 130.213 17.7705 131.617 17.7705 133.008C17.7705 134.061 17.9395 135.088 18.2775 135.998C18.4335 136.44 18.7065 136.856 19.0705 137.22C19.7075 137.857 20.5395 138.182 21.5405 138.182ZM21.5405 128.861C22.4505 128.861 23.1135 129.251 23.5295 130.031C23.8545 130.629 24.0885 131.877 24.0885 132.982C24.0885 133.892 23.9715 134.711 23.7115 135.491C23.5945 135.881 23.3735 136.232 23.1005 136.518C22.7235 136.908 22.1775 137.116 21.5535 137.116C20.7085 137.116 20.0585 136.752 19.6165 136.024C19.2655 135.439 19.0185 134.191 19.0185 133.021C19.0185 132.098 19.1485 131.24 19.3955 130.486C19.4995 130.148 19.6945 129.823 19.9675 129.524C20.3705 129.069 20.8775 128.861 21.5405 128.861ZM28.7926 133.411C29.4296 133.411 29.9886 133.203 30.3916 132.8C30.8726 132.332 31.1196 131.578 31.1196 130.59C31.1196 128.822 30.2616 127.795 28.7926 127.795C28.1556 127.795 27.5836 128.016 27.1936 128.406C26.7126 128.9 26.4656 129.641 26.4656 130.629C26.4656 131.578 26.7256 132.345 27.1936 132.8C27.5836 133.203 28.1556 133.411 28.7926 133.411ZM28.7926 128.666C29.6246 128.666 30.1056 129.368 30.1056 130.577C30.1056 131.851 29.6376 132.553 28.7926 132.553C27.9476 132.553 27.4796 131.851 27.4796 130.577C27.4796 129.368 27.9606 128.666 28.7926 128.666ZM27.4796 137.805L28.0516 138.26L36.0206 128.146L35.4356 127.691L27.4796 137.805ZM34.6946 138.169C35.3316 138.169 35.8906 137.961 36.2936 137.558C36.7746 137.09 37.0216 136.336 37.0216 135.348C37.0216 133.58 36.1766 132.553 34.6946 132.553C33.2256 132.553 32.3676 133.593 32.3676 135.348C32.3676 136.336 32.6146 137.103 33.0956 137.558C33.4986 137.961 34.0576 138.169 34.6946 138.169ZM34.6946 133.424C35.5266 133.424 36.0076 134.126 36.0076 135.335C36.0076 136.609 35.5396 137.311 34.6946 137.311C33.8496 137.311 33.3816 136.609 33.3816 135.335C33.3816 134.126 33.8626 133.424 34.6946 133.424Z" fill="#242424"/>
<path d="M20.016 171.03H23.071C23.721 171.03 24.15 171.056 24.67 171.134V169.873C24.137 169.951 23.825 169.977 23.058 169.977H20.25C19.509 169.977 19.249 169.964 18.859 169.912C18.885 170.315 18.885 170.328 18.885 170.367C18.885 170.731 18.885 170.822 18.833 171.251L18.547 174.267C18.508 174.787 18.469 175.034 18.365 175.619L19.522 175.723C19.639 175.45 19.704 175.346 19.873 175.177C20.328 174.709 20.991 174.436 21.641 174.436C23.084 174.436 23.942 175.294 23.942 176.724C23.942 178.167 23.006 179.116 21.589 179.116C20.861 179.116 20.237 178.856 19.821 178.388C19.639 178.167 19.548 177.998 19.418 177.621L18.144 177.959C18.443 178.609 18.625 178.895 18.963 179.233C19.613 179.87 20.484 180.195 21.576 180.195C23.799 180.195 25.203 178.83 25.203 176.672C25.203 174.709 23.903 173.422 21.927 173.422C21.03 173.422 20.302 173.708 19.665 174.306C19.743 173.942 19.743 173.942 19.756 173.721L20.016 171.03ZM28.9191 175.411C29.5561 175.411 30.1151 175.203 30.5181 174.8C30.9991 174.332 31.2461 173.578 31.2461 172.59C31.2461 170.822 30.3881 169.795 28.9191 169.795C28.2821 169.795 27.7101 170.016 27.3201 170.406C26.8391 170.9 26.5921 171.641 26.5921 172.629C26.5921 173.578 26.8521 174.345 27.3201 174.8C27.7101 175.203 28.2821 175.411 28.9191 175.411ZM28.9191 170.666C29.7511 170.666 30.2321 171.368 30.2321 172.577C30.2321 173.851 29.7641 174.553 28.9191 174.553C28.0741 174.553 27.6061 173.851 27.6061 172.577C27.6061 171.368 28.0871 170.666 28.9191 170.666ZM27.6061 179.805L28.1781 180.26L36.1471 170.146L35.5621 169.691L27.6061 179.805ZM34.8211 180.169C35.4581 180.169 36.0171 179.961 36.4201 179.558C36.9011 179.09 37.1481 178.336 37.1481 177.348C37.1481 175.58 36.3031 174.553 34.8211 174.553C33.3521 174.553 32.4941 175.593 32.4941 177.348C32.4941 178.336 32.7411 179.103 33.2221 179.558C33.6251 179.961 34.1841 180.169 34.8211 180.169ZM34.8211 175.424C35.6531 175.424 36.1341 176.126 36.1341 177.335C36.1341 178.609 35.6661 179.311 34.8211 179.311C33.9761 179.311 33.5081 178.609 33.5081 177.335C33.5081 176.126 33.9891 175.424 34.8211 175.424Z" fill="#242424"/>
<path d="M21.667 222.182C22.915 222.182 23.877 221.714 24.553 220.778C25.125 219.972 25.476 218.555 25.476 216.995C25.476 215.903 25.307 214.889 24.969 213.979C24.813 213.55 24.54 213.121 24.176 212.757C23.565 212.133 22.694 211.795 21.693 211.795C20.354 211.795 19.314 212.367 18.664 213.459C18.196 214.213 17.897 215.617 17.897 217.008C17.897 218.061 18.066 219.088 18.404 219.998C18.56 220.44 18.833 220.856 19.197 221.22C19.834 221.857 20.666 222.182 21.667 222.182ZM21.667 212.861C22.577 212.861 23.24 213.251 23.656 214.031C23.981 214.629 24.215 215.877 24.215 216.982C24.215 217.892 24.098 218.711 23.838 219.491C23.721 219.881 23.5 220.232 23.227 220.518C22.85 220.908 22.304 221.116 21.68 221.116C20.835 221.116 20.185 220.752 19.743 220.024C19.392 219.439 19.145 218.191 19.145 217.021C19.145 216.098 19.275 215.24 19.522 214.486C19.626 214.148 19.821 213.823 20.094 213.524C20.497 213.069 21.004 212.861 21.667 212.861ZM28.9191 217.411C29.5561 217.411 30.1151 217.203 30.5181 216.8C30.9991 216.332 31.2461 215.578 31.2461 214.59C31.2461 212.822 30.3881 211.795 28.9191 211.795C28.2821 211.795 27.7101 212.016 27.3201 212.406C26.8391 212.9 26.5921 213.641 26.5921 214.629C26.5921 215.578 26.8521 216.345 27.3201 216.8C27.7101 217.203 28.2821 217.411 28.9191 217.411ZM28.9191 212.666C29.7511 212.666 30.2321 213.368 30.2321 214.577C30.2321 215.851 29.7641 216.553 28.9191 216.553C28.0741 216.553 27.6061 215.851 27.6061 214.577C27.6061 213.368 28.0871 212.666 28.9191 212.666ZM27.6061 221.805L28.1781 222.26L36.1471 212.146L35.5621 211.691L27.6061 221.805ZM34.8211 222.169C35.4581 222.169 36.0171 221.961 36.4201 221.558C36.9011 221.09 37.1481 220.336 37.1481 219.348C37.1481 217.58 36.3031 216.553 34.8211 216.553C33.3521 216.553 32.4941 217.593 32.4941 219.348C32.4941 220.336 32.7411 221.103 33.2221 221.558C33.6251 221.961 34.1841 222.169 34.8211 222.169ZM34.8211 217.424C35.6531 217.424 36.1341 218.126 36.1341 219.335C36.1341 220.609 35.6661 221.311 34.8211 221.311C33.9761 221.311 33.5081 220.609 33.5081 219.335C33.5081 218.126 33.9891 217.424 34.8211 217.424Z" fill="#242424"/>
<path d="M12.7772 260.789C13.1672 260.737 13.4532 260.724 13.9732 260.724H15.6502C16.1962 260.724 16.4692 260.737 16.8592 260.789V259.528C16.4952 259.58 16.2092 259.593 15.6502 259.593H13.9732C13.4272 259.593 13.1412 259.58 12.7772 259.528V260.789ZM19.9408 255.03H22.9958C23.6458 255.03 24.0748 255.056 24.5948 255.134V253.873C24.0618 253.951 23.7498 253.977 22.9828 253.977H20.1748C19.4338 253.977 19.1738 253.964 18.7838 253.912C18.8098 254.315 18.8098 254.328 18.8098 254.367C18.8098 254.731 18.8098 254.822 18.7578 255.251L18.4718 258.267C18.4328 258.787 18.3938 259.034 18.2898 259.619L19.4468 259.723C19.5638 259.45 19.6288 259.346 19.7978 259.177C20.2528 258.709 20.9158 258.436 21.5658 258.436C23.0088 258.436 23.8668 259.294 23.8668 260.724C23.8668 262.167 22.9308 263.116 21.5138 263.116C20.7858 263.116 20.1618 262.856 19.7458 262.388C19.5638 262.167 19.4728 261.998 19.3428 261.621L18.0688 261.959C18.3678 262.609 18.5498 262.895 18.8878 263.233C19.5378 263.87 20.4088 264.195 21.5008 264.195C23.7238 264.195 25.1278 262.83 25.1278 260.672C25.1278 258.709 23.8278 257.422 21.8518 257.422C20.9548 257.422 20.2268 257.708 19.5898 258.306C19.6678 257.942 19.6678 257.942 19.6808 257.721L19.9408 255.03ZM28.8439 259.411C29.4809 259.411 30.0399 259.203 30.4429 258.8C30.9239 258.332 31.1709 257.578 31.1709 256.59C31.1709 254.822 30.3129 253.795 28.8439 253.795C28.2069 253.795 27.6349 254.016 27.2449 254.406C26.7639 254.9 26.5169 255.641 26.5169 256.629C26.5169 257.578 26.7769 258.345 27.2449 258.8C27.6349 259.203 28.2069 259.411 28.8439 259.411ZM28.8439 254.666C29.6759 254.666 30.1569 255.368 30.1569 256.577C30.1569 257.851 29.6889 258.553 28.8439 258.553C27.9989 258.553 27.5309 257.851 27.5309 256.577C27.5309 255.368 28.0119 254.666 28.8439 254.666ZM27.5309 263.805L28.1029 264.26L36.0719 254.146L35.4869 253.691L27.5309 263.805ZM34.7459 264.169C35.3829 264.169 35.9419 263.961 36.3449 263.558C36.8259 263.09 37.0729 262.336 37.0729 261.348C37.0729 259.58 36.2279 258.553 34.7459 258.553C33.2769 258.553 32.4189 259.593 32.4189 261.348C32.4189 262.336 32.6659 263.103 33.1469 263.558C33.5499 263.961 34.1089 264.169 34.7459 264.169ZM34.7459 259.424C35.5779 259.424 36.0589 260.126 36.0589 261.335C36.0589 262.609 35.5909 263.311 34.7459 263.311C33.9009 263.311 33.4329 262.609 33.4329 261.335C33.4329 260.126 33.9139 259.424 34.7459 259.424Z" fill="#242424"/>
<path d="M4.40367 302.789C4.79367 302.737 5.07967 302.724 5.59967 302.724H7.27667C7.82267 302.724 8.09567 302.737 8.48567 302.789V301.528C8.12167 301.58 7.83567 301.593 7.27667 301.593H5.59967C5.05367 301.593 4.76767 301.58 4.40367 301.528V302.789ZM10.9303 297.121C11.3463 297.069 11.6843 297.043 12.1263 297.043H12.8023V304.466C12.8023 305.077 12.7763 305.519 12.6983 306H14.1413C14.0633 305.493 14.0373 305.09 14.0373 304.466V298.07C14.0373 297.355 14.0763 296.692 14.1543 295.912C13.7123 295.964 13.4913 295.977 12.9973 295.977H12.0743C11.5543 295.977 11.2943 295.964 10.9303 295.912V297.121ZM21.9654 306.182C23.2134 306.182 24.1754 305.714 24.8514 304.778C25.4234 303.972 25.7744 302.555 25.7744 300.995C25.7744 299.903 25.6054 298.889 25.2674 297.979C25.1114 297.55 24.8384 297.121 24.4744 296.757C23.8634 296.133 22.9924 295.795 21.9914 295.795C20.6524 295.795 19.6124 296.367 18.9624 297.459C18.4944 298.213 18.1954 299.617 18.1954 301.008C18.1954 302.061 18.3644 303.088 18.7024 303.998C18.8584 304.44 19.1314 304.856 19.4954 305.22C20.1324 305.857 20.9644 306.182 21.9654 306.182ZM21.9654 296.861C22.8754 296.861 23.5384 297.251 23.9544 298.031C24.2794 298.629 24.5134 299.877 24.5134 300.982C24.5134 301.892 24.3964 302.711 24.1364 303.491C24.0194 303.881 23.7984 304.232 23.5254 304.518C23.1484 304.908 22.6024 305.116 21.9784 305.116C21.1334 305.116 20.4834 304.752 20.0414 304.024C19.6904 303.439 19.4434 302.191 19.4434 301.021C19.4434 300.098 19.5734 299.24 19.8204 298.486C19.9244 298.148 20.1194 297.823 20.3924 297.524C20.7954 297.069 21.3024 296.861 21.9654 296.861ZM29.2174 301.411C29.8544 301.411 30.4134 301.203 30.8164 300.8C31.2974 300.332 31.5444 299.578 31.5444 298.59C31.5444 296.822 30.6864 295.795 29.2174 295.795C28.5804 295.795 28.0084 296.016 27.6184 296.406C27.1374 296.9 26.8904 297.641 26.8904 298.629C26.8904 299.578 27.1504 300.345 27.6184 300.8C28.0084 301.203 28.5804 301.411 29.2174 301.411ZM29.2174 296.666C30.0494 296.666 30.5304 297.368 30.5304 298.577C30.5304 299.851 30.0624 300.553 29.2174 300.553C28.3724 300.553 27.9044 299.851 27.9044 298.577C27.9044 297.368 28.3854 296.666 29.2174 296.666ZM27.9044 305.805L28.4764 306.26L36.4454 296.146L35.8604 295.691L27.9044 305.805ZM35.1194 306.169C35.7564 306.169 36.3154 305.961 36.7184 305.558C37.1994 305.09 37.4464 304.336 37.4464 303.348C37.4464 301.58 36.6014 300.553 35.1194 300.553C33.6504 300.553 32.7924 301.593 32.7924 303.348C32.7924 304.336 33.0394 305.103 33.5204 305.558C33.9234 305.961 34.4824 306.169 35.1194 306.169ZM35.1194 301.424C35.9514 301.424 36.4324 302.126 36.4324 303.335C36.4324 304.609 35.9644 305.311 35.1194 305.311C34.2744 305.311 33.8064 304.609 33.8064 303.335C33.8064 302.126 34.2874 301.424 35.1194 301.424Z" fill="#242424"/>
<path d="M46 131.5L355 131.5" stroke="#D1D1D1" stroke-linejoin="round"/>
<path d="M46 174.5L355 174.5" stroke="#D1D1D1" stroke-linejoin="round"/>
<path d="M46 217.5L355 217.5" stroke="#D1D1D1" stroke-linejoin="round"/>
<path d="M46 260.5L355 260.5" stroke="#D1D1D1" stroke-linejoin="round"/>
<path d="M46 303.5L355 303.5" stroke="#D1D1D1" stroke-linejoin="round"/>
<path opacity="0.2" d="M269 260.529H247L257 272.029L269 260.529Z" fill="#FF8888"/>
<g opacity="0.2">
<path d="M133.133 210.622L52 226.553V260.622H246.5L231.5 237L232 238H229.5L203.5 229.5L175.201 216.995L133.133 210.622Z" fill="#69A6DF"/>
<path d="M309.5 249.122L267.5 260.622H334.5V238.622L309.5 249.122Z" fill="#69A6DF"/>
</g>
<path d="M51.7051 226.931L134.623 211L153.5 214L179.5 218.5L203.5 228.5L231 237.5L247 261M269 261L309.5 250.5L334.5 239.5" stroke="#69A6DF" stroke-width="0.972864"/>
<path d="M247 261L257 272.5L268.5 261" stroke="#FF8888" stroke-width="0.972864"/>
<circle cx="52" cy="227" r="4" fill="white" stroke="#69A6DF" stroke-width="0.972864"/>
<circle cx="76.5" cy="222" r="4" fill="white" stroke="#69A6DF" stroke-width="0.972864"/>
<circle cx="101" cy="218" r="4" fill="white" stroke="#69A6DF" stroke-width="0.972864"/>
<circle cx="127.5" cy="213" r="4" fill="white" stroke="#69A6DF" stroke-width="0.972864"/>
<circle cx="154" cy="214" r="4" fill="white" stroke="#69A6DF" stroke-width="0.972864"/>
<circle cx="179.5" cy="218" r="4" fill="white" stroke="#69A6DF" stroke-width="0.972864"/>
<circle cx="204" cy="228" r="4" fill="white" stroke="#69A6DF" stroke-width="0.972864"/>
<circle cx="230.5" cy="237" r="4" fill="white" stroke="#69A6DF" stroke-width="0.972864"/>
<circle cx="257" cy="272" r="4" fill="white" stroke="#FF8888" stroke-width="0.972864"/>
<circle cx="309" cy="250" r="4" fill="white" stroke="#69A6DF" stroke-width="0.972864"/>
<circle cx="334.5" cy="239" r="4" fill="white" stroke="#69A6DF" stroke-width="0.972864"/>
<path d="M205 132L205 304" stroke="#E6413C"/>
<g filter="url(#filter1_d_7007_174102)">
<g clip-path="url(#clip0_7007_174102)">
<rect x="87" y="122.109" width="236" height="76" rx="2" fill="white"/>
<g filter="url(#filter2_i_7007_174102)">
<rect width="236" height="31" transform="translate(87 122.109)" fill="white"/>
<g clip-path="url(#clip1_7007_174102)">
<path d="M105.253 142.109C105.955 142.109 106.397 142.122 106.956 142.174V140.913C106.501 140.978 105.968 141.004 105.279 141.004H101.262C101.6 139.847 102.263 139.106 103.979 137.962C105.461 136.974 105.786 136.714 106.202 136.194C106.592 135.726 106.813 135.115 106.813 134.504C106.813 132.918 105.5 131.891 103.472 131.891C102.276 131.891 101.353 132.242 100.742 132.931C100.3 133.438 100.079 133.932 99.897 134.868L101.21 135.063C101.314 134.426 101.418 134.114 101.652 133.776C102.029 133.23 102.64 132.957 103.485 132.957C104.72 132.957 105.513 133.555 105.513 134.504C105.513 135.284 105.084 135.843 103.849 136.675C102.562 137.546 102.25 137.767 101.821 138.144C100.989 138.872 100.443 139.613 100.105 140.471C99.91 140.965 99.871 141.173 99.741 142.161C100.17 142.122 100.378 142.109 101.249 142.109H105.253ZM112.102 142.291C113.35 142.291 114.312 141.823 114.988 140.887C115.56 140.081 115.911 138.664 115.911 137.104C115.911 136.012 115.742 134.998 115.404 134.088C115.248 133.659 114.975 133.23 114.611 132.866C114 132.242 113.129 131.904 112.128 131.904C110.789 131.904 109.749 132.476 109.099 133.568C108.631 134.322 108.332 135.726 108.332 137.117C108.332 138.17 108.501 139.197 108.839 140.107C108.995 140.549 109.268 140.965 109.632 141.329C110.269 141.966 111.101 142.291 112.102 142.291ZM112.102 132.97C113.012 132.97 113.675 133.36 114.091 134.14C114.416 134.738 114.65 135.986 114.65 137.091C114.65 138.001 114.533 138.82 114.273 139.6C114.156 139.99 113.935 140.341 113.662 140.627C113.285 141.017 112.739 141.225 112.115 141.225C111.27 141.225 110.62 140.861 110.178 140.133C109.827 139.548 109.58 138.3 109.58 137.13C109.58 136.207 109.71 135.349 109.957 134.595C110.061 134.257 110.256 133.932 110.529 133.633C110.932 133.178 111.439 132.97 112.102 132.97ZM122.747 142.109C123.449 142.109 123.891 142.122 124.45 142.174V140.913C123.995 140.978 123.462 141.004 122.773 141.004H118.756C119.094 139.847 119.757 139.106 121.473 137.962C122.955 136.974 123.28 136.714 123.696 136.194C124.086 135.726 124.307 135.115 124.307 134.504C124.307 132.918 122.994 131.891 120.966 131.891C119.77 131.891 118.847 132.242 118.236 132.931C117.794 133.438 117.573 133.932 117.391 134.868L118.704 135.063C118.808 134.426 118.912 134.114 119.146 133.776C119.523 133.23 120.134 132.957 120.979 132.957C122.214 132.957 123.007 133.555 123.007 134.504C123.007 135.284 122.578 135.843 121.343 136.675C120.056 137.546 119.744 137.767 119.315 138.144C118.483 138.872 117.937 139.613 117.599 140.471C117.404 140.965 117.365 141.173 117.235 142.161C117.664 142.122 117.872 142.109 118.743 142.109H122.747ZM131.494 142.109C132.196 142.109 132.638 142.122 133.197 142.174V140.913C132.742 140.978 132.209 141.004 131.52 141.004H127.503C127.841 139.847 128.504 139.106 130.22 137.962C131.702 136.974 132.027 136.714 132.443 136.194C132.833 135.726 133.054 135.115 133.054 134.504C133.054 132.918 131.741 131.891 129.713 131.891C128.517 131.891 127.594 132.242 126.983 132.931C126.541 133.438 126.32 133.932 126.138 134.868L127.451 135.063C127.555 134.426 127.659 134.114 127.893 133.776C128.27 133.23 128.881 132.957 129.726 132.957C130.961 132.957 131.754 133.555 131.754 134.504C131.754 135.284 131.325 135.843 130.09 136.675C128.803 137.546 128.491 137.767 128.062 138.144C127.23 138.872 126.684 139.613 126.346 140.471C126.151 140.965 126.112 141.173 125.982 142.161C126.411 142.122 126.619 142.109 127.49 142.109H131.494ZM136.926 138.95H136.029C135.457 138.95 135.067 138.924 134.677 138.872V139.964C135.093 139.912 135.47 139.886 136.029 139.886H140.631V141.875C140.631 142.499 140.618 142.798 140.553 143.149H141.736C141.671 142.798 141.645 142.473 141.645 141.888V139.886H144.843C145.389 139.886 145.792 139.912 146.195 139.964V138.872C145.805 138.924 145.428 138.95 144.843 138.95H141.645V136.532H143.946C144.466 136.532 144.791 136.545 145.129 136.584V135.57C144.778 135.622 144.479 135.635 143.92 135.635H141.645V133.633H144.505C145.064 133.633 145.35 133.646 145.714 133.698V132.671C145.376 132.723 145.077 132.736 144.505 132.736H138.174C138.239 132.593 138.239 132.593 138.343 132.359C138.551 131.904 138.551 131.904 138.629 131.748C138.707 131.579 138.733 131.527 138.798 131.384L137.706 131.111C137.641 131.384 137.55 131.67 137.381 132.06C136.783 133.464 136.094 134.387 134.794 135.492C135.119 135.726 135.262 135.882 135.509 136.272C136.393 135.492 136.978 134.764 137.667 133.633H140.631V135.635H137.81C137.446 135.635 137.16 135.622 136.887 135.596C136.913 135.843 136.926 136.077 136.926 136.363V138.95ZM137.927 138.95V136.532H140.631V138.95H137.927ZM154.905 132.021C154.424 132.073 154.151 132.086 153.319 132.086H149.354C148.691 132.086 148.301 132.06 147.781 131.995V133.282C148.275 133.217 148.652 133.191 149.315 133.191H153.488C152.357 134.725 151.798 135.635 151.161 136.948C150.368 138.573 150.017 139.73 149.588 142.109H151.057C151.252 140.718 151.382 140.094 151.694 139.08C152.175 137.455 152.734 136.298 153.839 134.556C154.385 133.698 154.632 133.373 154.905 133.126V132.021ZM165.342 138.833V141.524C165.342 141.836 165.251 141.901 164.809 141.901C164.25 141.901 163.652 141.862 162.989 141.758C163.132 142.161 163.197 142.395 163.249 142.811C163.899 142.85 164.302 142.863 164.679 142.863C165.42 142.863 165.719 142.811 165.966 142.668C166.239 142.486 166.356 142.187 166.356 141.628V133.152C166.356 132.437 166.369 132.151 166.408 131.774C165.966 131.826 165.628 131.839 165.017 131.839H159.973C159.401 131.839 159.05 131.826 158.569 131.774C158.621 132.242 158.634 132.814 158.634 133.932C158.634 136.948 158.491 138.508 158.127 139.743C157.815 140.783 157.412 141.433 156.619 142.213C156.996 142.486 157.217 142.707 157.464 143.045C158.192 142.226 158.582 141.602 158.92 140.705C159.141 140.133 159.297 139.535 159.414 138.833H165.342ZM159.531 137.884C159.609 136.87 159.648 136.272 159.648 135.739H165.342V137.884H159.531ZM159.661 134.79V132.788H165.342V134.79H159.661Z" fill="#242424"/>
</g>
</g>
<rect width="12" height="12" transform="translate(101 169.609)" fill="#69A6DF"/>
<path d="M124.449 172.231V173.011H122.551C122.096 173.011 121.849 172.998 121.537 172.959C121.576 173.284 121.589 173.401 121.589 173.856V175.949C121.589 176.391 121.576 176.534 121.537 176.833C121.849 176.794 122.122 176.781 122.551 176.781H124.449V177.6H121.953C121.537 177.6 121.238 177.587 120.9 177.535V178.445C121.225 178.393 121.511 178.38 121.966 178.38H124.449V178.497C124.449 178.874 124.41 179.329 124.371 179.576H125.385C125.346 179.303 125.32 178.848 125.32 178.484V178.38H128.024C128.531 178.38 128.778 178.393 129.142 178.445V177.535C128.817 177.587 128.57 177.6 128.05 177.6H125.32V176.781H127.426C127.829 176.781 128.102 176.794 128.453 176.833C128.414 176.521 128.414 176.339 128.414 175.949V173.856C128.414 173.479 128.414 173.271 128.453 172.959C128.154 172.998 127.907 173.011 127.439 173.011H125.32V172.231H127.244C127.712 172.231 127.907 172.244 128.232 172.296V171.958H129.194C129.155 171.711 129.142 171.49 129.142 171.126V170.528C129.142 170.177 129.155 169.969 129.194 169.722C128.804 169.761 128.479 169.774 127.972 169.774H122.031C121.511 169.774 121.186 169.761 120.822 169.722C120.848 169.943 120.874 170.229 120.874 170.541V171.152C120.874 171.477 120.848 171.685 120.809 171.958H121.771V172.296C122.057 172.244 122.343 172.231 122.772 172.231H124.449ZM122.746 171.477C122.317 171.477 122.044 171.464 121.784 171.412V170.567H128.206V171.425C127.946 171.464 127.764 171.477 127.309 171.477H125.32C125.32 171.243 125.333 171.087 125.385 170.879H124.384C124.423 171.061 124.436 171.217 124.436 171.477H122.746ZM124.449 173.713V174.545H122.473V173.713H124.449ZM125.32 173.713H127.517V174.545H125.32V173.713ZM124.449 175.234V176.066H122.473V175.234H124.449ZM125.32 175.234H127.517V176.066H125.32V175.234ZM117.806 170.164C118.599 170.944 119.041 171.503 119.704 172.595L120.458 171.841C119.808 170.892 119.457 170.463 118.56 169.514L117.806 170.164ZM117.637 175.403C117.962 175.351 118.157 175.338 118.56 175.338H119.353V178.38C118.586 179.095 117.897 179.602 117.338 179.849L117.832 180.889C118.079 180.668 118.118 180.629 118.339 180.46C118.872 180.07 119.236 179.758 119.795 179.199C120.289 179.914 120.861 180.343 121.615 180.577C122.252 180.759 123.097 180.824 125.242 180.824C126.503 180.824 127.608 180.798 129.298 180.733C129.363 180.356 129.428 180.148 129.623 179.68C128.375 179.849 126.867 179.914 124.306 179.914C122.746 179.914 121.992 179.81 121.368 179.524C120.848 179.29 120.614 179.056 120.315 178.458V175.78C120.315 175.091 120.315 174.818 120.367 174.389C120.042 174.441 119.769 174.454 119.379 174.454H118.638C118.157 174.454 117.949 174.441 117.637 174.389V175.403ZM137.072 176.846H140.699V179.602C140.699 179.914 140.595 179.979 139.997 179.979C139.555 179.979 138.944 179.927 138.229 179.836C138.372 180.239 138.424 180.473 138.463 180.824C138.97 180.863 139.568 180.889 139.984 180.889C141.362 180.889 141.674 180.681 141.674 179.784V171.113C141.674 170.489 141.687 170.177 141.726 169.787C141.336 169.826 140.985 169.839 140.309 169.839H133.237C132.561 169.839 132.184 169.826 131.794 169.787C131.833 170.255 131.846 170.645 131.846 171.334C131.846 177.379 131.625 178.77 130.429 180.382C130.845 180.642 130.975 180.733 131.326 181.071C132.184 179.719 132.509 178.705 132.691 176.846H136.11V179.225C136.11 179.927 136.097 180.291 136.045 180.668H137.137C137.085 180.33 137.072 179.914 137.072 179.212V176.846ZM137.072 172.881V170.775H140.699V172.881H137.072ZM136.11 172.881H132.821L132.834 172.27V170.775H136.11V172.881ZM137.072 173.791H140.699V175.923H137.072V173.791ZM136.11 173.791V175.923H132.756C132.782 175.338 132.782 175.338 132.795 174.636C132.795 174.454 132.795 174.155 132.808 173.791H136.11ZM146.406 172.777H145.093C144.482 172.777 144.17 172.764 143.858 172.699V173.739C144.222 173.687 144.573 173.661 145.08 173.661H146.211C146.003 174.285 145.6 175.104 145.21 175.78C144.703 176.612 144.261 177.171 143.559 177.834C143.78 178.094 143.949 178.341 144.144 178.757C145.249 177.561 145.847 176.573 146.471 174.922C146.419 175.611 146.393 176.261 146.393 176.989V179.459C146.393 180.174 146.367 180.603 146.302 181.071H147.433C147.381 180.668 147.355 180.265 147.355 179.459V176.872C147.355 176.066 147.329 175.312 147.277 174.792C147.758 175.806 148.122 176.313 149.032 177.275C149.188 176.937 149.344 176.703 149.578 176.417C148.434 175.416 147.862 174.688 147.394 173.661H148.538C149.045 173.661 149.331 173.674 149.669 173.726V172.712C149.331 172.764 149.019 172.777 148.551 172.777H147.355V170.84C148.005 170.658 148.382 170.541 148.967 170.333C149.396 170.177 149.396 170.177 149.539 170.125L148.876 169.293C148.642 169.449 148.421 169.553 147.875 169.735C146.406 170.216 145.457 170.437 143.884 170.632C144.105 170.957 144.196 171.165 144.3 171.516C145.223 171.36 145.548 171.295 146.406 171.087V172.777ZM150.514 170.125C150.579 170.554 150.592 170.892 150.592 171.646V176.638C150.592 177.509 150.579 177.782 150.527 178.146H151.645C151.593 177.769 151.58 177.496 151.58 176.625V171.646C151.58 170.879 151.593 170.528 151.658 170.125H150.514ZM153.673 169.384C153.725 169.852 153.751 170.346 153.751 171.061V179.472C153.751 179.797 153.647 179.862 153.127 179.862C152.737 179.862 152.23 179.836 151.788 179.784C151.71 179.771 151.593 179.758 151.424 179.732C151.593 180.135 151.671 180.356 151.736 180.759C152.321 180.798 152.698 180.811 152.945 180.811C154.375 180.811 154.752 180.551 154.752 179.55V171.061C154.752 170.333 154.778 169.852 154.843 169.384H153.673ZM161.265 172.686C160.641 172.686 160.29 172.673 159.939 172.634C159.978 172.959 159.991 173.232 159.991 173.648V176.573C159.991 176.976 159.978 177.236 159.939 177.574C160.316 177.535 160.55 177.522 161.265 177.522H163.696C164.281 177.522 164.645 177.535 165.022 177.574C164.983 177.262 164.97 177.028 164.97 176.573V173.648C164.97 173.193 164.983 172.907 165.022 172.634C164.658 172.673 164.32 172.686 163.696 172.686H161.265ZM160.953 173.544H164.008V176.651H160.953V173.544ZM167.934 181.123C167.882 180.785 167.856 180.265 167.856 179.537V171.425C167.856 170.762 167.882 170.333 167.934 169.839C167.466 169.891 167.037 169.904 166.387 169.904H158.613C157.976 169.904 157.547 169.891 157.092 169.839C157.144 170.346 157.17 170.788 157.17 171.425V179.524C157.17 180.278 157.144 180.733 157.092 181.123H158.184V180.369H166.842V181.123H167.934ZM158.184 170.814H166.842V179.459H158.184V170.814ZM172.809 174.09C172.848 173.635 172.874 173.349 172.991 172.53C173.316 170.255 173.355 170.073 173.511 169.618L172.315 169.527C172.315 169.683 172.315 169.748 172.289 169.943C171.951 172.335 171.86 173.44 171.86 174.753C171.86 174.909 171.886 176.3 171.886 176.43C171.899 176.56 171.899 176.638 171.899 176.677C171.899 176.703 171.899 176.755 171.886 176.82L173.004 176.794C173.004 176.625 173.004 176.547 173.004 176.482C173.004 175.507 173.238 174.532 173.719 173.583C174.434 172.14 175.266 171.412 176.189 171.412C177.411 171.412 178.113 172.569 178.113 174.597C178.113 176.651 177.411 177.977 175.89 178.822C175.11 179.251 174.434 179.446 173.186 179.615C173.485 180.005 173.576 180.161 173.771 180.681C174.72 180.486 175.513 180.226 176.15 179.927C178.178 178.952 179.257 177.145 179.257 174.753C179.257 173.31 179.01 172.335 178.438 171.503C177.905 170.736 177.177 170.346 176.293 170.346C175.305 170.346 174.447 170.879 173.732 171.919C173.368 172.465 173.121 173.037 172.952 173.739C172.887 173.999 172.887 173.999 172.861 174.09H172.809ZM186.459 181.63C185.718 180.512 185.419 179.927 185.133 179.017C184.847 178.107 184.704 177.119 184.704 176.092C184.704 175.065 184.847 174.09 185.133 173.18C185.419 172.27 185.718 171.685 186.459 170.567L185.484 169.917C184.743 171.048 184.431 171.633 184.106 172.569C183.703 173.7 183.508 174.87 183.508 176.092C183.508 177.314 183.703 178.497 184.106 179.615C184.431 180.551 184.743 181.149 185.484 182.267L186.459 181.63ZM194.43 171.152C194.404 173.206 194.3 174.285 193.988 175.507C193.481 177.535 192.636 178.913 191.141 180.122C191.479 180.395 191.687 180.603 191.908 180.928C192.506 180.369 192.818 180.044 193.182 179.55C194.014 178.445 194.547 177.327 194.898 175.897C195.249 174.519 195.392 173.258 195.431 171.152H197.68C197.667 174.402 197.537 177.002 197.316 178.51C197.16 179.667 197.069 179.784 196.419 179.784C195.99 179.784 195.327 179.719 194.651 179.615C194.794 179.992 194.833 180.174 194.885 180.668C195.665 180.733 195.951 180.746 196.458 180.746C196.939 180.746 197.199 180.72 197.433 180.629C197.823 180.473 198.057 180.161 198.187 179.602C198.447 178.458 198.629 175.741 198.694 171.789C198.707 170.645 198.707 170.645 198.759 170.203C198.512 170.242 198.057 170.268 197.498 170.268H193.832C193.195 170.268 192.714 170.242 192.337 170.19V171.23C192.688 171.178 193.169 171.152 193.832 171.152H194.43ZM192.402 173.596C192.025 174.324 191.726 174.74 191.037 175.507C190.673 175.208 190.595 175.13 190.374 174.896C191.037 174.09 191.583 173.245 191.96 172.426C192.064 172.192 192.155 172.023 192.22 171.919L191.765 171.36C191.492 171.399 191.258 171.412 190.803 171.412H190.348V170.333C190.348 169.8 190.361 169.566 190.426 169.267H189.308C189.36 169.592 189.386 169.891 189.386 170.346V171.412H188.853C188.125 171.412 187.969 171.399 187.618 171.347V172.348C187.878 172.309 188.346 172.283 188.84 172.283H190.998C190.426 173.453 189.945 174.155 189.087 175.013C188.437 175.676 187.93 176.079 187.098 176.599C187.345 176.911 187.475 177.106 187.631 177.483C188.359 176.963 188.697 176.677 189.386 176.001C189.373 176.43 189.373 176.69 189.373 176.742V179.524C189.373 180.135 189.347 180.668 189.295 181.071H190.387C190.335 180.733 190.322 180.278 190.322 179.537V176.404C190.322 176.235 190.322 176.144 190.309 175.91C190.777 176.378 191.336 176.833 192.129 177.379C192.298 177.067 192.467 176.833 192.662 176.612C192.194 176.352 192.038 176.248 191.674 175.988C192.207 175.403 192.324 175.26 193.13 174.155L192.402 173.596ZM205.077 172.686C204.453 172.686 204.102 172.673 203.751 172.634C203.79 172.959 203.803 173.232 203.803 173.648V176.573C203.803 176.976 203.79 177.236 203.751 177.574C204.128 177.535 204.362 177.522 205.077 177.522H207.508C208.093 177.522 208.457 177.535 208.834 177.574C208.795 177.262 208.782 177.028 208.782 176.573V173.648C208.782 173.193 208.795 172.907 208.834 172.634C208.47 172.673 208.132 172.686 207.508 172.686H205.077ZM204.765 173.544H207.82V176.651H204.765V173.544ZM211.746 181.123C211.694 180.785 211.668 180.265 211.668 179.537V171.425C211.668 170.762 211.694 170.333 211.746 169.839C211.278 169.891 210.849 169.904 210.199 169.904H202.425C201.788 169.904 201.359 169.891 200.904 169.839C200.956 170.346 200.982 170.788 200.982 171.425V179.524C200.982 180.278 200.956 180.733 200.904 181.123H201.996V180.369H210.654V181.123H211.746ZM201.996 170.814H210.654V179.459H201.996V170.814ZM218.818 170.983C218.753 172.192 218.662 172.855 218.389 173.765C217.986 175.156 217.297 176.43 216.322 177.561C215.451 178.575 214.736 179.173 213.423 179.966C213.8 180.265 213.995 180.499 214.229 180.915C215.711 179.888 216.699 178.965 217.57 177.743C218.454 176.534 218.987 175.325 219.416 173.609C219.767 175.065 220.222 176.131 220.989 177.288C221.951 178.744 223.004 179.81 224.538 180.876C224.863 180.369 224.98 180.226 225.383 179.862C224.291 179.212 223.823 178.848 223.095 178.12C222.263 177.288 221.613 176.43 221.106 175.481C220.3 173.999 219.91 172.452 219.91 170.775C219.91 170.489 219.923 170.229 219.962 169.917C219.702 169.982 219.377 169.995 218.766 169.995H216.946C216.439 169.995 216.192 169.982 215.893 169.93V171.048C216.335 171.009 216.686 170.983 216.959 170.983H218.818ZM231.675 173.856V175.481H228.386C227.801 175.481 227.424 175.455 227.073 175.403V176.456C227.463 176.404 227.866 176.378 228.373 176.378H231.675V179.654H228.191C227.58 179.654 227.112 179.628 226.67 179.576V180.681C227.19 180.616 227.671 180.59 228.204 180.59H236.394C236.927 180.59 237.434 180.616 237.863 180.681V179.576C237.46 179.628 237.018 179.654 236.407 179.654H232.676V176.378H236.199C236.771 176.378 237.135 176.404 237.525 176.456V175.403C237.187 175.455 236.823 175.481 236.212 175.481H232.676V173.856H234.093C234.652 173.856 234.977 173.869 235.315 173.921V173.089C236.238 173.687 236.823 173.986 237.876 174.428C238.032 174.064 238.201 173.752 238.448 173.427C237.096 172.972 236.121 172.478 235.029 171.685C234.002 170.931 233.326 170.255 232.793 169.436H231.623C230.596 171.126 228.698 172.53 226.189 173.466C226.514 173.843 226.618 174.012 226.787 174.389C227.736 173.999 228.308 173.687 229.153 173.141V173.921C229.53 173.869 229.842 173.856 230.388 173.856H231.675ZM230.362 172.998C229.946 172.998 229.738 172.985 229.426 172.972C230.739 172.036 231.454 171.36 232.221 170.307C233.001 171.334 233.924 172.179 235.107 172.959C234.821 172.985 234.574 172.998 234.106 172.998H230.362ZM228.308 177.093C228.776 177.795 229.114 178.484 229.413 179.368L230.323 179.004C229.946 178.055 229.673 177.483 229.218 176.703L228.308 177.093ZM235.185 176.729C234.847 177.691 234.457 178.458 233.963 179.121L234.834 179.459C235.393 178.614 235.419 178.562 236.16 177.119L235.185 176.729ZM245.663 174.844V171.607H248.978C249.602 171.607 250.018 171.633 250.408 171.685V170.619C250.07 170.684 249.68 170.71 248.926 170.71H245.663V170.307C245.663 169.8 245.676 169.579 245.728 169.241H244.61C244.675 169.605 244.688 169.878 244.688 170.294V170.71H241.672C241.074 170.71 240.684 170.684 240.229 170.619V171.685C240.684 171.633 241.113 171.607 241.633 171.607H244.688V174.844H241.009C240.372 174.844 239.995 174.818 239.566 174.753V175.832C240.06 175.78 240.476 175.754 241.009 175.754H244.168C243.596 176.508 243.336 176.833 242.894 177.262C241.958 178.185 240.723 179.043 239.423 179.641C239.748 179.992 239.852 180.135 240.086 180.551C240.892 180.109 241.672 179.589 242.374 179.017C243.284 178.263 243.843 177.626 244.727 176.313C244.701 177.015 244.688 177.249 244.688 177.652V179.823C244.688 180.369 244.662 180.72 244.597 181.11H245.754C245.689 180.707 245.663 180.369 245.663 179.823V177.639C245.663 177.327 245.65 176.95 245.611 176.287C246.326 177.288 246.768 177.808 247.418 178.406C248.315 179.238 249.199 179.836 250.603 180.551C250.811 180.148 250.98 179.914 251.253 179.602C249.966 179.069 248.887 178.406 247.834 177.509C247.197 176.976 246.976 176.729 246.196 175.754H249.602C250.239 175.754 250.668 175.78 251.084 175.832V174.753C250.759 174.818 250.408 174.844 249.628 174.844H247.86C248.432 173.96 248.822 173.258 249.225 172.335L248.25 171.971C247.834 173.102 247.457 173.83 246.794 174.844H245.663ZM241.282 172.335C241.828 173.167 242.088 173.7 242.478 174.727L243.362 174.298C242.868 173.18 242.66 172.777 242.127 171.932L241.282 172.335ZM253.138 182.267C253.879 181.149 254.191 180.551 254.516 179.615C254.919 178.497 255.114 177.327 255.114 176.092C255.114 174.87 254.919 173.7 254.516 172.569C254.191 171.633 253.879 171.048 253.138 169.917L252.163 170.567C252.904 171.685 253.203 172.27 253.489 173.18C253.775 174.09 253.918 175.052 253.918 176.092C253.918 177.132 253.775 178.107 253.489 179.017C253.203 179.927 252.904 180.512 252.163 181.63L253.138 182.267Z" fill="#242424"/>
<path d="M267.067 171.23C267.483 171.178 267.821 171.152 268.263 171.152H268.939V178.575C268.939 179.186 268.913 179.628 268.835 180.109H270.278C270.2 179.602 270.174 179.199 270.174 178.575V172.179C270.174 171.464 270.213 170.801 270.291 170.021C269.849 170.073 269.628 170.086 269.134 170.086H268.211C267.691 170.086 267.431 170.073 267.067 170.021V171.23ZM276.451 171.139H279.506C280.156 171.139 280.585 171.165 281.105 171.243V169.982C280.572 170.06 280.26 170.086 279.493 170.086H276.685C275.944 170.086 275.684 170.073 275.294 170.021C275.32 170.424 275.32 170.437 275.32 170.476C275.32 170.84 275.32 170.931 275.268 171.36L274.982 174.376C274.943 174.896 274.904 175.143 274.8 175.728L275.957 175.832C276.074 175.559 276.139 175.455 276.308 175.286C276.763 174.818 277.426 174.545 278.076 174.545C279.519 174.545 280.377 175.403 280.377 176.833C280.377 178.276 279.441 179.225 278.024 179.225C277.296 179.225 276.672 178.965 276.256 178.497C276.074 178.276 275.983 178.107 275.853 177.73L274.579 178.068C274.878 178.718 275.06 179.004 275.398 179.342C276.048 179.979 276.919 180.304 278.011 180.304C280.234 180.304 281.638 178.939 281.638 176.781C281.638 174.818 280.338 173.531 278.362 173.531C277.465 173.531 276.737 173.817 276.1 174.415C276.178 174.051 276.178 174.051 276.191 173.83L276.451 171.139ZM283.391 178.64V180.109H284.86V178.64H283.391ZM286.108 177.652C286.563 177.613 286.94 177.6 287.681 177.6H291.204V178.666C291.204 179.277 291.178 179.667 291.087 180.109H292.465C292.387 179.641 292.361 179.316 292.361 178.679V177.6H292.842C293.388 177.6 293.687 177.626 294.181 177.691V176.456C293.7 176.521 293.362 176.547 292.842 176.547H292.361V172.283C292.361 171.256 292.374 170.879 292.439 170.086H291.23C290.944 170.554 290.71 170.866 290.242 171.438L287.005 175.442C286.693 175.845 286.407 176.17 286.108 176.508V177.652ZM291.204 176.56H287.486L290.333 172.972C290.749 172.465 291.009 172.114 291.269 171.724C291.217 172.361 291.204 172.751 291.204 173.44V176.56ZM297.377 175.52C298.014 175.52 298.573 175.312 298.976 174.909C299.457 174.441 299.704 173.687 299.704 172.699C299.704 170.931 298.846 169.904 297.377 169.904C296.74 169.904 296.168 170.125 295.778 170.515C295.297 171.009 295.05 171.75 295.05 172.738C295.05 173.687 295.31 174.454 295.778 174.909C296.168 175.312 296.74 175.52 297.377 175.52ZM297.377 170.775C298.209 170.775 298.69 171.477 298.69 172.686C298.69 173.96 298.222 174.662 297.377 174.662C296.532 174.662 296.064 173.96 296.064 172.686C296.064 171.477 296.545 170.775 297.377 170.775ZM296.064 179.914L296.636 180.369L304.605 170.255L304.02 169.8L296.064 179.914ZM303.279 180.278C303.916 180.278 304.475 180.07 304.878 179.667C305.359 179.199 305.606 178.445 305.606 177.457C305.606 175.689 304.761 174.662 303.279 174.662C301.81 174.662 300.952 175.702 300.952 177.457C300.952 178.445 301.199 179.212 301.68 179.667C302.083 180.07 302.642 180.278 303.279 180.278ZM303.279 175.533C304.111 175.533 304.592 176.235 304.592 177.444C304.592 178.718 304.124 179.42 303.279 179.42C302.434 179.42 301.966 178.718 301.966 177.444C301.966 176.235 302.447 175.533 303.279 175.533Z" fill="#242424"/>
</g>
</g>
<defs>
<filter id="filter0_d_7007_174102" x="0" y="0" width="99.75" height="43" filterUnits="userSpaceOnUse" color-interpolation-filters="sRGB">
<feFlood flood-opacity="0" result="BackgroundImageFix"/>
<feColorMatrix in="SourceAlpha" type="matrix" values="0 0 0 0 0 0 0 0 0 0 0 0 0 0 0 0 0 0 127 0" result="hardAlpha"/>
<feOffset dy="2"/>
<feGaussianBlur stdDeviation="4"/>
<feColorMatrix type="matrix" values="0 0 0 0 0 0 0 0 0 0 0 0 0 0 0 0 0 0 0.06 0"/>
<feBlend mode="normal" in2="BackgroundImageFix" result="effect1_dropShadow_7007_174102"/>
<feBlend mode="normal" in="SourceGraphic" in2="effect1_dropShadow_7007_174102" result="shape"/>
</filter>
<filter id="filter1_d_7007_174102" x="79" y="116.109" width="252" height="113.836" filterUnits="userSpaceOnUse" color-interpolation-filters="sRGB">
<feFlood flood-opacity="0" result="BackgroundImageFix"/>
<feColorMatrix in="SourceAlpha" type="matrix" values="0 0 0 0 0 0 0 0 0 0 0 0 0 0 0 0 0 0 127 0" result="hardAlpha"/>
<feOffset dy="2"/>
<feGaussianBlur stdDeviation="4"/>
<feColorMatrix type="matrix" values="0 0 0 0 0 0 0 0 0 0 0 0 0 0 0 0 0 0 0.15 0"/>
<feBlend mode="normal" in2="BackgroundImageFix" result="effect1_dropShadow_7007_174102"/>
<feBlend mode="normal" in="SourceGraphic" in2="effect1_dropShadow_7007_174102" result="shape"/>
</filter>
<filter id="filter2_i_7007_174102" x="87" y="122.109" width="236" height="31" filterUnits="userSpaceOnUse" color-interpolation-filters="sRGB">
<feFlood flood-opacity="0" result="BackgroundImageFix"/>
<feBlend mode="normal" in="SourceGraphic" in2="BackgroundImageFix" result="shape"/>
<feColorMatrix in="SourceAlpha" type="matrix" values="0 0 0 0 0 0 0 0 0 0 0 0 0 0 0 0 0 0 127 0" result="hardAlpha"/>
<feOffset dy="-1"/>
<feComposite in2="hardAlpha" operator="arithmetic" k2="-1" k3="1"/>
<feColorMatrix type="matrix" values="0 0 0 0 0.941176 0 0 0 0 0.941176 0 0 0 0 0.941176 0 0 0 1 0"/>
<feBlend mode="normal" in2="shape" result="effect1_innerShadow_7007_174102"/>
</filter>
<clipPath id="clip0_7007_174102">
<rect x="87" y="122.109" width="236" height="76" rx="2" fill="white"/>
</clipPath>
<clipPath id="clip1_7007_174102">
<rect width="70" height="21" fill="white" transform="translate(99 127.109)"/>
</clipPath>
</defs>
</svg>
