<svg width="1089" height="270" viewBox="0 0 1089 270" fill="none" xmlns="http://www.w3.org/2000/svg">
<g clip-path="url(#clip0_7007_174100)">
<rect width="314" height="35" rx="6" fill="#F5F5F5"/>
<g filter="url(#filter0_d_7007_174100)">
<rect x="4" y="4" width="74" height="27" rx="4" fill="#E6413C"/>
<path d="M30.385 12.755C30.865 12.695 31.255 12.665 31.765 12.665H32.545V21.23C32.545 21.935 32.515 22.445 32.425 23H34.09C34 22.415 33.97 21.95 33.97 21.23V13.85C33.97 13.025 34.015 12.26 34.105 11.36C33.595 11.42 33.34 11.435 32.77 11.435H31.705C31.105 11.435 30.805 11.42 30.385 11.36V12.755ZM41.4828 19.355H40.4478C39.7878 19.355 39.3378 19.325 38.8878 19.265V20.525C39.3678 20.465 39.8028 20.435 40.4478 20.435H45.7578V22.73C45.7578 23.45 45.7428 23.795 45.6678 24.2H47.0328C46.9578 23.795 46.9278 23.42 46.9278 22.745V20.435H50.6178C51.2478 20.435 51.7128 20.465 52.1778 20.525V19.265C51.7278 19.325 51.2928 19.355 50.6178 19.355H46.9278V16.565H49.5828C50.1828 16.565 50.5578 16.58 50.9478 16.625V15.455C50.5428 15.515 50.1978 15.53 49.5528 15.53H46.9278V13.22H50.2278C50.8728 13.22 51.2028 13.235 51.6228 13.295V12.11C51.2328 12.17 50.8878 12.185 50.2278 12.185H42.9228C42.9978 12.02 42.9978 12.02 43.1178 11.75C43.3578 11.225 43.3578 11.225 43.4478 11.045C43.5378 10.85 43.5678 10.79 43.6428 10.625L42.3828 10.31C42.3078 10.625 42.2028 10.955 42.0078 11.405C41.3178 13.025 40.5228 14.09 39.0228 15.365C39.3978 15.635 39.5628 15.815 39.8478 16.265C40.8678 15.365 41.5428 14.525 42.3378 13.22H45.7578V15.53H42.5028C42.0828 15.53 41.7528 15.515 41.4378 15.485C41.4678 15.77 41.4828 16.04 41.4828 16.37V19.355ZM42.6378 19.355V16.565H45.7578V19.355H42.6378Z" fill="white"/>
</g>
<rect x="78" y="4" width="74" height="27" rx="2" fill="#F5F5F5"/>
<path d="M102.66 20.42C102.93 21.2 103.11 21.545 103.455 21.95C104.19 22.79 105.36 23.225 106.95 23.225C108.375 23.225 109.53 22.835 110.28 22.1C110.835 21.56 111.15 20.765 111.15 19.94C111.15 19.07 110.91 18.41 110.43 17.885C109.92 17.33 109.335 17.075 108.3 16.94C109.02 16.79 109.335 16.67 109.71 16.4C110.385 15.92 110.76 15.11 110.76 14.195C110.76 12.365 109.305 11.18 107.055 11.18C105.735 11.18 104.685 11.555 103.98 12.275C103.56 12.71 103.365 13.07 103.095 13.88L104.595 14.195C104.745 13.67 104.85 13.43 105.06 13.175C105.465 12.65 106.08 12.395 106.98 12.395C108.435 12.395 109.29 13.1 109.29 14.27C109.29 14.84 109.08 15.35 108.72 15.71C108.255 16.16 107.565 16.37 106.605 16.37C106.17 16.37 105.78 16.34 105.42 16.295V17.675C105.87 17.615 106.245 17.585 106.695 17.585C108.63 17.585 109.65 18.335 109.65 19.775C109.65 21.14 108.6 21.995 106.935 21.995C106.17 21.995 105.54 21.815 105.03 21.44C104.595 21.125 104.4 20.825 104.175 20.075L102.66 20.42ZM115.483 19.355H114.448C113.788 19.355 113.338 19.325 112.888 19.265V20.525C113.368 20.465 113.803 20.435 114.448 20.435H119.758V22.73C119.758 23.45 119.743 23.795 119.668 24.2H121.033C120.958 23.795 120.928 23.42 120.928 22.745V20.435H124.618C125.248 20.435 125.713 20.465 126.178 20.525V19.265C125.728 19.325 125.293 19.355 124.618 19.355H120.928V16.565H123.583C124.183 16.565 124.558 16.58 124.948 16.625V15.455C124.543 15.515 124.198 15.53 123.553 15.53H120.928V13.22H124.228C124.873 13.22 125.203 13.235 125.623 13.295V12.11C125.233 12.17 124.888 12.185 124.228 12.185H116.923C116.998 12.02 116.998 12.02 117.118 11.75C117.358 11.225 117.358 11.225 117.448 11.045C117.538 10.85 117.568 10.79 117.643 10.625L116.383 10.31C116.308 10.625 116.203 10.955 116.008 11.405C115.318 13.025 114.523 14.09 113.023 15.365C113.398 15.635 113.563 15.815 113.848 16.265C114.868 15.365 115.543 14.525 116.338 13.22H119.758V15.53H116.503C116.083 15.53 115.753 15.515 115.438 15.485C115.468 15.77 115.483 16.04 115.483 16.37V19.355ZM116.638 19.355V16.565H119.758V19.355H116.638Z" fill="#898B8C"/>
<rect x="152" y="4" width="74" height="27" rx="2" fill="#F5F5F5"/>
<path d="M179.12 12.65H182.645C183.395 12.65 183.89 12.68 184.49 12.77V11.315C183.875 11.405 183.515 11.435 182.63 11.435H179.39C178.535 11.435 178.235 11.42 177.785 11.36C177.815 11.825 177.815 11.84 177.815 11.885C177.815 12.305 177.815 12.41 177.755 12.905L177.425 16.385C177.38 16.985 177.335 17.27 177.215 17.945L178.55 18.065C178.685 17.75 178.76 17.63 178.955 17.435C179.48 16.895 180.245 16.58 180.995 16.58C182.66 16.58 183.65 17.57 183.65 19.22C183.65 20.885 182.57 21.98 180.935 21.98C180.095 21.98 179.375 21.68 178.895 21.14C178.685 20.885 178.58 20.69 178.43 20.255L176.96 20.645C177.305 21.395 177.515 21.725 177.905 22.115C178.655 22.85 179.66 23.225 180.92 23.225C183.485 23.225 185.105 21.65 185.105 19.16C185.105 16.895 183.605 15.41 181.325 15.41C180.29 15.41 179.45 15.74 178.715 16.43C178.805 16.01 178.805 16.01 178.82 15.755L179.12 12.65ZM189.483 19.355H188.448C187.788 19.355 187.338 19.325 186.888 19.265V20.525C187.368 20.465 187.803 20.435 188.448 20.435H193.758V22.73C193.758 23.45 193.743 23.795 193.668 24.2H195.033C194.958 23.795 194.928 23.42 194.928 22.745V20.435H198.618C199.248 20.435 199.713 20.465 200.178 20.525V19.265C199.728 19.325 199.293 19.355 198.618 19.355H194.928V16.565H197.583C198.183 16.565 198.558 16.58 198.948 16.625V15.455C198.543 15.515 198.198 15.53 197.553 15.53H194.928V13.22H198.228C198.873 13.22 199.203 13.235 199.623 13.295V12.11C199.233 12.17 198.888 12.185 198.228 12.185H190.923C190.998 12.02 190.998 12.02 191.118 11.75C191.358 11.225 191.358 11.225 191.448 11.045C191.538 10.85 191.568 10.79 191.643 10.625L190.383 10.31C190.308 10.625 190.203 10.955 190.008 11.405C189.318 13.025 188.523 14.09 187.023 15.365C187.398 15.635 187.563 15.815 187.848 16.265C188.868 15.365 189.543 14.525 190.338 13.22H193.758V15.53H190.503C190.083 15.53 189.753 15.515 189.438 15.485C189.468 15.77 189.483 16.04 189.483 16.37V19.355ZM190.638 19.355V16.565H193.758V19.355H190.638Z" fill="#898B8C"/>
<rect x="226" y="4" width="84" height="27" rx="2" fill="#F5F5F5"/>
<path d="M252.385 12.755C252.865 12.695 253.255 12.665 253.765 12.665H254.545V21.23C254.545 21.935 254.515 22.445 254.425 23H256.09C256 22.415 255.97 21.95 255.97 21.23V13.85C255.97 13.025 256.015 12.26 256.105 11.36C255.595 11.42 255.34 11.435 254.77 11.435H253.705C253.105 11.435 252.805 11.42 252.385 11.36V12.755ZM265.118 23.21C266.558 23.21 267.668 22.67 268.448 21.59C269.108 20.66 269.513 19.025 269.513 17.225C269.513 15.965 269.318 14.795 268.928 13.745C268.748 13.25 268.433 12.755 268.013 12.335C267.308 11.615 266.303 11.225 265.148 11.225C263.603 11.225 262.403 11.885 261.653 13.145C261.113 14.015 260.768 15.635 260.768 17.24C260.768 18.455 260.963 19.64 261.353 20.69C261.533 21.2 261.848 21.68 262.268 22.1C263.003 22.835 263.963 23.21 265.118 23.21ZM265.118 12.455C266.168 12.455 266.933 12.905 267.413 13.805C267.788 14.495 268.058 15.935 268.058 17.21C268.058 18.26 267.923 19.205 267.623 20.105C267.488 20.555 267.233 20.96 266.918 21.29C266.483 21.74 265.853 21.98 265.133 21.98C264.158 21.98 263.408 21.56 262.898 20.72C262.493 20.045 262.208 18.605 262.208 17.255C262.208 16.19 262.358 15.2 262.643 14.33C262.763 13.94 262.988 13.565 263.303 13.22C263.768 12.695 264.353 12.455 265.118 12.455ZM273.576 19.355H272.541C271.881 19.355 271.431 19.325 270.981 19.265V20.525C271.461 20.465 271.896 20.435 272.541 20.435H277.851V22.73C277.851 23.45 277.836 23.795 277.761 24.2H279.126C279.051 23.795 279.021 23.42 279.021 22.745V20.435H282.711C283.341 20.435 283.806 20.465 284.271 20.525V19.265C283.821 19.325 283.386 19.355 282.711 19.355H279.021V16.565H281.676C282.276 16.565 282.651 16.58 283.041 16.625V15.455C282.636 15.515 282.291 15.53 281.646 15.53H279.021V13.22H282.321C282.966 13.22 283.296 13.235 283.716 13.295V12.11C283.326 12.17 282.981 12.185 282.321 12.185H275.016C275.091 12.02 275.091 12.02 275.211 11.75C275.451 11.225 275.451 11.225 275.541 11.045C275.631 10.85 275.661 10.79 275.736 10.625L274.476 10.31C274.401 10.625 274.296 10.955 274.101 11.405C273.411 13.025 272.616 14.09 271.116 15.365C271.491 15.635 271.656 15.815 271.941 16.265C272.961 15.365 273.636 14.525 274.431 13.22H277.851V15.53H274.596C274.176 15.53 273.846 15.515 273.531 15.485C273.561 15.77 273.576 16.04 273.576 16.37V19.355ZM274.731 19.355V16.565H277.851V19.355H274.731Z" fill="#898B8C"/>
</g>
<line x1="50" y1="101.5" x2="1077" y2="101.5" stroke="#E3E3E3"/>
<line x1="50" y1="59.5" x2="1077" y2="59.5" stroke="#E3E3E3"/>
<line x1="50" y1="143.5" x2="1077" y2="143.5" stroke="#E3E3E3"/>
<line x1="50" y1="185.5" x2="1077" y2="185.5" stroke="#E3E3E3"/>
<line y1="56.5" x2="529" y2="56.5" stroke="black" stroke-opacity="0.06"/>
<path d="M344.253 22C344.955 22 345.397 22.013 345.956 22.065V20.804C345.501 20.869 344.968 20.895 344.279 20.895H340.262C340.6 19.738 341.263 18.997 342.979 17.853C344.461 16.865 344.786 16.605 345.202 16.085C345.592 15.617 345.813 15.006 345.813 14.395C345.813 12.809 344.5 11.782 342.472 11.782C341.276 11.782 340.353 12.133 339.742 12.822C339.3 13.329 339.079 13.823 338.897 14.759L340.21 14.954C340.314 14.317 340.418 14.005 340.652 13.667C341.029 13.121 341.64 12.848 342.485 12.848C343.72 12.848 344.513 13.446 344.513 14.395C344.513 15.175 344.084 15.734 342.849 16.566C341.562 17.437 341.25 17.658 340.821 18.035C339.989 18.763 339.443 19.504 339.105 20.362C338.91 20.856 338.871 21.064 338.741 22.052C339.17 22.013 339.378 22 340.249 22H344.253ZM351.102 22.182C352.35 22.182 353.312 21.714 353.988 20.778C354.56 19.972 354.911 18.555 354.911 16.995C354.911 15.903 354.742 14.889 354.404 13.979C354.248 13.55 353.975 13.121 353.611 12.757C353 12.133 352.129 11.795 351.128 11.795C349.789 11.795 348.749 12.367 348.099 13.459C347.631 14.213 347.332 15.617 347.332 17.008C347.332 18.061 347.501 19.088 347.839 19.998C347.995 20.44 348.268 20.856 348.632 21.22C349.269 21.857 350.101 22.182 351.102 22.182ZM351.102 12.861C352.012 12.861 352.675 13.251 353.091 14.031C353.416 14.629 353.65 15.877 353.65 16.982C353.65 17.892 353.533 18.711 353.273 19.491C353.156 19.881 352.935 20.232 352.662 20.518C352.285 20.908 351.739 21.116 351.115 21.116C350.27 21.116 349.62 20.752 349.178 20.024C348.827 19.439 348.58 18.191 348.58 17.021C348.58 16.098 348.71 15.24 348.957 14.486C349.061 14.148 349.256 13.823 349.529 13.524C349.932 13.069 350.439 12.861 351.102 12.861ZM361.747 22C362.449 22 362.891 22.013 363.45 22.065V20.804C362.995 20.869 362.462 20.895 361.773 20.895H357.756C358.094 19.738 358.757 18.997 360.473 17.853C361.955 16.865 362.28 16.605 362.696 16.085C363.086 15.617 363.307 15.006 363.307 14.395C363.307 12.809 361.994 11.782 359.966 11.782C358.77 11.782 357.847 12.133 357.236 12.822C356.794 13.329 356.573 13.823 356.391 14.759L357.704 14.954C357.808 14.317 357.912 14.005 358.146 13.667C358.523 13.121 359.134 12.848 359.979 12.848C361.214 12.848 362.007 13.446 362.007 14.395C362.007 15.175 361.578 15.734 360.343 16.566C359.056 17.437 358.744 17.658 358.315 18.035C357.483 18.763 356.937 19.504 356.599 20.362C356.404 20.856 356.365 21.064 356.235 22.052C356.664 22.013 356.872 22 357.743 22H361.747ZM366.308 13.121C366.724 13.069 367.062 13.043 367.504 13.043H368.18V20.466C368.18 21.077 368.154 21.519 368.076 22H369.519C369.441 21.493 369.415 21.09 369.415 20.466V14.07C369.415 13.355 369.454 12.692 369.532 11.912C369.09 11.964 368.869 11.977 368.375 11.977H367.452C366.932 11.977 366.672 11.964 366.308 11.912V13.121ZM375.926 18.841H375.029C374.457 18.841 374.067 18.815 373.677 18.763V19.855C374.093 19.803 374.47 19.777 375.029 19.777H379.631V21.766C379.631 22.39 379.618 22.689 379.553 23.04H380.736C380.671 22.689 380.645 22.364 380.645 21.779V19.777H383.843C384.389 19.777 384.792 19.803 385.195 19.855V18.763C384.805 18.815 384.428 18.841 383.843 18.841H380.645V16.423H382.946C383.466 16.423 383.791 16.436 384.129 16.475V15.461C383.778 15.513 383.479 15.526 382.92 15.526H380.645V13.524H383.505C384.064 13.524 384.35 13.537 384.714 13.589V12.562C384.376 12.614 384.077 12.627 383.505 12.627H377.174C377.239 12.484 377.239 12.484 377.343 12.25C377.551 11.795 377.551 11.795 377.629 11.639C377.707 11.47 377.733 11.418 377.798 11.275L376.706 11.002C376.641 11.275 376.55 11.561 376.381 11.951C375.783 13.355 375.094 14.278 373.794 15.383C374.119 15.617 374.262 15.773 374.509 16.163C375.393 15.383 375.978 14.655 376.667 13.524H379.631V15.526H376.81C376.446 15.526 376.16 15.513 375.887 15.487C375.913 15.734 375.926 15.968 375.926 16.254V18.841ZM376.927 18.841V16.423H379.631V18.841H376.927ZM388.055 13.121C388.471 13.069 388.809 13.043 389.251 13.043H389.927V20.466C389.927 21.077 389.901 21.519 389.823 22H391.266C391.188 21.493 391.162 21.09 391.162 20.466V14.07C391.162 13.355 391.201 12.692 391.279 11.912C390.837 11.964 390.616 11.977 390.122 11.977H389.199C388.679 11.977 388.419 11.964 388.055 11.912V13.121ZM404.342 18.724V21.415C404.342 21.727 404.251 21.792 403.809 21.792C403.25 21.792 402.652 21.753 401.989 21.649C402.132 22.052 402.197 22.286 402.249 22.702C402.899 22.741 403.302 22.754 403.679 22.754C404.42 22.754 404.719 22.702 404.966 22.559C405.239 22.377 405.356 22.078 405.356 21.519V13.043C405.356 12.328 405.369 12.042 405.408 11.665C404.966 11.717 404.628 11.73 404.017 11.73H398.973C398.401 11.73 398.05 11.717 397.569 11.665C397.621 12.133 397.634 12.705 397.634 13.823C397.634 16.839 397.491 18.399 397.127 19.634C396.815 20.674 396.412 21.324 395.619 22.104C395.996 22.377 396.217 22.598 396.464 22.936C397.192 22.117 397.582 21.493 397.92 20.596C398.141 20.024 398.297 19.426 398.414 18.724H404.342ZM398.531 17.775C398.609 16.761 398.648 16.163 398.648 15.63H404.342V17.775H398.531ZM398.661 14.681V12.679H404.342V14.681H398.661ZM408.099 19.543C408.554 19.504 408.931 19.491 409.672 19.491H413.195V20.557C413.195 21.168 413.169 21.558 413.078 22H414.456C414.378 21.532 414.352 21.207 414.352 20.57V19.491H414.833C415.379 19.491 415.678 19.517 416.172 19.582V18.347C415.691 18.412 415.353 18.438 414.833 18.438H414.352V14.174C414.352 13.147 414.365 12.77 414.43 11.977H413.221C412.935 12.445 412.701 12.757 412.233 13.329L408.996 17.333C408.684 17.736 408.398 18.061 408.099 18.399V19.543ZM413.195 18.451H409.477L412.324 14.863C412.74 14.356 413 14.005 413.26 13.615C413.208 14.252 413.195 14.642 413.195 15.331V18.451ZM418.705 21.389C418.705 21.974 418.679 22.429 418.627 22.832H419.758V22H426.258V22.832H427.389C427.337 22.403 427.311 22.026 427.311 21.376V13.043C427.311 12.549 427.324 12.198 427.376 11.808C426.999 11.86 426.622 11.873 426.011 11.873H420.057C419.459 11.873 419.056 11.86 418.64 11.808C418.679 12.198 418.705 12.614 418.705 13.121V21.389ZM419.758 12.835H426.258V16.293H419.758V12.835ZM419.758 17.255H426.258V21.038H419.758V17.255ZM430.886 17.736C431.757 16.826 432.381 16.501 433.265 16.501C434.045 16.501 434.526 16.696 435.579 17.45C436.463 18.087 436.853 18.308 437.373 18.477C437.776 18.62 438.192 18.685 438.582 18.685C439.206 18.685 439.856 18.516 440.35 18.23C440.883 17.918 441.247 17.593 441.871 16.839L441.104 16.124C440.584 16.8 440.22 17.112 439.661 17.372C439.31 17.528 438.998 17.593 438.647 17.593C437.932 17.593 437.243 17.307 436.19 16.566C435.397 16.007 435.332 15.968 434.981 15.799C434.461 15.539 433.928 15.422 433.343 15.422C432.654 15.422 432.082 15.578 431.432 15.968C430.925 16.267 430.652 16.488 430.132 17.047L430.886 17.736ZM448.761 22C449.463 22 449.905 22.013 450.464 22.065V20.804C450.009 20.869 449.476 20.895 448.787 20.895H444.77C445.108 19.738 445.771 18.997 447.487 17.853C448.969 16.865 449.294 16.605 449.71 16.085C450.1 15.617 450.321 15.006 450.321 14.395C450.321 12.809 449.008 11.782 446.98 11.782C445.784 11.782 444.861 12.133 444.25 12.822C443.808 13.329 443.587 13.823 443.405 14.759L444.718 14.954C444.822 14.317 444.926 14.005 445.16 13.667C445.537 13.121 446.148 12.848 446.993 12.848C448.228 12.848 449.021 13.446 449.021 14.395C449.021 15.175 448.592 15.734 447.357 16.566C446.07 17.437 445.758 17.658 445.329 18.035C444.497 18.763 443.951 19.504 443.613 20.362C443.418 20.856 443.379 21.064 443.249 22.052C443.678 22.013 443.886 22 444.757 22H448.761ZM455.61 22.182C456.858 22.182 457.82 21.714 458.496 20.778C459.068 19.972 459.419 18.555 459.419 16.995C459.419 15.903 459.25 14.889 458.912 13.979C458.756 13.55 458.483 13.121 458.119 12.757C457.508 12.133 456.637 11.795 455.636 11.795C454.297 11.795 453.257 12.367 452.607 13.459C452.139 14.213 451.84 15.617 451.84 17.008C451.84 18.061 452.009 19.088 452.347 19.998C452.503 20.44 452.776 20.856 453.14 21.22C453.777 21.857 454.609 22.182 455.61 22.182ZM455.61 12.861C456.52 12.861 457.183 13.251 457.599 14.031C457.924 14.629 458.158 15.877 458.158 16.982C458.158 17.892 458.041 18.711 457.781 19.491C457.664 19.881 457.443 20.232 457.17 20.518C456.793 20.908 456.247 21.116 455.623 21.116C454.778 21.116 454.128 20.752 453.686 20.024C453.335 19.439 453.088 18.191 453.088 17.021C453.088 16.098 453.218 15.24 453.465 14.486C453.569 14.148 453.764 13.823 454.037 13.524C454.44 13.069 454.947 12.861 455.61 12.861ZM466.255 22C466.957 22 467.399 22.013 467.958 22.065V20.804C467.503 20.869 466.97 20.895 466.281 20.895H462.264C462.602 19.738 463.265 18.997 464.981 17.853C466.463 16.865 466.788 16.605 467.204 16.085C467.594 15.617 467.815 15.006 467.815 14.395C467.815 12.809 466.502 11.782 464.474 11.782C463.278 11.782 462.355 12.133 461.744 12.822C461.302 13.329 461.081 13.823 460.899 14.759L462.212 14.954C462.316 14.317 462.42 14.005 462.654 13.667C463.031 13.121 463.642 12.848 464.487 12.848C465.722 12.848 466.515 13.446 466.515 14.395C466.515 15.175 466.086 15.734 464.851 16.566C463.564 17.437 463.252 17.658 462.823 18.035C461.991 18.763 461.445 19.504 461.107 20.362C460.912 20.856 460.873 21.064 460.743 22.052C461.172 22.013 461.38 22 462.251 22H466.255ZM475.002 22C475.704 22 476.146 22.013 476.705 22.065V20.804C476.25 20.869 475.717 20.895 475.028 20.895H471.011C471.349 19.738 472.012 18.997 473.728 17.853C475.21 16.865 475.535 16.605 475.951 16.085C476.341 15.617 476.562 15.006 476.562 14.395C476.562 12.809 475.249 11.782 473.221 11.782C472.025 11.782 471.102 12.133 470.491 12.822C470.049 13.329 469.828 13.823 469.646 14.759L470.959 14.954C471.063 14.317 471.167 14.005 471.401 13.667C471.778 13.121 472.389 12.848 473.234 12.848C474.469 12.848 475.262 13.446 475.262 14.395C475.262 15.175 474.833 15.734 473.598 16.566C472.311 17.437 471.999 17.658 471.57 18.035C470.738 18.763 470.192 19.504 469.854 20.362C469.659 20.856 469.62 21.064 469.49 22.052C469.919 22.013 470.127 22 470.998 22H475.002ZM480.434 18.841H479.537C478.965 18.841 478.575 18.815 478.185 18.763V19.855C478.601 19.803 478.978 19.777 479.537 19.777H484.139V21.766C484.139 22.39 484.126 22.689 484.061 23.04H485.244C485.179 22.689 485.153 22.364 485.153 21.779V19.777H488.351C488.897 19.777 489.3 19.803 489.703 19.855V18.763C489.313 18.815 488.936 18.841 488.351 18.841H485.153V16.423H487.454C487.974 16.423 488.299 16.436 488.637 16.475V15.461C488.286 15.513 487.987 15.526 487.428 15.526H485.153V13.524H488.013C488.572 13.524 488.858 13.537 489.222 13.589V12.562C488.884 12.614 488.585 12.627 488.013 12.627H481.682C481.747 12.484 481.747 12.484 481.851 12.25C482.059 11.795 482.059 11.795 482.137 11.639C482.215 11.47 482.241 11.418 482.306 11.275L481.214 11.002C481.149 11.275 481.058 11.561 480.889 11.951C480.291 13.355 479.602 14.278 478.302 15.383C478.627 15.617 478.77 15.773 479.017 16.163C479.901 15.383 480.486 14.655 481.175 13.524H484.139V15.526H481.318C480.954 15.526 480.668 15.513 480.395 15.487C480.421 15.734 480.434 15.968 480.434 16.254V18.841ZM481.435 18.841V16.423H484.139V18.841H481.435ZM492.563 13.121C492.979 13.069 493.317 13.043 493.759 13.043H494.435V20.466C494.435 21.077 494.409 21.519 494.331 22H495.774C495.696 21.493 495.67 21.09 495.67 20.466V14.07C495.67 13.355 495.709 12.692 495.787 11.912C495.345 11.964 495.124 11.977 494.63 11.977H493.707C493.187 11.977 492.927 11.964 492.563 11.912V13.121ZM505.496 22C506.198 22 506.64 22.013 507.199 22.065V20.804C506.744 20.869 506.211 20.895 505.522 20.895H501.505C501.843 19.738 502.506 18.997 504.222 17.853C505.704 16.865 506.029 16.605 506.445 16.085C506.835 15.617 507.056 15.006 507.056 14.395C507.056 12.809 505.743 11.782 503.715 11.782C502.519 11.782 501.596 12.133 500.985 12.822C500.543 13.329 500.322 13.823 500.14 14.759L501.453 14.954C501.557 14.317 501.661 14.005 501.895 13.667C502.272 13.121 502.883 12.848 503.728 12.848C504.963 12.848 505.756 13.446 505.756 14.395C505.756 15.175 505.327 15.734 504.092 16.566C502.805 17.437 502.493 17.658 502.064 18.035C501.232 18.763 500.686 19.504 500.348 20.362C500.153 20.856 500.114 21.064 499.984 22.052C500.413 22.013 500.621 22 501.492 22H505.496ZM517.597 18.724V21.415C517.597 21.727 517.506 21.792 517.064 21.792C516.505 21.792 515.907 21.753 515.244 21.649C515.387 22.052 515.452 22.286 515.504 22.702C516.154 22.741 516.557 22.754 516.934 22.754C517.675 22.754 517.974 22.702 518.221 22.559C518.494 22.377 518.611 22.078 518.611 21.519V13.043C518.611 12.328 518.624 12.042 518.663 11.665C518.221 11.717 517.883 11.73 517.272 11.73H512.228C511.656 11.73 511.305 11.717 510.824 11.665C510.876 12.133 510.889 12.705 510.889 13.823C510.889 16.839 510.746 18.399 510.382 19.634C510.07 20.674 509.667 21.324 508.874 22.104C509.251 22.377 509.472 22.598 509.719 22.936C510.447 22.117 510.837 21.493 511.175 20.596C511.396 20.024 511.552 19.426 511.669 18.724H517.597ZM511.786 17.775C511.864 16.761 511.903 16.163 511.903 15.63H517.597V17.775H511.786ZM511.916 14.681V12.679H517.597V14.681H511.916ZM521.354 19.543C521.809 19.504 522.186 19.491 522.927 19.491H526.45V20.557C526.45 21.168 526.424 21.558 526.333 22H527.711C527.633 21.532 527.607 21.207 527.607 20.57V19.491H528.088C528.634 19.491 528.933 19.517 529.427 19.582V18.347C528.946 18.412 528.608 18.438 528.088 18.438H527.607V14.174C527.607 13.147 527.62 12.77 527.685 11.977H526.476C526.19 12.445 525.956 12.757 525.488 13.329L522.251 17.333C521.939 17.736 521.653 18.061 521.354 18.399V19.543ZM526.45 18.451H522.732L525.579 14.863C525.995 14.356 526.255 14.005 526.515 13.615C526.463 14.252 526.45 14.642 526.45 15.331V18.451ZM531.96 21.389C531.96 21.974 531.934 22.429 531.882 22.832H533.013V22H539.513V22.832H540.644C540.592 22.403 540.566 22.026 540.566 21.376V13.043C540.566 12.549 540.579 12.198 540.631 11.808C540.254 11.86 539.877 11.873 539.266 11.873H533.312C532.714 11.873 532.311 11.86 531.895 11.808C531.934 12.198 531.96 12.614 531.96 13.121V21.389ZM533.013 12.835H539.513V16.293H533.013V12.835ZM533.013 17.255H539.513V21.038H533.013V17.255Z" fill="#525252"/>
<path d="M6.54845 55.121C6.96445 55.069 7.30245 55.043 7.74445 55.043H8.42045V62.466C8.42045 63.077 8.39445 63.519 8.31645 64H9.75945C9.68145 63.493 9.65545 63.09 9.65545 62.466V56.07C9.65545 55.355 9.69445 54.692 9.77245 53.912C9.33045 53.964 9.10945 53.977 8.61545 53.977H7.69245C7.17245 53.977 6.91245 53.964 6.54845 53.912V55.121ZM17.5835 64.182C18.8315 64.182 19.7935 63.714 20.4695 62.778C21.0415 61.972 21.3925 60.555 21.3925 58.995C21.3925 57.903 21.2235 56.889 20.8855 55.979C20.7295 55.55 20.4565 55.121 20.0925 54.757C19.4815 54.133 18.6105 53.795 17.6095 53.795C16.2705 53.795 15.2305 54.367 14.5805 55.459C14.1125 56.213 13.8135 57.617 13.8135 59.008C13.8135 60.061 13.9825 61.088 14.3205 61.998C14.4765 62.44 14.7495 62.856 15.1135 63.22C15.7505 63.857 16.5825 64.182 17.5835 64.182ZM17.5835 54.861C18.4935 54.861 19.1565 55.251 19.5725 56.031C19.8975 56.629 20.1315 57.877 20.1315 58.982C20.1315 59.892 20.0145 60.711 19.7545 61.491C19.6375 61.881 19.4165 62.232 19.1435 62.518C18.7665 62.908 18.2205 63.116 17.5965 63.116C16.7515 63.116 16.1015 62.752 15.6595 62.024C15.3085 61.439 15.0615 60.191 15.0615 59.021C15.0615 58.098 15.1915 57.24 15.4385 56.486C15.5425 56.148 15.7375 55.823 16.0105 55.524C16.4135 55.069 16.9205 54.861 17.5835 54.861ZM24.8356 59.411C25.4726 59.411 26.0316 59.203 26.4346 58.8C26.9156 58.332 27.1626 57.578 27.1626 56.59C27.1626 54.822 26.3046 53.795 24.8356 53.795C24.1986 53.795 23.6266 54.016 23.2366 54.406C22.7556 54.9 22.5086 55.641 22.5086 56.629C22.5086 57.578 22.7686 58.345 23.2366 58.8C23.6266 59.203 24.1986 59.411 24.8356 59.411ZM24.8356 54.666C25.6676 54.666 26.1486 55.368 26.1486 56.577C26.1486 57.851 25.6806 58.553 24.8356 58.553C23.9906 58.553 23.5226 57.851 23.5226 56.577C23.5226 55.368 24.0036 54.666 24.8356 54.666ZM23.5226 63.805L24.0946 64.26L32.0636 54.146L31.4786 53.691L23.5226 63.805ZM30.7376 64.169C31.3746 64.169 31.9336 63.961 32.3366 63.558C32.8176 63.09 33.0646 62.336 33.0646 61.348C33.0646 59.58 32.2196 58.553 30.7376 58.553C29.2686 58.553 28.4106 59.593 28.4106 61.348C28.4106 62.336 28.6576 63.103 29.1386 63.558C29.5416 63.961 30.1006 64.169 30.7376 64.169ZM30.7376 59.424C31.5696 59.424 32.0506 60.126 32.0506 61.335C32.0506 62.609 31.5826 63.311 30.7376 63.311C29.8926 63.311 29.4246 62.609 29.4246 61.335C29.4246 60.126 29.9056 59.424 30.7376 59.424Z" fill="#242424"/>
<path d="M16.059 97.03H19.114C19.764 97.03 20.193 97.056 20.713 97.134V95.873C20.18 95.951 19.868 95.977 19.101 95.977H16.293C15.552 95.977 15.292 95.964 14.902 95.912C14.928 96.315 14.928 96.328 14.928 96.367C14.928 96.731 14.928 96.822 14.876 97.251L14.59 100.267C14.551 100.787 14.512 101.034 14.408 101.619L15.565 101.723C15.682 101.45 15.747 101.346 15.916 101.177C16.371 100.709 17.034 100.436 17.684 100.436C19.127 100.436 19.985 101.294 19.985 102.724C19.985 104.167 19.049 105.116 17.632 105.116C16.904 105.116 16.28 104.856 15.864 104.388C15.682 104.167 15.591 103.998 15.461 103.621L14.187 103.959C14.486 104.609 14.668 104.895 15.006 105.233C15.656 105.87 16.527 106.195 17.619 106.195C19.842 106.195 21.246 104.83 21.246 102.672C21.246 100.709 19.946 99.422 17.97 99.422C17.073 99.422 16.345 99.708 15.708 100.306C15.786 99.942 15.786 99.942 15.799 99.721L16.059 97.03ZM24.9621 101.411C25.5991 101.411 26.1581 101.203 26.5611 100.8C27.0421 100.332 27.2891 99.578 27.2891 98.59C27.2891 96.822 26.4311 95.795 24.9621 95.795C24.3251 95.795 23.7531 96.016 23.3631 96.406C22.8821 96.9 22.6351 97.641 22.6351 98.629C22.6351 99.578 22.8951 100.345 23.3631 100.8C23.7531 101.203 24.3251 101.411 24.9621 101.411ZM24.9621 96.666C25.7941 96.666 26.2751 97.368 26.2751 98.577C26.2751 99.851 25.8071 100.553 24.9621 100.553C24.1171 100.553 23.6491 99.851 23.6491 98.577C23.6491 97.368 24.1301 96.666 24.9621 96.666ZM23.6491 105.805L24.2211 106.26L32.1901 96.146L31.6051 95.691L23.6491 105.805ZM30.8641 106.169C31.5011 106.169 32.0601 105.961 32.4631 105.558C32.9441 105.09 33.1911 104.336 33.1911 103.348C33.1911 101.58 32.3461 100.553 30.8641 100.553C29.3951 100.553 28.5371 101.593 28.5371 103.348C28.5371 104.336 28.7841 105.103 29.2651 105.558C29.6681 105.961 30.2271 106.169 30.8641 106.169ZM30.8641 101.424C31.6961 101.424 32.1771 102.126 32.1771 103.335C32.1771 104.609 31.7091 105.311 30.8641 105.311C30.0191 105.311 29.5511 104.609 29.5511 103.335C29.5511 102.126 30.0321 101.424 30.8641 101.424Z" fill="#242424"/>
<path d="M17.71 148.182C18.958 148.182 19.92 147.714 20.596 146.778C21.168 145.972 21.519 144.555 21.519 142.995C21.519 141.903 21.35 140.889 21.012 139.979C20.856 139.55 20.583 139.121 20.219 138.757C19.608 138.133 18.737 137.795 17.736 137.795C16.397 137.795 15.357 138.367 14.707 139.459C14.239 140.213 13.94 141.617 13.94 143.008C13.94 144.061 14.109 145.088 14.447 145.998C14.603 146.44 14.876 146.856 15.24 147.22C15.877 147.857 16.709 148.182 17.71 148.182ZM17.71 138.861C18.62 138.861 19.283 139.251 19.699 140.031C20.024 140.629 20.258 141.877 20.258 142.982C20.258 143.892 20.141 144.711 19.881 145.491C19.764 145.881 19.543 146.232 19.27 146.518C18.893 146.908 18.347 147.116 17.723 147.116C16.878 147.116 16.228 146.752 15.786 146.024C15.435 145.439 15.188 144.191 15.188 143.021C15.188 142.098 15.318 141.24 15.565 140.486C15.669 140.148 15.864 139.823 16.137 139.524C16.54 139.069 17.047 138.861 17.71 138.861ZM24.9621 143.411C25.5991 143.411 26.1581 143.203 26.5611 142.8C27.0421 142.332 27.2891 141.578 27.2891 140.59C27.2891 138.822 26.4311 137.795 24.9621 137.795C24.3251 137.795 23.7531 138.016 23.3631 138.406C22.8821 138.9 22.6351 139.641 22.6351 140.629C22.6351 141.578 22.8951 142.345 23.3631 142.8C23.7531 143.203 24.3251 143.411 24.9621 143.411ZM24.9621 138.666C25.7941 138.666 26.2751 139.368 26.2751 140.577C26.2751 141.851 25.8071 142.553 24.9621 142.553C24.1171 142.553 23.6491 141.851 23.6491 140.577C23.6491 139.368 24.1301 138.666 24.9621 138.666ZM23.6491 147.805L24.2211 148.26L32.1901 138.146L31.6051 137.691L23.6491 147.805ZM30.8641 148.169C31.5011 148.169 32.0601 147.961 32.4631 147.558C32.9441 147.09 33.1911 146.336 33.1911 145.348C33.1911 143.58 32.3461 142.553 30.8641 142.553C29.3951 142.553 28.5371 143.593 28.5371 145.348C28.5371 146.336 28.7841 147.103 29.2651 147.558C29.6681 147.961 30.2271 148.169 30.8641 148.169ZM30.8641 143.424C31.6961 143.424 32.1771 144.126 32.1771 145.335C32.1771 146.609 31.7091 147.311 30.8641 147.311C30.0191 147.311 29.5511 146.609 29.5511 145.335C29.5511 144.126 30.0321 143.424 30.8641 143.424Z" fill="#242424"/>
<path d="M8.82018 186.789C9.21018 186.737 9.49618 186.724 10.0162 186.724H11.6932C12.2392 186.724 12.5122 186.737 12.9022 186.789V185.528C12.5382 185.58 12.2522 185.593 11.6932 185.593H10.0162C9.47018 185.593 9.18418 185.58 8.82018 185.528V186.789ZM15.9838 181.03H19.0388C19.6888 181.03 20.1178 181.056 20.6378 181.134V179.873C20.1048 179.951 19.7928 179.977 19.0258 179.977H16.2178C15.4768 179.977 15.2168 179.964 14.8268 179.912C14.8528 180.315 14.8528 180.328 14.8528 180.367C14.8528 180.731 14.8528 180.822 14.8008 181.251L14.5148 184.267C14.4758 184.787 14.4368 185.034 14.3328 185.619L15.4898 185.723C15.6068 185.45 15.6718 185.346 15.8408 185.177C16.2958 184.709 16.9588 184.436 17.6088 184.436C19.0518 184.436 19.9098 185.294 19.9098 186.724C19.9098 188.167 18.9738 189.116 17.5568 189.116C16.8288 189.116 16.2048 188.856 15.7888 188.388C15.6068 188.167 15.5158 187.998 15.3858 187.621L14.1118 187.959C14.4108 188.609 14.5928 188.895 14.9308 189.233C15.5808 189.87 16.4518 190.195 17.5438 190.195C19.7668 190.195 21.1708 188.83 21.1708 186.672C21.1708 184.709 19.8708 183.422 17.8948 183.422C16.9978 183.422 16.2698 183.708 15.6328 184.306C15.7108 183.942 15.7108 183.942 15.7238 183.721L15.9838 181.03ZM24.8869 185.411C25.5239 185.411 26.0829 185.203 26.4859 184.8C26.9669 184.332 27.2139 183.578 27.2139 182.59C27.2139 180.822 26.3559 179.795 24.8869 179.795C24.2499 179.795 23.6779 180.016 23.2879 180.406C22.8069 180.9 22.5599 181.641 22.5599 182.629C22.5599 183.578 22.8199 184.345 23.2879 184.8C23.6779 185.203 24.2499 185.411 24.8869 185.411ZM24.8869 180.666C25.7189 180.666 26.1999 181.368 26.1999 182.577C26.1999 183.851 25.7319 184.553 24.8869 184.553C24.0419 184.553 23.5739 183.851 23.5739 182.577C23.5739 181.368 24.0549 180.666 24.8869 180.666ZM23.5739 189.805L24.1459 190.26L32.1149 180.146L31.5299 179.691L23.5739 189.805ZM30.7889 190.169C31.4259 190.169 31.9849 189.961 32.3879 189.558C32.8689 189.09 33.1159 188.336 33.1159 187.348C33.1159 185.58 32.2709 184.553 30.7889 184.553C29.3199 184.553 28.4619 185.593 28.4619 187.348C28.4619 188.336 28.7089 189.103 29.1899 189.558C29.5929 189.961 30.1519 190.169 30.7889 190.169ZM30.7889 185.424C31.6209 185.424 32.1019 186.126 32.1019 187.335C32.1019 188.609 31.6339 189.311 30.7889 189.311C29.9439 189.311 29.4759 188.609 29.4759 187.335C29.4759 186.126 29.9569 185.424 30.7889 185.424Z" fill="#242424"/>
<path d="M0.446641 228.789C0.836641 228.737 1.12264 228.724 1.64264 228.724H3.31964C3.86564 228.724 4.13864 228.737 4.52864 228.789V227.528C4.16464 227.58 3.87864 227.593 3.31964 227.593H1.64264C1.09664 227.593 0.810641 227.58 0.446641 227.528V228.789ZM6.97325 223.121C7.38925 223.069 7.72725 223.043 8.16925 223.043H8.84525V230.466C8.84525 231.077 8.81925 231.519 8.74125 232H10.1843C10.1063 231.493 10.0803 231.09 10.0803 230.466V224.07C10.0803 223.355 10.1193 222.692 10.1973 221.912C9.75525 221.964 9.53425 221.977 9.04025 221.977H8.11725C7.59725 221.977 7.33725 221.964 6.97325 221.912V223.121ZM18.0083 232.182C19.2563 232.182 20.2183 231.714 20.8943 230.778C21.4663 229.972 21.8173 228.555 21.8173 226.995C21.8173 225.903 21.6483 224.889 21.3103 223.979C21.1543 223.55 20.8813 223.121 20.5173 222.757C19.9063 222.133 19.0353 221.795 18.0343 221.795C16.6953 221.795 15.6553 222.367 15.0053 223.459C14.5373 224.213 14.2383 225.617 14.2383 227.008C14.2383 228.061 14.4073 229.088 14.7453 229.998C14.9013 230.44 15.1743 230.856 15.5383 231.22C16.1753 231.857 17.0073 232.182 18.0083 232.182ZM18.0083 222.861C18.9183 222.861 19.5813 223.251 19.9973 224.031C20.3223 224.629 20.5563 225.877 20.5563 226.982C20.5563 227.892 20.4393 228.711 20.1793 229.491C20.0623 229.881 19.8413 230.232 19.5683 230.518C19.1913 230.908 18.6453 231.116 18.0213 231.116C17.1763 231.116 16.5263 230.752 16.0843 230.024C15.7333 229.439 15.4863 228.191 15.4863 227.021C15.4863 226.098 15.6163 225.24 15.8633 224.486C15.9673 224.148 16.1623 223.823 16.4353 223.524C16.8383 223.069 17.3453 222.861 18.0083 222.861ZM25.2604 227.411C25.8974 227.411 26.4564 227.203 26.8594 226.8C27.3404 226.332 27.5874 225.578 27.5874 224.59C27.5874 222.822 26.7294 221.795 25.2604 221.795C24.6234 221.795 24.0514 222.016 23.6614 222.406C23.1804 222.9 22.9334 223.641 22.9334 224.629C22.9334 225.578 23.1934 226.345 23.6614 226.8C24.0514 227.203 24.6234 227.411 25.2604 227.411ZM25.2604 222.666C26.0924 222.666 26.5734 223.368 26.5734 224.577C26.5734 225.851 26.1054 226.553 25.2604 226.553C24.4154 226.553 23.9474 225.851 23.9474 224.577C23.9474 223.368 24.4284 222.666 25.2604 222.666ZM23.9474 231.805L24.5194 232.26L32.4884 222.146L31.9034 221.691L23.9474 231.805ZM31.1624 232.169C31.7994 232.169 32.3584 231.961 32.7614 231.558C33.2424 231.09 33.4894 230.336 33.4894 229.348C33.4894 227.58 32.6444 226.553 31.1624 226.553C29.6934 226.553 28.8354 227.593 28.8354 229.348C28.8354 230.336 29.0824 231.103 29.5634 231.558C29.9664 231.961 30.5254 232.169 31.1624 232.169ZM31.1624 227.424C31.9944 227.424 32.4754 228.126 32.4754 229.335C32.4754 230.609 32.0074 231.311 31.1624 231.311C30.3174 231.311 29.8494 230.609 29.8494 229.335C29.8494 228.126 30.3304 227.424 31.1624 227.424Z" fill="#242424"/>
<path d="M50 142.961L148.615 135.029L241.594 123.029L334.573 110.029L427.553 119.029L519.828 127.529L612.807 142.529L705.787 138.529M891.746 159.029L985.429 155.151L1077 142.529" stroke="#69A6DF" stroke-width="1.5"/>
<path d="M704 138L797.981 167L891.255 159.368L983.116 155.298L1077 142" stroke="#EE2A1C" stroke-width="1.5"/>
<circle cx="54.043" cy="143" r="4" fill="white" stroke="#69A6DF" stroke-width="1.5"/>
<circle cx="147.039" cy="135" r="4" fill="white" stroke="#69A6DF" stroke-width="1.5"/>
<circle cx="240.035" cy="123" r="4" fill="white" stroke="#69A6DF" stroke-width="1.5"/>
<circle cx="333.031" cy="111" r="4" fill="white" stroke="#69A6DF" stroke-width="1.5"/>
<circle cx="426.027" cy="119" r="4" fill="white" stroke="#69A6DF" stroke-width="1.5"/>
<circle cx="519.023" cy="127" r="4" fill="white" stroke="#69A6DF" stroke-width="1.5"/>
<circle cx="612.02" cy="143" r="4" fill="white" stroke="#69A6DF" stroke-width="1.5"/>
<circle cx="705.016" cy="139" r="4" fill="white" stroke="#69A6DF" stroke-width="1.5"/>
<circle cx="798.012" cy="167" r="4" fill="white" stroke="#EE2A1C" stroke-width="1.5"/>
<circle cx="891.008" cy="159" r="4" fill="white" stroke="#EE2A1C" stroke-width="1.5"/>
<circle cx="984.004" cy="155" r="4" fill="white" stroke="#EE2A1C" stroke-width="1.5"/>
<circle cx="1077" cy="143" r="4" fill="white" stroke="#69A6DF" stroke-width="1.5"/>
<rect width="1" height="9" transform="translate(50.5 236)" fill="#D1D1D1"/>
<path d="M42.1935 255.121C42.6095 255.069 42.9475 255.043 43.3895 255.043H44.0655V262.466C44.0655 263.077 44.0395 263.519 43.9615 264H45.4045C45.3265 263.493 45.3005 263.09 45.3005 262.466V256.07C45.3005 255.355 45.3395 254.692 45.4175 253.912C44.9755 253.964 44.7545 253.977 44.2605 253.977H43.3375C42.8175 253.977 42.5575 253.964 42.1935 253.912V255.121ZM58.4805 260.724V263.415C58.4805 263.727 58.3895 263.792 57.9475 263.792C57.3885 263.792 56.7905 263.753 56.1275 263.649C56.2705 264.052 56.3355 264.286 56.3875 264.702C57.0375 264.741 57.4405 264.754 57.8175 264.754C58.5585 264.754 58.8575 264.702 59.1045 264.559C59.3775 264.377 59.4945 264.078 59.4945 263.519V255.043C59.4945 254.328 59.5075 254.042 59.5465 253.665C59.1045 253.717 58.7665 253.73 58.1555 253.73H53.1115C52.5395 253.73 52.1885 253.717 51.7075 253.665C51.7595 254.133 51.7725 254.705 51.7725 255.823C51.7725 258.839 51.6295 260.399 51.2655 261.634C50.9535 262.674 50.5505 263.324 49.7575 264.104C50.1345 264.377 50.3555 264.598 50.6025 264.936C51.3305 264.117 51.7205 263.493 52.0585 262.596C52.2795 262.024 52.4355 261.426 52.5525 260.724H58.4805ZM52.6695 259.775C52.7475 258.761 52.7865 258.163 52.7865 257.63H58.4805V259.775H52.6695ZM52.7995 256.681V254.679H58.4805V256.681H52.7995Z" fill="#242424"/>
<rect width="1" height="9" transform="translate(141.408 236)" fill="#D1D1D1"/>
<path d="M137.288 264C137.99 264 138.432 264.013 138.991 264.065V262.804C138.536 262.869 138.003 262.895 137.314 262.895H133.297C133.635 261.738 134.298 260.997 136.014 259.853C137.496 258.865 137.821 258.605 138.237 258.085C138.627 257.617 138.848 257.006 138.848 256.395C138.848 254.809 137.535 253.782 135.507 253.782C134.311 253.782 133.388 254.133 132.777 254.822C132.335 255.329 132.114 255.823 131.932 256.759L133.245 256.954C133.349 256.317 133.453 256.005 133.687 255.667C134.064 255.121 134.675 254.848 135.52 254.848C136.755 254.848 137.548 255.446 137.548 256.395C137.548 257.175 137.119 257.734 135.884 258.566C134.597 259.437 134.285 259.658 133.856 260.035C133.024 260.763 132.478 261.504 132.14 262.362C131.945 262.856 131.906 263.064 131.776 264.052C132.205 264.013 132.413 264 133.284 264H137.288ZM149.389 260.724V263.415C149.389 263.727 149.298 263.792 148.856 263.792C148.297 263.792 147.699 263.753 147.036 263.649C147.179 264.052 147.244 264.286 147.296 264.702C147.946 264.741 148.349 264.754 148.726 264.754C149.467 264.754 149.766 264.702 150.013 264.559C150.286 264.377 150.403 264.078 150.403 263.519V255.043C150.403 254.328 150.416 254.042 150.455 253.665C150.013 253.717 149.675 253.73 149.064 253.73H144.02C143.448 253.73 143.097 253.717 142.616 253.665C142.668 254.133 142.681 254.705 142.681 255.823C142.681 258.839 142.538 260.399 142.174 261.634C141.862 262.674 141.459 263.324 140.666 264.104C141.043 264.377 141.264 264.598 141.511 264.936C142.239 264.117 142.629 263.493 142.967 262.596C143.188 262.024 143.344 261.426 143.461 260.724H149.389ZM143.578 259.775C143.656 258.761 143.695 258.163 143.695 257.63H149.389V259.775H143.578ZM143.708 256.681V254.679H149.389V256.681H143.708Z" fill="#242424"/>
<rect width="1" height="9" transform="translate(232.318 236)" fill="#D1D1D1"/>
<path d="M222.517 261.764C222.751 262.44 222.907 262.739 223.206 263.09C223.843 263.818 224.857 264.195 226.235 264.195C227.47 264.195 228.471 263.857 229.121 263.22C229.602 262.752 229.875 262.063 229.875 261.348C229.875 260.594 229.667 260.022 229.251 259.567C228.809 259.086 228.302 258.865 227.405 258.748C228.029 258.618 228.302 258.514 228.627 258.28C229.212 257.864 229.537 257.162 229.537 256.369C229.537 254.783 228.276 253.756 226.326 253.756C225.182 253.756 224.272 254.081 223.661 254.705C223.297 255.082 223.128 255.394 222.894 256.096L224.194 256.369C224.324 255.914 224.415 255.706 224.597 255.485C224.948 255.03 225.481 254.809 226.261 254.809C227.522 254.809 228.263 255.42 228.263 256.434C228.263 256.928 228.081 257.37 227.769 257.682C227.366 258.072 226.768 258.254 225.936 258.254C225.559 258.254 225.221 258.228 224.909 258.189V259.385C225.299 259.333 225.624 259.307 226.014 259.307C227.691 259.307 228.575 259.957 228.575 261.205C228.575 262.388 227.665 263.129 226.222 263.129C225.559 263.129 225.013 262.973 224.571 262.648C224.194 262.375 224.025 262.115 223.83 261.465L222.517 261.764ZM240.299 260.724V263.415C240.299 263.727 240.208 263.792 239.766 263.792C239.207 263.792 238.609 263.753 237.946 263.649C238.089 264.052 238.154 264.286 238.206 264.702C238.856 264.741 239.259 264.754 239.636 264.754C240.377 264.754 240.676 264.702 240.923 264.559C241.196 264.377 241.313 264.078 241.313 263.519V255.043C241.313 254.328 241.326 254.042 241.365 253.665C240.923 253.717 240.585 253.73 239.974 253.73H234.93C234.358 253.73 234.007 253.717 233.526 253.665C233.578 254.133 233.591 254.705 233.591 255.823C233.591 258.839 233.448 260.399 233.084 261.634C232.772 262.674 232.369 263.324 231.576 264.104C231.953 264.377 232.174 264.598 232.421 264.936C233.149 264.117 233.539 263.493 233.877 262.596C234.098 262.024 234.254 261.426 234.371 260.724H240.299ZM234.488 259.775C234.566 258.761 234.605 258.163 234.605 257.63H240.299V259.775H234.488ZM234.618 256.681V254.679H240.299V256.681H234.618Z" fill="#242424"/>
<rect width="1" height="9" transform="translate(323.227 236)" fill="#D1D1D1"/>
<path d="M313.204 261.543C313.659 261.504 314.036 261.491 314.777 261.491H318.3V262.557C318.3 263.168 318.274 263.558 318.183 264H319.561C319.483 263.532 319.457 263.207 319.457 262.57V261.491H319.938C320.484 261.491 320.783 261.517 321.277 261.582V260.347C320.796 260.412 320.458 260.438 319.938 260.438H319.457V256.174C319.457 255.147 319.47 254.77 319.535 253.977H318.326C318.04 254.445 317.806 254.757 317.338 255.329L314.101 259.333C313.789 259.736 313.503 260.061 313.204 260.399V261.543ZM318.3 260.451H314.582L317.429 256.863C317.845 256.356 318.105 256.005 318.365 255.615C318.313 256.252 318.3 256.642 318.3 257.331V260.451ZM331.22 260.724V263.415C331.22 263.727 331.129 263.792 330.687 263.792C330.128 263.792 329.53 263.753 328.867 263.649C329.01 264.052 329.075 264.286 329.127 264.702C329.777 264.741 330.18 264.754 330.557 264.754C331.298 264.754 331.597 264.702 331.844 264.559C332.117 264.377 332.234 264.078 332.234 263.519V255.043C332.234 254.328 332.247 254.042 332.286 253.665C331.844 253.717 331.506 253.73 330.895 253.73H325.851C325.279 253.73 324.928 253.717 324.447 253.665C324.499 254.133 324.512 254.705 324.512 255.823C324.512 258.839 324.369 260.399 324.005 261.634C323.693 262.674 323.29 263.324 322.497 264.104C322.874 264.377 323.095 264.598 323.342 264.936C324.07 264.117 324.46 263.493 324.798 262.596C325.019 262.024 325.175 261.426 325.292 260.724H331.22ZM325.409 259.775C325.487 258.761 325.526 258.163 325.526 257.63H331.22V259.775H325.409ZM325.539 256.681V254.679H331.22V256.681H325.539Z" fill="#242424"/>
<rect width="1" height="9" transform="translate(414.137 236)" fill="#D1D1D1"/>
<path d="M406.467 255.03H409.522C410.172 255.03 410.601 255.056 411.121 255.134V253.873C410.588 253.951 410.276 253.977 409.509 253.977H406.701C405.96 253.977 405.7 253.964 405.31 253.912C405.336 254.315 405.336 254.328 405.336 254.367C405.336 254.731 405.336 254.822 405.284 255.251L404.998 258.267C404.959 258.787 404.92 259.034 404.816 259.619L405.973 259.723C406.09 259.45 406.155 259.346 406.324 259.177C406.779 258.709 407.442 258.436 408.092 258.436C409.535 258.436 410.393 259.294 410.393 260.724C410.393 262.167 409.457 263.116 408.04 263.116C407.312 263.116 406.688 262.856 406.272 262.388C406.09 262.167 405.999 261.998 405.869 261.621L404.595 261.959C404.894 262.609 405.076 262.895 405.414 263.233C406.064 263.87 406.935 264.195 408.027 264.195C410.25 264.195 411.654 262.83 411.654 260.672C411.654 258.709 410.354 257.422 408.378 257.422C407.481 257.422 406.753 257.708 406.116 258.306C406.194 257.942 406.194 257.942 406.207 257.721L406.467 255.03ZM422.117 260.724V263.415C422.117 263.727 422.026 263.792 421.584 263.792C421.025 263.792 420.427 263.753 419.764 263.649C419.907 264.052 419.972 264.286 420.024 264.702C420.674 264.741 421.077 264.754 421.454 264.754C422.195 264.754 422.494 264.702 422.741 264.559C423.014 264.377 423.131 264.078 423.131 263.519V255.043C423.131 254.328 423.144 254.042 423.183 253.665C422.741 253.717 422.403 253.73 421.792 253.73H416.748C416.176 253.73 415.825 253.717 415.344 253.665C415.396 254.133 415.409 254.705 415.409 255.823C415.409 258.839 415.266 260.399 414.902 261.634C414.59 262.674 414.187 263.324 413.394 264.104C413.771 264.377 413.992 264.598 414.239 264.936C414.967 264.117 415.357 263.493 415.695 262.596C415.916 262.024 416.072 261.426 416.189 260.724H422.117ZM416.306 259.775C416.384 258.761 416.423 258.163 416.423 257.63H422.117V259.775H416.306ZM416.436 256.681V254.679H422.117V256.681H416.436Z" fill="#242424"/>
<rect width="1" height="9" transform="translate(505.045 236)" fill="#D1D1D1"/>
<path d="M502.484 255.888C502.198 255.264 502.016 254.978 501.704 254.653C501.145 254.094 500.326 253.795 499.351 253.795C498.09 253.795 497.154 254.263 496.426 255.251C495.802 256.096 495.425 257.578 495.425 259.216C495.425 261.062 495.919 262.57 496.79 263.35C497.375 263.883 498.272 264.182 499.247 264.182C501.327 264.182 502.731 262.804 502.731 260.776C502.731 258.748 501.444 257.474 499.39 257.474C498.519 257.474 497.856 257.695 497.258 258.202C496.972 258.436 496.829 258.605 496.582 259.008C496.66 257.734 496.79 257.11 497.128 256.356C497.583 255.342 498.324 254.822 499.312 254.822C500.287 254.822 500.846 255.238 501.249 256.239L502.484 255.888ZM499.273 258.488C500.664 258.488 501.509 259.359 501.509 260.802C501.509 261.309 501.392 261.79 501.184 262.128C500.781 262.752 500.04 263.142 499.208 263.142C497.856 263.142 496.842 262.141 496.842 260.802C496.842 259.463 497.869 258.488 499.273 258.488ZM513.025 260.724V263.415C513.025 263.727 512.934 263.792 512.492 263.792C511.933 263.792 511.335 263.753 510.672 263.649C510.815 264.052 510.88 264.286 510.932 264.702C511.582 264.741 511.985 264.754 512.362 264.754C513.103 264.754 513.402 264.702 513.649 264.559C513.922 264.377 514.039 264.078 514.039 263.519V255.043C514.039 254.328 514.052 254.042 514.091 253.665C513.649 253.717 513.311 253.73 512.7 253.73H507.656C507.084 253.73 506.733 253.717 506.252 253.665C506.304 254.133 506.317 254.705 506.317 255.823C506.317 258.839 506.174 260.399 505.81 261.634C505.498 262.674 505.095 263.324 504.302 264.104C504.679 264.377 504.9 264.598 505.147 264.936C505.875 264.117 506.265 263.493 506.603 262.596C506.824 262.024 506.98 261.426 507.097 260.724H513.025ZM507.214 259.775C507.292 258.761 507.331 258.163 507.331 257.63H513.025V259.775H507.214ZM507.344 256.681V254.679H513.025V256.681H507.344Z" fill="#242424"/>
<rect width="1" height="9" transform="translate(595.955 236)" fill="#D1D1D1"/>
<path d="M593.499 253.912C593.018 253.964 592.745 253.977 591.913 253.977H587.948C587.285 253.977 586.895 253.951 586.375 253.886V255.173C586.869 255.108 587.246 255.082 587.909 255.082H592.082C590.951 256.616 590.392 257.526 589.755 258.839C588.962 260.464 588.611 261.621 588.182 264H589.651C589.846 262.609 589.976 261.985 590.288 260.971C590.769 259.346 591.328 258.189 592.433 256.447C592.979 255.589 593.226 255.264 593.499 255.017V253.912ZM603.936 260.724V263.415C603.936 263.727 603.845 263.792 603.403 263.792C602.844 263.792 602.246 263.753 601.583 263.649C601.726 264.052 601.791 264.286 601.843 264.702C602.493 264.741 602.896 264.754 603.273 264.754C604.014 264.754 604.313 264.702 604.56 264.559C604.833 264.377 604.95 264.078 604.95 263.519V255.043C604.95 254.328 604.963 254.042 605.002 253.665C604.56 253.717 604.222 253.73 603.611 253.73H598.567C597.995 253.73 597.644 253.717 597.163 253.665C597.215 254.133 597.228 254.705 597.228 255.823C597.228 258.839 597.085 260.399 596.721 261.634C596.409 262.674 596.006 263.324 595.213 264.104C595.59 264.377 595.811 264.598 596.058 264.936C596.786 264.117 597.176 263.493 597.514 262.596C597.735 262.024 597.891 261.426 598.008 260.724H603.936ZM598.125 259.775C598.203 258.761 598.242 258.163 598.242 257.63H603.936V259.775H598.125ZM598.255 256.681V254.679H603.936V256.681H598.255Z" fill="#242424"/>
<rect width="1" height="9" transform="translate(686.863 236)" fill="#D1D1D1"/>
<path d="M679.428 258.748C678.934 258.826 678.635 258.943 678.219 259.216C677.465 259.723 677.088 260.438 677.088 261.361C677.088 263.194 678.453 264.208 680.884 264.208C683.289 264.208 684.628 263.194 684.628 261.361C684.628 260.49 684.316 259.814 683.679 259.32C683.237 258.982 682.86 258.826 682.314 258.748C683.471 258.488 684.186 257.578 684.186 256.369C684.186 254.757 682.912 253.756 680.858 253.756C678.817 253.756 677.53 254.77 677.53 256.382C677.53 257.578 678.271 258.514 679.428 258.748ZM680.858 254.783C682.145 254.783 682.964 255.446 682.964 256.486C682.964 257.591 682.171 258.254 680.871 258.254C679.558 258.254 678.752 257.578 678.752 256.486C678.752 255.446 679.584 254.783 680.858 254.783ZM680.871 259.32C682.405 259.32 683.341 260.061 683.341 261.27C683.341 262.479 682.431 263.168 680.845 263.168C679.285 263.168 678.375 262.479 678.375 261.283C678.375 260.061 679.311 259.32 680.871 259.32ZM694.844 260.724V263.415C694.844 263.727 694.753 263.792 694.311 263.792C693.752 263.792 693.154 263.753 692.491 263.649C692.634 264.052 692.699 264.286 692.751 264.702C693.401 264.741 693.804 264.754 694.181 264.754C694.922 264.754 695.221 264.702 695.468 264.559C695.741 264.377 695.858 264.078 695.858 263.519V255.043C695.858 254.328 695.871 254.042 695.91 253.665C695.468 253.717 695.13 253.73 694.519 253.73H689.475C688.903 253.73 688.552 253.717 688.071 253.665C688.123 254.133 688.136 254.705 688.136 255.823C688.136 258.839 687.993 260.399 687.629 261.634C687.317 262.674 686.914 263.324 686.121 264.104C686.498 264.377 686.719 264.598 686.966 264.936C687.694 264.117 688.084 263.493 688.422 262.596C688.643 262.024 688.799 261.426 688.916 260.724H694.844ZM689.033 259.775C689.111 258.761 689.15 258.163 689.15 257.63H694.844V259.775H689.033ZM689.163 256.681V254.679H694.844V256.681H689.163Z" fill="#242424"/>
<rect width="1" height="9" transform="translate(777.773 236)" fill="#D1D1D1"/>
<path d="M768.232 262.102C768.583 262.83 768.817 263.142 769.22 263.467C769.792 263.935 770.533 264.156 771.469 264.156C772.652 264.156 773.523 263.792 774.186 263.012C774.94 262.115 775.343 260.62 775.343 258.67C775.343 257.292 775.148 256.239 774.732 255.498C774.134 254.406 773.016 253.769 771.703 253.769C769.493 253.769 768.063 255.147 768.063 257.266C768.063 258.189 768.388 259.047 768.96 259.619C769.532 260.191 770.39 260.503 771.378 260.503C772.327 260.503 773.016 260.256 773.666 259.684C773.926 259.45 774.043 259.307 774.238 258.956C774.212 259.554 774.173 260.022 774.134 260.308C774.043 260.919 773.835 261.53 773.588 261.946C773.12 262.739 772.47 263.116 771.547 263.116C770.858 263.116 770.299 262.908 769.948 262.531C769.753 262.323 769.662 262.141 769.506 261.725L768.232 262.102ZM771.521 259.489C770.156 259.489 769.285 258.592 769.285 257.175C769.285 256.473 769.493 255.914 769.935 255.485C770.364 255.056 770.962 254.809 771.599 254.809C772.951 254.809 773.965 255.81 773.965 257.162C773.965 258.501 772.925 259.489 771.521 259.489ZM785.754 260.724V263.415C785.754 263.727 785.663 263.792 785.221 263.792C784.662 263.792 784.064 263.753 783.401 263.649C783.544 264.052 783.609 264.286 783.661 264.702C784.311 264.741 784.714 264.754 785.091 264.754C785.832 264.754 786.131 264.702 786.378 264.559C786.651 264.377 786.768 264.078 786.768 263.519V255.043C786.768 254.328 786.781 254.042 786.82 253.665C786.378 253.717 786.04 253.73 785.429 253.73H780.385C779.813 253.73 779.462 253.717 778.981 253.665C779.033 254.133 779.046 254.705 779.046 255.823C779.046 258.839 778.903 260.399 778.539 261.634C778.227 262.674 777.824 263.324 777.031 264.104C777.408 264.377 777.629 264.598 777.876 264.936C778.604 264.117 778.994 263.493 779.332 262.596C779.553 262.024 779.709 261.426 779.826 260.724H785.754ZM779.943 259.775C780.021 258.761 780.06 258.163 780.06 257.63H785.754V259.775H779.943ZM780.073 256.681V254.679H785.754V256.681H780.073Z" fill="#242424"/>
<rect width="1" height="9" transform="translate(873.182 236)" fill="#D1D1D1"/>
<path d="M860.502 255.121C860.918 255.069 861.256 255.043 861.698 255.043H862.374V262.466C862.374 263.077 862.348 263.519 862.27 264H863.713C863.635 263.493 863.609 263.09 863.609 262.466V256.07C863.609 255.355 863.648 254.692 863.726 253.912C863.284 253.964 863.063 253.977 862.569 253.977H861.646C861.126 253.977 860.866 253.964 860.502 253.912V255.121ZM871.537 264.182C872.785 264.182 873.747 263.714 874.423 262.778C874.995 261.972 875.346 260.555 875.346 258.995C875.346 257.903 875.177 256.889 874.839 255.979C874.683 255.55 874.41 255.121 874.046 254.757C873.435 254.133 872.564 253.795 871.563 253.795C870.224 253.795 869.184 254.367 868.534 255.459C868.066 256.213 867.767 257.617 867.767 259.008C867.767 260.061 867.936 261.088 868.274 261.998C868.43 262.44 868.703 262.856 869.067 263.22C869.704 263.857 870.536 264.182 871.537 264.182ZM871.537 254.861C872.447 254.861 873.11 255.251 873.526 256.031C873.851 256.629 874.085 257.877 874.085 258.982C874.085 259.892 873.968 260.711 873.708 261.491C873.591 261.881 873.37 262.232 873.097 262.518C872.72 262.908 872.174 263.116 871.55 263.116C870.705 263.116 870.055 262.752 869.613 262.024C869.262 261.439 869.015 260.191 869.015 259.021C869.015 258.098 869.145 257.24 869.392 256.486C869.496 256.148 869.691 255.823 869.964 255.524C870.367 255.069 870.874 254.861 871.537 254.861ZM885.536 260.724V263.415C885.536 263.727 885.445 263.792 885.003 263.792C884.444 263.792 883.846 263.753 883.183 263.649C883.326 264.052 883.391 264.286 883.443 264.702C884.093 264.741 884.496 264.754 884.873 264.754C885.614 264.754 885.913 264.702 886.16 264.559C886.433 264.377 886.55 264.078 886.55 263.519V255.043C886.55 254.328 886.563 254.042 886.602 253.665C886.16 253.717 885.822 253.73 885.211 253.73H880.167C879.595 253.73 879.244 253.717 878.763 253.665C878.815 254.133 878.828 254.705 878.828 255.823C878.828 258.839 878.685 260.399 878.321 261.634C878.009 262.674 877.606 263.324 876.813 264.104C877.19 264.377 877.411 264.598 877.658 264.936C878.386 264.117 878.776 263.493 879.114 262.596C879.335 262.024 879.491 261.426 879.608 260.724H885.536ZM879.725 259.775C879.803 258.761 879.842 258.163 879.842 257.63H885.536V259.775H879.725ZM879.855 256.681V254.679H885.536V256.681H879.855Z" fill="#242424"/>
<rect width="1" height="9" transform="translate(973.09 236)" fill="#D1D1D1"/>
<path d="M960.41 255.121C960.826 255.069 961.164 255.043 961.606 255.043H962.282V262.466C962.282 263.077 962.256 263.519 962.178 264H963.621C963.543 263.493 963.517 263.09 963.517 262.466V256.07C963.517 255.355 963.556 254.692 963.634 253.912C963.192 253.964 962.971 253.977 962.477 253.977H961.554C961.034 253.977 960.774 253.964 960.41 253.912V255.121ZM969.157 255.121C969.573 255.069 969.911 255.043 970.353 255.043H971.029V262.466C971.029 263.077 971.003 263.519 970.925 264H972.368C972.29 263.493 972.264 263.09 972.264 262.466V256.07C972.264 255.355 972.303 254.692 972.381 253.912C971.939 253.964 971.718 253.977 971.224 253.977H970.301C969.781 253.977 969.521 253.964 969.157 253.912V255.121ZM985.444 260.724V263.415C985.444 263.727 985.353 263.792 984.911 263.792C984.352 263.792 983.754 263.753 983.091 263.649C983.234 264.052 983.299 264.286 983.351 264.702C984.001 264.741 984.404 264.754 984.781 264.754C985.522 264.754 985.821 264.702 986.068 264.559C986.341 264.377 986.458 264.078 986.458 263.519V255.043C986.458 254.328 986.471 254.042 986.51 253.665C986.068 253.717 985.73 253.73 985.119 253.73H980.075C979.503 253.73 979.152 253.717 978.671 253.665C978.723 254.133 978.736 254.705 978.736 255.823C978.736 258.839 978.593 260.399 978.229 261.634C977.917 262.674 977.514 263.324 976.721 264.104C977.098 264.377 977.319 264.598 977.566 264.936C978.294 264.117 978.684 263.493 979.022 262.596C979.243 262.024 979.399 261.426 979.516 260.724H985.444ZM979.633 259.775C979.711 258.761 979.75 258.163 979.75 257.63H985.444V259.775H979.633ZM979.763 256.681V254.679H985.444V256.681H979.763Z" fill="#242424"/>
<rect width="1" height="9" transform="translate(1073 236)" fill="#D1D1D1"/>
<path d="M1060.32 255.121C1060.74 255.069 1061.07 255.043 1061.52 255.043H1062.19V262.466C1062.19 263.077 1062.17 263.519 1062.09 264H1063.53C1063.45 263.493 1063.43 263.09 1063.43 262.466V256.07C1063.43 255.355 1063.47 254.692 1063.54 253.912C1063.1 253.964 1062.88 253.977 1062.39 253.977H1061.46C1060.94 253.977 1060.68 253.964 1060.32 253.912V255.121ZM1073.25 264C1073.96 264 1074.4 264.013 1074.96 264.065V262.804C1074.5 262.869 1073.97 262.895 1073.28 262.895H1069.26C1069.6 261.738 1070.26 260.997 1071.98 259.853C1073.46 258.865 1073.79 258.605 1074.2 258.085C1074.59 257.617 1074.81 257.006 1074.81 256.395C1074.81 254.809 1073.5 253.782 1071.47 253.782C1070.28 253.782 1069.35 254.133 1068.74 254.822C1068.3 255.329 1068.08 255.823 1067.9 256.759L1069.21 256.954C1069.31 256.317 1069.42 256.005 1069.65 255.667C1070.03 255.121 1070.64 254.848 1071.49 254.848C1072.72 254.848 1073.51 255.446 1073.51 256.395C1073.51 257.175 1073.08 257.734 1071.85 258.566C1070.56 259.437 1070.25 259.658 1069.82 260.035C1068.99 260.763 1068.44 261.504 1068.11 262.362C1067.91 262.856 1067.87 263.064 1067.74 264.052C1068.17 264.013 1068.38 264 1069.25 264H1073.25ZM1085.35 260.724V263.415C1085.35 263.727 1085.26 263.792 1084.82 263.792C1084.26 263.792 1083.66 263.753 1083 263.649C1083.14 264.052 1083.21 264.286 1083.26 264.702C1083.91 264.741 1084.31 264.754 1084.69 264.754C1085.43 264.754 1085.73 264.702 1085.98 264.559C1086.25 264.377 1086.37 264.078 1086.37 263.519V255.043C1086.37 254.328 1086.38 254.042 1086.42 253.665C1085.98 253.717 1085.64 253.73 1085.03 253.73H1079.99C1079.41 253.73 1079.06 253.717 1078.58 253.665C1078.63 254.133 1078.65 254.705 1078.65 255.823C1078.65 258.839 1078.5 260.399 1078.14 261.634C1077.83 262.674 1077.42 263.324 1076.63 264.104C1077.01 264.377 1077.23 264.598 1077.48 264.936C1078.2 264.117 1078.59 263.493 1078.93 262.596C1079.15 262.024 1079.31 261.426 1079.43 260.724H1085.35ZM1079.54 259.775C1079.62 258.761 1079.66 258.163 1079.66 257.63H1085.35V259.775H1079.54ZM1079.67 256.681V254.679H1085.35V256.681H1079.67Z" fill="#242424"/>
<line x1="50" y1="227.5" x2="1077" y2="227.5" stroke="#E3E3E3"/>
<g filter="url(#filter1_d_7007_174100)">
<g clip-path="url(#clip1_7007_174100)">
<rect x="176" y="64" width="236" height="76" rx="2" fill="white"/>
<g filter="url(#filter2_i_7007_174100)">
<rect width="236" height="31" transform="translate(176 64)" fill="white"/>
<g clip-path="url(#clip2_7007_174100)">
<path d="M194.253 84C194.955 84 195.397 84.013 195.956 84.065V82.804C195.501 82.869 194.968 82.895 194.279 82.895H190.262C190.6 81.738 191.263 80.997 192.979 79.853C194.461 78.865 194.786 78.605 195.202 78.085C195.592 77.617 195.813 77.006 195.813 76.395C195.813 74.809 194.5 73.782 192.472 73.782C191.276 73.782 190.353 74.133 189.742 74.822C189.3 75.329 189.079 75.823 188.897 76.759L190.21 76.954C190.314 76.317 190.418 76.005 190.652 75.667C191.029 75.121 191.64 74.848 192.485 74.848C193.72 74.848 194.513 75.446 194.513 76.395C194.513 77.175 194.084 77.734 192.849 78.566C191.562 79.437 191.25 79.658 190.821 80.035C189.989 80.763 189.443 81.504 189.105 82.362C188.91 82.856 188.871 83.064 188.741 84.052C189.17 84.013 189.378 84 190.249 84H194.253ZM201.102 84.182C202.35 84.182 203.312 83.714 203.988 82.778C204.56 81.972 204.911 80.555 204.911 78.995C204.911 77.903 204.742 76.889 204.404 75.979C204.248 75.55 203.975 75.121 203.611 74.757C203 74.133 202.129 73.795 201.128 73.795C199.789 73.795 198.749 74.367 198.099 75.459C197.631 76.213 197.332 77.617 197.332 79.008C197.332 80.061 197.501 81.088 197.839 81.998C197.995 82.44 198.268 82.856 198.632 83.22C199.269 83.857 200.101 84.182 201.102 84.182ZM201.102 74.861C202.012 74.861 202.675 75.251 203.091 76.031C203.416 76.629 203.65 77.877 203.65 78.982C203.65 79.892 203.533 80.711 203.273 81.491C203.156 81.881 202.935 82.232 202.662 82.518C202.285 82.908 201.739 83.116 201.115 83.116C200.27 83.116 199.62 82.752 199.178 82.024C198.827 81.439 198.58 80.191 198.58 79.021C198.58 78.098 198.71 77.24 198.957 76.486C199.061 76.148 199.256 75.823 199.529 75.524C199.932 75.069 200.439 74.861 201.102 74.861ZM211.747 84C212.449 84 212.891 84.013 213.45 84.065V82.804C212.995 82.869 212.462 82.895 211.773 82.895H207.756C208.094 81.738 208.757 80.997 210.473 79.853C211.955 78.865 212.28 78.605 212.696 78.085C213.086 77.617 213.307 77.006 213.307 76.395C213.307 74.809 211.994 73.782 209.966 73.782C208.77 73.782 207.847 74.133 207.236 74.822C206.794 75.329 206.573 75.823 206.391 76.759L207.704 76.954C207.808 76.317 207.912 76.005 208.146 75.667C208.523 75.121 209.134 74.848 209.979 74.848C211.214 74.848 212.007 75.446 212.007 76.395C212.007 77.175 211.578 77.734 210.343 78.566C209.056 79.437 208.744 79.658 208.315 80.035C207.483 80.763 206.937 81.504 206.599 82.362C206.404 82.856 206.365 83.064 206.235 84.052C206.664 84.013 206.872 84 207.743 84H211.747ZM220.494 84C221.196 84 221.638 84.013 222.197 84.065V82.804C221.742 82.869 221.209 82.895 220.52 82.895H216.503C216.841 81.738 217.504 80.997 219.22 79.853C220.702 78.865 221.027 78.605 221.443 78.085C221.833 77.617 222.054 77.006 222.054 76.395C222.054 74.809 220.741 73.782 218.713 73.782C217.517 73.782 216.594 74.133 215.983 74.822C215.541 75.329 215.32 75.823 215.138 76.759L216.451 76.954C216.555 76.317 216.659 76.005 216.893 75.667C217.27 75.121 217.881 74.848 218.726 74.848C219.961 74.848 220.754 75.446 220.754 76.395C220.754 77.175 220.325 77.734 219.09 78.566C217.803 79.437 217.491 79.658 217.062 80.035C216.23 80.763 215.684 81.504 215.346 82.362C215.151 82.856 215.112 83.064 214.982 84.052C215.411 84.013 215.619 84 216.49 84H220.494ZM225.926 80.841H225.029C224.457 80.841 224.067 80.815 223.677 80.763V81.855C224.093 81.803 224.47 81.777 225.029 81.777H229.631V83.766C229.631 84.39 229.618 84.689 229.553 85.04H230.736C230.671 84.689 230.645 84.364 230.645 83.779V81.777H233.843C234.389 81.777 234.792 81.803 235.195 81.855V80.763C234.805 80.815 234.428 80.841 233.843 80.841H230.645V78.423H232.946C233.466 78.423 233.791 78.436 234.129 78.475V77.461C233.778 77.513 233.479 77.526 232.92 77.526H230.645V75.524H233.505C234.064 75.524 234.35 75.537 234.714 75.589V74.562C234.376 74.614 234.077 74.627 233.505 74.627H227.174C227.239 74.484 227.239 74.484 227.343 74.25C227.551 73.795 227.551 73.795 227.629 73.639C227.707 73.47 227.733 73.418 227.798 73.275L226.706 73.002C226.641 73.275 226.55 73.561 226.381 73.951C225.783 75.355 225.094 76.278 223.794 77.383C224.119 77.617 224.262 77.773 224.509 78.163C225.393 77.383 225.978 76.655 226.667 75.524H229.631V77.526H226.81C226.446 77.526 226.16 77.513 225.887 77.487C225.913 77.734 225.926 77.968 225.926 78.254V80.841ZM226.927 80.841V78.423H229.631V80.841H226.927ZM243.905 73.912C243.424 73.964 243.151 73.977 242.319 73.977H238.354C237.691 73.977 237.301 73.951 236.781 73.886V75.173C237.275 75.108 237.652 75.082 238.315 75.082H242.488C241.357 76.616 240.798 77.526 240.161 78.839C239.368 80.464 239.017 81.621 238.588 84H240.057C240.252 82.609 240.382 81.985 240.694 80.971C241.175 79.346 241.734 78.189 242.839 76.447C243.385 75.589 243.632 75.264 243.905 75.017V73.912ZM254.342 80.724V83.415C254.342 83.727 254.251 83.792 253.809 83.792C253.25 83.792 252.652 83.753 251.989 83.649C252.132 84.052 252.197 84.286 252.249 84.702C252.899 84.741 253.302 84.754 253.679 84.754C254.42 84.754 254.719 84.702 254.966 84.559C255.239 84.377 255.356 84.078 255.356 83.519V75.043C255.356 74.328 255.369 74.042 255.408 73.665C254.966 73.717 254.628 73.73 254.017 73.73H248.973C248.401 73.73 248.05 73.717 247.569 73.665C247.621 74.133 247.634 74.705 247.634 75.823C247.634 78.839 247.491 80.399 247.127 81.634C246.815 82.674 246.412 83.324 245.619 84.104C245.996 84.377 246.217 84.598 246.464 84.936C247.192 84.117 247.582 83.493 247.92 82.596C248.141 82.024 248.297 81.426 248.414 80.724H254.342ZM248.531 79.775C248.609 78.761 248.648 78.163 248.648 77.63H254.342V79.775H248.531ZM248.661 76.681V74.679H254.342V76.681H248.661Z" fill="#242424"/>
</g>
</g>
<rect width="12" height="12" transform="translate(190 111.5)" fill="#69A6DF"/>
<path d="M219.449 114.122V114.902H217.551C217.096 114.902 216.849 114.889 216.537 114.85C216.576 115.175 216.589 115.292 216.589 115.747V117.84C216.589 118.282 216.576 118.425 216.537 118.724C216.849 118.685 217.122 118.672 217.551 118.672H219.449V119.491H216.953C216.537 119.491 216.238 119.478 215.9 119.426V120.336C216.225 120.284 216.511 120.271 216.966 120.271H219.449V120.388C219.449 120.765 219.41 121.22 219.371 121.467H220.385C220.346 121.194 220.32 120.739 220.32 120.375V120.271H223.024C223.531 120.271 223.778 120.284 224.142 120.336V119.426C223.817 119.478 223.57 119.491 223.05 119.491H220.32V118.672H222.426C222.829 118.672 223.102 118.685 223.453 118.724C223.414 118.412 223.414 118.23 223.414 117.84V115.747C223.414 115.37 223.414 115.162 223.453 114.85C223.154 114.889 222.907 114.902 222.439 114.902H220.32V114.122H222.244C222.712 114.122 222.907 114.135 223.232 114.187V113.849H224.194C224.155 113.602 224.142 113.381 224.142 113.017V112.419C224.142 112.068 224.155 111.86 224.194 111.613C223.804 111.652 223.479 111.665 222.972 111.665H217.031C216.511 111.665 216.186 111.652 215.822 111.613C215.848 111.834 215.874 112.12 215.874 112.432V113.043C215.874 113.368 215.848 113.576 215.809 113.849H216.771V114.187C217.057 114.135 217.343 114.122 217.772 114.122H219.449ZM217.746 113.368C217.317 113.368 217.044 113.355 216.784 113.303V112.458H223.206V113.316C222.946 113.355 222.764 113.368 222.309 113.368H220.32C220.32 113.134 220.333 112.978 220.385 112.77H219.384C219.423 112.952 219.436 113.108 219.436 113.368H217.746ZM219.449 115.604V116.436H217.473V115.604H219.449ZM220.32 115.604H222.517V116.436H220.32V115.604ZM219.449 117.125V117.957H217.473V117.125H219.449ZM220.32 117.125H222.517V117.957H220.32V117.125ZM212.806 112.055C213.599 112.835 214.041 113.394 214.704 114.486L215.458 113.732C214.808 112.783 214.457 112.354 213.56 111.405L212.806 112.055ZM212.637 117.294C212.962 117.242 213.157 117.229 213.56 117.229H214.353V120.271C213.586 120.986 212.897 121.493 212.338 121.74L212.832 122.78C213.079 122.559 213.118 122.52 213.339 122.351C213.872 121.961 214.236 121.649 214.795 121.09C215.289 121.805 215.861 122.234 216.615 122.468C217.252 122.65 218.097 122.715 220.242 122.715C221.503 122.715 222.608 122.689 224.298 122.624C224.363 122.247 224.428 122.039 224.623 121.571C223.375 121.74 221.867 121.805 219.306 121.805C217.746 121.805 216.992 121.701 216.368 121.415C215.848 121.181 215.614 120.947 215.315 120.349V117.671C215.315 116.982 215.315 116.709 215.367 116.28C215.042 116.332 214.769 116.345 214.379 116.345H213.638C213.157 116.345 212.949 116.332 212.637 116.28V117.294ZM232.072 118.737H235.699V121.493C235.699 121.805 235.595 121.87 234.997 121.87C234.555 121.87 233.944 121.818 233.229 121.727C233.372 122.13 233.424 122.364 233.463 122.715C233.97 122.754 234.568 122.78 234.984 122.78C236.362 122.78 236.674 122.572 236.674 121.675V113.004C236.674 112.38 236.687 112.068 236.726 111.678C236.336 111.717 235.985 111.73 235.309 111.73H228.237C227.561 111.73 227.184 111.717 226.794 111.678C226.833 112.146 226.846 112.536 226.846 113.225C226.846 119.27 226.625 120.661 225.429 122.273C225.845 122.533 225.975 122.624 226.326 122.962C227.184 121.61 227.509 120.596 227.691 118.737H231.11V121.116C231.11 121.818 231.097 122.182 231.045 122.559H232.137C232.085 122.221 232.072 121.805 232.072 121.103V118.737ZM232.072 114.772V112.666H235.699V114.772H232.072ZM231.11 114.772H227.821L227.834 114.161V112.666H231.11V114.772ZM232.072 115.682H235.699V117.814H232.072V115.682ZM231.11 115.682V117.814H227.756C227.782 117.229 227.782 117.229 227.795 116.527C227.795 116.345 227.795 116.046 227.808 115.682H231.11ZM241.406 114.668H240.093C239.482 114.668 239.17 114.655 238.858 114.59V115.63C239.222 115.578 239.573 115.552 240.08 115.552H241.211C241.003 116.176 240.6 116.995 240.21 117.671C239.703 118.503 239.261 119.062 238.559 119.725C238.78 119.985 238.949 120.232 239.144 120.648C240.249 119.452 240.847 118.464 241.471 116.813C241.419 117.502 241.393 118.152 241.393 118.88V121.35C241.393 122.065 241.367 122.494 241.302 122.962H242.433C242.381 122.559 242.355 122.156 242.355 121.35V118.763C242.355 117.957 242.329 117.203 242.277 116.683C242.758 117.697 243.122 118.204 244.032 119.166C244.188 118.828 244.344 118.594 244.578 118.308C243.434 117.307 242.862 116.579 242.394 115.552H243.538C244.045 115.552 244.331 115.565 244.669 115.617V114.603C244.331 114.655 244.019 114.668 243.551 114.668H242.355V112.731C243.005 112.549 243.382 112.432 243.967 112.224C244.396 112.068 244.396 112.068 244.539 112.016L243.876 111.184C243.642 111.34 243.421 111.444 242.875 111.626C241.406 112.107 240.457 112.328 238.884 112.523C239.105 112.848 239.196 113.056 239.3 113.407C240.223 113.251 240.548 113.186 241.406 112.978V114.668ZM245.514 112.016C245.579 112.445 245.592 112.783 245.592 113.537V118.529C245.592 119.4 245.579 119.673 245.527 120.037H246.645C246.593 119.66 246.58 119.387 246.58 118.516V113.537C246.58 112.77 246.593 112.419 246.658 112.016H245.514ZM248.673 111.275C248.725 111.743 248.751 112.237 248.751 112.952V121.363C248.751 121.688 248.647 121.753 248.127 121.753C247.737 121.753 247.23 121.727 246.788 121.675C246.71 121.662 246.593 121.649 246.424 121.623C246.593 122.026 246.671 122.247 246.736 122.65C247.321 122.689 247.698 122.702 247.945 122.702C249.375 122.702 249.752 122.442 249.752 121.441V112.952C249.752 112.224 249.778 111.743 249.843 111.275H248.673ZM256.265 114.577C255.641 114.577 255.29 114.564 254.939 114.525C254.978 114.85 254.991 115.123 254.991 115.539V118.464C254.991 118.867 254.978 119.127 254.939 119.465C255.316 119.426 255.55 119.413 256.265 119.413H258.696C259.281 119.413 259.645 119.426 260.022 119.465C259.983 119.153 259.97 118.919 259.97 118.464V115.539C259.97 115.084 259.983 114.798 260.022 114.525C259.658 114.564 259.32 114.577 258.696 114.577H256.265ZM255.953 115.435H259.008V118.542H255.953V115.435ZM262.934 123.014C262.882 122.676 262.856 122.156 262.856 121.428V113.316C262.856 112.653 262.882 112.224 262.934 111.73C262.466 111.782 262.037 111.795 261.387 111.795H253.613C252.976 111.795 252.547 111.782 252.092 111.73C252.144 112.237 252.17 112.679 252.17 113.316V121.415C252.17 122.169 252.144 122.624 252.092 123.014H253.184V122.26H261.842V123.014H262.934ZM253.184 112.705H261.842V121.35H253.184V112.705ZM267.809 115.981C267.848 115.526 267.874 115.24 267.991 114.421C268.316 112.146 268.355 111.964 268.511 111.509L267.315 111.418C267.315 111.574 267.315 111.639 267.289 111.834C266.951 114.226 266.86 115.331 266.86 116.644C266.86 116.8 266.886 118.191 266.886 118.321C266.899 118.451 266.899 118.529 266.899 118.568C266.899 118.594 266.899 118.646 266.886 118.711L268.004 118.685C268.004 118.516 268.004 118.438 268.004 118.373C268.004 117.398 268.238 116.423 268.719 115.474C269.434 114.031 270.266 113.303 271.189 113.303C272.411 113.303 273.113 114.46 273.113 116.488C273.113 118.542 272.411 119.868 270.89 120.713C270.11 121.142 269.434 121.337 268.186 121.506C268.485 121.896 268.576 122.052 268.771 122.572C269.72 122.377 270.513 122.117 271.15 121.818C273.178 120.843 274.257 119.036 274.257 116.644C274.257 115.201 274.01 114.226 273.438 113.394C272.905 112.627 272.177 112.237 271.293 112.237C270.305 112.237 269.447 112.77 268.732 113.81C268.368 114.356 268.121 114.928 267.952 115.63C267.887 115.89 267.887 115.89 267.861 115.981H267.809ZM281.459 123.521C280.718 122.403 280.419 121.818 280.133 120.908C279.847 119.998 279.704 119.01 279.704 117.983C279.704 116.956 279.847 115.981 280.133 115.071C280.419 114.161 280.718 113.576 281.459 112.458L280.484 111.808C279.743 112.939 279.431 113.524 279.106 114.46C278.703 115.591 278.508 116.761 278.508 117.983C278.508 119.205 278.703 120.388 279.106 121.506C279.431 122.442 279.743 123.04 280.484 124.158L281.459 123.521ZM289.43 113.043C289.404 115.097 289.3 116.176 288.988 117.398C288.481 119.426 287.636 120.804 286.141 122.013C286.479 122.286 286.687 122.494 286.908 122.819C287.506 122.26 287.818 121.935 288.182 121.441C289.014 120.336 289.547 119.218 289.898 117.788C290.249 116.41 290.392 115.149 290.431 113.043H292.68C292.667 116.293 292.537 118.893 292.316 120.401C292.16 121.558 292.069 121.675 291.419 121.675C290.99 121.675 290.327 121.61 289.651 121.506C289.794 121.883 289.833 122.065 289.885 122.559C290.665 122.624 290.951 122.637 291.458 122.637C291.939 122.637 292.199 122.611 292.433 122.52C292.823 122.364 293.057 122.052 293.187 121.493C293.447 120.349 293.629 117.632 293.694 113.68C293.707 112.536 293.707 112.536 293.759 112.094C293.512 112.133 293.057 112.159 292.498 112.159H288.832C288.195 112.159 287.714 112.133 287.337 112.081V113.121C287.688 113.069 288.169 113.043 288.832 113.043H289.43ZM287.402 115.487C287.025 116.215 286.726 116.631 286.037 117.398C285.673 117.099 285.595 117.021 285.374 116.787C286.037 115.981 286.583 115.136 286.96 114.317C287.064 114.083 287.155 113.914 287.22 113.81L286.765 113.251C286.492 113.29 286.258 113.303 285.803 113.303H285.348V112.224C285.348 111.691 285.361 111.457 285.426 111.158H284.308C284.36 111.483 284.386 111.782 284.386 112.237V113.303H283.853C283.125 113.303 282.969 113.29 282.618 113.238V114.239C282.878 114.2 283.346 114.174 283.84 114.174H285.998C285.426 115.344 284.945 116.046 284.087 116.904C283.437 117.567 282.93 117.97 282.098 118.49C282.345 118.802 282.475 118.997 282.631 119.374C283.359 118.854 283.697 118.568 284.386 117.892C284.373 118.321 284.373 118.581 284.373 118.633V121.415C284.373 122.026 284.347 122.559 284.295 122.962H285.387C285.335 122.624 285.322 122.169 285.322 121.428V118.295C285.322 118.126 285.322 118.035 285.309 117.801C285.777 118.269 286.336 118.724 287.129 119.27C287.298 118.958 287.467 118.724 287.662 118.503C287.194 118.243 287.038 118.139 286.674 117.879C287.207 117.294 287.324 117.151 288.13 116.046L287.402 115.487ZM300.077 114.577C299.453 114.577 299.102 114.564 298.751 114.525C298.79 114.85 298.803 115.123 298.803 115.539V118.464C298.803 118.867 298.79 119.127 298.751 119.465C299.128 119.426 299.362 119.413 300.077 119.413H302.508C303.093 119.413 303.457 119.426 303.834 119.465C303.795 119.153 303.782 118.919 303.782 118.464V115.539C303.782 115.084 303.795 114.798 303.834 114.525C303.47 114.564 303.132 114.577 302.508 114.577H300.077ZM299.765 115.435H302.82V118.542H299.765V115.435ZM306.746 123.014C306.694 122.676 306.668 122.156 306.668 121.428V113.316C306.668 112.653 306.694 112.224 306.746 111.73C306.278 111.782 305.849 111.795 305.199 111.795H297.425C296.788 111.795 296.359 111.782 295.904 111.73C295.956 112.237 295.982 112.679 295.982 113.316V121.415C295.982 122.169 295.956 122.624 295.904 123.014H296.996V122.26H305.654V123.014H306.746ZM296.996 112.705H305.654V121.35H296.996V112.705ZM313.818 112.874C313.753 114.083 313.662 114.746 313.389 115.656C312.986 117.047 312.297 118.321 311.322 119.452C310.451 120.466 309.736 121.064 308.423 121.857C308.8 122.156 308.995 122.39 309.229 122.806C310.711 121.779 311.699 120.856 312.57 119.634C313.454 118.425 313.987 117.216 314.416 115.5C314.767 116.956 315.222 118.022 315.989 119.179C316.951 120.635 318.004 121.701 319.538 122.767C319.863 122.26 319.98 122.117 320.383 121.753C319.291 121.103 318.823 120.739 318.095 120.011C317.263 119.179 316.613 118.321 316.106 117.372C315.3 115.89 314.91 114.343 314.91 112.666C314.91 112.38 314.923 112.12 314.962 111.808C314.702 111.873 314.377 111.886 313.766 111.886H311.946C311.439 111.886 311.192 111.873 310.893 111.821V112.939C311.335 112.9 311.686 112.874 311.959 112.874H313.818ZM326.675 115.747V117.372H323.386C322.801 117.372 322.424 117.346 322.073 117.294V118.347C322.463 118.295 322.866 118.269 323.373 118.269H326.675V121.545H323.191C322.58 121.545 322.112 121.519 321.67 121.467V122.572C322.19 122.507 322.671 122.481 323.204 122.481H331.394C331.927 122.481 332.434 122.507 332.863 122.572V121.467C332.46 121.519 332.018 121.545 331.407 121.545H327.676V118.269H331.199C331.771 118.269 332.135 118.295 332.525 118.347V117.294C332.187 117.346 331.823 117.372 331.212 117.372H327.676V115.747H329.093C329.652 115.747 329.977 115.76 330.315 115.812V114.98C331.238 115.578 331.823 115.877 332.876 116.319C333.032 115.955 333.201 115.643 333.448 115.318C332.096 114.863 331.121 114.369 330.029 113.576C329.002 112.822 328.326 112.146 327.793 111.327H326.623C325.596 113.017 323.698 114.421 321.189 115.357C321.514 115.734 321.618 115.903 321.787 116.28C322.736 115.89 323.308 115.578 324.153 115.032V115.812C324.53 115.76 324.842 115.747 325.388 115.747H326.675ZM325.362 114.889C324.946 114.889 324.738 114.876 324.426 114.863C325.739 113.927 326.454 113.251 327.221 112.198C328.001 113.225 328.924 114.07 330.107 114.85C329.821 114.876 329.574 114.889 329.106 114.889H325.362ZM323.308 118.984C323.776 119.686 324.114 120.375 324.413 121.259L325.323 120.895C324.946 119.946 324.673 119.374 324.218 118.594L323.308 118.984ZM330.185 118.62C329.847 119.582 329.457 120.349 328.963 121.012L329.834 121.35C330.393 120.505 330.419 120.453 331.16 119.01L330.185 118.62ZM340.663 116.735V113.498H343.978C344.602 113.498 345.018 113.524 345.408 113.576V112.51C345.07 112.575 344.68 112.601 343.926 112.601H340.663V112.198C340.663 111.691 340.676 111.47 340.728 111.132H339.61C339.675 111.496 339.688 111.769 339.688 112.185V112.601H336.672C336.074 112.601 335.684 112.575 335.229 112.51V113.576C335.684 113.524 336.113 113.498 336.633 113.498H339.688V116.735H336.009C335.372 116.735 334.995 116.709 334.566 116.644V117.723C335.06 117.671 335.476 117.645 336.009 117.645H339.168C338.596 118.399 338.336 118.724 337.894 119.153C336.958 120.076 335.723 120.934 334.423 121.532C334.748 121.883 334.852 122.026 335.086 122.442C335.892 122 336.672 121.48 337.374 120.908C338.284 120.154 338.843 119.517 339.727 118.204C339.701 118.906 339.688 119.14 339.688 119.543V121.714C339.688 122.26 339.662 122.611 339.597 123.001H340.754C340.689 122.598 340.663 122.26 340.663 121.714V119.53C340.663 119.218 340.65 118.841 340.611 118.178C341.326 119.179 341.768 119.699 342.418 120.297C343.315 121.129 344.199 121.727 345.603 122.442C345.811 122.039 345.98 121.805 346.253 121.493C344.966 120.96 343.887 120.297 342.834 119.4C342.197 118.867 341.976 118.62 341.196 117.645H344.602C345.239 117.645 345.668 117.671 346.084 117.723V116.644C345.759 116.709 345.408 116.735 344.628 116.735H342.86C343.432 115.851 343.822 115.149 344.225 114.226L343.25 113.862C342.834 114.993 342.457 115.721 341.794 116.735H340.663ZM336.282 114.226C336.828 115.058 337.088 115.591 337.478 116.618L338.362 116.189C337.868 115.071 337.66 114.668 337.127 113.823L336.282 114.226ZM348.138 124.158C348.879 123.04 349.191 122.442 349.516 121.506C349.919 120.388 350.114 119.218 350.114 117.983C350.114 116.761 349.919 115.591 349.516 114.46C349.191 113.524 348.879 112.939 348.138 111.808L347.163 112.458C347.904 113.576 348.203 114.161 348.489 115.071C348.775 115.981 348.918 116.943 348.918 117.983C348.918 119.023 348.775 119.998 348.489 120.908C348.203 121.818 347.904 122.403 347.163 123.521L348.138 124.158Z" fill="#242424"/>
<path d="M373.253 122C373.955 122 374.397 122.013 374.956 122.065V120.804C374.501 120.869 373.968 120.895 373.279 120.895H369.262C369.6 119.738 370.263 118.997 371.979 117.853C373.461 116.865 373.786 116.605 374.202 116.085C374.592 115.617 374.813 115.006 374.813 114.395C374.813 112.809 373.5 111.782 371.472 111.782C370.276 111.782 369.353 112.133 368.742 112.822C368.3 113.329 368.079 113.823 367.897 114.759L369.21 114.954C369.314 114.317 369.418 114.005 369.652 113.667C370.029 113.121 370.64 112.848 371.485 112.848C372.72 112.848 373.513 113.446 373.513 114.395C373.513 115.175 373.084 115.734 371.849 116.566C370.562 117.437 370.25 117.658 369.821 118.035C368.989 118.763 368.443 119.504 368.105 120.362C367.91 120.856 367.871 121.064 367.741 122.052C368.17 122.013 368.378 122 369.249 122H373.253ZM376.644 120.531V122H378.113V120.531H376.644ZM386.81 113.888C386.524 113.264 386.342 112.978 386.03 112.653C385.471 112.094 384.652 111.795 383.677 111.795C382.416 111.795 381.48 112.263 380.752 113.251C380.128 114.096 379.751 115.578 379.751 117.216C379.751 119.062 380.245 120.57 381.116 121.35C381.701 121.883 382.598 122.182 383.573 122.182C385.653 122.182 387.057 120.804 387.057 118.776C387.057 116.748 385.77 115.474 383.716 115.474C382.845 115.474 382.182 115.695 381.584 116.202C381.298 116.436 381.155 116.605 380.908 117.008C380.986 115.734 381.116 115.11 381.454 114.356C381.909 113.342 382.65 112.822 383.638 112.822C384.613 112.822 385.172 113.238 385.575 114.239L386.81 113.888ZM383.599 116.488C384.99 116.488 385.835 117.359 385.835 118.802C385.835 119.309 385.718 119.79 385.51 120.128C385.107 120.752 384.366 121.142 383.534 121.142C382.182 121.142 381.168 120.141 381.168 118.802C381.168 117.463 382.195 116.488 383.599 116.488ZM390.604 117.411C391.241 117.411 391.8 117.203 392.203 116.8C392.684 116.332 392.931 115.578 392.931 114.59C392.931 112.822 392.073 111.795 390.604 111.795C389.967 111.795 389.395 112.016 389.005 112.406C388.524 112.9 388.277 113.641 388.277 114.629C388.277 115.578 388.537 116.345 389.005 116.8C389.395 117.203 389.967 117.411 390.604 117.411ZM390.604 112.666C391.436 112.666 391.917 113.368 391.917 114.577C391.917 115.851 391.449 116.553 390.604 116.553C389.759 116.553 389.291 115.851 389.291 114.577C389.291 113.368 389.772 112.666 390.604 112.666ZM389.291 121.805L389.863 122.26L397.832 112.146L397.247 111.691L389.291 121.805ZM396.506 122.169C397.143 122.169 397.702 121.961 398.105 121.558C398.586 121.09 398.833 120.336 398.833 119.348C398.833 117.58 397.988 116.553 396.506 116.553C395.037 116.553 394.179 117.593 394.179 119.348C394.179 120.336 394.426 121.103 394.907 121.558C395.31 121.961 395.869 122.169 396.506 122.169ZM396.506 117.424C397.338 117.424 397.819 118.126 397.819 119.335C397.819 120.609 397.351 121.311 396.506 121.311C395.661 121.311 395.193 120.609 395.193 119.335C395.193 118.126 395.674 117.424 396.506 117.424Z" fill="#242424"/>
</g>
</g>
<defs>
<filter id="filter0_d_7007_174100" x="-4" y="-2" width="90" height="43" filterUnits="userSpaceOnUse" color-interpolation-filters="sRGB">
<feFlood flood-opacity="0" result="BackgroundImageFix"/>
<feColorMatrix in="SourceAlpha" type="matrix" values="0 0 0 0 0 0 0 0 0 0 0 0 0 0 0 0 0 0 127 0" result="hardAlpha"/>
<feOffset dy="2"/>
<feGaussianBlur stdDeviation="4"/>
<feColorMatrix type="matrix" values="0 0 0 0 0 0 0 0 0 0 0 0 0 0 0 0 0 0 0.06 0"/>
<feBlend mode="normal" in2="BackgroundImageFix" result="effect1_dropShadow_7007_174100"/>
<feBlend mode="normal" in="SourceGraphic" in2="effect1_dropShadow_7007_174100" result="shape"/>
</filter>
<filter id="filter1_d_7007_174100" x="168" y="58" width="252" height="92" filterUnits="userSpaceOnUse" color-interpolation-filters="sRGB">
<feFlood flood-opacity="0" result="BackgroundImageFix"/>
<feColorMatrix in="SourceAlpha" type="matrix" values="0 0 0 0 0 0 0 0 0 0 0 0 0 0 0 0 0 0 127 0" result="hardAlpha"/>
<feOffset dy="2"/>
<feGaussianBlur stdDeviation="4"/>
<feColorMatrix type="matrix" values="0 0 0 0 0 0 0 0 0 0 0 0 0 0 0 0 0 0 0.15 0"/>
<feBlend mode="normal" in2="BackgroundImageFix" result="effect1_dropShadow_7007_174100"/>
<feBlend mode="normal" in="SourceGraphic" in2="effect1_dropShadow_7007_174100" result="shape"/>
</filter>
<filter id="filter2_i_7007_174100" x="176" y="64" width="236" height="31" filterUnits="userSpaceOnUse" color-interpolation-filters="sRGB">
<feFlood flood-opacity="0" result="BackgroundImageFix"/>
<feBlend mode="normal" in="SourceGraphic" in2="BackgroundImageFix" result="shape"/>
<feColorMatrix in="SourceAlpha" type="matrix" values="0 0 0 0 0 0 0 0 0 0 0 0 0 0 0 0 0 0 127 0" result="hardAlpha"/>
<feOffset dy="-1"/>
<feComposite in2="hardAlpha" operator="arithmetic" k2="-1" k3="1"/>
<feColorMatrix type="matrix" values="0 0 0 0 0.941176 0 0 0 0 0.941176 0 0 0 0 0.941176 0 0 0 1 0"/>
<feBlend mode="normal" in2="shape" result="effect1_innerShadow_7007_174100"/>
</filter>
<clipPath id="clip0_7007_174100">
<rect width="528.5" height="35" fill="white"/>
</clipPath>
<clipPath id="clip1_7007_174100">
<rect x="176" y="64" width="236" height="76" rx="2" fill="white"/>
</clipPath>
<clipPath id="clip2_7007_174100">
<rect width="70" height="21" fill="white" transform="translate(188 69)"/>
</clipPath>
</defs>
</svg>
