<svg width="349" height="283" viewBox="0 0 349 283" fill="none" xmlns="http://www.w3.org/2000/svg">
<rect width="15.3846" height="15.3846" transform="translate(7.30859 3.80762)" fill="#E6413C"/>
<path d="M37.895 7.025C37.115 7.295 35.96 7.535 34.895 7.64V6.335C34.895 5.615 34.91 5.315 34.97 4.88H33.62C33.68 5.345 33.71 5.72 33.71 6.395V7.73C32.72 7.775 32.72 7.775 32.375 7.775C31.625 7.775 31.19 7.745 30.755 7.655V8.855C30.875 8.84 30.98 8.84 31.04 8.84C31.1 8.84 31.22 8.84 31.385 8.855C31.64 8.855 32.06 8.87 32.27 8.87C32.615 8.87 32.87 8.87 33.11 8.84C33.59 8.81 33.59 8.81 33.71 8.81V11.495C32.75 11.915 32.135 12.275 31.58 12.74C30.77 13.43 30.365 14.12 30.365 14.795C30.365 15.365 30.605 15.86 31.1 16.295C31.79 16.895 32.795 17.285 33.665 17.285C34.265 17.285 34.7 17 34.82 16.535C34.88 16.28 34.895 16.13 34.895 15.455V12.29C36.125 11.885 37.04 11.72 38 11.72C39.86 11.72 41.045 12.62 41.045 14.045C41.045 15.215 40.25 16.055 39.17 16.055C38.555 16.055 38.12 15.785 37.91 15.29C37.805 15.005 37.73 14.465 37.73 13.895C37.73 13.715 37.745 13.595 37.76 13.31C37.31 13.565 37.13 13.64 36.575 13.79C36.575 14.585 36.635 15.035 36.785 15.545C37.1 16.64 37.94 17.24 39.14 17.24C40.94 17.24 42.305 15.86 42.305 14.045C42.305 12.92 41.75 11.93 40.76 11.3C40.085 10.88 39.125 10.64 38.075 10.64C37.025 10.64 36.11 10.79 34.88 11.15V8.735C35.54 8.675 36.125 8.57 37.07 8.39C37.61 8.27 37.67 8.27 37.955 8.225L37.895 7.025ZM33.71 15.35C33.71 15.95 33.65 16.07 33.38 16.07C33.005 16.07 32.51 15.905 32.135 15.665C31.73 15.395 31.535 15.125 31.535 14.81C31.535 14.15 32.315 13.385 33.71 12.68V15.35ZM42.92 9.005C42.05 7.835 41.24 7.07 39.905 6.095L38.945 6.785C40.13 7.61 41.195 8.675 41.975 9.8L42.92 9.005ZM47.21 16.745C47.21 17.225 47.18 17.63 47.135 18.08H48.335V17.51H54.785V18.08H56.015C55.955 17.675 55.925 17.315 55.925 16.76V14.69C55.925 14.315 55.94 14.075 55.955 13.805C56.735 14.03 57.035 14.12 57.935 14.315C58.085 13.76 58.205 13.505 58.445 13.145C55.94 12.77 54.245 12.245 52.52 11.3C53.45 10.64 54.47 9.77 55.265 8.945C55.445 8.75 55.46 8.735 55.565 8.63L54.875 8C54.545 8.045 54.155 8.06 53.54 8.06H50.42C50.66 7.775 50.765 7.64 50.825 7.565C50.945 7.415 50.945 7.415 51.05 7.31L49.91 6.935C49.745 7.28 49.52 7.58 49.175 7.985C48.08 9.215 47.03 9.965 45.26 10.805C45.605 11.12 45.71 11.24 45.98 11.66C47.36 10.895 47.93 10.505 48.8 9.725C49.43 10.385 49.925 10.805 50.63 11.3C48.725 12.35 46.85 12.995 44.6 13.37C44.855 13.67 45.02 13.985 45.155 14.42C46.13 14.18 46.475 14.09 47.18 13.865C47.195 14.09 47.21 14.36 47.21 14.69V16.745ZM49.61 8.96H53.765C52.79 9.875 52.415 10.19 51.575 10.745C50.63 10.115 50.075 9.665 49.505 9.065L49.61 8.96ZM48.485 13.535C48.26 13.535 48.26 13.535 48.125 13.535C49.64 12.965 50.555 12.545 51.575 11.915C52.7 12.605 53.735 13.085 55.1 13.535C54.845 13.535 54.815 13.535 54.605 13.535H48.485ZM48.335 14.51H54.8V16.49H48.335V14.51ZM50.81 5.855H46.79C46.175 5.855 45.665 5.84 45.17 5.78C45.215 6.14 45.23 6.425 45.23 6.83V7.79C45.23 8.24 45.215 8.48 45.17 8.855H46.31V6.845H56.675V8.87H57.83C57.785 8.57 57.77 8.255 57.77 7.805V6.83C57.77 6.38 57.785 6.095 57.83 5.78C57.305 5.84 56.84 5.855 56.135 5.855H51.98V5.525C51.98 5.165 52.025 4.745 52.07 4.475H50.72C50.78 4.88 50.81 5.15 50.81 5.525V5.855ZM67.835 11.705V13.7C66.425 14.66 65.93 14.96 64.85 15.47C64.295 15.755 63.995 15.875 63.545 15.995L64.04 17.165C64.25 17.015 64.46 16.88 64.7 16.745C66.41 15.815 66.425 15.8 67.835 14.795V16.73C67.835 17.015 67.745 17.06 67.28 17.06C66.905 17.06 66.395 17.015 65.855 16.94C66.035 17.3 66.11 17.57 66.155 18.035C66.59 18.08 66.965 18.095 67.34 18.095C68.54 18.095 68.885 17.87 68.885 17.045V14.405C68.885 14.135 68.855 13.7 68.795 13.07C69.38 14.39 69.86 15.125 70.655 15.95C71.255 16.565 71.87 17.045 72.755 17.585C72.995 17.15 73.175 16.88 73.49 16.535C72.32 15.98 71.57 15.455 70.745 14.57C71.48 13.94 71.885 13.49 72.59 12.59L71.69 11.96C71.165 12.77 70.715 13.31 70.13 13.82C69.575 13.07 69.305 12.575 68.975 11.705H71.69C72.23 11.705 72.695 11.735 73.115 11.795V10.67C72.695 10.73 72.245 10.76 71.675 10.76H68.885V9.545H71.045C71.72 9.545 72.05 9.56 72.44 9.62V8.525C72.05 8.585 71.66 8.6 71.03 8.6H68.885V7.46H71.495C72.095 7.46 72.5 7.49 72.905 7.535V6.425C72.485 6.485 72.065 6.515 71.48 6.515H70.34C70.595 6.125 70.94 5.525 71.285 4.865L70.175 4.52C69.905 5.27 69.68 5.75 69.185 6.515H67.58C67.25 5.72 67.025 5.285 66.53 4.535L65.555 4.925C66.02 5.555 66.23 5.93 66.485 6.515H65.87C65.255 6.515 64.895 6.5 64.52 6.44V7.535C64.91 7.475 65.21 7.46 65.855 7.46H67.835V8.6H66.185C65.57 8.6 65.255 8.585 64.895 8.525V9.62C65.33 9.56 65.51 9.545 66.23 9.545H67.835V10.76H65.6C65.03 10.76 64.58 10.745 64.25 10.7C63.635 9.995 63.11 9.08 62.885 8.36H63.35C63.725 8.36 63.995 8.375 64.28 8.405V7.31C63.98 7.355 63.785 7.37 63.365 7.37H62.84V5.99C62.84 5.24 62.855 4.85 62.915 4.445H61.67C61.73 4.805 61.745 5.15 61.745 5.99V7.37H60.86C60.365 7.37 60.095 7.355 59.84 7.31V8.42C60.11 8.375 60.395 8.36 60.86 8.36H61.595C61.445 9.095 61.145 9.995 60.77 10.88C60.365 11.825 59.975 12.5 59.42 13.16C59.72 13.595 59.885 13.895 60.05 14.345C60.485 13.67 60.665 13.355 60.95 12.74C61.385 11.84 61.565 11.33 61.85 10.1C61.805 10.97 61.76 12.035 61.76 12.515V16.43C61.76 17.195 61.73 17.765 61.67 18.2H62.93C62.855 17.765 62.84 17.24 62.84 16.43V12.095C62.84 11.63 62.825 10.985 62.78 9.755C63.05 10.535 63.275 11.015 63.68 11.69C63.875 11.315 64.01 11.06 64.235 10.76V11.78C64.595 11.72 64.97 11.705 65.54 11.705H67.835ZM64.46 12.56C65.12 13.235 65.39 13.58 65.885 14.375L66.71 13.775C66.23 13.07 65.84 12.605 65.255 11.99L64.46 12.56ZM81.155 16.01C81.5 16.43 81.605 16.625 81.8 17.225C82.955 16.985 83.585 16.79 84.305 16.445C86.405 15.44 87.59 13.58 87.59 11.255C87.59 8.09 85.325 5.99 81.92 5.99C79.88 5.99 78.2 6.68 76.985 8.015C75.95 9.155 75.38 10.655 75.38 12.215C75.38 14.405 76.49 16.01 78.005 16.01C79.13 16.01 80.03 15.11 80.885 13.145C81.59 11.555 82.13 9.35 82.385 7.145C83.12 7.19 83.54 7.295 84.065 7.55C85.49 8.24 86.285 9.56 86.285 11.195C86.285 12.935 85.415 14.405 83.915 15.2C83.18 15.59 82.46 15.8 81.155 16.01ZM81.095 7.175C80.9 9.035 80.36 11.18 79.76 12.575C79.145 13.985 78.575 14.675 77.99 14.675C77.21 14.675 76.61 13.595 76.61 12.23C76.61 10.445 77.495 8.795 78.95 7.88C79.61 7.445 80.225 7.25 81.095 7.175ZM92.93 8.54H91.415C90.71 8.54 90.35 8.525 89.99 8.45V9.65C90.41 9.59 90.815 9.56 91.4 9.56H92.705C92.465 10.28 92 11.225 91.55 12.005C90.965 12.965 90.455 13.61 89.645 14.375C89.9 14.675 90.095 14.96 90.32 15.44C91.595 14.06 92.285 12.92 93.005 11.015C92.945 11.81 92.915 12.56 92.915 13.4V16.25C92.915 17.075 92.885 17.57 92.81 18.11H94.115C94.055 17.645 94.025 17.18 94.025 16.25V13.265C94.025 12.335 93.995 11.465 93.935 10.865C94.49 12.035 94.91 12.62 95.96 13.73C96.14 13.34 96.32 13.07 96.59 12.74C95.27 11.585 94.61 10.745 94.07 9.56H95.39C95.975 9.56 96.305 9.575 96.695 9.635V8.465C96.305 8.525 95.945 8.54 95.405 8.54H94.025V6.305C94.775 6.095 95.21 5.96 95.885 5.72C96.38 5.54 96.38 5.54 96.545 5.48L95.78 4.52C95.51 4.7 95.255 4.82 94.625 5.03C92.93 5.585 91.835 5.84 90.02 6.065C90.275 6.44 90.38 6.68 90.5 7.085C91.565 6.905 91.94 6.83 92.93 6.59V8.54ZM97.67 5.48C97.745 5.975 97.76 6.365 97.76 7.235V12.995C97.76 14 97.745 14.315 97.685 14.735H98.975C98.915 14.3 98.9 13.985 98.9 12.98V7.235C98.9 6.35 98.915 5.945 98.99 5.48H97.67ZM101.315 4.625C101.375 5.165 101.405 5.735 101.405 6.56V16.265C101.405 16.64 101.285 16.715 100.685 16.715C100.235 16.715 99.65 16.685 99.14 16.625C99.05 16.61 98.915 16.595 98.72 16.565C98.915 17.03 99.005 17.285 99.08 17.75C99.755 17.795 100.19 17.81 100.475 17.81C102.125 17.81 102.56 17.51 102.56 16.355V6.56C102.56 5.72 102.59 5.165 102.665 4.625H101.315ZM110.075 8.435C109.355 8.435 108.95 8.42 108.545 8.375C108.59 8.75 108.605 9.065 108.605 9.545V12.92C108.605 13.385 108.59 13.685 108.545 14.075C108.98 14.03 109.25 14.015 110.075 14.015H112.88C113.555 14.015 113.975 14.03 114.41 14.075C114.365 13.715 114.35 13.445 114.35 12.92V9.545C114.35 9.02 114.365 8.69 114.41 8.375C113.99 8.42 113.6 8.435 112.88 8.435H110.075ZM109.715 9.425H113.24V13.01H109.715V9.425ZM117.77 18.17C117.71 17.78 117.68 17.18 117.68 16.34V6.98C117.68 6.215 117.71 5.72 117.77 5.15C117.23 5.21 116.735 5.225 115.985 5.225H107.015C106.28 5.225 105.785 5.21 105.26 5.15C105.32 5.735 105.35 6.245 105.35 6.98V16.325C105.35 17.195 105.32 17.72 105.26 18.17H106.52V17.3H116.51V18.17H117.77ZM106.52 6.275H116.51V16.25H106.52V6.275ZM123.395 10.055C123.44 9.53 123.47 9.2 123.605 8.255C123.98 5.63 124.025 5.42 124.205 4.895L122.825 4.79C122.825 4.97 122.825 5.045 122.795 5.27C122.405 8.03 122.3 9.305 122.3 10.82C122.3 11 122.33 12.605 122.33 12.755C122.345 12.905 122.345 12.995 122.345 13.04C122.345 13.07 122.345 13.13 122.33 13.205L123.62 13.175C123.62 12.98 123.62 12.89 123.62 12.815C123.62 11.69 123.89 10.565 124.445 9.47C125.27 7.805 126.23 6.965 127.295 6.965C128.705 6.965 129.515 8.3 129.515 10.64C129.515 13.01 128.705 14.54 126.95 15.515C126.05 16.01 125.27 16.235 123.83 16.43C124.175 16.88 124.28 17.06 124.505 17.66C125.6 17.435 126.515 17.135 127.25 16.79C129.59 15.665 130.835 13.58 130.835 10.82C130.835 9.155 130.55 8.03 129.89 7.07C129.275 6.185 128.435 5.735 127.415 5.735C126.275 5.735 125.285 6.35 124.46 7.55C124.04 8.18 123.755 8.84 123.56 9.65C123.485 9.95 123.485 9.95 123.455 10.055H123.395ZM141.155 16.01C141.5 16.43 141.605 16.625 141.8 17.225C142.955 16.985 143.585 16.79 144.305 16.445C146.405 15.44 147.59 13.58 147.59 11.255C147.59 8.09 145.325 5.99 141.92 5.99C139.88 5.99 138.2 6.68 136.985 8.015C135.95 9.155 135.38 10.655 135.38 12.215C135.38 14.405 136.49 16.01 138.005 16.01C139.13 16.01 140.03 15.11 140.885 13.145C141.59 11.555 142.13 9.35 142.385 7.145C143.12 7.19 143.54 7.295 144.065 7.55C145.49 8.24 146.285 9.56 146.285 11.195C146.285 12.935 145.415 14.405 143.915 15.2C143.18 15.59 142.46 15.8 141.155 16.01ZM141.095 7.175C140.9 9.035 140.36 11.18 139.76 12.575C139.145 13.985 138.575 14.675 137.99 14.675C137.21 14.675 136.61 13.595 136.61 12.23C136.61 10.445 137.495 8.795 138.95 7.88C139.61 7.445 140.225 7.25 141.095 7.175ZM157.595 7.295H155.345C154.58 7.295 154.16 7.28 153.725 7.205V8.42C154.07 8.375 154.565 8.345 155.375 8.345H161.375C162.02 8.345 162.485 8.375 162.98 8.42V7.205C162.545 7.265 162.08 7.295 161.375 7.295H158.735V5.735C158.735 5.225 158.765 4.925 158.825 4.595H157.49C157.565 4.955 157.595 5.3 157.595 5.765V7.295ZM155 16.295C154.235 16.295 153.77 16.265 153.35 16.205V17.465C153.83 17.39 154.34 17.36 155.03 17.36H161.75C162.425 17.36 162.98 17.39 163.43 17.465V16.205C162.995 16.265 162.53 16.295 161.78 16.295H159.62C160.22 14.765 160.835 12.935 161.255 11.36C161.6 10.07 161.6 10.07 161.78 9.485L160.445 9.125C160.25 10.865 159.395 13.94 158.465 16.295H155ZM151.325 16.31C151.325 17.105 151.295 17.57 151.22 18.095H152.54C152.48 17.525 152.45 17.015 152.45 16.34V8.285C152.975 7.175 153.185 6.65 153.62 5.48C153.74 5.12 153.74 5.105 153.905 4.67L152.66 4.31C152.585 4.82 152.375 5.6 152.09 6.335C151.43 8.03 150.5 9.53 149.33 10.79C149.585 11.12 149.84 11.585 149.96 11.915C150.575 11.195 150.875 10.76 151.385 9.905C151.34 10.535 151.325 11.09 151.325 11.72V16.31ZM157.28 15.17C156.755 12.65 156.38 11.315 155.63 9.275L154.49 9.665C155.225 11.54 155.645 13.085 156.095 15.515L157.28 15.17ZM171.32 7.82C171.23 8.255 171.23 8.255 171.14 8.63H166.43C165.71 8.63 165.305 8.615 164.84 8.54V9.62C165.335 9.545 165.74 9.53 166.43 9.53H170.87C170.78 9.815 170.735 9.95 170.6 10.295H169.7C169.025 10.295 168.65 10.28 168.23 10.265C168.26 10.625 168.275 11.15 168.275 11.84V14.405C168.275 15.05 168.26 15.455 168.23 15.83C168.695 15.8 169.145 15.785 169.79 15.785H175.07C175.715 15.785 176.165 15.8 176.645 15.83C176.6 15.545 176.585 15.2 176.585 14.405V11.84C176.585 11.135 176.6 10.64 176.63 10.25C176.3 10.28 175.805 10.295 175.145 10.295H171.695C171.86 9.86 171.86 9.86 171.965 9.53H176.42C177.11 9.53 177.53 9.56 178.01 9.62V8.54C177.545 8.615 177.14 8.63 176.42 8.63H172.22C172.325 8.225 172.34 8.15 172.415 7.82H175.925C176.75 7.82 177.17 7.835 177.53 7.865C177.485 7.535 177.47 7.28 177.47 6.785V6.05C177.47 5.555 177.485 5.27 177.53 4.925C177.2 4.955 176.57 4.985 175.85 4.985H167.225C166.505 4.985 166.01 4.97 165.545 4.925C165.59 5.27 165.605 5.585 165.605 6.05V6.785C165.605 7.235 165.59 7.505 165.545 7.865C165.89 7.835 166.37 7.82 167.15 7.82H171.32ZM169.205 6.965H166.685V5.87H169.205V6.965ZM172.79 6.965H170.195V5.87H172.79V6.965ZM173.78 6.965V5.87H176.39V6.965H173.78ZM169.325 11.09H175.52V11.855H169.325V11.09ZM169.325 12.62H175.52V13.385H169.325V12.62ZM169.325 14.15H175.52V14.975H169.325V14.15ZM166.805 16.58V11.72C166.805 11.165 166.82 10.835 166.88 10.43H165.605C165.665 10.835 165.695 11.195 165.695 11.72V16.775C165.695 17.39 165.665 17.735 165.605 18.155H166.805V17.51H176.6C177.305 17.51 177.74 17.54 178.19 17.6V16.49C177.725 16.565 177.335 16.58 176.6 16.58H166.805Z" fill="#242424"/>
<path d="M30 83L347 82.9999" stroke="#004166" stroke-opacity="0.2" stroke-linejoin="round"/>
<path d="M30 116L347 116" stroke="#004166" stroke-opacity="0.2" stroke-linejoin="round"/>
<path d="M30 149L347 149" stroke="#004166" stroke-opacity="0.2" stroke-linejoin="round"/>
<path d="M30 182L347 182" stroke="#004166" stroke-opacity="0.2" stroke-linejoin="round"/>
<path d="M30 215L347 215" stroke="#004166" stroke-opacity="0.2" stroke-linejoin="round"/>
<path d="M6.25002 44.0497C6.28902 44.3877 6.30202 44.6217 6.30202 45.1417C6.30202 48.0667 5.62602 50.2637 4.14402 52.1487C3.28602 53.2537 2.51902 53.8647 0.998023 54.6967C1.36202 54.9957 1.54402 55.2167 1.77802 55.6327C2.85702 54.9567 3.35102 54.5667 4.07902 53.8517C4.92402 53.0067 5.50902 52.2137 5.97702 51.2257C6.44502 50.2637 6.66602 49.5877 6.90002 48.4047C7.30302 50.0817 7.81002 51.2517 8.60302 52.3827C9.52602 53.6827 10.436 54.5537 12.009 55.6327C12.269 55.1777 12.412 54.9827 12.789 54.6447C12.074 54.2287 11.762 54.0207 11.372 53.7087C10.696 53.1627 9.99402 52.4477 9.51302 51.8107C8.72002 50.7707 7.99202 49.2757 7.71902 48.1707C7.55002 47.4817 7.39402 46.0647 7.39402 45.2327C7.39402 44.8557 7.43302 44.2577 7.47202 44.0497H6.25002ZM25.906 46.2467C25.568 46.3117 25.282 46.3247 24.684 46.3247H22.084C22.24 45.8177 22.383 45.3237 22.539 44.6737C22.63 44.3097 22.643 44.2577 22.708 44.0887L21.655 43.8677C21.642 44.2447 21.564 44.6997 21.447 45.2327C21.057 46.8967 20.355 48.3657 19.458 49.4447C19.757 49.6267 19.926 49.7697 20.186 50.0687C20.537 49.6137 20.706 49.3537 21.031 48.7687C21.304 50.3027 21.642 51.2647 22.305 52.3697C21.525 53.3967 20.537 54.1637 19.068 54.8787C19.354 55.1647 19.51 55.3857 19.692 55.7497C21.044 55.0087 22.019 54.2157 22.851 53.1887C23.67 54.2547 24.515 55.0087 25.633 55.6717C25.841 55.2037 25.971 54.9827 26.205 54.6967C25.048 54.0857 24.216 53.3967 23.436 52.3697C23.878 51.6287 24.19 50.9137 24.424 50.0427C24.671 49.1587 24.775 48.4697 24.853 47.2087C25.399 47.2087 25.633 47.2217 25.906 47.2737V46.2467ZM23.904 47.2087C23.8 49.0417 23.514 50.2247 22.864 51.4727C22.227 50.3157 21.889 49.2237 21.629 47.5337C21.694 47.3907 21.707 47.3517 21.759 47.2087H23.904ZM19.562 54.0337C18.964 53.6827 18.769 53.5657 18.288 53.3317C18.743 52.7077 18.951 52.3047 19.224 51.4207H19.393C19.848 51.4207 20.095 51.4337 20.368 51.4857V50.5237C20.134 50.5757 19.887 50.5887 19.445 50.5887H17.157C17.287 50.3027 17.352 50.1857 17.495 49.7957L16.546 49.5877C16.39 50.0817 16.325 50.2507 16.182 50.5887H15.064C14.609 50.5887 14.375 50.5757 14.115 50.5237V51.4857C14.388 51.4337 14.622 51.4207 15.064 51.4207H15.74C15.415 51.9927 15.285 52.1877 14.843 52.7857C15.818 53.1497 16.221 53.3187 16.832 53.6047C16.169 54.1247 15.207 54.5537 14.037 54.8397C14.245 55.1387 14.375 55.3597 14.518 55.6977C16.065 55.1777 16.858 54.7617 17.664 54.0207C18.314 54.3717 18.457 54.4757 19.016 54.8787L19.562 54.0337ZM18.288 51.4207C18.067 52.0707 17.872 52.4477 17.482 52.9547C17.066 52.7727 16.845 52.6817 16.13 52.3957C16.429 51.9407 16.52 51.7977 16.728 51.4207H18.288ZM17.768 46.4547V44.7647C17.768 44.4137 17.781 44.1537 17.82 43.9067H16.819C16.871 44.1927 16.884 44.4137 16.884 44.7777V46.4547H15.233C14.726 46.4547 14.453 46.4417 14.167 46.3897V47.3257C14.427 47.2737 14.752 47.2607 15.207 47.2607H16.286C15.675 48.1057 15.129 48.5607 13.92 49.2627C14.206 49.5097 14.362 49.6917 14.57 50.0167C15.779 49.1587 16.234 48.7037 16.923 47.6247C16.897 47.8847 16.884 48.1057 16.884 48.3007V48.9637C16.884 49.1327 16.871 49.3147 16.832 49.4707H17.807C17.781 49.3147 17.768 49.1197 17.768 48.9377V48.2877C17.768 48.1057 17.755 47.9237 17.716 47.6247C18.158 48.3007 18.431 48.5997 19.159 49.1587C19.445 48.6907 19.471 48.6647 19.731 48.4047C19.094 48.0667 18.587 47.6767 18.262 47.2607H19.445C19.874 47.2607 20.095 47.2737 20.316 47.3127V46.4027C20.121 46.4417 19.874 46.4547 19.458 46.4547H17.768ZM14.531 44.4527C14.947 45.0377 15.194 45.4797 15.454 46.1687L16.273 45.8437C15.987 45.1677 15.792 44.8037 15.324 44.1407L14.531 44.4527ZM19.302 44.0887C19.029 44.8037 18.743 45.3107 18.262 45.9217L19.042 46.2987C19.484 45.7007 19.679 45.3627 20.134 44.4657L19.302 44.0887ZM31.366 49.4447C31.275 50.5497 31.093 51.2257 30.664 52.0187C30.053 53.1757 28.961 54.1117 27.427 54.7877C27.765 55.1257 27.908 55.3207 28.103 55.6717C30.443 54.4887 31.717 52.9547 32.224 50.7577C32.315 50.3287 32.354 50.1077 32.406 49.4447H35.292C35.292 51.2387 35.175 52.7857 34.993 53.6307C34.85 54.3067 34.759 54.3847 34.2 54.3847C33.732 54.3847 33.134 54.3197 32.432 54.1767C32.588 54.6187 32.64 54.8657 32.692 55.2687C33.459 55.3337 33.901 55.3597 34.291 55.3597C35.162 55.3597 35.513 55.2167 35.747 54.7747C36.085 54.1377 36.306 52.0837 36.332 49.4057C36.332 48.7817 36.332 48.7037 36.371 48.4567C35.994 48.5087 35.604 48.5217 35.006 48.5217H30.573C30.079 48.5217 29.663 48.4957 29.299 48.4567V49.5227C29.663 49.4707 30.079 49.4447 30.573 49.4447H31.366ZM30.82 43.9587C30.755 44.3357 30.599 44.7257 30.287 45.3107C29.455 46.8317 28.35 48.0277 26.764 49.0937C27.102 49.3927 27.323 49.6527 27.505 49.9647C29.312 48.6257 30.638 47.0137 31.6 45.0247C31.769 44.6607 31.847 44.5307 31.964 44.3617L30.82 43.9587ZM33.745 44.4007C33.823 44.5307 33.927 44.7257 34.031 44.9337C35.097 47.0787 36.345 48.5607 38.321 50.0167C38.568 49.5877 38.763 49.3277 39.036 49.0547C37.32 47.9367 36.202 46.7537 35.279 45.0897C34.993 44.5957 34.876 44.3357 34.772 43.9847L33.745 44.4007ZM45.9 50.0427V54.2807C45.9 54.9437 45.874 55.4377 45.809 55.7887H46.992C46.927 55.4507 46.901 54.9567 46.901 54.2807V50.0427H49.631V53.1887C49.631 53.5267 49.488 53.6177 48.981 53.6177C48.63 53.6177 48.188 53.5657 47.629 53.4747C47.811 53.8647 47.876 54.0857 47.928 54.4887C48.474 54.5407 48.617 54.5407 48.981 54.5407C50.268 54.5407 50.632 54.2937 50.632 53.3837V50.1727C50.632 49.7307 50.645 49.4187 50.684 49.0937C50.281 49.1457 49.93 49.1587 49.462 49.1587H46.901V48.9507C46.901 48.2357 46.914 47.8847 46.979 47.5337H45.822C45.887 47.8977 45.9 48.2617 45.9 48.9507V49.1587H43.443C44.015 48.4177 44.535 47.5597 44.912 46.7927H50.177C50.866 46.7927 51.295 46.8187 51.672 46.8707V45.7917C51.321 45.8437 50.892 45.8697 50.177 45.8697H45.302C45.458 45.4537 45.627 44.9727 45.718 44.6607C45.835 44.2837 45.861 44.2057 45.965 43.9977L44.795 43.8287C44.73 44.4527 44.574 45.0637 44.262 45.8697H41.584C40.83 45.8697 40.414 45.8437 40.05 45.7917V46.8707C40.492 46.8187 40.934 46.7927 41.584 46.7927H43.859C42.923 48.6517 41.597 50.0947 39.829 51.1997C40.063 51.4467 40.284 51.7717 40.44 52.0967C41.441 51.3167 41.805 51.0047 42.429 50.3417V53.3837C42.429 53.9817 42.403 54.3847 42.351 54.7877H43.495C43.443 54.4367 43.43 54.0857 43.43 53.3837V50.0427H45.9ZM56.833 56.2437C56.092 55.1257 55.793 54.5407 55.507 53.6307C55.221 52.7207 55.078 51.7327 55.078 50.7057C55.078 49.6787 55.221 48.7037 55.507 47.7937C55.793 46.8837 56.092 46.2987 56.833 45.1807L55.858 44.5307C55.117 45.6617 54.805 46.2467 54.48 47.1827C54.077 48.3137 53.882 49.4837 53.882 50.7057C53.882 51.9277 54.077 53.1107 54.48 54.2287C54.805 55.1647 55.117 55.7627 55.858 56.8807L56.833 56.2437ZM60.0455 50.1337C60.6825 50.1337 61.2415 49.9257 61.6445 49.5227C62.1255 49.0547 62.3725 48.3007 62.3725 47.3127C62.3725 45.5447 61.5145 44.5177 60.0455 44.5177C59.4085 44.5177 58.8365 44.7387 58.4465 45.1287C57.9655 45.6227 57.7185 46.3637 57.7185 47.3517C57.7185 48.3007 57.9785 49.0677 58.4465 49.5227C58.8365 49.9257 59.4085 50.1337 60.0455 50.1337ZM60.0455 45.3887C60.8775 45.3887 61.3585 46.0907 61.3585 47.2997C61.3585 48.5737 60.8905 49.2757 60.0455 49.2757C59.2005 49.2757 58.7325 48.5737 58.7325 47.2997C58.7325 46.0907 59.2135 45.3887 60.0455 45.3887ZM58.7325 54.5277L59.3045 54.9827L67.2735 44.8687L66.6885 44.4137L58.7325 54.5277ZM65.9475 54.8917C66.5845 54.8917 67.1435 54.6837 67.5465 54.2807C68.0275 53.8127 68.2745 53.0587 68.2745 52.0707C68.2745 50.3027 67.4295 49.2757 65.9475 49.2757C64.4785 49.2757 63.6205 50.3157 63.6205 52.0707C63.6205 53.0587 63.8675 53.8257 64.3485 54.2807C64.7515 54.6837 65.3105 54.8917 65.9475 54.8917ZM65.9475 50.1467C66.7795 50.1467 67.2605 50.8487 67.2605 52.0577C67.2605 53.3317 66.7925 54.0337 65.9475 54.0337C65.1025 54.0337 64.6345 53.3317 64.6345 52.0577C64.6345 50.8487 65.1155 50.1467 65.9475 50.1467ZM70.1405 56.8807C70.8815 55.7627 71.1935 55.1647 71.5185 54.2287C71.9215 53.1107 72.1165 51.9407 72.1165 50.7057C72.1165 49.4837 71.9215 48.3137 71.5185 47.1827C71.1935 46.2467 70.8815 45.6617 70.1405 44.5307L69.1655 45.1807C69.9065 46.2987 70.2055 46.8837 70.4915 47.7937C70.7775 48.7037 70.9205 49.6657 70.9205 50.7057C70.9205 51.7457 70.7775 52.7207 70.4915 53.6307C70.2055 54.5407 69.9065 55.1257 69.1655 56.2437L70.1405 56.8807Z" fill="#242424"/>
<path d="M30.2559 248H30.7423V252.864H30.2559V248Z" fill="#D1D1D1"/>
<path d="M22.3994 264.308V265.05H20.0166V264.308H22.3994ZM26.1543 260.553V267.702H25.251V261.681L23.4297 262.345V261.53L26.0127 260.553H26.1543ZM33.2734 263.581V264.665C33.2734 265.247 33.2214 265.739 33.1172 266.139C33.013 266.54 32.8633 266.862 32.668 267.106C32.4727 267.35 32.2367 267.528 31.96 267.638C31.6865 267.746 31.3773 267.799 31.0322 267.799C30.7588 267.799 30.5065 267.765 30.2754 267.697C30.0443 267.628 29.8359 267.519 29.6504 267.37C29.4681 267.217 29.3118 267.018 29.1816 266.774C29.0514 266.53 28.9521 266.234 28.8838 265.885C28.8154 265.537 28.7812 265.13 28.7812 264.665V263.581C28.7812 262.998 28.8333 262.51 28.9375 262.116C29.0449 261.722 29.1963 261.406 29.3916 261.168C29.5869 260.928 29.8213 260.755 30.0947 260.651C30.3714 260.547 30.6807 260.495 31.0225 260.495C31.2992 260.495 31.5531 260.529 31.7842 260.597C32.0186 260.662 32.2269 260.768 32.4092 260.915C32.5915 261.058 32.7461 261.25 32.873 261.491C33.0033 261.728 33.1025 262.02 33.1709 262.365C33.2393 262.71 33.2734 263.115 33.2734 263.581ZM32.3652 264.811V263.429C32.3652 263.11 32.3457 262.83 32.3066 262.589C32.2708 262.345 32.2171 262.137 32.1455 261.964C32.0739 261.792 31.9827 261.652 31.8721 261.544C31.7646 261.437 31.6393 261.359 31.4961 261.31C31.3561 261.258 31.1982 261.232 31.0225 261.232C30.8076 261.232 30.6172 261.273 30.4512 261.354C30.2852 261.432 30.1452 261.557 30.0312 261.73C29.9206 261.903 29.8359 262.129 29.7773 262.409C29.7188 262.689 29.6895 263.029 29.6895 263.429V264.811C29.6895 265.13 29.7074 265.412 29.7432 265.656C29.7822 265.9 29.8392 266.111 29.9141 266.291C29.9889 266.466 30.0801 266.611 30.1875 266.725C30.2949 266.839 30.4186 266.924 30.5586 266.979C30.7018 267.031 30.8597 267.057 31.0322 267.057C31.2536 267.057 31.4473 267.015 31.6133 266.93C31.7793 266.846 31.9176 266.714 32.0283 266.535C32.1423 266.352 32.2269 266.12 32.2822 265.836C32.3376 265.55 32.3652 265.208 32.3652 264.811ZM34.3574 262.335V261.959C34.3574 261.689 34.416 261.444 34.5332 261.222C34.6504 261.001 34.818 260.823 35.0361 260.69C35.2542 260.556 35.513 260.49 35.8125 260.49C36.1185 260.49 36.3789 260.556 36.5938 260.69C36.8118 260.823 36.9795 261.001 37.0967 261.222C37.2139 261.444 37.2725 261.689 37.2725 261.959V262.335C37.2725 262.599 37.2139 262.842 37.0967 263.063C36.9827 263.284 36.8167 263.462 36.5986 263.595C36.3838 263.729 36.125 263.795 35.8223 263.795C35.5195 263.795 35.2575 263.729 35.0361 263.595C34.818 263.462 34.6504 263.284 34.5332 263.063C34.416 262.842 34.3574 262.599 34.3574 262.335ZM35.0361 261.959V262.335C35.0361 262.485 35.0638 262.627 35.1191 262.76C35.1777 262.894 35.2656 263.003 35.3828 263.087C35.5 263.169 35.6465 263.209 35.8223 263.209C35.998 263.209 36.1429 263.169 36.2568 263.087C36.3708 263.003 36.4554 262.894 36.5107 262.76C36.5661 262.627 36.5938 262.485 36.5938 262.335V261.959C36.5938 261.806 36.5645 261.663 36.5059 261.53C36.4505 261.393 36.3643 261.284 36.2471 261.203C36.1331 261.118 35.9883 261.076 35.8125 261.076C35.64 261.076 35.4951 261.118 35.3779 261.203C35.264 261.284 35.1777 261.393 35.1191 261.53C35.0638 261.663 35.0361 261.806 35.0361 261.959ZM37.8193 266.339V265.958C37.8193 265.692 37.8779 265.447 37.9951 265.226C38.1123 265.005 38.2799 264.827 38.498 264.694C38.7161 264.56 38.9749 264.494 39.2744 264.494C39.5804 264.494 39.8408 264.56 40.0557 264.694C40.2738 264.827 40.4414 265.005 40.5586 265.226C40.6758 265.447 40.7344 265.692 40.7344 265.958V266.339C40.7344 266.606 40.6758 266.85 40.5586 267.072C40.4447 267.293 40.2786 267.471 40.0605 267.604C39.8457 267.737 39.5869 267.804 39.2842 267.804C38.9814 267.804 38.721 267.737 38.5029 267.604C38.2848 267.471 38.1156 267.293 37.9951 267.072C37.8779 266.85 37.8193 266.606 37.8193 266.339ZM38.498 265.958V266.339C38.498 266.489 38.5257 266.632 38.5811 266.769C38.6396 266.903 38.7275 267.012 38.8447 267.096C38.9619 267.178 39.1084 267.218 39.2842 267.218C39.46 267.218 39.6048 267.178 39.7188 267.096C39.8359 267.012 39.9222 266.903 39.9775 266.769C40.0329 266.636 40.0605 266.492 40.0605 266.339V265.958C40.0605 265.806 40.0312 265.662 39.9727 265.529C39.9173 265.395 39.8311 265.288 39.7139 265.207C39.5999 265.122 39.4535 265.08 39.2744 265.08C39.1019 265.08 38.957 265.122 38.8398 265.207C38.7259 265.288 38.6396 265.395 38.5811 265.529C38.5257 265.662 38.498 265.806 38.498 265.958ZM39.499 261.603L36.0273 267.16L35.5195 266.837L38.9912 261.281L39.499 261.603ZM21.11 275.412V276.162H29.92V275.412H21.11ZM21.83 272.942V273.692H29.23V272.942H21.83ZM25.09 271.312V280.502H25.87V271.312H25.09ZM24.89 275.792C24.03 277.212 22.37 278.642 20.83 279.312C21.01 279.472 21.25 279.762 21.38 279.952C22.93 279.162 24.59 277.662 25.54 276.072L24.89 275.792ZM26.07 275.792L25.45 276.062C26.41 277.642 28.07 279.172 29.61 279.952C29.74 279.752 29.98 279.462 30.16 279.312C28.62 278.642 26.94 277.202 26.07 275.792ZM33.65 272.342V273.012H39.78V272.342H33.65ZM33.32 274.132V274.802H40.05V274.132H33.32ZM35.33 278.362V278.942H38.09V278.362H35.33ZM35.09 271.312V274.682H35.8V271.312H35.09ZM37.57 271.312V274.682H38.3V271.312H37.57ZM35.07 276.862V279.542H35.57V276.862H35.07ZM37.82 276.862V279.402H38.31V276.862H37.82ZM39.02 275.652V279.692C39.02 279.812 38.98 279.852 38.85 279.862C38.71 279.862 38.24 279.862 37.73 279.842C37.81 280.042 37.9 280.302 37.93 280.482C38.64 280.482 39.11 280.482 39.38 280.382C39.66 280.272 39.73 280.072 39.73 279.692V275.652H39.02ZM33.73 275.652V280.502H34.41V276.322H39.32V275.652H33.73ZM31.35 271.952C31.97 272.242 32.71 272.722 33.07 273.082L33.53 272.482C33.16 272.132 32.41 271.682 31.8 271.412L31.35 271.952ZM30.86 274.722C31.51 274.972 32.3 275.392 32.69 275.722L33.11 275.082C32.7 274.762 31.9 274.372 31.27 274.162L30.86 274.722ZM31.13 279.912L31.8 280.372C32.31 279.442 32.9 278.202 33.35 277.142L32.76 276.692C32.27 277.832 31.6 279.142 31.13 279.912ZM36.32 274.582V276.132H36.38V278.742H36.97V276.132H37.03V274.582H36.32Z" fill="#242424"/>
<path d="M58.2559 248H58.7423V252.864H58.2559V248Z" fill="#D1D1D1"/>
<path d="M53.2119 264.308V265.05H50.8291V264.308H53.2119ZM58.4805 265.778C58.4805 266.211 58.3796 266.579 58.1777 266.881C57.9792 267.181 57.709 267.409 57.3672 267.565C57.0286 267.721 56.6462 267.799 56.2197 267.799C55.7933 267.799 55.4092 267.721 55.0674 267.565C54.7256 267.409 54.4554 267.181 54.2568 266.881C54.0583 266.579 53.959 266.211 53.959 265.778C53.959 265.495 54.0127 265.236 54.1201 265.001C54.2308 264.764 54.3854 264.557 54.584 264.381C54.7858 264.206 55.0234 264.07 55.2969 263.976C55.5736 263.878 55.8779 263.83 56.21 263.83C56.6462 263.83 57.0352 263.914 57.377 264.083C57.7188 264.25 57.9873 264.479 58.1826 264.772C58.3812 265.065 58.4805 265.4 58.4805 265.778ZM57.5723 265.758C57.5723 265.495 57.5153 265.262 57.4014 265.06C57.2874 264.855 57.1279 264.695 56.9229 264.582C56.7178 264.468 56.4801 264.411 56.21 264.411C55.9333 264.411 55.694 264.468 55.4922 264.582C55.2936 264.695 55.139 264.855 55.0283 265.06C54.9176 265.262 54.8623 265.495 54.8623 265.758C54.8623 266.032 54.916 266.266 55.0234 266.461C55.1341 266.653 55.2904 266.802 55.4922 266.906C55.6973 267.007 55.9398 267.057 56.2197 267.057C56.4997 267.057 56.7406 267.007 56.9424 266.906C57.1442 266.802 57.2988 266.653 57.4062 266.461C57.5169 266.266 57.5723 266.032 57.5723 265.758ZM58.3145 262.443C58.3145 262.788 58.2233 263.099 58.041 263.375C57.8587 263.652 57.6097 263.87 57.2939 264.03C56.9782 264.189 56.6201 264.269 56.2197 264.269C55.8128 264.269 55.4499 264.189 55.1309 264.03C54.8151 263.87 54.5677 263.652 54.3887 263.375C54.2096 263.099 54.1201 262.788 54.1201 262.443C54.1201 262.029 54.2096 261.678 54.3887 261.388C54.571 261.098 54.82 260.877 55.1357 260.724C55.4515 260.571 55.8112 260.495 56.2148 260.495C56.6217 260.495 56.9831 260.571 57.2988 260.724C57.6146 260.877 57.862 261.098 58.041 261.388C58.2233 261.678 58.3145 262.029 58.3145 262.443ZM57.4111 262.458C57.4111 262.22 57.3607 262.01 57.2598 261.828C57.1589 261.645 57.0189 261.502 56.8398 261.398C56.6608 261.291 56.4525 261.237 56.2148 261.237C55.9772 261.237 55.7689 261.287 55.5898 261.388C55.4141 261.486 55.2757 261.626 55.1748 261.808C55.0771 261.99 55.0283 262.207 55.0283 262.458C55.0283 262.702 55.0771 262.915 55.1748 263.097C55.2757 263.279 55.4157 263.421 55.5947 263.522C55.7738 263.623 55.9821 263.673 56.2197 263.673C56.4574 263.673 56.6641 263.623 56.8398 263.522C57.0189 263.421 57.1589 263.279 57.2598 263.097C57.3607 262.915 57.4111 262.702 57.4111 262.458ZM59.5449 262.335V261.959C59.5449 261.689 59.6035 261.444 59.7207 261.222C59.8379 261.001 60.0055 260.823 60.2236 260.69C60.4417 260.556 60.7005 260.49 61 260.49C61.306 260.49 61.5664 260.556 61.7812 260.69C61.9993 260.823 62.167 261.001 62.2842 261.222C62.4014 261.444 62.46 261.689 62.46 261.959V262.335C62.46 262.599 62.4014 262.842 62.2842 263.063C62.1702 263.284 62.0042 263.462 61.7861 263.595C61.5713 263.729 61.3125 263.795 61.0098 263.795C60.707 263.795 60.445 263.729 60.2236 263.595C60.0055 263.462 59.8379 263.284 59.7207 263.063C59.6035 262.842 59.5449 262.599 59.5449 262.335ZM60.2236 261.959V262.335C60.2236 262.485 60.2513 262.627 60.3066 262.76C60.3652 262.894 60.4531 263.003 60.5703 263.087C60.6875 263.169 60.834 263.209 61.0098 263.209C61.1855 263.209 61.3304 263.169 61.4443 263.087C61.5583 263.003 61.6429 262.894 61.6982 262.76C61.7536 262.627 61.7812 262.485 61.7812 262.335V261.959C61.7812 261.806 61.752 261.663 61.6934 261.53C61.638 261.393 61.5518 261.284 61.4346 261.203C61.3206 261.118 61.1758 261.076 61 261.076C60.8275 261.076 60.6826 261.118 60.5654 261.203C60.4515 261.284 60.3652 261.393 60.3066 261.53C60.2513 261.663 60.2236 261.806 60.2236 261.959ZM63.0068 266.339V265.958C63.0068 265.692 63.0654 265.447 63.1826 265.226C63.2998 265.005 63.4674 264.827 63.6855 264.694C63.9036 264.56 64.1624 264.494 64.4619 264.494C64.7679 264.494 65.0283 264.56 65.2432 264.694C65.4613 264.827 65.6289 265.005 65.7461 265.226C65.8633 265.447 65.9219 265.692 65.9219 265.958V266.339C65.9219 266.606 65.8633 266.85 65.7461 267.072C65.6322 267.293 65.4661 267.471 65.248 267.604C65.0332 267.737 64.7744 267.804 64.4717 267.804C64.1689 267.804 63.9085 267.737 63.6904 267.604C63.4723 267.471 63.3031 267.293 63.1826 267.072C63.0654 266.85 63.0068 266.606 63.0068 266.339ZM63.6855 265.958V266.339C63.6855 266.489 63.7132 266.632 63.7686 266.769C63.8271 266.903 63.915 267.012 64.0322 267.096C64.1494 267.178 64.2959 267.218 64.4717 267.218C64.6475 267.218 64.7923 267.178 64.9062 267.096C65.0234 267.012 65.1097 266.903 65.165 266.769C65.2204 266.636 65.248 266.492 65.248 266.339V265.958C65.248 265.806 65.2188 265.662 65.1602 265.529C65.1048 265.395 65.0186 265.288 64.9014 265.207C64.7874 265.122 64.641 265.08 64.4619 265.08C64.2894 265.08 64.1445 265.122 64.0273 265.207C63.9134 265.288 63.8271 265.395 63.7686 265.529C63.7132 265.662 63.6855 265.806 63.6855 265.958ZM64.6865 261.603L61.2148 267.16L60.707 266.837L64.1787 261.281L64.6865 261.603ZM49.11 275.412V276.162H57.92V275.412H49.11ZM49.83 272.942V273.692H57.23V272.942H49.83ZM53.09 271.312V280.502H53.87V271.312H53.09ZM52.89 275.792C52.03 277.212 50.37 278.642 48.83 279.312C49.01 279.472 49.25 279.762 49.38 279.952C50.93 279.162 52.59 277.662 53.54 276.072L52.89 275.792ZM54.07 275.792L53.45 276.062C54.41 277.642 56.07 279.172 57.61 279.952C57.74 279.752 57.98 279.462 58.16 279.312C56.62 278.642 54.94 277.202 54.07 275.792ZM61.65 272.342V273.012H67.78V272.342H61.65ZM61.32 274.132V274.802H68.05V274.132H61.32ZM63.33 278.362V278.942H66.09V278.362H63.33ZM63.09 271.312V274.682H63.8V271.312H63.09ZM65.57 271.312V274.682H66.3V271.312H65.57ZM63.07 276.862V279.542H63.57V276.862H63.07ZM65.82 276.862V279.402H66.31V276.862H65.82ZM67.02 275.652V279.692C67.02 279.812 66.98 279.852 66.85 279.862C66.71 279.862 66.24 279.862 65.73 279.842C65.81 280.042 65.9 280.302 65.93 280.482C66.64 280.482 67.11 280.482 67.38 280.382C67.66 280.272 67.73 280.072 67.73 279.692V275.652H67.02ZM61.73 275.652V280.502H62.41V276.322H67.32V275.652H61.73ZM59.35 271.952C59.97 272.242 60.71 272.722 61.07 273.082L61.53 272.482C61.16 272.132 60.41 271.682 59.8 271.412L59.35 271.952ZM58.86 274.722C59.51 274.972 60.3 275.392 60.69 275.722L61.11 275.082C60.7 274.762 59.9 274.372 59.27 274.162L58.86 274.722ZM59.13 279.912L59.8 280.372C60.31 279.442 60.9 278.202 61.35 277.142L60.76 276.692C60.27 277.832 59.6 279.142 59.13 279.912ZM64.32 274.582V276.132H64.38V278.742H64.97V276.132H65.03V274.582H64.32Z" fill="#242424"/>
<path d="M86.2559 248H86.7423V252.864H86.2559V248Z" fill="#D1D1D1"/>
<path d="M81.2119 264.308V265.05H78.8291V264.308H81.2119ZM85.4648 260.583H85.543V261.349H85.4648C84.9863 261.349 84.5859 261.427 84.2637 261.583C83.9414 261.736 83.6859 261.943 83.4971 262.204C83.3083 262.461 83.1715 262.75 83.0869 263.073C83.0055 263.395 82.9648 263.722 82.9648 264.054V265.099C82.9648 265.415 83.0023 265.695 83.0771 265.939C83.152 266.18 83.2546 266.383 83.3848 266.549C83.515 266.715 83.6615 266.841 83.8242 266.925C83.9902 267.01 84.1628 267.052 84.3418 267.052C84.5501 267.052 84.7357 267.013 84.8984 266.935C85.0612 266.854 85.1979 266.741 85.3086 266.598C85.4225 266.452 85.5088 266.279 85.5674 266.081C85.626 265.882 85.6553 265.664 85.6553 265.426C85.6553 265.215 85.6292 265.011 85.5771 264.816C85.5251 264.617 85.4453 264.442 85.3379 264.289C85.2305 264.132 85.0954 264.01 84.9326 263.922C84.7731 263.831 84.5827 263.786 84.3613 263.786C84.1107 263.786 83.8763 263.847 83.6582 263.971C83.4434 264.092 83.266 264.251 83.126 264.45C82.9893 264.645 82.9111 264.858 82.8916 265.089L82.4131 265.084C82.4587 264.72 82.5433 264.409 82.667 264.152C82.7939 263.891 82.9502 263.68 83.1357 263.517C83.3245 263.351 83.5345 263.231 83.7656 263.156C84 263.078 84.2474 263.039 84.5078 263.039C84.8626 263.039 85.1686 263.105 85.4258 263.239C85.6829 263.372 85.8945 263.551 86.0605 263.776C86.2266 263.997 86.3486 264.248 86.4268 264.528C86.5081 264.805 86.5488 265.089 86.5488 265.382C86.5488 265.718 86.5016 266.032 86.4072 266.325C86.3128 266.618 86.1712 266.875 85.9824 267.096C85.7969 267.318 85.5674 267.49 85.2939 267.614C85.0205 267.737 84.7031 267.799 84.3418 267.799C83.9577 267.799 83.6224 267.721 83.3359 267.565C83.0495 267.405 82.8118 267.194 82.623 266.93C82.4342 266.667 82.2926 266.374 82.1982 266.051C82.1038 265.729 82.0566 265.402 82.0566 265.07V264.645C82.0566 264.144 82.1071 263.652 82.208 263.17C82.3089 262.689 82.4831 262.252 82.7305 261.862C82.9811 261.471 83.3278 261.16 83.7705 260.929C84.2132 260.698 84.778 260.583 85.4648 260.583ZM87.5449 262.335V261.959C87.5449 261.689 87.6035 261.444 87.7207 261.222C87.8379 261.001 88.0055 260.823 88.2236 260.69C88.4417 260.556 88.7005 260.49 89 260.49C89.306 260.49 89.5664 260.556 89.7812 260.69C89.9993 260.823 90.167 261.001 90.2842 261.222C90.4014 261.444 90.46 261.689 90.46 261.959V262.335C90.46 262.599 90.4014 262.842 90.2842 263.063C90.1702 263.284 90.0042 263.462 89.7861 263.595C89.5713 263.729 89.3125 263.795 89.0098 263.795C88.707 263.795 88.445 263.729 88.2236 263.595C88.0055 263.462 87.8379 263.284 87.7207 263.063C87.6035 262.842 87.5449 262.599 87.5449 262.335ZM88.2236 261.959V262.335C88.2236 262.485 88.2513 262.627 88.3066 262.76C88.3652 262.894 88.4531 263.003 88.5703 263.087C88.6875 263.169 88.834 263.209 89.0098 263.209C89.1855 263.209 89.3304 263.169 89.4443 263.087C89.5583 263.003 89.6429 262.894 89.6982 262.76C89.7536 262.627 89.7812 262.485 89.7812 262.335V261.959C89.7812 261.806 89.752 261.663 89.6934 261.53C89.638 261.393 89.5518 261.284 89.4346 261.203C89.3206 261.118 89.1758 261.076 89 261.076C88.8275 261.076 88.6826 261.118 88.5654 261.203C88.4515 261.284 88.3652 261.393 88.3066 261.53C88.2513 261.663 88.2236 261.806 88.2236 261.959ZM91.0068 266.339V265.958C91.0068 265.692 91.0654 265.447 91.1826 265.226C91.2998 265.005 91.4674 264.827 91.6855 264.694C91.9036 264.56 92.1624 264.494 92.4619 264.494C92.7679 264.494 93.0283 264.56 93.2432 264.694C93.4613 264.827 93.6289 265.005 93.7461 265.226C93.8633 265.447 93.9219 265.692 93.9219 265.958V266.339C93.9219 266.606 93.8633 266.85 93.7461 267.072C93.6322 267.293 93.4661 267.471 93.248 267.604C93.0332 267.737 92.7744 267.804 92.4717 267.804C92.1689 267.804 91.9085 267.737 91.6904 267.604C91.4723 267.471 91.3031 267.293 91.1826 267.072C91.0654 266.85 91.0068 266.606 91.0068 266.339ZM91.6855 265.958V266.339C91.6855 266.489 91.7132 266.632 91.7686 266.769C91.8271 266.903 91.915 267.012 92.0322 267.096C92.1494 267.178 92.2959 267.218 92.4717 267.218C92.6475 267.218 92.7923 267.178 92.9062 267.096C93.0234 267.012 93.1097 266.903 93.165 266.769C93.2204 266.636 93.248 266.492 93.248 266.339V265.958C93.248 265.806 93.2188 265.662 93.1602 265.529C93.1048 265.395 93.0186 265.288 92.9014 265.207C92.7874 265.122 92.641 265.08 92.4619 265.08C92.2894 265.08 92.1445 265.122 92.0273 265.207C91.9134 265.288 91.8271 265.395 91.7686 265.529C91.7132 265.662 91.6855 265.806 91.6855 265.958ZM92.6865 261.603L89.2148 267.16L88.707 266.837L92.1787 261.281L92.6865 261.603ZM77.11 275.412V276.162H85.92V275.412H77.11ZM77.83 272.942V273.692H85.23V272.942H77.83ZM81.09 271.312V280.502H81.87V271.312H81.09ZM80.89 275.792C80.03 277.212 78.37 278.642 76.83 279.312C77.01 279.472 77.25 279.762 77.38 279.952C78.93 279.162 80.59 277.662 81.54 276.072L80.89 275.792ZM82.07 275.792L81.45 276.062C82.41 277.642 84.07 279.172 85.61 279.952C85.74 279.752 85.98 279.462 86.16 279.312C84.62 278.642 82.94 277.202 82.07 275.792ZM89.65 272.342V273.012H95.78V272.342H89.65ZM89.32 274.132V274.802H96.05V274.132H89.32ZM91.33 278.362V278.942H94.09V278.362H91.33ZM91.09 271.312V274.682H91.8V271.312H91.09ZM93.57 271.312V274.682H94.3V271.312H93.57ZM91.07 276.862V279.542H91.57V276.862H91.07ZM93.82 276.862V279.402H94.31V276.862H93.82ZM95.02 275.652V279.692C95.02 279.812 94.98 279.852 94.85 279.862C94.71 279.862 94.24 279.862 93.73 279.842C93.81 280.042 93.9 280.302 93.93 280.482C94.64 280.482 95.11 280.482 95.38 280.382C95.66 280.272 95.73 280.072 95.73 279.692V275.652H95.02ZM89.73 275.652V280.502H90.41V276.322H95.32V275.652H89.73ZM87.35 271.952C87.97 272.242 88.71 272.722 89.07 273.082L89.53 272.482C89.16 272.132 88.41 271.682 87.8 271.412L87.35 271.952ZM86.86 274.722C87.51 274.972 88.3 275.392 88.69 275.722L89.11 275.082C88.7 274.762 87.9 274.372 87.27 274.162L86.86 274.722ZM87.13 279.912L87.8 280.372C88.31 279.442 88.9 278.202 89.35 277.142L88.76 276.692C88.27 277.832 87.6 279.142 87.13 279.912ZM92.32 274.582V276.132H92.38V278.742H92.97V276.132H93.03V274.582H92.32Z" fill="#242424"/>
<path d="M114.256 248H114.742V252.864H114.256V248Z" fill="#D1D1D1"/>
<path d="M109.212 264.308V265.05H106.829V264.308H109.212ZM114.803 265.309V266.051H109.666V265.519L112.85 260.592H113.587L112.796 262.018L110.691 265.309H114.803ZM113.812 260.592V267.702H112.908V260.592H113.812ZM115.545 262.335V261.959C115.545 261.689 115.604 261.444 115.721 261.222C115.838 261.001 116.006 260.823 116.224 260.69C116.442 260.556 116.701 260.49 117 260.49C117.306 260.49 117.566 260.556 117.781 260.69C117.999 260.823 118.167 261.001 118.284 261.222C118.401 261.444 118.46 261.689 118.46 261.959V262.335C118.46 262.599 118.401 262.842 118.284 263.063C118.17 263.284 118.004 263.462 117.786 263.595C117.571 263.729 117.312 263.795 117.01 263.795C116.707 263.795 116.445 263.729 116.224 263.595C116.006 263.462 115.838 263.284 115.721 263.063C115.604 262.842 115.545 262.599 115.545 262.335ZM116.224 261.959V262.335C116.224 262.485 116.251 262.627 116.307 262.76C116.365 262.894 116.453 263.003 116.57 263.087C116.688 263.169 116.834 263.209 117.01 263.209C117.186 263.209 117.33 263.169 117.444 263.087C117.558 263.003 117.643 262.894 117.698 262.76C117.754 262.627 117.781 262.485 117.781 262.335V261.959C117.781 261.806 117.752 261.663 117.693 261.53C117.638 261.393 117.552 261.284 117.435 261.203C117.321 261.118 117.176 261.076 117 261.076C116.827 261.076 116.683 261.118 116.565 261.203C116.451 261.284 116.365 261.393 116.307 261.53C116.251 261.663 116.224 261.806 116.224 261.959ZM119.007 266.339V265.958C119.007 265.692 119.065 265.447 119.183 265.226C119.3 265.005 119.467 264.827 119.686 264.694C119.904 264.56 120.162 264.494 120.462 264.494C120.768 264.494 121.028 264.56 121.243 264.694C121.461 264.827 121.629 265.005 121.746 265.226C121.863 265.447 121.922 265.692 121.922 265.958V266.339C121.922 266.606 121.863 266.85 121.746 267.072C121.632 267.293 121.466 267.471 121.248 267.604C121.033 267.737 120.774 267.804 120.472 267.804C120.169 267.804 119.909 267.737 119.69 267.604C119.472 267.471 119.303 267.293 119.183 267.072C119.065 266.85 119.007 266.606 119.007 266.339ZM119.686 265.958V266.339C119.686 266.489 119.713 266.632 119.769 266.769C119.827 266.903 119.915 267.012 120.032 267.096C120.149 267.178 120.296 267.218 120.472 267.218C120.647 267.218 120.792 267.178 120.906 267.096C121.023 267.012 121.11 266.903 121.165 266.769C121.22 266.636 121.248 266.492 121.248 266.339V265.958C121.248 265.806 121.219 265.662 121.16 265.529C121.105 265.395 121.019 265.288 120.901 265.207C120.787 265.122 120.641 265.08 120.462 265.08C120.289 265.08 120.145 265.122 120.027 265.207C119.913 265.288 119.827 265.395 119.769 265.529C119.713 265.662 119.686 265.806 119.686 265.958ZM120.687 261.603L117.215 267.16L116.707 266.837L120.179 261.281L120.687 261.603ZM105.11 275.412V276.162H113.92V275.412H105.11ZM105.83 272.942V273.692H113.23V272.942H105.83ZM109.09 271.312V280.502H109.87V271.312H109.09ZM108.89 275.792C108.03 277.212 106.37 278.642 104.83 279.312C105.01 279.472 105.25 279.762 105.38 279.952C106.93 279.162 108.59 277.662 109.54 276.072L108.89 275.792ZM110.07 275.792L109.45 276.062C110.41 277.642 112.07 279.172 113.61 279.952C113.74 279.752 113.98 279.462 114.16 279.312C112.62 278.642 110.94 277.202 110.07 275.792ZM117.65 272.342V273.012H123.78V272.342H117.65ZM117.32 274.132V274.802H124.05V274.132H117.32ZM119.33 278.362V278.942H122.09V278.362H119.33ZM119.09 271.312V274.682H119.8V271.312H119.09ZM121.57 271.312V274.682H122.3V271.312H121.57ZM119.07 276.862V279.542H119.57V276.862H119.07ZM121.82 276.862V279.402H122.31V276.862H121.82ZM123.02 275.652V279.692C123.02 279.812 122.98 279.852 122.85 279.862C122.71 279.862 122.24 279.862 121.73 279.842C121.81 280.042 121.9 280.302 121.93 280.482C122.64 280.482 123.11 280.482 123.38 280.382C123.66 280.272 123.73 280.072 123.73 279.692V275.652H123.02ZM117.73 275.652V280.502H118.41V276.322H123.32V275.652H117.73ZM115.35 271.952C115.97 272.242 116.71 272.722 117.07 273.082L117.53 272.482C117.16 272.132 116.41 271.682 115.8 271.412L115.35 271.952ZM114.86 274.722C115.51 274.972 116.3 275.392 116.69 275.722L117.11 275.082C116.7 274.762 115.9 274.372 115.27 274.162L114.86 274.722ZM115.13 279.912L115.8 280.372C116.31 279.442 116.9 278.202 117.35 277.142L116.76 276.692C116.27 277.832 115.6 279.142 115.13 279.912ZM120.32 274.582V276.132H120.38V278.742H120.97V276.132H121.03V274.582H120.32Z" fill="#242424"/>
<path d="M142.256 248H142.742V252.864H142.256V248Z" fill="#D1D1D1"/>
<path d="M137.212 264.308V265.05H134.829V264.308H137.212ZM142.656 266.959V267.702H138.003V267.052L140.332 264.459C140.618 264.14 140.84 263.87 140.996 263.649C141.156 263.424 141.266 263.224 141.328 263.048C141.393 262.869 141.426 262.687 141.426 262.501C141.426 262.267 141.377 262.056 141.279 261.867C141.185 261.675 141.045 261.522 140.859 261.408C140.674 261.294 140.449 261.237 140.186 261.237C139.87 261.237 139.606 261.299 139.395 261.422C139.186 261.543 139.03 261.712 138.926 261.93C138.822 262.148 138.77 262.399 138.77 262.682H137.866C137.866 262.282 137.954 261.916 138.13 261.583C138.306 261.251 138.566 260.988 138.911 260.792C139.256 260.594 139.681 260.495 140.186 260.495C140.635 260.495 141.019 260.574 141.338 260.734C141.657 260.89 141.901 261.111 142.07 261.398C142.243 261.681 142.329 262.013 142.329 262.394C142.329 262.602 142.293 262.814 142.222 263.029C142.153 263.24 142.057 263.452 141.934 263.664C141.813 263.875 141.672 264.083 141.509 264.289C141.349 264.494 141.178 264.695 140.996 264.894L139.092 266.959H142.656ZM143.545 262.335V261.959C143.545 261.689 143.604 261.444 143.721 261.222C143.838 261.001 144.006 260.823 144.224 260.69C144.442 260.556 144.701 260.49 145 260.49C145.306 260.49 145.566 260.556 145.781 260.69C145.999 260.823 146.167 261.001 146.284 261.222C146.401 261.444 146.46 261.689 146.46 261.959V262.335C146.46 262.599 146.401 262.842 146.284 263.063C146.17 263.284 146.004 263.462 145.786 263.595C145.571 263.729 145.312 263.795 145.01 263.795C144.707 263.795 144.445 263.729 144.224 263.595C144.006 263.462 143.838 263.284 143.721 263.063C143.604 262.842 143.545 262.599 143.545 262.335ZM144.224 261.959V262.335C144.224 262.485 144.251 262.627 144.307 262.76C144.365 262.894 144.453 263.003 144.57 263.087C144.688 263.169 144.834 263.209 145.01 263.209C145.186 263.209 145.33 263.169 145.444 263.087C145.558 263.003 145.643 262.894 145.698 262.76C145.754 262.627 145.781 262.485 145.781 262.335V261.959C145.781 261.806 145.752 261.663 145.693 261.53C145.638 261.393 145.552 261.284 145.435 261.203C145.321 261.118 145.176 261.076 145 261.076C144.827 261.076 144.683 261.118 144.565 261.203C144.451 261.284 144.365 261.393 144.307 261.53C144.251 261.663 144.224 261.806 144.224 261.959ZM147.007 266.339V265.958C147.007 265.692 147.065 265.447 147.183 265.226C147.3 265.005 147.467 264.827 147.686 264.694C147.904 264.56 148.162 264.494 148.462 264.494C148.768 264.494 149.028 264.56 149.243 264.694C149.461 264.827 149.629 265.005 149.746 265.226C149.863 265.447 149.922 265.692 149.922 265.958V266.339C149.922 266.606 149.863 266.85 149.746 267.072C149.632 267.293 149.466 267.471 149.248 267.604C149.033 267.737 148.774 267.804 148.472 267.804C148.169 267.804 147.909 267.737 147.69 267.604C147.472 267.471 147.303 267.293 147.183 267.072C147.065 266.85 147.007 266.606 147.007 266.339ZM147.686 265.958V266.339C147.686 266.489 147.713 266.632 147.769 266.769C147.827 266.903 147.915 267.012 148.032 267.096C148.149 267.178 148.296 267.218 148.472 267.218C148.647 267.218 148.792 267.178 148.906 267.096C149.023 267.012 149.11 266.903 149.165 266.769C149.22 266.636 149.248 266.492 149.248 266.339V265.958C149.248 265.806 149.219 265.662 149.16 265.529C149.105 265.395 149.019 265.288 148.901 265.207C148.787 265.122 148.641 265.08 148.462 265.08C148.289 265.08 148.145 265.122 148.027 265.207C147.913 265.288 147.827 265.395 147.769 265.529C147.713 265.662 147.686 265.806 147.686 265.958ZM148.687 261.603L145.215 267.16L144.707 266.837L148.179 261.281L148.687 261.603ZM133.11 275.412V276.162H141.92V275.412H133.11ZM133.83 272.942V273.692H141.23V272.942H133.83ZM137.09 271.312V280.502H137.87V271.312H137.09ZM136.89 275.792C136.03 277.212 134.37 278.642 132.83 279.312C133.01 279.472 133.25 279.762 133.38 279.952C134.93 279.162 136.59 277.662 137.54 276.072L136.89 275.792ZM138.07 275.792L137.45 276.062C138.41 277.642 140.07 279.172 141.61 279.952C141.74 279.752 141.98 279.462 142.16 279.312C140.62 278.642 138.94 277.202 138.07 275.792ZM145.65 272.342V273.012H151.78V272.342H145.65ZM145.32 274.132V274.802H152.05V274.132H145.32ZM147.33 278.362V278.942H150.09V278.362H147.33ZM147.09 271.312V274.682H147.8V271.312H147.09ZM149.57 271.312V274.682H150.3V271.312H149.57ZM147.07 276.862V279.542H147.57V276.862H147.07ZM149.82 276.862V279.402H150.31V276.862H149.82ZM151.02 275.652V279.692C151.02 279.812 150.98 279.852 150.85 279.862C150.71 279.862 150.24 279.862 149.73 279.842C149.81 280.042 149.9 280.302 149.93 280.482C150.64 280.482 151.11 280.482 151.38 280.382C151.66 280.272 151.73 280.072 151.73 279.692V275.652H151.02ZM145.73 275.652V280.502H146.41V276.322H151.32V275.652H145.73ZM143.35 271.952C143.97 272.242 144.71 272.722 145.07 273.082L145.53 272.482C145.16 272.132 144.41 271.682 143.8 271.412L143.35 271.952ZM142.86 274.722C143.51 274.972 144.3 275.392 144.69 275.722L145.11 275.082C144.7 274.762 143.9 274.372 143.27 274.162L142.86 274.722ZM143.13 279.912L143.8 280.372C144.31 279.442 144.9 278.202 145.35 277.142L144.76 276.692C144.27 277.832 143.6 279.142 143.13 279.912ZM148.32 274.582V276.132H148.38V278.742H148.97V276.132H149.03V274.582H148.32Z" fill="#242424"/>
<path d="M170.256 248H170.742V252.864H170.256V248Z" fill="#D1D1D1"/>
<path d="M169.079 263.581V264.665C169.079 265.247 169.027 265.739 168.923 266.139C168.819 266.54 168.669 266.862 168.474 267.106C168.278 267.35 168.042 267.528 167.766 267.638C167.492 267.746 167.183 267.799 166.838 267.799C166.564 267.799 166.312 267.765 166.081 267.697C165.85 267.628 165.642 267.519 165.456 267.37C165.274 267.217 165.118 267.018 164.987 266.774C164.857 266.53 164.758 266.234 164.689 265.885C164.621 265.537 164.587 265.13 164.587 264.665V263.581C164.587 262.998 164.639 262.51 164.743 262.116C164.851 261.722 165.002 261.406 165.197 261.168C165.393 260.928 165.627 260.755 165.9 260.651C166.177 260.547 166.486 260.495 166.828 260.495C167.105 260.495 167.359 260.529 167.59 260.597C167.824 260.662 168.033 260.768 168.215 260.915C168.397 261.058 168.552 261.25 168.679 261.491C168.809 261.728 168.908 262.02 168.977 262.365C169.045 262.71 169.079 263.115 169.079 263.581ZM168.171 264.811V263.429C168.171 263.11 168.151 262.83 168.112 262.589C168.076 262.345 168.023 262.137 167.951 261.964C167.88 261.792 167.788 261.652 167.678 261.544C167.57 261.437 167.445 261.359 167.302 261.31C167.162 261.258 167.004 261.232 166.828 261.232C166.613 261.232 166.423 261.273 166.257 261.354C166.091 261.432 165.951 261.557 165.837 261.73C165.726 261.903 165.642 262.129 165.583 262.409C165.524 262.689 165.495 263.029 165.495 263.429V264.811C165.495 265.13 165.513 265.412 165.549 265.656C165.588 265.9 165.645 266.111 165.72 266.291C165.795 266.466 165.886 266.611 165.993 266.725C166.101 266.839 166.224 266.924 166.364 266.979C166.507 267.031 166.665 267.057 166.838 267.057C167.059 267.057 167.253 267.015 167.419 266.93C167.585 266.846 167.723 266.714 167.834 266.535C167.948 266.352 168.033 266.12 168.088 265.836C168.143 265.55 168.171 265.208 168.171 264.811ZM170.163 262.335V261.959C170.163 261.689 170.222 261.444 170.339 261.222C170.456 261.001 170.624 260.823 170.842 260.69C171.06 260.556 171.319 260.49 171.618 260.49C171.924 260.49 172.185 260.556 172.399 260.69C172.618 260.823 172.785 261.001 172.902 261.222C173.02 261.444 173.078 261.689 173.078 261.959V262.335C173.078 262.599 173.02 262.842 172.902 263.063C172.788 263.284 172.622 263.462 172.404 263.595C172.189 263.729 171.931 263.795 171.628 263.795C171.325 263.795 171.063 263.729 170.842 263.595C170.624 263.462 170.456 263.284 170.339 263.063C170.222 262.842 170.163 262.599 170.163 262.335ZM170.842 261.959V262.335C170.842 262.485 170.869 262.627 170.925 262.76C170.983 262.894 171.071 263.003 171.188 263.087C171.306 263.169 171.452 263.209 171.628 263.209C171.804 263.209 171.949 263.169 172.062 263.087C172.176 263.003 172.261 262.894 172.316 262.76C172.372 262.627 172.399 262.485 172.399 262.335V261.959C172.399 261.806 172.37 261.663 172.312 261.53C172.256 261.393 172.17 261.284 172.053 261.203C171.939 261.118 171.794 261.076 171.618 261.076C171.446 261.076 171.301 261.118 171.184 261.203C171.07 261.284 170.983 261.393 170.925 261.53C170.869 261.663 170.842 261.806 170.842 261.959ZM173.625 266.339V265.958C173.625 265.692 173.684 265.447 173.801 265.226C173.918 265.005 174.086 264.827 174.304 264.694C174.522 264.56 174.781 264.494 175.08 264.494C175.386 264.494 175.646 264.56 175.861 264.694C176.079 264.827 176.247 265.005 176.364 265.226C176.481 265.447 176.54 265.692 176.54 265.958V266.339C176.54 266.606 176.481 266.85 176.364 267.072C176.25 267.293 176.084 267.471 175.866 267.604C175.651 267.737 175.393 267.804 175.09 267.804C174.787 267.804 174.527 267.737 174.309 267.604C174.09 267.471 173.921 267.293 173.801 267.072C173.684 266.85 173.625 266.606 173.625 266.339ZM174.304 265.958V266.339C174.304 266.489 174.331 266.632 174.387 266.769C174.445 266.903 174.533 267.012 174.65 267.096C174.768 267.178 174.914 267.218 175.09 267.218C175.266 267.218 175.41 267.178 175.524 267.096C175.642 267.012 175.728 266.903 175.783 266.769C175.839 266.636 175.866 266.492 175.866 266.339V265.958C175.866 265.806 175.837 265.662 175.778 265.529C175.723 265.395 175.637 265.288 175.52 265.207C175.406 265.122 175.259 265.08 175.08 265.08C174.908 265.08 174.763 265.122 174.646 265.207C174.532 265.288 174.445 265.395 174.387 265.529C174.331 265.662 174.304 265.806 174.304 265.958ZM175.305 261.603L171.833 267.16L171.325 266.837L174.797 261.281L175.305 261.603ZM161.11 275.412V276.162H169.92V275.412H161.11ZM161.83 272.942V273.692H169.23V272.942H161.83ZM165.09 271.312V280.502H165.87V271.312H165.09ZM164.89 275.792C164.03 277.212 162.37 278.642 160.83 279.312C161.01 279.472 161.25 279.762 161.38 279.952C162.93 279.162 164.59 277.662 165.54 276.072L164.89 275.792ZM166.07 275.792L165.45 276.062C166.41 277.642 168.07 279.172 169.61 279.952C169.74 279.752 169.98 279.462 170.16 279.312C168.62 278.642 166.94 277.202 166.07 275.792ZM173.65 272.342V273.012H179.78V272.342H173.65ZM173.32 274.132V274.802H180.05V274.132H173.32ZM175.33 278.362V278.942H178.09V278.362H175.33ZM175.09 271.312V274.682H175.8V271.312H175.09ZM177.57 271.312V274.682H178.3V271.312H177.57ZM175.07 276.862V279.542H175.57V276.862H175.07ZM177.82 276.862V279.402H178.31V276.862H177.82ZM179.02 275.652V279.692C179.02 279.812 178.98 279.852 178.85 279.862C178.71 279.862 178.24 279.862 177.73 279.842C177.81 280.042 177.9 280.302 177.93 280.482C178.64 280.482 179.11 280.482 179.38 280.382C179.66 280.272 179.73 280.072 179.73 279.692V275.652H179.02ZM173.73 275.652V280.502H174.41V276.322H179.32V275.652H173.73ZM171.35 271.952C171.97 272.242 172.71 272.722 173.07 273.082L173.53 272.482C173.16 272.132 172.41 271.682 171.8 271.412L171.35 271.952ZM170.86 274.722C171.51 274.972 172.3 275.392 172.69 275.722L173.11 275.082C172.7 274.762 171.9 274.372 171.27 274.162L170.86 274.722ZM171.13 279.912L171.8 280.372C172.31 279.442 172.9 278.202 173.35 277.142L172.76 276.692C172.27 277.832 171.6 279.142 171.13 279.912ZM176.32 274.582V276.132H176.38V278.742H176.97V276.132H177.03V274.582H176.32Z" fill="#242424"/>
<path d="M198.256 248H198.742V252.864H198.256V248Z" fill="#D1D1D1"/>
<path d="M197.274 266.959V267.702H192.621V267.052L194.95 264.459C195.237 264.14 195.458 263.87 195.614 263.649C195.774 263.424 195.884 263.224 195.946 263.048C196.011 262.869 196.044 262.687 196.044 262.501C196.044 262.267 195.995 262.056 195.897 261.867C195.803 261.675 195.663 261.522 195.478 261.408C195.292 261.294 195.067 261.237 194.804 261.237C194.488 261.237 194.224 261.299 194.013 261.422C193.804 261.543 193.648 261.712 193.544 261.93C193.44 262.148 193.388 262.399 193.388 262.682H192.484C192.484 262.282 192.572 261.916 192.748 261.583C192.924 261.251 193.184 260.988 193.529 260.792C193.874 260.594 194.299 260.495 194.804 260.495C195.253 260.495 195.637 260.574 195.956 260.734C196.275 260.89 196.519 261.111 196.688 261.398C196.861 261.681 196.947 262.013 196.947 262.394C196.947 262.602 196.911 262.814 196.84 263.029C196.771 263.24 196.675 263.452 196.552 263.664C196.431 263.875 196.29 264.083 196.127 264.289C195.967 264.494 195.797 264.695 195.614 264.894L193.71 266.959H197.274ZM198.163 262.335V261.959C198.163 261.689 198.222 261.444 198.339 261.222C198.456 261.001 198.624 260.823 198.842 260.69C199.06 260.556 199.319 260.49 199.618 260.49C199.924 260.49 200.185 260.556 200.399 260.69C200.618 260.823 200.785 261.001 200.902 261.222C201.02 261.444 201.078 261.689 201.078 261.959V262.335C201.078 262.599 201.02 262.842 200.902 263.063C200.788 263.284 200.622 263.462 200.404 263.595C200.189 263.729 199.931 263.795 199.628 263.795C199.325 263.795 199.063 263.729 198.842 263.595C198.624 263.462 198.456 263.284 198.339 263.063C198.222 262.842 198.163 262.599 198.163 262.335ZM198.842 261.959V262.335C198.842 262.485 198.869 262.627 198.925 262.76C198.983 262.894 199.071 263.003 199.188 263.087C199.306 263.169 199.452 263.209 199.628 263.209C199.804 263.209 199.949 263.169 200.062 263.087C200.176 263.003 200.261 262.894 200.316 262.76C200.372 262.627 200.399 262.485 200.399 262.335V261.959C200.399 261.806 200.37 261.663 200.312 261.53C200.256 261.393 200.17 261.284 200.053 261.203C199.939 261.118 199.794 261.076 199.618 261.076C199.446 261.076 199.301 261.118 199.184 261.203C199.07 261.284 198.983 261.393 198.925 261.53C198.869 261.663 198.842 261.806 198.842 261.959ZM201.625 266.339V265.958C201.625 265.692 201.684 265.447 201.801 265.226C201.918 265.005 202.086 264.827 202.304 264.694C202.522 264.56 202.781 264.494 203.08 264.494C203.386 264.494 203.646 264.56 203.861 264.694C204.079 264.827 204.247 265.005 204.364 265.226C204.481 265.447 204.54 265.692 204.54 265.958V266.339C204.54 266.606 204.481 266.85 204.364 267.072C204.25 267.293 204.084 267.471 203.866 267.604C203.651 267.737 203.393 267.804 203.09 267.804C202.787 267.804 202.527 267.737 202.309 267.604C202.09 267.471 201.921 267.293 201.801 267.072C201.684 266.85 201.625 266.606 201.625 266.339ZM202.304 265.958V266.339C202.304 266.489 202.331 266.632 202.387 266.769C202.445 266.903 202.533 267.012 202.65 267.096C202.768 267.178 202.914 267.218 203.09 267.218C203.266 267.218 203.41 267.178 203.524 267.096C203.642 267.012 203.728 266.903 203.783 266.769C203.839 266.636 203.866 266.492 203.866 266.339V265.958C203.866 265.806 203.837 265.662 203.778 265.529C203.723 265.395 203.637 265.288 203.52 265.207C203.406 265.122 203.259 265.08 203.08 265.08C202.908 265.08 202.763 265.122 202.646 265.207C202.532 265.288 202.445 265.395 202.387 265.529C202.331 265.662 202.304 265.806 202.304 265.958ZM203.305 261.603L199.833 267.16L199.325 266.837L202.797 261.281L203.305 261.603ZM192.14 272.882C192.78 273.622 193.43 274.652 193.69 275.342L194.41 274.952C194.12 274.272 193.48 273.282 192.81 272.552L192.14 272.882ZM188.85 278.642L189.12 279.422C190.23 278.942 191.75 278.272 193.14 277.632L192.97 276.902C191.47 277.562 189.87 278.242 188.85 278.642ZM194.85 277.322C195.81 278.302 197.01 279.652 197.57 280.482L198.21 279.892C197.62 279.072 196.38 277.772 195.43 276.832L194.85 277.322ZM196.24 271.822C195.79 276.172 194.73 278.622 191.27 279.882C191.46 280.042 191.76 280.372 191.87 280.532C195.37 279.072 196.54 276.522 197.05 271.902L196.24 271.822ZM190.07 271.852L190.24 278.462L191.01 278.432L190.84 271.822L190.07 271.852ZM203.2 274.542V275.292H207.31V274.542H203.2ZM199.01 279.282V280.032H207.99V279.282H199.01ZM202.77 271.452V279.682H203.56V271.452H202.77Z" fill="#242424"/>
<path d="M226.256 248H226.742V252.864H226.256V248Z" fill="#D1D1D1"/>
<path d="M225.421 265.309V266.051H220.284V265.519L223.468 260.592H224.205L223.414 262.018L221.31 265.309H225.421ZM224.43 260.592V267.702H223.526V260.592H224.43ZM226.163 262.335V261.959C226.163 261.689 226.222 261.444 226.339 261.222C226.456 261.001 226.624 260.823 226.842 260.69C227.06 260.556 227.319 260.49 227.618 260.49C227.924 260.49 228.185 260.556 228.399 260.69C228.618 260.823 228.785 261.001 228.902 261.222C229.02 261.444 229.078 261.689 229.078 261.959V262.335C229.078 262.599 229.02 262.842 228.902 263.063C228.788 263.284 228.622 263.462 228.404 263.595C228.189 263.729 227.931 263.795 227.628 263.795C227.325 263.795 227.063 263.729 226.842 263.595C226.624 263.462 226.456 263.284 226.339 263.063C226.222 262.842 226.163 262.599 226.163 262.335ZM226.842 261.959V262.335C226.842 262.485 226.869 262.627 226.925 262.76C226.983 262.894 227.071 263.003 227.188 263.087C227.306 263.169 227.452 263.209 227.628 263.209C227.804 263.209 227.949 263.169 228.062 263.087C228.176 263.003 228.261 262.894 228.316 262.76C228.372 262.627 228.399 262.485 228.399 262.335V261.959C228.399 261.806 228.37 261.663 228.312 261.53C228.256 261.393 228.17 261.284 228.053 261.203C227.939 261.118 227.794 261.076 227.618 261.076C227.446 261.076 227.301 261.118 227.184 261.203C227.07 261.284 226.983 261.393 226.925 261.53C226.869 261.663 226.842 261.806 226.842 261.959ZM229.625 266.339V265.958C229.625 265.692 229.684 265.447 229.801 265.226C229.918 265.005 230.086 264.827 230.304 264.694C230.522 264.56 230.781 264.494 231.08 264.494C231.386 264.494 231.646 264.56 231.861 264.694C232.079 264.827 232.247 265.005 232.364 265.226C232.481 265.447 232.54 265.692 232.54 265.958V266.339C232.54 266.606 232.481 266.85 232.364 267.072C232.25 267.293 232.084 267.471 231.866 267.604C231.651 267.737 231.393 267.804 231.09 267.804C230.787 267.804 230.527 267.737 230.309 267.604C230.09 267.471 229.921 267.293 229.801 267.072C229.684 266.85 229.625 266.606 229.625 266.339ZM230.304 265.958V266.339C230.304 266.489 230.331 266.632 230.387 266.769C230.445 266.903 230.533 267.012 230.65 267.096C230.768 267.178 230.914 267.218 231.09 267.218C231.266 267.218 231.41 267.178 231.524 267.096C231.642 267.012 231.728 266.903 231.783 266.769C231.839 266.636 231.866 266.492 231.866 266.339V265.958C231.866 265.806 231.837 265.662 231.778 265.529C231.723 265.395 231.637 265.288 231.52 265.207C231.406 265.122 231.259 265.08 231.08 265.08C230.908 265.08 230.763 265.122 230.646 265.207C230.532 265.288 230.445 265.395 230.387 265.529C230.331 265.662 230.304 265.806 230.304 265.958ZM231.305 261.603L227.833 267.16L227.325 266.837L230.797 261.281L231.305 261.603ZM220.14 272.882C220.78 273.622 221.43 274.652 221.69 275.342L222.41 274.952C222.12 274.272 221.48 273.282 220.81 272.552L220.14 272.882ZM216.85 278.642L217.12 279.422C218.23 278.942 219.75 278.272 221.14 277.632L220.97 276.902C219.47 277.562 217.87 278.242 216.85 278.642ZM222.85 277.322C223.81 278.302 225.01 279.652 225.57 280.482L226.21 279.892C225.62 279.072 224.38 277.772 223.43 276.832L222.85 277.322ZM224.24 271.822C223.79 276.172 222.73 278.622 219.27 279.882C219.46 280.042 219.76 280.372 219.87 280.532C223.37 279.072 224.54 276.522 225.05 271.902L224.24 271.822ZM218.07 271.852L218.24 278.462L219.01 278.432L218.84 271.822L218.07 271.852ZM231.2 274.542V275.292H235.31V274.542H231.2ZM227.01 279.282V280.032H235.99V279.282H227.01ZM230.77 271.452V279.682H231.56V271.452H230.77Z" fill="#242424"/>
<path d="M254.256 248H254.742V252.864H254.256V248Z" fill="#D1D1D1"/>
<path d="M252.083 260.583H252.161V261.349H252.083C251.604 261.349 251.204 261.427 250.882 261.583C250.56 261.736 250.304 261.943 250.115 262.204C249.926 262.461 249.79 262.75 249.705 263.073C249.624 263.395 249.583 263.722 249.583 264.054V265.099C249.583 265.415 249.62 265.695 249.695 265.939C249.77 266.18 249.873 266.383 250.003 266.549C250.133 266.715 250.28 266.841 250.442 266.925C250.608 267.01 250.781 267.052 250.96 267.052C251.168 267.052 251.354 267.013 251.517 266.935C251.679 266.854 251.816 266.741 251.927 266.598C252.041 266.452 252.127 266.279 252.186 266.081C252.244 265.882 252.273 265.664 252.273 265.426C252.273 265.215 252.247 265.011 252.195 264.816C252.143 264.617 252.063 264.442 251.956 264.289C251.849 264.132 251.714 264.01 251.551 263.922C251.391 263.831 251.201 263.786 250.979 263.786C250.729 263.786 250.494 263.847 250.276 263.971C250.062 264.092 249.884 264.251 249.744 264.45C249.607 264.645 249.529 264.858 249.51 265.089L249.031 265.084C249.077 264.72 249.161 264.409 249.285 264.152C249.412 263.891 249.568 263.68 249.754 263.517C249.943 263.351 250.153 263.231 250.384 263.156C250.618 263.078 250.866 263.039 251.126 263.039C251.481 263.039 251.787 263.105 252.044 263.239C252.301 263.372 252.513 263.551 252.679 263.776C252.845 263.997 252.967 264.248 253.045 264.528C253.126 264.805 253.167 265.089 253.167 265.382C253.167 265.718 253.12 266.032 253.025 266.325C252.931 266.618 252.789 266.875 252.601 267.096C252.415 267.318 252.186 267.49 251.912 267.614C251.639 267.737 251.321 267.799 250.96 267.799C250.576 267.799 250.241 267.721 249.954 267.565C249.668 267.405 249.43 267.194 249.241 266.93C249.052 266.667 248.911 266.374 248.816 266.051C248.722 265.729 248.675 265.402 248.675 265.07V264.645C248.675 264.144 248.725 263.652 248.826 263.17C248.927 262.689 249.101 262.252 249.349 261.862C249.599 261.471 249.946 261.16 250.389 260.929C250.831 260.698 251.396 260.583 252.083 260.583ZM254.163 262.335V261.959C254.163 261.689 254.222 261.444 254.339 261.222C254.456 261.001 254.624 260.823 254.842 260.69C255.06 260.556 255.319 260.49 255.618 260.49C255.924 260.49 256.185 260.556 256.399 260.69C256.618 260.823 256.785 261.001 256.902 261.222C257.02 261.444 257.078 261.689 257.078 261.959V262.335C257.078 262.599 257.02 262.842 256.902 263.063C256.788 263.284 256.622 263.462 256.404 263.595C256.189 263.729 255.931 263.795 255.628 263.795C255.325 263.795 255.063 263.729 254.842 263.595C254.624 263.462 254.456 263.284 254.339 263.063C254.222 262.842 254.163 262.599 254.163 262.335ZM254.842 261.959V262.335C254.842 262.485 254.869 262.627 254.925 262.76C254.983 262.894 255.071 263.003 255.188 263.087C255.306 263.169 255.452 263.209 255.628 263.209C255.804 263.209 255.949 263.169 256.062 263.087C256.176 263.003 256.261 262.894 256.316 262.76C256.372 262.627 256.399 262.485 256.399 262.335V261.959C256.399 261.806 256.37 261.663 256.312 261.53C256.256 261.393 256.17 261.284 256.053 261.203C255.939 261.118 255.794 261.076 255.618 261.076C255.446 261.076 255.301 261.118 255.184 261.203C255.07 261.284 254.983 261.393 254.925 261.53C254.869 261.663 254.842 261.806 254.842 261.959ZM257.625 266.339V265.958C257.625 265.692 257.684 265.447 257.801 265.226C257.918 265.005 258.086 264.827 258.304 264.694C258.522 264.56 258.781 264.494 259.08 264.494C259.386 264.494 259.646 264.56 259.861 264.694C260.079 264.827 260.247 265.005 260.364 265.226C260.481 265.447 260.54 265.692 260.54 265.958V266.339C260.54 266.606 260.481 266.85 260.364 267.072C260.25 267.293 260.084 267.471 259.866 267.604C259.651 267.737 259.393 267.804 259.09 267.804C258.787 267.804 258.527 267.737 258.309 267.604C258.09 267.471 257.921 267.293 257.801 267.072C257.684 266.85 257.625 266.606 257.625 266.339ZM258.304 265.958V266.339C258.304 266.489 258.331 266.632 258.387 266.769C258.445 266.903 258.533 267.012 258.65 267.096C258.768 267.178 258.914 267.218 259.09 267.218C259.266 267.218 259.41 267.178 259.524 267.096C259.642 267.012 259.728 266.903 259.783 266.769C259.839 266.636 259.866 266.492 259.866 266.339V265.958C259.866 265.806 259.837 265.662 259.778 265.529C259.723 265.395 259.637 265.288 259.52 265.207C259.406 265.122 259.259 265.08 259.08 265.08C258.908 265.08 258.763 265.122 258.646 265.207C258.532 265.288 258.445 265.395 258.387 265.529C258.331 265.662 258.304 265.806 258.304 265.958ZM259.305 261.603L255.833 267.16L255.325 266.837L258.797 261.281L259.305 261.603ZM248.14 272.882C248.78 273.622 249.43 274.652 249.69 275.342L250.41 274.952C250.12 274.272 249.48 273.282 248.81 272.552L248.14 272.882ZM244.85 278.642L245.12 279.422C246.23 278.942 247.75 278.272 249.14 277.632L248.97 276.902C247.47 277.562 245.87 278.242 244.85 278.642ZM250.85 277.322C251.81 278.302 253.01 279.652 253.57 280.482L254.21 279.892C253.62 279.072 252.38 277.772 251.43 276.832L250.85 277.322ZM252.24 271.822C251.79 276.172 250.73 278.622 247.27 279.882C247.46 280.042 247.76 280.372 247.87 280.532C251.37 279.072 252.54 276.522 253.05 271.902L252.24 271.822ZM246.07 271.852L246.24 278.462L247.01 278.432L246.84 271.822L246.07 271.852ZM259.2 274.542V275.292H263.31V274.542H259.2ZM255.01 279.282V280.032H263.99V279.282H255.01ZM258.77 271.452V279.682H259.56V271.452H258.77Z" fill="#242424"/>
<path d="M282.256 248H282.742V252.864H282.256V248Z" fill="#D1D1D1"/>
<path d="M280.083 260.583H280.161V261.349H280.083C279.604 261.349 279.204 261.427 278.882 261.583C278.56 261.736 278.304 261.943 278.115 262.204C277.926 262.461 277.79 262.75 277.705 263.073C277.624 263.395 277.583 263.722 277.583 264.054V265.099C277.583 265.415 277.62 265.695 277.695 265.939C277.77 266.18 277.873 266.383 278.003 266.549C278.133 266.715 278.28 266.841 278.442 266.925C278.608 267.01 278.781 267.052 278.96 267.052C279.168 267.052 279.354 267.013 279.517 266.935C279.679 266.854 279.816 266.741 279.927 266.598C280.041 266.452 280.127 266.279 280.186 266.081C280.244 265.882 280.273 265.664 280.273 265.426C280.273 265.215 280.247 265.011 280.195 264.816C280.143 264.617 280.063 264.442 279.956 264.289C279.849 264.132 279.714 264.01 279.551 263.922C279.391 263.831 279.201 263.786 278.979 263.786C278.729 263.786 278.494 263.847 278.276 263.971C278.062 264.092 277.884 264.251 277.744 264.45C277.607 264.645 277.529 264.858 277.51 265.089L277.031 265.084C277.077 264.72 277.161 264.409 277.285 264.152C277.412 263.891 277.568 263.68 277.754 263.517C277.943 263.351 278.153 263.231 278.384 263.156C278.618 263.078 278.866 263.039 279.126 263.039C279.481 263.039 279.787 263.105 280.044 263.239C280.301 263.372 280.513 263.551 280.679 263.776C280.845 263.997 280.967 264.248 281.045 264.528C281.126 264.805 281.167 265.089 281.167 265.382C281.167 265.718 281.12 266.032 281.025 266.325C280.931 266.618 280.789 266.875 280.601 267.096C280.415 267.318 280.186 267.49 279.912 267.614C279.639 267.737 279.321 267.799 278.96 267.799C278.576 267.799 278.241 267.721 277.954 267.565C277.668 267.405 277.43 267.194 277.241 266.93C277.052 266.667 276.911 266.374 276.816 266.051C276.722 265.729 276.675 265.402 276.675 265.07V264.645C276.675 264.144 276.725 263.652 276.826 263.17C276.927 262.689 277.101 262.252 277.349 261.862C277.599 261.471 277.946 261.16 278.389 260.929C278.831 260.698 279.396 260.583 280.083 260.583ZM282.163 262.335V261.959C282.163 261.689 282.222 261.444 282.339 261.222C282.456 261.001 282.624 260.823 282.842 260.69C283.06 260.556 283.319 260.49 283.618 260.49C283.924 260.49 284.185 260.556 284.399 260.69C284.618 260.823 284.785 261.001 284.902 261.222C285.02 261.444 285.078 261.689 285.078 261.959V262.335C285.078 262.599 285.02 262.842 284.902 263.063C284.788 263.284 284.622 263.462 284.404 263.595C284.189 263.729 283.931 263.795 283.628 263.795C283.325 263.795 283.063 263.729 282.842 263.595C282.624 263.462 282.456 263.284 282.339 263.063C282.222 262.842 282.163 262.599 282.163 262.335ZM282.842 261.959V262.335C282.842 262.485 282.869 262.627 282.925 262.76C282.983 262.894 283.071 263.003 283.188 263.087C283.306 263.169 283.452 263.209 283.628 263.209C283.804 263.209 283.949 263.169 284.062 263.087C284.176 263.003 284.261 262.894 284.316 262.76C284.372 262.627 284.399 262.485 284.399 262.335V261.959C284.399 261.806 284.37 261.663 284.312 261.53C284.256 261.393 284.17 261.284 284.053 261.203C283.939 261.118 283.794 261.076 283.618 261.076C283.446 261.076 283.301 261.118 283.184 261.203C283.07 261.284 282.983 261.393 282.925 261.53C282.869 261.663 282.842 261.806 282.842 261.959ZM285.625 266.339V265.958C285.625 265.692 285.684 265.447 285.801 265.226C285.918 265.005 286.086 264.827 286.304 264.694C286.522 264.56 286.781 264.494 287.08 264.494C287.386 264.494 287.646 264.56 287.861 264.694C288.079 264.827 288.247 265.005 288.364 265.226C288.481 265.447 288.54 265.692 288.54 265.958V266.339C288.54 266.606 288.481 266.85 288.364 267.072C288.25 267.293 288.084 267.471 287.866 267.604C287.651 267.737 287.393 267.804 287.09 267.804C286.787 267.804 286.527 267.737 286.309 267.604C286.09 267.471 285.921 267.293 285.801 267.072C285.684 266.85 285.625 266.606 285.625 266.339ZM286.304 265.958V266.339C286.304 266.489 286.331 266.632 286.387 266.769C286.445 266.903 286.533 267.012 286.65 267.096C286.768 267.178 286.914 267.218 287.09 267.218C287.266 267.218 287.41 267.178 287.524 267.096C287.642 267.012 287.728 266.903 287.783 266.769C287.839 266.636 287.866 266.492 287.866 266.339V265.958C287.866 265.806 287.837 265.662 287.778 265.529C287.723 265.395 287.637 265.288 287.52 265.207C287.406 265.122 287.259 265.08 287.08 265.08C286.908 265.08 286.763 265.122 286.646 265.207C286.532 265.288 286.445 265.395 286.387 265.529C286.331 265.662 286.304 265.806 286.304 265.958ZM287.305 261.603L283.833 267.16L283.325 266.837L286.797 261.281L287.305 261.603ZM276.14 272.882C276.78 273.622 277.43 274.652 277.69 275.342L278.41 274.952C278.12 274.272 277.48 273.282 276.81 272.552L276.14 272.882ZM272.85 278.642L273.12 279.422C274.23 278.942 275.75 278.272 277.14 277.632L276.97 276.902C275.47 277.562 273.87 278.242 272.85 278.642ZM278.85 277.322C279.81 278.302 281.01 279.652 281.57 280.482L282.21 279.892C281.62 279.072 280.38 277.772 279.43 276.832L278.85 277.322ZM280.24 271.822C279.79 276.172 278.73 278.622 275.27 279.882C275.46 280.042 275.76 280.372 275.87 280.532C279.37 279.072 280.54 276.522 281.05 271.902L280.24 271.822ZM274.07 271.852L274.24 278.462L275.01 278.432L274.84 271.822L274.07 271.852ZM287.2 274.542V275.292H291.31V274.542H287.2ZM283.01 279.282V280.032H291.99V279.282H283.01ZM286.77 271.452V279.682H287.56V271.452H286.77Z" fill="#242424"/>
<path d="M310.256 248H310.742V252.864H310.256V248Z" fill="#D1D1D1"/>
<path d="M309.099 265.778C309.099 266.211 308.998 266.579 308.796 266.881C308.597 267.181 308.327 267.409 307.985 267.565C307.647 267.721 307.264 267.799 306.838 267.799C306.411 267.799 306.027 267.721 305.686 267.565C305.344 267.409 305.074 267.181 304.875 266.881C304.676 266.579 304.577 266.211 304.577 265.778C304.577 265.495 304.631 265.236 304.738 265.001C304.849 264.764 305.004 264.557 305.202 264.381C305.404 264.206 305.642 264.07 305.915 263.976C306.192 263.878 306.496 263.83 306.828 263.83C307.264 263.83 307.653 263.914 307.995 264.083C308.337 264.25 308.605 264.479 308.801 264.772C308.999 265.065 309.099 265.4 309.099 265.778ZM308.19 265.758C308.19 265.495 308.133 265.262 308.02 265.06C307.906 264.855 307.746 264.695 307.541 264.582C307.336 264.468 307.098 264.411 306.828 264.411C306.551 264.411 306.312 264.468 306.11 264.582C305.912 264.695 305.757 264.855 305.646 265.06C305.536 265.262 305.48 265.495 305.48 265.758C305.48 266.032 305.534 266.266 305.642 266.461C305.752 266.653 305.909 266.802 306.11 266.906C306.315 267.007 306.558 267.057 306.838 267.057C307.118 267.057 307.359 267.007 307.561 266.906C307.762 266.802 307.917 266.653 308.024 266.461C308.135 266.266 308.19 266.032 308.19 265.758ZM308.933 262.443C308.933 262.788 308.841 263.099 308.659 263.375C308.477 263.652 308.228 263.87 307.912 264.03C307.596 264.189 307.238 264.269 306.838 264.269C306.431 264.269 306.068 264.189 305.749 264.03C305.433 263.87 305.186 263.652 305.007 263.375C304.828 263.099 304.738 262.788 304.738 262.443C304.738 262.029 304.828 261.678 305.007 261.388C305.189 261.098 305.438 260.877 305.754 260.724C306.07 260.571 306.429 260.495 306.833 260.495C307.24 260.495 307.601 260.571 307.917 260.724C308.233 260.877 308.48 261.098 308.659 261.388C308.841 261.678 308.933 262.029 308.933 262.443ZM308.029 262.458C308.029 262.22 307.979 262.01 307.878 261.828C307.777 261.645 307.637 261.502 307.458 261.398C307.279 261.291 307.071 261.237 306.833 261.237C306.595 261.237 306.387 261.287 306.208 261.388C306.032 261.486 305.894 261.626 305.793 261.808C305.695 261.99 305.646 262.207 305.646 262.458C305.646 262.702 305.695 262.915 305.793 263.097C305.894 263.279 306.034 263.421 306.213 263.522C306.392 263.623 306.6 263.673 306.838 263.673C307.076 263.673 307.282 263.623 307.458 263.522C307.637 263.421 307.777 263.279 307.878 263.097C307.979 262.915 308.029 262.702 308.029 262.458ZM310.163 262.335V261.959C310.163 261.689 310.222 261.444 310.339 261.222C310.456 261.001 310.624 260.823 310.842 260.69C311.06 260.556 311.319 260.49 311.618 260.49C311.924 260.49 312.185 260.556 312.399 260.69C312.618 260.823 312.785 261.001 312.902 261.222C313.02 261.444 313.078 261.689 313.078 261.959V262.335C313.078 262.599 313.02 262.842 312.902 263.063C312.788 263.284 312.622 263.462 312.404 263.595C312.189 263.729 311.931 263.795 311.628 263.795C311.325 263.795 311.063 263.729 310.842 263.595C310.624 263.462 310.456 263.284 310.339 263.063C310.222 262.842 310.163 262.599 310.163 262.335ZM310.842 261.959V262.335C310.842 262.485 310.869 262.627 310.925 262.76C310.983 262.894 311.071 263.003 311.188 263.087C311.306 263.169 311.452 263.209 311.628 263.209C311.804 263.209 311.949 263.169 312.062 263.087C312.176 263.003 312.261 262.894 312.316 262.76C312.372 262.627 312.399 262.485 312.399 262.335V261.959C312.399 261.806 312.37 261.663 312.312 261.53C312.256 261.393 312.17 261.284 312.053 261.203C311.939 261.118 311.794 261.076 311.618 261.076C311.446 261.076 311.301 261.118 311.184 261.203C311.07 261.284 310.983 261.393 310.925 261.53C310.869 261.663 310.842 261.806 310.842 261.959ZM313.625 266.339V265.958C313.625 265.692 313.684 265.447 313.801 265.226C313.918 265.005 314.086 264.827 314.304 264.694C314.522 264.56 314.781 264.494 315.08 264.494C315.386 264.494 315.646 264.56 315.861 264.694C316.079 264.827 316.247 265.005 316.364 265.226C316.481 265.447 316.54 265.692 316.54 265.958V266.339C316.54 266.606 316.481 266.85 316.364 267.072C316.25 267.293 316.084 267.471 315.866 267.604C315.651 267.737 315.393 267.804 315.09 267.804C314.787 267.804 314.527 267.737 314.309 267.604C314.09 267.471 313.921 267.293 313.801 267.072C313.684 266.85 313.625 266.606 313.625 266.339ZM314.304 265.958V266.339C314.304 266.489 314.331 266.632 314.387 266.769C314.445 266.903 314.533 267.012 314.65 267.096C314.768 267.178 314.914 267.218 315.09 267.218C315.266 267.218 315.41 267.178 315.524 267.096C315.642 267.012 315.728 266.903 315.783 266.769C315.839 266.636 315.866 266.492 315.866 266.339V265.958C315.866 265.806 315.837 265.662 315.778 265.529C315.723 265.395 315.637 265.288 315.52 265.207C315.406 265.122 315.259 265.08 315.08 265.08C314.908 265.08 314.763 265.122 314.646 265.207C314.532 265.288 314.445 265.395 314.387 265.529C314.331 265.662 314.304 265.806 314.304 265.958ZM315.305 261.603L311.833 267.16L311.325 266.837L314.797 261.281L315.305 261.603ZM304.14 272.882C304.78 273.622 305.43 274.652 305.69 275.342L306.41 274.952C306.12 274.272 305.48 273.282 304.81 272.552L304.14 272.882ZM300.85 278.642L301.12 279.422C302.23 278.942 303.75 278.272 305.14 277.632L304.97 276.902C303.47 277.562 301.87 278.242 300.85 278.642ZM306.85 277.322C307.81 278.302 309.01 279.652 309.57 280.482L310.21 279.892C309.62 279.072 308.38 277.772 307.43 276.832L306.85 277.322ZM308.24 271.822C307.79 276.172 306.73 278.622 303.27 279.882C303.46 280.042 303.76 280.372 303.87 280.532C307.37 279.072 308.54 276.522 309.05 271.902L308.24 271.822ZM302.07 271.852L302.24 278.462L303.01 278.432L302.84 271.822L302.07 271.852ZM315.2 274.542V275.292H319.31V274.542H315.2ZM311.01 279.282V280.032H319.99V279.282H311.01ZM314.77 271.452V279.682H315.56V271.452H314.77Z" fill="#242424"/>
<path d="M338.256 248H338.742V252.864H338.256V248Z" fill="#D1D1D1"/>
<path d="M332.772 260.553V267.702H331.869V261.681L330.048 262.345V261.53L332.631 260.553H332.772ZM339.892 263.581V264.665C339.892 265.247 339.84 265.739 339.735 266.139C339.631 266.54 339.481 266.862 339.286 267.106C339.091 267.35 338.855 267.528 338.578 267.638C338.305 267.746 337.995 267.799 337.65 267.799C337.377 267.799 337.125 267.765 336.894 267.697C336.662 267.628 336.454 267.519 336.269 267.37C336.086 267.217 335.93 267.018 335.8 266.774C335.67 266.53 335.57 266.234 335.502 265.885C335.434 265.537 335.399 265.13 335.399 264.665V263.581C335.399 262.998 335.451 262.51 335.556 262.116C335.663 261.722 335.814 261.406 336.01 261.168C336.205 260.928 336.439 260.755 336.713 260.651C336.99 260.547 337.299 260.495 337.641 260.495C337.917 260.495 338.171 260.529 338.402 260.597C338.637 260.662 338.845 260.768 339.027 260.915C339.21 261.058 339.364 261.25 339.491 261.491C339.621 261.728 339.721 262.02 339.789 262.365C339.857 262.71 339.892 263.115 339.892 263.581ZM338.983 264.811V263.429C338.983 263.11 338.964 262.83 338.925 262.589C338.889 262.345 338.835 262.137 338.764 261.964C338.692 261.792 338.601 261.652 338.49 261.544C338.383 261.437 338.257 261.359 338.114 261.31C337.974 261.258 337.816 261.232 337.641 261.232C337.426 261.232 337.235 261.273 337.069 261.354C336.903 261.432 336.763 261.557 336.649 261.73C336.539 261.903 336.454 262.129 336.396 262.409C336.337 262.689 336.308 263.029 336.308 263.429V264.811C336.308 265.13 336.326 265.412 336.361 265.656C336.4 265.9 336.457 266.111 336.532 266.291C336.607 266.466 336.698 266.611 336.806 266.725C336.913 266.839 337.037 266.924 337.177 266.979C337.32 267.031 337.478 267.057 337.65 267.057C337.872 267.057 338.065 267.015 338.231 266.93C338.397 266.846 338.536 266.714 338.646 266.535C338.76 266.352 338.845 266.12 338.9 265.836C338.956 265.55 338.983 265.208 338.983 264.811ZM340.976 262.335V261.959C340.976 261.689 341.034 261.444 341.151 261.222C341.269 261.001 341.436 260.823 341.654 260.69C341.872 260.556 342.131 260.49 342.431 260.49C342.737 260.49 342.997 260.556 343.212 260.69C343.43 260.823 343.598 261.001 343.715 261.222C343.832 261.444 343.891 261.689 343.891 261.959V262.335C343.891 262.599 343.832 262.842 343.715 263.063C343.601 263.284 343.435 263.462 343.217 263.595C343.002 263.729 342.743 263.795 342.44 263.795C342.138 263.795 341.876 263.729 341.654 263.595C341.436 263.462 341.269 263.284 341.151 263.063C341.034 262.842 340.976 262.599 340.976 262.335ZM341.654 261.959V262.335C341.654 262.485 341.682 262.627 341.737 262.76C341.796 262.894 341.884 263.003 342.001 263.087C342.118 263.169 342.265 263.209 342.44 263.209C342.616 263.209 342.761 263.169 342.875 263.087C342.989 263.003 343.074 262.894 343.129 262.76C343.184 262.627 343.212 262.485 343.212 262.335V261.959C343.212 261.806 343.183 261.663 343.124 261.53C343.069 261.393 342.982 261.284 342.865 261.203C342.751 261.118 342.606 261.076 342.431 261.076C342.258 261.076 342.113 261.118 341.996 261.203C341.882 261.284 341.796 261.393 341.737 261.53C341.682 261.663 341.654 261.806 341.654 261.959ZM344.438 266.339V265.958C344.438 265.692 344.496 265.447 344.613 265.226C344.73 265.005 344.898 264.827 345.116 264.694C345.334 264.56 345.593 264.494 345.893 264.494C346.199 264.494 346.459 264.56 346.674 264.694C346.892 264.827 347.06 265.005 347.177 265.226C347.294 265.447 347.353 265.692 347.353 265.958V266.339C347.353 266.606 347.294 266.85 347.177 267.072C347.063 267.293 346.897 267.471 346.679 267.604C346.464 267.737 346.205 267.804 345.902 267.804C345.6 267.804 345.339 267.737 345.121 267.604C344.903 267.471 344.734 267.293 344.613 267.072C344.496 266.85 344.438 266.606 344.438 266.339ZM345.116 265.958V266.339C345.116 266.489 345.144 266.632 345.199 266.769C345.258 266.903 345.346 267.012 345.463 267.096C345.58 267.178 345.727 267.218 345.902 267.218C346.078 267.218 346.223 267.178 346.337 267.096C346.454 267.012 346.54 266.903 346.596 266.769C346.651 266.636 346.679 266.492 346.679 266.339V265.958C346.679 265.806 346.649 265.662 346.591 265.529C346.535 265.395 346.449 265.288 346.332 265.207C346.218 265.122 346.072 265.08 345.893 265.08C345.72 265.08 345.575 265.122 345.458 265.207C345.344 265.288 345.258 265.395 345.199 265.529C345.144 265.662 345.116 265.806 345.116 265.958ZM346.117 261.603L342.646 267.16L342.138 266.837L345.609 261.281L346.117 261.603ZM332.14 272.882C332.78 273.622 333.43 274.652 333.69 275.342L334.41 274.952C334.12 274.272 333.48 273.282 332.81 272.552L332.14 272.882ZM328.85 278.642L329.12 279.422C330.23 278.942 331.75 278.272 333.14 277.632L332.97 276.902C331.47 277.562 329.87 278.242 328.85 278.642ZM334.85 277.322C335.81 278.302 337.01 279.652 337.57 280.482L338.21 279.892C337.62 279.072 336.38 277.772 335.43 276.832L334.85 277.322ZM336.24 271.822C335.79 276.172 334.73 278.622 331.27 279.882C331.46 280.042 331.76 280.372 331.87 280.532C335.37 279.072 336.54 276.522 337.05 271.902L336.24 271.822ZM330.07 271.852L330.24 278.462L331.01 278.432L330.84 271.822L330.07 271.852ZM343.2 274.542V275.292H347.31V274.542H343.2ZM339.01 279.282V280.032H347.99V279.282H339.01ZM342.77 271.452V279.682H343.56V271.452H342.77Z" fill="#242424"/>
<path fill-rule="evenodd" clip-rule="evenodd" d="M83 247L83 237L92 237L92 247L83 247Z" fill="#69A6DF"/>
<path fill-rule="evenodd" clip-rule="evenodd" d="M97 247L97 236L106 236L106 247L97 247Z" fill="#69A6DF"/>
<path fill-rule="evenodd" clip-rule="evenodd" d="M111 247L111 236L120 236L120 247L111 247Z" fill="#69A6DF"/>
<path fill-rule="evenodd" clip-rule="evenodd" d="M125 247L125 230L134 230L134 247L125 247Z" fill="#69A6DF"/>
<path fill-rule="evenodd" clip-rule="evenodd" d="M139 247L139 219L148 219L148 247L139 247Z" fill="#69A6DF"/>
<path fill-rule="evenodd" clip-rule="evenodd" d="M153 247L153 197L162 197L162 247L153 247Z" fill="#69A6DF"/>
<path fill-rule="evenodd" clip-rule="evenodd" d="M167 247L167 130L176 130L176 247L167 247Z" fill="#69A6DF"/>
<path fill-rule="evenodd" clip-rule="evenodd" d="M181 246.723L181 91.7227L190 91.7227L190 246.723L181 246.723Z" fill="#69A6DF"/>
<path fill-rule="evenodd" clip-rule="evenodd" d="M195 247L195 115L204 115L204 247L195 247Z" fill="#69A6DF"/>
<path fill-rule="evenodd" clip-rule="evenodd" d="M209 247L209 133L218 133L218 247L209 247Z" fill="#69A6DF"/>
<path fill-rule="evenodd" clip-rule="evenodd" d="M223 247L223 147L232 147L232 247L223 247Z" fill="#69A6DF"/>
<path fill-rule="evenodd" clip-rule="evenodd" d="M237 247L237 166L246 166L246 247L237 247Z" fill="#E6413C"/>
<path fill-rule="evenodd" clip-rule="evenodd" d="M251 247L251 189L260 189L260 247L251 247Z" fill="#69A6DF"/>
<path fill-rule="evenodd" clip-rule="evenodd" d="M265 247L265 207L274 207L274 247L265 247Z" fill="#69A6DF"/>
<path fill-rule="evenodd" clip-rule="evenodd" d="M279 247L279 227L288 227L288 247L279 247Z" fill="#69A6DF"/>
<path fill-rule="evenodd" clip-rule="evenodd" d="M293 247L293 231L302 231L302 247L293 247Z" fill="#69A6DF"/>
<path fill-rule="evenodd" clip-rule="evenodd" d="M307 247L307 237L316 237L316 247L307 247Z" fill="#69A6DF"/>
<path fill-rule="evenodd" clip-rule="evenodd" d="M321 247L321 237L330 237L330 247L321 247Z" fill="#69A6DF"/>
<path d="M27 247.5L347 247.5" stroke="#004166" stroke-opacity="0.2" stroke-linejoin="round"/>
<path d="M10.2842 82.501H10.9287C11.2445 82.501 11.5049 82.4489 11.71 82.3447C11.9183 82.2373 12.0729 82.0924 12.1738 81.9102C12.278 81.7246 12.3301 81.5163 12.3301 81.2852C12.3301 81.0117 12.2845 80.7822 12.1934 80.5967C12.1022 80.4111 11.9655 80.2712 11.7832 80.1768C11.6009 80.0824 11.3698 80.0352 11.0898 80.0352C10.8359 80.0352 10.6113 80.0856 10.416 80.1865C10.224 80.2842 10.0726 80.4242 9.96191 80.6064C9.85449 80.7887 9.80078 81.0036 9.80078 81.251H8.89746C8.89746 80.8896 8.98861 80.5609 9.1709 80.2646C9.35319 79.9684 9.60872 79.7324 9.9375 79.5566C10.2695 79.3809 10.6536 79.293 11.0898 79.293C11.5195 79.293 11.8955 79.3695 12.2178 79.5225C12.54 79.6722 12.7907 79.8968 12.9697 80.1963C13.1488 80.4925 13.2383 80.862 13.2383 81.3047C13.2383 81.4837 13.196 81.6758 13.1113 81.8809C13.0299 82.0827 12.9014 82.2715 12.7256 82.4473C12.5531 82.623 12.3285 82.7679 12.0518 82.8818C11.7751 82.9925 11.443 83.0479 11.0557 83.0479H10.2842V82.501ZM10.2842 83.2432V82.7012H11.0557C11.5081 82.7012 11.8825 82.7549 12.1787 82.8623C12.4749 82.9697 12.7077 83.113 12.877 83.292C13.0495 83.471 13.1699 83.668 13.2383 83.8828C13.3099 84.0944 13.3457 84.306 13.3457 84.5176C13.3457 84.8496 13.2887 85.1442 13.1748 85.4014C13.0641 85.6585 12.9062 85.8766 12.7012 86.0557C12.4993 86.2347 12.2617 86.3698 11.9883 86.4609C11.7148 86.5521 11.417 86.5977 11.0947 86.5977C10.7855 86.5977 10.4941 86.5537 10.2207 86.4658C9.95052 86.3779 9.71126 86.251 9.50293 86.085C9.2946 85.9157 9.13184 85.709 9.01465 85.4648C8.89746 85.2174 8.83887 84.9359 8.83887 84.6201H9.74219C9.74219 84.8675 9.7959 85.084 9.90332 85.2695C10.014 85.4551 10.1702 85.5999 10.3721 85.7041C10.5771 85.805 10.818 85.8555 11.0947 85.8555C11.3714 85.8555 11.609 85.8083 11.8076 85.7139C12.0094 85.6162 12.1641 85.4697 12.2715 85.2744C12.3822 85.0791 12.4375 84.8333 12.4375 84.5371C12.4375 84.2409 12.3757 83.9984 12.252 83.8096C12.1283 83.6175 11.9525 83.4759 11.7246 83.3848C11.5 83.2904 11.2347 83.2432 10.9287 83.2432H10.2842ZM15.7334 83.1162L15.0107 82.9307L15.3672 79.3906H19.0146V80.2256H16.1338L15.9189 82.1592C16.0492 82.0843 16.2135 82.0143 16.4121 81.9492C16.6139 81.8841 16.8451 81.8516 17.1055 81.8516C17.4342 81.8516 17.7288 81.9085 17.9893 82.0225C18.2497 82.1331 18.471 82.2926 18.6533 82.501C18.8389 82.7093 18.9805 82.96 19.0781 83.2529C19.1758 83.5459 19.2246 83.873 19.2246 84.2344C19.2246 84.5762 19.1774 84.8903 19.083 85.1768C18.9919 85.4632 18.8535 85.7139 18.668 85.9287C18.4824 86.1403 18.248 86.3047 17.9648 86.4219C17.6849 86.5391 17.3545 86.5977 16.9736 86.5977C16.6872 86.5977 16.4154 86.5586 16.1582 86.4805C15.9043 86.3991 15.6764 86.277 15.4746 86.1143C15.276 85.9482 15.1133 85.7432 14.9863 85.499C14.8626 85.2516 14.7845 84.9619 14.752 84.6299H15.6113C15.6504 84.8968 15.7285 85.1214 15.8457 85.3037C15.9629 85.486 16.1159 85.6243 16.3047 85.7188C16.4967 85.8099 16.7197 85.8555 16.9736 85.8555C17.1885 85.8555 17.3789 85.818 17.5449 85.7432C17.7109 85.6683 17.8509 85.5609 17.9648 85.4209C18.0788 85.2809 18.165 85.1117 18.2236 84.9131C18.2855 84.7145 18.3164 84.4915 18.3164 84.2441C18.3164 84.0195 18.2855 83.8112 18.2236 83.6191C18.1618 83.4271 18.069 83.2594 17.9453 83.1162C17.8249 82.973 17.6768 82.8623 17.501 82.7842C17.3252 82.7028 17.1234 82.6621 16.8955 82.6621C16.5928 82.6621 16.3633 82.7028 16.207 82.7842C16.054 82.8656 15.8962 82.9762 15.7334 83.1162Z" fill="#242424"/>
<path d="M13.624 118.758V119.5H8.9707V118.851L11.2998 116.258C11.5863 115.939 11.8076 115.669 11.9639 115.447C12.1234 115.223 12.234 115.022 12.2959 114.847C12.361 114.668 12.3936 114.485 12.3936 114.3C12.3936 114.065 12.3447 113.854 12.2471 113.665C12.1527 113.473 12.0127 113.32 11.8271 113.206C11.6416 113.092 11.417 113.035 11.1533 113.035C10.8376 113.035 10.5739 113.097 10.3623 113.221C10.154 113.341 9.99772 113.51 9.89355 113.729C9.78939 113.947 9.7373 114.197 9.7373 114.48H8.83398C8.83398 114.08 8.92188 113.714 9.09766 113.382C9.27344 113.05 9.53385 112.786 9.87891 112.591C10.224 112.392 10.6488 112.293 11.1533 112.293C11.6025 112.293 11.9867 112.373 12.3057 112.532C12.6247 112.688 12.8688 112.91 13.0381 113.196C13.2106 113.479 13.2969 113.812 13.2969 114.192C13.2969 114.401 13.2611 114.612 13.1895 114.827C13.1211 115.039 13.0251 115.25 12.9014 115.462C12.7809 115.674 12.6393 115.882 12.4766 116.087C12.3171 116.292 12.1462 116.494 11.9639 116.692L10.0596 118.758H13.624ZM19.0732 117.576C19.0732 118.009 18.9723 118.377 18.7705 118.68C18.5719 118.979 18.3018 119.207 17.96 119.363C17.6214 119.52 17.2389 119.598 16.8125 119.598C16.3861 119.598 16.002 119.52 15.6602 119.363C15.3184 119.207 15.0482 118.979 14.8496 118.68C14.651 118.377 14.5518 118.009 14.5518 117.576C14.5518 117.293 14.6055 117.034 14.7129 116.8C14.8236 116.562 14.9782 116.355 15.1768 116.18C15.3786 116.004 15.6162 115.869 15.8896 115.774C16.1663 115.677 16.4707 115.628 16.8027 115.628C17.2389 115.628 17.6279 115.713 17.9697 115.882C18.3115 116.048 18.5801 116.277 18.7754 116.57C18.974 116.863 19.0732 117.199 19.0732 117.576ZM18.165 117.557C18.165 117.293 18.1081 117.06 17.9941 116.858C17.8802 116.653 17.7207 116.494 17.5156 116.38C17.3105 116.266 17.0729 116.209 16.8027 116.209C16.526 116.209 16.2868 116.266 16.085 116.38C15.8864 116.494 15.7318 116.653 15.6211 116.858C15.5104 117.06 15.4551 117.293 15.4551 117.557C15.4551 117.83 15.5088 118.064 15.6162 118.26C15.7269 118.452 15.8831 118.6 16.085 118.704C16.29 118.805 16.5326 118.855 16.8125 118.855C17.0924 118.855 17.3333 118.805 17.5352 118.704C17.737 118.6 17.8916 118.452 17.999 118.26C18.1097 118.064 18.165 117.83 18.165 117.557ZM18.9072 114.241C18.9072 114.586 18.8161 114.897 18.6338 115.174C18.4515 115.451 18.2025 115.669 17.8867 115.828C17.571 115.988 17.2129 116.067 16.8125 116.067C16.4056 116.067 16.0426 115.988 15.7236 115.828C15.4079 115.669 15.1605 115.451 14.9814 115.174C14.8024 114.897 14.7129 114.586 14.7129 114.241C14.7129 113.828 14.8024 113.476 14.9814 113.187C15.1637 112.897 15.4128 112.675 15.7285 112.522C16.0443 112.369 16.404 112.293 16.8076 112.293C17.2145 112.293 17.5758 112.369 17.8916 112.522C18.2074 112.675 18.4548 112.897 18.6338 113.187C18.8161 113.476 18.9072 113.828 18.9072 114.241ZM18.0039 114.256C18.0039 114.018 17.9535 113.808 17.8525 113.626C17.7516 113.444 17.6117 113.3 17.4326 113.196C17.2536 113.089 17.0452 113.035 16.8076 113.035C16.57 113.035 16.3617 113.086 16.1826 113.187C16.0068 113.284 15.8685 113.424 15.7676 113.606C15.6699 113.789 15.6211 114.005 15.6211 114.256C15.6211 114.5 15.6699 114.713 15.7676 114.896C15.8685 115.078 16.0085 115.219 16.1875 115.32C16.3665 115.421 16.5749 115.472 16.8125 115.472C17.0501 115.472 17.2568 115.421 17.4326 115.32C17.6117 115.219 17.7516 115.078 17.8525 114.896C17.9535 114.713 18.0039 114.5 18.0039 114.256Z" fill="#242424"/>
<path d="M13.624 151.758V152.5H8.9707V151.851L11.2998 149.258C11.5863 148.939 11.8076 148.669 11.9639 148.447C12.1234 148.223 12.234 148.022 12.2959 147.847C12.361 147.668 12.3936 147.485 12.3936 147.3C12.3936 147.065 12.3447 146.854 12.2471 146.665C12.1527 146.473 12.0127 146.32 11.8271 146.206C11.6416 146.092 11.417 146.035 11.1533 146.035C10.8376 146.035 10.5739 146.097 10.3623 146.221C10.154 146.341 9.99772 146.51 9.89355 146.729C9.78939 146.947 9.7373 147.197 9.7373 147.48H8.83398C8.83398 147.08 8.92188 146.714 9.09766 146.382C9.27344 146.05 9.53385 145.786 9.87891 145.591C10.224 145.392 10.6488 145.293 11.1533 145.293C11.6025 145.293 11.9867 145.373 12.3057 145.532C12.6247 145.688 12.8688 145.91 13.0381 146.196C13.2106 146.479 13.2969 146.812 13.2969 147.192C13.2969 147.401 13.2611 147.612 13.1895 147.827C13.1211 148.039 13.0251 148.25 12.9014 148.462C12.7809 148.674 12.6393 148.882 12.4766 149.087C12.3171 149.292 12.1462 149.494 11.9639 149.692L10.0596 151.758H13.624ZM17.5596 145.352V152.5H16.6562V146.479L14.835 147.144V146.328L17.418 145.352H17.5596Z" fill="#242424"/>
<path d="M11.9346 178.352V185.5H11.0312V179.479L9.20996 180.144V179.328L11.793 178.352H11.9346ZM19.3955 183.107V183.85H14.2588V183.317L17.4424 178.391H18.1797L17.3887 179.816L15.2842 183.107H19.3955ZM18.4043 178.391V185.5H17.501V178.391H18.4043Z" fill="#242424"/>
<path d="M19.373 211.391V211.898L16.4287 218.5H15.4766L18.416 212.133H14.5684V211.391H19.373Z" fill="#242424"/>
<path d="M19.2412 247.379V248.463C19.2412 249.046 19.1891 249.537 19.085 249.938C18.9808 250.338 18.8311 250.66 18.6357 250.904C18.4404 251.148 18.2044 251.326 17.9277 251.437C17.6543 251.544 17.3451 251.598 17 251.598C16.7266 251.598 16.4743 251.563 16.2432 251.495C16.012 251.427 15.8037 251.318 15.6182 251.168C15.4359 251.015 15.2796 250.816 15.1494 250.572C15.0192 250.328 14.9199 250.032 14.8516 249.684C14.7832 249.335 14.749 248.928 14.749 248.463V247.379C14.749 246.796 14.8011 246.308 14.9053 245.914C15.0127 245.52 15.1641 245.204 15.3594 244.967C15.5547 244.726 15.7891 244.553 16.0625 244.449C16.3392 244.345 16.6484 244.293 16.9902 244.293C17.2669 244.293 17.5208 244.327 17.752 244.396C17.9863 244.461 18.1947 244.566 18.377 244.713C18.5592 244.856 18.7139 245.048 18.8408 245.289C18.971 245.527 19.0703 245.818 19.1387 246.163C19.207 246.508 19.2412 246.913 19.2412 247.379ZM18.333 248.609V247.228C18.333 246.909 18.3135 246.629 18.2744 246.388C18.2386 246.144 18.1849 245.935 18.1133 245.763C18.0417 245.59 17.9505 245.45 17.8398 245.343C17.7324 245.235 17.6071 245.157 17.4639 245.108C17.3239 245.056 17.166 245.03 16.9902 245.03C16.7754 245.03 16.585 245.071 16.4189 245.152C16.2529 245.23 16.113 245.356 15.999 245.528C15.8883 245.701 15.8037 245.927 15.7451 246.207C15.6865 246.487 15.6572 246.827 15.6572 247.228V248.609C15.6572 248.928 15.6751 249.21 15.7109 249.454C15.75 249.698 15.807 249.91 15.8818 250.089C15.9567 250.265 16.0479 250.41 16.1553 250.523C16.2627 250.637 16.3864 250.722 16.5264 250.777C16.6696 250.829 16.8275 250.855 17 250.855C17.2214 250.855 17.415 250.813 17.5811 250.729C17.7471 250.644 17.8854 250.512 17.9961 250.333C18.11 250.151 18.1947 249.918 18.25 249.635C18.3053 249.348 18.333 249.007 18.333 248.609Z" fill="#242424"/>
</svg>
